M48
;DRILL file {KiCad (6.0.0-rc1-dev-882-gdbc9130da)} date 2019/10/11 13:43:29
;FORMAT={-:-/ absolute / metric / decimal}
FMAT,2
METRIC
T1C0.400
T2C0.700
T3C0.800
T4C0.900
T5C1.200
T6C1.300
T7C1.400
T8C3.500
%
G90
G05
M71
T1
X64.77Y-79.629
X66.548Y-78.232
X67.71Y-71.755
X68.834Y-67.31
X68.859Y-87.376
X70.612Y-76.454
X70.866Y-78.232
X71.374Y-71.374
X72.136Y-94.996
X73.152Y-92.456
X73.152Y-88.392
X76.2Y-64.986
X76.708Y-75.438
X77.978Y-59.436
X77.978Y-77.47
X78.994Y-69.342
X79.502Y-53.848
X79.502Y-62.23
X79.756Y-58.928
X80.518Y-80.518
X80.518Y-83.058
X81.28Y-60.706
X81.28Y-77.978
X83.312Y-84.582
X85.09Y-80.137
X86.614Y-85.852
X88.138Y-66.782
X88.138Y-68.598
X89.662Y-70.866
X97.155Y-63.5
X97.155Y-65.151
X97.155Y-66.802
X97.155Y-68.453
X97.155Y-70.104
X97.155Y-71.882
X99.06Y-63.5
X99.06Y-65.151
X99.06Y-66.802
X99.06Y-68.453
X99.06Y-70.104
X99.06Y-71.882
X100.33Y-77.47
X100.33Y-79.17
X100.33Y-80.87
X100.33Y-82.57
X100.711Y-63.5
X100.711Y-65.151
X100.711Y-66.802
X100.711Y-68.453
X100.711Y-70.104
X100.711Y-71.882
X102.03Y-77.47
X102.03Y-79.17
X102.03Y-80.87
X102.03Y-82.57
X102.489Y-63.5
X102.489Y-65.151
X102.489Y-66.802
X102.489Y-68.453
X102.489Y-70.104
X102.489Y-71.882
X103.73Y-77.47
X103.73Y-79.17
X103.73Y-80.87
X103.73Y-82.57
X104.394Y-63.5
X104.394Y-65.151
X104.394Y-66.802
X104.394Y-68.438
X104.394Y-70.104
X104.394Y-71.882
X105.43Y-77.47
X105.43Y-79.17
X105.43Y-80.87
X105.43Y-82.57
X107.13Y-77.47
X107.13Y-79.17
X107.13Y-80.87
X107.13Y-82.57
X92.943Y-53.812
X92.943Y-56.188
X95.0Y-52.625
X95.0Y-57.375
X97.057Y-53.812
X97.057Y-56.188
X52.943Y-93.812
X52.943Y-96.188
X55.0Y-92.625
X55.0Y-97.375
X57.057Y-93.812
X57.057Y-96.188
X122.943Y-93.812
X122.943Y-96.188
X125.0Y-92.625
X125.0Y-97.375
X127.057Y-93.812
X127.057Y-96.188
X52.943Y-53.812
X52.943Y-56.188
X55.0Y-52.625
X55.0Y-57.375
X57.057Y-53.812
X57.057Y-56.188
T2
X88.138Y-77.724
X90.678Y-75.184
X93.218Y-77.724
T3
X101.219Y-96.266
X103.759Y-87.376
X105.86Y-95.0
X105.918Y-87.376
X110.744Y-91.44
X123.571Y-76.454
X123.571Y-80.899
X123.571Y-85.09
X118.618Y-91.734
X118.618Y-94.234
T4
X53.086Y-60.96
X53.086Y-63.5
T5
X98.806Y-87.884
X101.346Y-87.884
T6
X54.61Y-74.93
X54.61Y-79.93
X54.61Y-84.93
X59.61Y-74.93
X59.61Y-79.93
X59.61Y-84.93
T7
X64.262Y-60.198
X69.342Y-60.198
X118.745Y-60.198
X118.745Y-67.818
X87.63Y-89.662
X92.71Y-89.662
X118.872Y-77.724
X118.872Y-85.344
T8
X95.0Y-55.0
X55.0Y-95.0
X125.0Y-95.0
X55.0Y-55.0
T3
G00X110.736Y-53.4
M15
G01X109.736Y-53.4
M16
G05
G00X110.736Y-60.9
M15
G01X109.736Y-60.9
M16
G05
G00X110.736Y-77.9
M15
G01X109.736Y-77.9
M16
G05
G00X110.736Y-85.4
M15
G01X109.736Y-85.4
M16
G05
T0
M30
