%TF.GenerationSoftware,KiCad,Pcbnew,(6.0.0-rc1-dev-882-gdbc9130da)*%
%TF.CreationDate,2019-10-11T13:43:29+08:00*%
%TF.ProjectId,SoftDimmableLamp,536F667444696D6D61626C654C616D70,rev?*%
%TF.SameCoordinates,Original*%
%TF.FileFunction,Paste,Top*%
%TF.FilePolarity,Positive*%
%FSLAX46Y46*%
G04 Gerber Fmt 4.6, Leading zero omitted, Abs format (unit mm)*
G04 Created by KiCad (PCBNEW (6.0.0-rc1-dev-882-gdbc9130da)) date 2019/10/11 13:43:29*
%MOMM*%
%LPD*%
G01*
G04 APERTURE LIST*
%ADD10R,0.900000X1.500000*%
%ADD11R,2.000000X2.000000*%
%ADD12R,1.160000X1.470000*%
%ADD13R,0.700000X1.250000*%
%ADD14R,1.200000X2.200000*%
%ADD15R,6.000000X6.499990*%
%ADD16R,1.250000X0.700000*%
%ADD17O,1.800000X0.700000*%
%ADD18O,0.700000X1.800000*%
%ADD19O,0.700000X1.900000*%
%ADD20O,2.000000X3.500000*%
%ADD21O,0.700000X2.100000*%
%ADD22R,1.470000X1.160000*%
%ADD23R,1.000000X1.250000*%
G04 APERTURE END LIST*
D10*
X107668000Y-97536000D03*
X104168000Y-97536000D03*
D11*
X97028000Y-82872000D03*
X97028000Y-78672000D03*
D12*
X78106000Y-53086000D03*
X76326000Y-53086000D03*
X74804000Y-64008000D03*
X73024000Y-64008000D03*
X77596000Y-64008000D03*
X79376000Y-64008000D03*
X82676000Y-53594000D03*
X84456000Y-53594000D03*
X82422000Y-56388000D03*
X84202000Y-56388000D03*
X81026000Y-64008000D03*
X82806000Y-64008000D03*
D13*
X76962000Y-55646000D03*
X77912000Y-58146000D03*
X76012000Y-58146000D03*
X83820000Y-59456000D03*
X84770000Y-61956000D03*
X82870000Y-61956000D03*
D12*
X75182000Y-61214000D03*
X76962000Y-61214000D03*
D14*
X102437290Y-75321830D03*
D15*
X100076000Y-68326000D03*
D14*
X97714740Y-75326000D03*
D16*
X82784000Y-68580000D03*
X80284000Y-69530000D03*
X80284000Y-67630000D03*
D11*
X113792000Y-94302000D03*
X113792000Y-90102000D03*
D13*
X85852000Y-68600000D03*
X86802000Y-71100000D03*
X84902000Y-71100000D03*
D17*
X75498000Y-88265000D03*
X75498000Y-89535000D03*
X75498000Y-90805000D03*
X75498000Y-92075000D03*
X70298000Y-92075000D03*
X70298000Y-90805000D03*
X70298000Y-89535000D03*
X70298000Y-88265000D03*
D18*
X73025000Y-72330000D03*
X74295000Y-72330000D03*
X75565000Y-72330000D03*
X76835000Y-72330000D03*
X76835000Y-77530000D03*
X75565000Y-77530000D03*
X74295000Y-77530000D03*
X73025000Y-77530000D03*
D19*
X107418000Y-92924000D03*
D20*
X105918000Y-90424000D03*
D21*
X105918000Y-92824000D03*
D19*
X104418000Y-92924000D03*
D22*
X77470000Y-67690000D03*
X77470000Y-69470000D03*
X74168000Y-69342000D03*
X74168000Y-67562000D03*
D12*
X84200000Y-82042000D03*
X85980000Y-82042000D03*
D22*
X87884000Y-85726000D03*
X87884000Y-83946000D03*
X66802000Y-90552000D03*
X66802000Y-88772000D03*
X78994000Y-89536000D03*
X78994000Y-87756000D03*
X90170000Y-69470000D03*
X90170000Y-67690000D03*
D12*
X53212000Y-66040000D03*
X54992000Y-66040000D03*
X83184000Y-73152000D03*
X84964000Y-73152000D03*
X78996000Y-80518000D03*
X77216000Y-80518000D03*
X75184000Y-80518000D03*
X73404000Y-80518000D03*
D13*
X69342000Y-71100000D03*
X68392000Y-68600000D03*
X70292000Y-68600000D03*
D16*
X85070000Y-76962000D03*
X82570000Y-77912000D03*
X82570000Y-76012000D03*
D23*
X82296000Y-91997000D03*
X82296000Y-94947000D03*
X79756000Y-94947000D03*
X79756000Y-91997000D03*
D12*
X92584000Y-85598000D03*
X90804000Y-85598000D03*
X73786000Y-94996000D03*
X75566000Y-94996000D03*
X78994000Y-83058000D03*
X77214000Y-83058000D03*
D22*
X70612000Y-73278000D03*
X70612000Y-75058000D03*
X101092000Y-94362000D03*
X101092000Y-92582000D03*
X110744000Y-93344000D03*
X110744000Y-95124000D03*
M02*
