%TF.GenerationSoftware,KiCad,Pcbnew,(6.0.0-rc1-dev-882-gdbc9130da)*%
%TF.CreationDate,2019-10-11T13:43:29+08:00*%
%TF.ProjectId,SoftDimmableLamp,536F667444696D6D61626C654C616D70,rev?*%
%TF.SameCoordinates,Original*%
%TF.FileFunction,Soldermask,Bot*%
%TF.FilePolarity,Negative*%
%FSLAX46Y46*%
G04 Gerber Fmt 4.6, Leading zero omitted, Abs format (unit mm)*
G04 Created by KiCad (PCBNEW (6.0.0-rc1-dev-882-gdbc9130da)) date 2019/10/11 13:43:29*
%MOMM*%
%LPD*%
G01*
G04 APERTURE LIST*
%ADD10C,0.350000*%
G04 APERTURE END LIST*
D10*
G36*
X125889941Y-92066248D02*
X125889943Y-92066249D01*
X125889944Y-92066249D01*
X126445190Y-92296239D01*
X126740334Y-92493448D01*
X126944902Y-92630136D01*
X127369864Y-93055098D01*
X127369866Y-93055101D01*
X127703761Y-93554810D01*
X127864990Y-93944052D01*
X127933752Y-94110059D01*
X128051000Y-94699501D01*
X128051000Y-95300499D01*
X127944246Y-95837186D01*
X127933751Y-95889944D01*
X127703761Y-96445190D01*
X127608892Y-96587171D01*
X127369864Y-96944902D01*
X126944902Y-97369864D01*
X126944899Y-97369866D01*
X126445190Y-97703761D01*
X125889944Y-97933751D01*
X125889943Y-97933751D01*
X125889941Y-97933752D01*
X125300499Y-98051000D01*
X124699501Y-98051000D01*
X124110059Y-97933752D01*
X124110057Y-97933751D01*
X124110056Y-97933751D01*
X123554810Y-97703761D01*
X123055101Y-97369866D01*
X123055098Y-97369864D01*
X122630136Y-96944902D01*
X122391108Y-96587171D01*
X122296239Y-96445190D01*
X122066249Y-95889944D01*
X122055755Y-95837186D01*
X121949000Y-95300499D01*
X121949000Y-94699501D01*
X122066248Y-94110059D01*
X122135010Y-93944052D01*
X122296239Y-93554810D01*
X122630134Y-93055101D01*
X122630136Y-93055098D01*
X123055098Y-92630136D01*
X123259666Y-92493448D01*
X123554810Y-92296239D01*
X124110056Y-92066249D01*
X124110057Y-92066249D01*
X124110059Y-92066248D01*
X124699501Y-91949000D01*
X125300499Y-91949000D01*
X125889941Y-92066248D01*
X125889941Y-92066248D01*
G37*
G36*
X55889941Y-92066248D02*
X55889943Y-92066249D01*
X55889944Y-92066249D01*
X56445190Y-92296239D01*
X56740334Y-92493448D01*
X56944902Y-92630136D01*
X57369864Y-93055098D01*
X57369866Y-93055101D01*
X57703761Y-93554810D01*
X57864990Y-93944052D01*
X57933752Y-94110059D01*
X58051000Y-94699501D01*
X58051000Y-95300499D01*
X57944246Y-95837186D01*
X57933751Y-95889944D01*
X57703761Y-96445190D01*
X57608892Y-96587171D01*
X57369864Y-96944902D01*
X56944902Y-97369864D01*
X56944899Y-97369866D01*
X56445190Y-97703761D01*
X55889944Y-97933751D01*
X55889943Y-97933751D01*
X55889941Y-97933752D01*
X55300499Y-98051000D01*
X54699501Y-98051000D01*
X54110059Y-97933752D01*
X54110057Y-97933751D01*
X54110056Y-97933751D01*
X53554810Y-97703761D01*
X53055101Y-97369866D01*
X53055098Y-97369864D01*
X52630136Y-96944902D01*
X52391108Y-96587171D01*
X52296239Y-96445190D01*
X52066249Y-95889944D01*
X52055755Y-95837186D01*
X51949000Y-95300499D01*
X51949000Y-94699501D01*
X52066248Y-94110059D01*
X52135010Y-93944052D01*
X52296239Y-93554810D01*
X52630134Y-93055101D01*
X52630136Y-93055098D01*
X53055098Y-92630136D01*
X53259666Y-92493448D01*
X53554810Y-92296239D01*
X54110056Y-92066249D01*
X54110057Y-92066249D01*
X54110059Y-92066248D01*
X54699501Y-91949000D01*
X55300499Y-91949000D01*
X55889941Y-92066248D01*
X55889941Y-92066248D01*
G37*
G36*
X119469000Y-95085000D02*
X117767000Y-95085000D01*
X117767000Y-93383000D01*
X119469000Y-93383000D01*
X119469000Y-95085000D01*
X119469000Y-95085000D01*
G37*
G36*
X118866228Y-90915703D02*
X119021100Y-90979853D01*
X119160481Y-91072985D01*
X119279015Y-91191519D01*
X119372147Y-91330900D01*
X119436297Y-91485772D01*
X119469000Y-91650184D01*
X119469000Y-91817816D01*
X119436297Y-91982228D01*
X119372147Y-92137100D01*
X119279015Y-92276481D01*
X119160481Y-92395015D01*
X119021100Y-92488147D01*
X118866228Y-92552297D01*
X118701816Y-92585000D01*
X118534184Y-92585000D01*
X118369772Y-92552297D01*
X118214900Y-92488147D01*
X118075519Y-92395015D01*
X117956985Y-92276481D01*
X117863853Y-92137100D01*
X117799703Y-91982228D01*
X117767000Y-91817816D01*
X117767000Y-91650184D01*
X117799703Y-91485772D01*
X117863853Y-91330900D01*
X117956985Y-91191519D01*
X118075519Y-91072985D01*
X118214900Y-90979853D01*
X118369772Y-90915703D01*
X118534184Y-90883000D01*
X118701816Y-90883000D01*
X118866228Y-90915703D01*
X118866228Y-90915703D01*
G37*
G36*
X92923869Y-87826786D02*
X92923872Y-87826787D01*
X93129526Y-87889171D01*
X93129528Y-87889172D01*
X93129531Y-87889173D01*
X93319059Y-87990477D01*
X93485186Y-88126814D01*
X93621523Y-88292940D01*
X93722827Y-88482468D01*
X93722827Y-88482469D01*
X93722829Y-88482473D01*
X93754885Y-88588148D01*
X93785214Y-88688130D01*
X93801000Y-88848408D01*
X93801000Y-90475592D01*
X93785214Y-90635870D01*
X93722827Y-90841532D01*
X93621523Y-91031060D01*
X93485186Y-91197186D01*
X93319060Y-91333523D01*
X93129532Y-91434827D01*
X93129529Y-91434828D01*
X93129527Y-91434829D01*
X92961589Y-91485772D01*
X92923870Y-91497214D01*
X92710000Y-91518278D01*
X92496131Y-91497214D01*
X92458412Y-91485772D01*
X92290474Y-91434829D01*
X92290472Y-91434828D01*
X92290469Y-91434827D01*
X92100941Y-91333523D01*
X91934815Y-91197186D01*
X91798478Y-91031060D01*
X91697171Y-90841527D01*
X91634786Y-90635875D01*
X91619000Y-90475592D01*
X91619000Y-88848409D01*
X91634786Y-88688131D01*
X91644577Y-88655854D01*
X91697171Y-88482474D01*
X91697172Y-88482472D01*
X91697173Y-88482469D01*
X91798477Y-88292941D01*
X91934814Y-88126814D01*
X92100940Y-87990477D01*
X92290468Y-87889173D01*
X92290471Y-87889172D01*
X92290473Y-87889171D01*
X92496127Y-87826787D01*
X92496130Y-87826786D01*
X92710000Y-87805722D01*
X92923869Y-87826786D01*
X92923869Y-87826786D01*
G37*
G36*
X88721000Y-91513000D02*
X86539000Y-91513000D01*
X86539000Y-87811000D01*
X88721000Y-87811000D01*
X88721000Y-91513000D01*
X88721000Y-91513000D01*
G37*
G36*
X99012032Y-86548207D02*
X99210146Y-86608305D01*
X99392729Y-86705897D01*
X99552765Y-86837235D01*
X99684103Y-86997271D01*
X99729531Y-87082261D01*
X99781695Y-87179853D01*
X99811744Y-87278912D01*
X99841793Y-87377969D01*
X99857000Y-87532371D01*
X99857000Y-88235630D01*
X99841793Y-88390032D01*
X99781695Y-88588146D01*
X99684103Y-88770729D01*
X99684101Y-88770731D01*
X99552768Y-88930762D01*
X99552766Y-88930763D01*
X99552765Y-88930765D01*
X99392729Y-89062103D01*
X99210145Y-89159695D01*
X99012031Y-89219793D01*
X98806000Y-89240085D01*
X98599968Y-89219793D01*
X98401854Y-89159695D01*
X98219271Y-89062103D01*
X98155257Y-89009568D01*
X98059238Y-88930768D01*
X98059237Y-88930766D01*
X98059235Y-88930765D01*
X97927897Y-88770729D01*
X97830305Y-88588145D01*
X97770207Y-88390031D01*
X97755000Y-88235629D01*
X97755000Y-87532370D01*
X97770207Y-87377968D01*
X97810273Y-87245892D01*
X97830306Y-87179852D01*
X97927899Y-86997269D01*
X98059236Y-86837235D01*
X98219270Y-86705899D01*
X98219272Y-86705897D01*
X98401855Y-86608305D01*
X98599969Y-86548207D01*
X98806000Y-86527915D01*
X99012032Y-86548207D01*
X99012032Y-86548207D01*
G37*
G36*
X102397000Y-89235000D02*
X100295000Y-89235000D01*
X100295000Y-86533000D01*
X102397000Y-86533000D01*
X102397000Y-89235000D01*
X102397000Y-89235000D01*
G37*
G36*
X110814435Y-84351640D02*
X110942032Y-84364207D01*
X111140146Y-84424305D01*
X111322729Y-84521897D01*
X111482765Y-84653235D01*
X111614103Y-84813271D01*
X111711695Y-84995854D01*
X111771793Y-85193968D01*
X111792085Y-85400000D01*
X111771793Y-85606032D01*
X111711695Y-85804146D01*
X111614103Y-85986729D01*
X111482765Y-86146765D01*
X111322729Y-86278103D01*
X111140146Y-86375695D01*
X110942032Y-86435793D01*
X110818510Y-86447959D01*
X110787631Y-86451000D01*
X109684369Y-86451000D01*
X109653490Y-86447959D01*
X109529968Y-86435793D01*
X109331854Y-86375695D01*
X109149271Y-86278103D01*
X108989235Y-86146765D01*
X108857897Y-85986729D01*
X108760305Y-85804146D01*
X108700207Y-85606032D01*
X108679915Y-85400000D01*
X108700207Y-85193968D01*
X108760305Y-84995854D01*
X108857897Y-84813271D01*
X108989235Y-84653235D01*
X109149271Y-84521897D01*
X109331854Y-84424305D01*
X109529968Y-84364207D01*
X109657565Y-84351640D01*
X109684369Y-84349000D01*
X110787631Y-84349000D01*
X110814435Y-84351640D01*
X110814435Y-84351640D01*
G37*
G36*
X120723000Y-86445000D02*
X117021000Y-86445000D01*
X117021000Y-84243000D01*
X120723000Y-84243000D01*
X120723000Y-86445000D01*
X120723000Y-86445000D01*
G37*
G36*
X54848205Y-83732461D02*
X54966153Y-83755922D01*
X55058194Y-83794047D01*
X55188359Y-83847963D01*
X55388345Y-83981589D01*
X55558411Y-84151655D01*
X55692037Y-84351641D01*
X55784078Y-84573848D01*
X55831000Y-84809741D01*
X55831000Y-85050259D01*
X55784078Y-85286152D01*
X55692037Y-85508359D01*
X55558411Y-85708345D01*
X55388345Y-85878411D01*
X55188359Y-86012037D01*
X55058194Y-86065953D01*
X54966153Y-86104078D01*
X54848205Y-86127539D01*
X54730259Y-86151000D01*
X54489741Y-86151000D01*
X54371795Y-86127539D01*
X54253847Y-86104078D01*
X54161806Y-86065953D01*
X54031641Y-86012037D01*
X53831655Y-85878411D01*
X53661589Y-85708345D01*
X53527963Y-85508359D01*
X53435922Y-85286152D01*
X53389000Y-85050259D01*
X53389000Y-84809741D01*
X53435922Y-84573848D01*
X53527963Y-84351641D01*
X53661589Y-84151655D01*
X53831655Y-83981589D01*
X54031641Y-83847963D01*
X54161806Y-83794047D01*
X54253847Y-83755922D01*
X54371795Y-83732461D01*
X54489741Y-83709000D01*
X54730259Y-83709000D01*
X54848205Y-83732461D01*
X54848205Y-83732461D01*
G37*
G36*
X59848205Y-83732461D02*
X59966153Y-83755922D01*
X60058194Y-83794047D01*
X60188359Y-83847963D01*
X60388345Y-83981589D01*
X60558411Y-84151655D01*
X60692037Y-84351641D01*
X60784078Y-84573848D01*
X60831000Y-84809741D01*
X60831000Y-85050259D01*
X60784078Y-85286152D01*
X60692037Y-85508359D01*
X60558411Y-85708345D01*
X60388345Y-85878411D01*
X60188359Y-86012037D01*
X60058194Y-86065953D01*
X59966153Y-86104078D01*
X59848205Y-86127539D01*
X59730259Y-86151000D01*
X59489741Y-86151000D01*
X59371795Y-86127539D01*
X59253847Y-86104078D01*
X59161806Y-86065953D01*
X59031641Y-86012037D01*
X58831655Y-85878411D01*
X58661589Y-85708345D01*
X58527963Y-85508359D01*
X58435922Y-85286152D01*
X58389000Y-85050259D01*
X58389000Y-84809741D01*
X58435922Y-84573848D01*
X58527963Y-84351641D01*
X58661589Y-84151655D01*
X58831655Y-83981589D01*
X59031641Y-83847963D01*
X59161806Y-83794047D01*
X59253847Y-83755922D01*
X59371795Y-83732461D01*
X59489741Y-83709000D01*
X59730259Y-83709000D01*
X59848205Y-83732461D01*
X59848205Y-83732461D01*
G37*
G36*
X54848205Y-78732461D02*
X54966153Y-78755922D01*
X55019697Y-78778101D01*
X55188359Y-78847963D01*
X55388345Y-78981589D01*
X55558411Y-79151655D01*
X55692037Y-79351641D01*
X55784078Y-79573848D01*
X55831000Y-79809741D01*
X55831000Y-80050259D01*
X55784078Y-80286152D01*
X55692037Y-80508359D01*
X55558411Y-80708345D01*
X55388345Y-80878411D01*
X55188359Y-81012037D01*
X55058194Y-81065953D01*
X54966153Y-81104078D01*
X54848205Y-81127539D01*
X54730259Y-81151000D01*
X54489741Y-81151000D01*
X54371795Y-81127539D01*
X54253847Y-81104078D01*
X54161806Y-81065953D01*
X54031641Y-81012037D01*
X53831655Y-80878411D01*
X53661589Y-80708345D01*
X53527963Y-80508359D01*
X53435922Y-80286152D01*
X53389000Y-80050259D01*
X53389000Y-79809741D01*
X53435922Y-79573848D01*
X53527963Y-79351641D01*
X53661589Y-79151655D01*
X53831655Y-78981589D01*
X54031641Y-78847963D01*
X54200303Y-78778101D01*
X54253847Y-78755922D01*
X54371795Y-78732461D01*
X54489741Y-78709000D01*
X54730259Y-78709000D01*
X54848205Y-78732461D01*
X54848205Y-78732461D01*
G37*
G36*
X59848205Y-78732461D02*
X59966153Y-78755922D01*
X60019697Y-78778101D01*
X60188359Y-78847963D01*
X60388345Y-78981589D01*
X60558411Y-79151655D01*
X60692037Y-79351641D01*
X60784078Y-79573848D01*
X60831000Y-79809741D01*
X60831000Y-80050259D01*
X60784078Y-80286152D01*
X60692037Y-80508359D01*
X60558411Y-80708345D01*
X60388345Y-80878411D01*
X60188359Y-81012037D01*
X60058194Y-81065953D01*
X59966153Y-81104078D01*
X59848205Y-81127539D01*
X59730259Y-81151000D01*
X59489741Y-81151000D01*
X59371795Y-81127539D01*
X59253847Y-81104078D01*
X59161806Y-81065953D01*
X59031641Y-81012037D01*
X58831655Y-80878411D01*
X58661589Y-80708345D01*
X58527963Y-80508359D01*
X58435922Y-80286152D01*
X58389000Y-80050259D01*
X58389000Y-79809741D01*
X58435922Y-79573848D01*
X58527963Y-79351641D01*
X58661589Y-79151655D01*
X58831655Y-78981589D01*
X59031641Y-78847963D01*
X59200303Y-78778101D01*
X59253847Y-78755922D01*
X59371795Y-78732461D01*
X59489741Y-78709000D01*
X59730259Y-78709000D01*
X59848205Y-78732461D01*
X59848205Y-78732461D01*
G37*
G36*
X110818510Y-76852041D02*
X110942032Y-76864207D01*
X111140146Y-76924305D01*
X111322729Y-77021897D01*
X111482765Y-77153235D01*
X111614103Y-77313271D01*
X111711695Y-77495854D01*
X111771793Y-77693968D01*
X111792085Y-77900000D01*
X111771793Y-78106032D01*
X111711695Y-78304146D01*
X111614103Y-78486729D01*
X111482765Y-78646765D01*
X111322729Y-78778103D01*
X111140146Y-78875695D01*
X110942032Y-78935793D01*
X110818510Y-78947959D01*
X110787631Y-78951000D01*
X109684369Y-78951000D01*
X109653490Y-78947959D01*
X109529968Y-78935793D01*
X109331854Y-78875695D01*
X109149271Y-78778103D01*
X108989235Y-78646765D01*
X108857897Y-78486729D01*
X108760305Y-78304146D01*
X108700207Y-78106032D01*
X108679915Y-77900000D01*
X108700207Y-77693968D01*
X108760305Y-77495854D01*
X108857897Y-77313271D01*
X108989235Y-77153235D01*
X109149271Y-77021897D01*
X109331854Y-76924305D01*
X109529968Y-76864207D01*
X109653490Y-76852041D01*
X109684369Y-76849000D01*
X110787631Y-76849000D01*
X110818510Y-76852041D01*
X110818510Y-76852041D01*
G37*
G36*
X119837830Y-76638930D02*
X119837833Y-76638931D01*
X119837834Y-76638931D01*
X120045373Y-76701887D01*
X120045375Y-76701888D01*
X120236644Y-76804123D01*
X120404291Y-76941709D01*
X120541877Y-77109356D01*
X120644112Y-77300625D01*
X120644113Y-77300627D01*
X120707069Y-77508166D01*
X120707070Y-77508170D01*
X120728327Y-77724000D01*
X120707070Y-77939830D01*
X120707069Y-77939833D01*
X120707069Y-77939834D01*
X120656654Y-78106032D01*
X120644112Y-78147375D01*
X120541877Y-78338644D01*
X120404291Y-78506291D01*
X120236644Y-78643877D01*
X120045375Y-78746112D01*
X120045373Y-78746113D01*
X119837834Y-78809069D01*
X119837833Y-78809069D01*
X119837830Y-78809070D01*
X119676089Y-78825000D01*
X118067911Y-78825000D01*
X117906170Y-78809070D01*
X117906167Y-78809069D01*
X117906166Y-78809069D01*
X117698627Y-78746113D01*
X117698625Y-78746112D01*
X117507356Y-78643877D01*
X117339709Y-78506291D01*
X117202123Y-78338644D01*
X117099888Y-78147375D01*
X117087347Y-78106032D01*
X117036931Y-77939834D01*
X117036931Y-77939833D01*
X117036930Y-77939830D01*
X117015673Y-77724000D01*
X117036930Y-77508170D01*
X117036931Y-77508166D01*
X117099887Y-77300627D01*
X117099888Y-77300625D01*
X117202123Y-77109356D01*
X117339709Y-76941709D01*
X117507356Y-76804123D01*
X117698625Y-76701888D01*
X117698627Y-76701887D01*
X117906166Y-76638931D01*
X117906167Y-76638931D01*
X117906170Y-76638930D01*
X118067911Y-76623000D01*
X119676089Y-76623000D01*
X119837830Y-76638930D01*
X119837830Y-76638930D01*
G37*
G36*
X93350004Y-76984544D02*
X93437059Y-77001860D01*
X93573732Y-77058472D01*
X93573733Y-77058473D01*
X93696738Y-77140662D01*
X93801338Y-77245262D01*
X93801340Y-77245265D01*
X93883528Y-77368268D01*
X93940140Y-77504941D01*
X93969000Y-77650033D01*
X93969000Y-77797967D01*
X93940140Y-77943059D01*
X93883528Y-78079732D01*
X93865955Y-78106032D01*
X93801338Y-78202738D01*
X93696738Y-78307338D01*
X93696735Y-78307340D01*
X93573732Y-78389528D01*
X93437059Y-78446140D01*
X93350004Y-78463456D01*
X93291969Y-78475000D01*
X93144031Y-78475000D01*
X93085996Y-78463456D01*
X92998941Y-78446140D01*
X92862268Y-78389528D01*
X92739265Y-78307340D01*
X92739262Y-78307338D01*
X92634662Y-78202738D01*
X92570045Y-78106032D01*
X92552472Y-78079732D01*
X92495860Y-77943059D01*
X92467000Y-77797967D01*
X92467000Y-77650033D01*
X92495860Y-77504941D01*
X92552472Y-77368268D01*
X92634660Y-77245265D01*
X92634662Y-77245262D01*
X92739262Y-77140662D01*
X92862267Y-77058473D01*
X92862268Y-77058472D01*
X92998941Y-77001860D01*
X93085996Y-76984544D01*
X93144031Y-76973000D01*
X93291969Y-76973000D01*
X93350004Y-76984544D01*
X93350004Y-76984544D01*
G37*
G36*
X88889000Y-78475000D02*
X87387000Y-78475000D01*
X87387000Y-76973000D01*
X88889000Y-76973000D01*
X88889000Y-78475000D01*
X88889000Y-78475000D01*
G37*
G36*
X59848205Y-73732461D02*
X59966153Y-73755922D01*
X60058194Y-73794047D01*
X60188359Y-73847963D01*
X60388345Y-73981589D01*
X60558411Y-74151655D01*
X60692037Y-74351641D01*
X60784078Y-74573848D01*
X60831000Y-74809741D01*
X60831000Y-75050259D01*
X60784078Y-75286152D01*
X60692037Y-75508359D01*
X60558411Y-75708345D01*
X60388345Y-75878411D01*
X60188359Y-76012037D01*
X60058194Y-76065953D01*
X59966153Y-76104078D01*
X59730259Y-76151000D01*
X59489741Y-76151000D01*
X59253847Y-76104078D01*
X59161806Y-76065953D01*
X59031641Y-76012037D01*
X58831655Y-75878411D01*
X58661589Y-75708345D01*
X58527963Y-75508359D01*
X58435922Y-75286152D01*
X58389000Y-75050259D01*
X58389000Y-74809741D01*
X58435922Y-74573848D01*
X58527963Y-74351641D01*
X58661589Y-74151655D01*
X58831655Y-73981589D01*
X59031641Y-73847963D01*
X59161806Y-73794047D01*
X59253847Y-73755922D01*
X59371795Y-73732461D01*
X59489741Y-73709000D01*
X59730259Y-73709000D01*
X59848205Y-73732461D01*
X59848205Y-73732461D01*
G37*
G36*
X54848205Y-73732461D02*
X54966153Y-73755922D01*
X55058194Y-73794047D01*
X55188359Y-73847963D01*
X55388345Y-73981589D01*
X55558411Y-74151655D01*
X55692037Y-74351641D01*
X55784078Y-74573848D01*
X55831000Y-74809741D01*
X55831000Y-75050259D01*
X55784078Y-75286152D01*
X55692037Y-75508359D01*
X55558411Y-75708345D01*
X55388345Y-75878411D01*
X55188359Y-76012037D01*
X55058194Y-76065953D01*
X54966153Y-76104078D01*
X54730259Y-76151000D01*
X54489741Y-76151000D01*
X54253847Y-76104078D01*
X54161806Y-76065953D01*
X54031641Y-76012037D01*
X53831655Y-75878411D01*
X53661589Y-75708345D01*
X53527963Y-75508359D01*
X53435922Y-75286152D01*
X53389000Y-75050259D01*
X53389000Y-74809741D01*
X53435922Y-74573848D01*
X53527963Y-74351641D01*
X53661589Y-74151655D01*
X53831655Y-73981589D01*
X54031641Y-73847963D01*
X54161806Y-73794047D01*
X54253847Y-73755922D01*
X54371795Y-73732461D01*
X54489741Y-73709000D01*
X54730259Y-73709000D01*
X54848205Y-73732461D01*
X54848205Y-73732461D01*
G37*
G36*
X90810004Y-74444544D02*
X90897059Y-74461860D01*
X91033732Y-74518472D01*
X91116608Y-74573848D01*
X91156738Y-74600662D01*
X91261338Y-74705262D01*
X91261340Y-74705265D01*
X91343528Y-74828268D01*
X91400140Y-74964941D01*
X91429000Y-75110033D01*
X91429000Y-75257967D01*
X91400140Y-75403059D01*
X91343528Y-75539732D01*
X91343527Y-75539733D01*
X91261338Y-75662738D01*
X91156738Y-75767338D01*
X91156735Y-75767340D01*
X91033732Y-75849528D01*
X90897059Y-75906140D01*
X90810004Y-75923456D01*
X90751969Y-75935000D01*
X90604031Y-75935000D01*
X90545996Y-75923456D01*
X90458941Y-75906140D01*
X90322268Y-75849528D01*
X90199265Y-75767340D01*
X90199262Y-75767338D01*
X90094662Y-75662738D01*
X90012473Y-75539733D01*
X90012472Y-75539732D01*
X89955860Y-75403059D01*
X89927000Y-75257967D01*
X89927000Y-75110033D01*
X89955860Y-74964941D01*
X90012472Y-74828268D01*
X90094660Y-74705265D01*
X90094662Y-74705262D01*
X90199262Y-74600662D01*
X90239392Y-74573848D01*
X90322268Y-74518472D01*
X90458941Y-74461860D01*
X90545996Y-74444544D01*
X90604031Y-74433000D01*
X90751969Y-74433000D01*
X90810004Y-74444544D01*
X90810004Y-74444544D01*
G37*
G36*
X120596000Y-68919000D02*
X116894000Y-68919000D01*
X116894000Y-66717000D01*
X120596000Y-66717000D01*
X120596000Y-68919000D01*
X120596000Y-68919000D01*
G37*
G36*
X53363396Y-62585546D02*
X53536466Y-62657234D01*
X53692230Y-62761312D01*
X53824688Y-62893770D01*
X53928766Y-63049534D01*
X54000454Y-63222604D01*
X54037000Y-63406333D01*
X54037000Y-63593667D01*
X54000454Y-63777396D01*
X53928766Y-63950466D01*
X53824688Y-64106230D01*
X53692230Y-64238688D01*
X53536466Y-64342766D01*
X53363396Y-64414454D01*
X53179667Y-64451000D01*
X52992333Y-64451000D01*
X52808604Y-64414454D01*
X52635534Y-64342766D01*
X52479770Y-64238688D01*
X52347312Y-64106230D01*
X52243234Y-63950466D01*
X52171546Y-63777396D01*
X52135000Y-63593667D01*
X52135000Y-63406333D01*
X52171546Y-63222604D01*
X52243234Y-63049534D01*
X52347312Y-62893770D01*
X52479770Y-62761312D01*
X52635534Y-62657234D01*
X52808604Y-62585546D01*
X52992333Y-62549000D01*
X53179667Y-62549000D01*
X53363396Y-62585546D01*
X53363396Y-62585546D01*
G37*
G36*
X64475870Y-58362786D02*
X64475873Y-58362787D01*
X64681527Y-58425171D01*
X64681529Y-58425172D01*
X64681532Y-58425173D01*
X64871060Y-58526477D01*
X65037186Y-58662814D01*
X65173523Y-58828940D01*
X65274827Y-59018468D01*
X65274828Y-59018471D01*
X65274829Y-59018473D01*
X65303482Y-59112930D01*
X65337214Y-59224130D01*
X65353000Y-59384408D01*
X65353000Y-61011592D01*
X65337214Y-61171870D01*
X65337213Y-61171872D01*
X65337213Y-61171873D01*
X65297089Y-61304146D01*
X65274827Y-61377532D01*
X65173523Y-61567060D01*
X65037186Y-61733186D01*
X64871059Y-61869523D01*
X64681531Y-61970827D01*
X64681528Y-61970828D01*
X64681526Y-61970829D01*
X64508146Y-62023423D01*
X64475869Y-62033214D01*
X64262000Y-62054278D01*
X64048130Y-62033214D01*
X64015853Y-62023423D01*
X63842473Y-61970829D01*
X63842471Y-61970828D01*
X63842468Y-61970827D01*
X63652940Y-61869523D01*
X63486814Y-61733186D01*
X63350477Y-61567059D01*
X63249173Y-61377531D01*
X63220519Y-61283070D01*
X63186787Y-61171872D01*
X63186786Y-61171869D01*
X63171000Y-61011591D01*
X63171000Y-59384408D01*
X63186786Y-59224125D01*
X63249171Y-59018473D01*
X63350478Y-58828940D01*
X63486815Y-58662814D01*
X63652941Y-58526477D01*
X63842469Y-58425173D01*
X63842472Y-58425172D01*
X63842474Y-58425171D01*
X64048128Y-58362787D01*
X64048131Y-58362786D01*
X64262000Y-58341722D01*
X64475870Y-58362786D01*
X64475870Y-58362786D01*
G37*
G36*
X70433000Y-62049000D02*
X68251000Y-62049000D01*
X68251000Y-58347000D01*
X70433000Y-58347000D01*
X70433000Y-62049000D01*
X70433000Y-62049000D01*
G37*
G36*
X110818510Y-59852041D02*
X110942032Y-59864207D01*
X111140146Y-59924305D01*
X111322729Y-60021897D01*
X111482765Y-60153235D01*
X111614103Y-60313271D01*
X111711695Y-60495854D01*
X111771793Y-60693968D01*
X111792085Y-60900000D01*
X111771793Y-61106032D01*
X111711695Y-61304146D01*
X111614103Y-61486729D01*
X111482765Y-61646765D01*
X111322729Y-61778103D01*
X111140146Y-61875695D01*
X110942032Y-61935793D01*
X110818510Y-61947959D01*
X110787631Y-61951000D01*
X109684369Y-61951000D01*
X109653490Y-61947959D01*
X109529968Y-61935793D01*
X109331854Y-61875695D01*
X109149271Y-61778103D01*
X108989235Y-61646765D01*
X108857897Y-61486729D01*
X108760305Y-61304146D01*
X108700207Y-61106032D01*
X108679915Y-60900000D01*
X108700207Y-60693968D01*
X108760305Y-60495854D01*
X108857897Y-60313271D01*
X108989235Y-60153235D01*
X109149271Y-60021897D01*
X109331854Y-59924305D01*
X109529968Y-59864207D01*
X109653490Y-59852041D01*
X109684369Y-59849000D01*
X110787631Y-59849000D01*
X110818510Y-59852041D01*
X110818510Y-59852041D01*
G37*
G36*
X54037000Y-61911000D02*
X52135000Y-61911000D01*
X52135000Y-60009000D01*
X54037000Y-60009000D01*
X54037000Y-61911000D01*
X54037000Y-61911000D01*
G37*
G36*
X119710830Y-59112930D02*
X119710833Y-59112931D01*
X119710834Y-59112931D01*
X119918373Y-59175887D01*
X119918375Y-59175888D01*
X120109644Y-59278123D01*
X120277291Y-59415709D01*
X120414877Y-59583356D01*
X120517112Y-59774625D01*
X120517113Y-59774627D01*
X120562517Y-59924305D01*
X120580070Y-59982170D01*
X120601327Y-60198000D01*
X120580070Y-60413830D01*
X120580069Y-60413833D01*
X120580069Y-60413834D01*
X120555189Y-60495854D01*
X120517112Y-60621375D01*
X120414877Y-60812644D01*
X120277291Y-60980291D01*
X120109644Y-61117877D01*
X119918375Y-61220112D01*
X119918373Y-61220113D01*
X119710834Y-61283069D01*
X119710833Y-61283069D01*
X119710830Y-61283070D01*
X119549089Y-61299000D01*
X117940911Y-61299000D01*
X117779170Y-61283070D01*
X117779167Y-61283069D01*
X117779166Y-61283069D01*
X117571627Y-61220113D01*
X117571625Y-61220112D01*
X117380356Y-61117877D01*
X117212709Y-60980291D01*
X117075123Y-60812644D01*
X116972888Y-60621375D01*
X116934812Y-60495854D01*
X116909931Y-60413834D01*
X116909931Y-60413833D01*
X116909930Y-60413830D01*
X116888673Y-60198000D01*
X116909930Y-59982170D01*
X116927483Y-59924305D01*
X116972887Y-59774627D01*
X116972888Y-59774625D01*
X117075123Y-59583356D01*
X117212709Y-59415709D01*
X117380356Y-59278123D01*
X117571625Y-59175888D01*
X117571627Y-59175887D01*
X117779166Y-59112931D01*
X117779167Y-59112931D01*
X117779170Y-59112930D01*
X117940911Y-59097000D01*
X119549089Y-59097000D01*
X119710830Y-59112930D01*
X119710830Y-59112930D01*
G37*
G36*
X55889941Y-52066248D02*
X55889943Y-52066249D01*
X55889944Y-52066249D01*
X56445190Y-52296239D01*
X56740334Y-52493448D01*
X56944902Y-52630136D01*
X57369864Y-53055098D01*
X57369866Y-53055101D01*
X57703761Y-53554810D01*
X57864990Y-53944052D01*
X57933752Y-54110059D01*
X58051000Y-54699501D01*
X58051000Y-55300499D01*
X57944246Y-55837186D01*
X57933751Y-55889944D01*
X57703761Y-56445190D01*
X57608892Y-56587171D01*
X57369864Y-56944902D01*
X56944902Y-57369864D01*
X56944899Y-57369866D01*
X56445190Y-57703761D01*
X55889944Y-57933751D01*
X55889943Y-57933751D01*
X55889941Y-57933752D01*
X55300499Y-58051000D01*
X54699501Y-58051000D01*
X54110059Y-57933752D01*
X54110057Y-57933751D01*
X54110056Y-57933751D01*
X53554810Y-57703761D01*
X53055101Y-57369866D01*
X53055098Y-57369864D01*
X52630136Y-56944902D01*
X52391108Y-56587171D01*
X52296239Y-56445190D01*
X52066249Y-55889944D01*
X52055755Y-55837186D01*
X51949000Y-55300499D01*
X51949000Y-54699501D01*
X52066248Y-54110059D01*
X52135010Y-53944052D01*
X52296239Y-53554810D01*
X52630134Y-53055101D01*
X52630136Y-53055098D01*
X53055098Y-52630136D01*
X53259666Y-52493448D01*
X53554810Y-52296239D01*
X54110056Y-52066249D01*
X54110057Y-52066249D01*
X54110059Y-52066248D01*
X54699501Y-51949000D01*
X55300499Y-51949000D01*
X55889941Y-52066248D01*
X55889941Y-52066248D01*
G37*
G36*
X95889941Y-52066248D02*
X95889943Y-52066249D01*
X95889944Y-52066249D01*
X96445190Y-52296239D01*
X96740334Y-52493448D01*
X96944902Y-52630136D01*
X97369864Y-53055098D01*
X97369866Y-53055101D01*
X97703761Y-53554810D01*
X97864990Y-53944052D01*
X97933752Y-54110059D01*
X98051000Y-54699501D01*
X98051000Y-55300499D01*
X97944246Y-55837186D01*
X97933751Y-55889944D01*
X97703761Y-56445190D01*
X97608892Y-56587171D01*
X97369864Y-56944902D01*
X96944902Y-57369864D01*
X96944899Y-57369866D01*
X96445190Y-57703761D01*
X95889944Y-57933751D01*
X95889943Y-57933751D01*
X95889941Y-57933752D01*
X95300499Y-58051000D01*
X94699501Y-58051000D01*
X94110059Y-57933752D01*
X94110057Y-57933751D01*
X94110056Y-57933751D01*
X93554810Y-57703761D01*
X93055101Y-57369866D01*
X93055098Y-57369864D01*
X92630136Y-56944902D01*
X92391108Y-56587171D01*
X92296239Y-56445190D01*
X92066249Y-55889944D01*
X92055755Y-55837186D01*
X91949000Y-55300499D01*
X91949000Y-54699501D01*
X92066248Y-54110059D01*
X92135010Y-53944052D01*
X92296239Y-53554810D01*
X92630134Y-53055101D01*
X92630136Y-53055098D01*
X93055098Y-52630136D01*
X93259666Y-52493448D01*
X93554810Y-52296239D01*
X94110056Y-52066249D01*
X94110057Y-52066249D01*
X94110059Y-52066248D01*
X94699501Y-51949000D01*
X95300499Y-51949000D01*
X95889941Y-52066248D01*
X95889941Y-52066248D01*
G37*
G36*
X110818510Y-52352041D02*
X110942032Y-52364207D01*
X111140146Y-52424305D01*
X111322729Y-52521897D01*
X111482765Y-52653235D01*
X111614103Y-52813271D01*
X111711695Y-52995854D01*
X111771793Y-53193968D01*
X111792085Y-53400000D01*
X111771793Y-53606032D01*
X111711695Y-53804146D01*
X111614103Y-53986729D01*
X111482765Y-54146765D01*
X111322729Y-54278103D01*
X111140146Y-54375695D01*
X110942032Y-54435793D01*
X110818510Y-54447959D01*
X110787631Y-54451000D01*
X109684369Y-54451000D01*
X109653490Y-54447959D01*
X109529968Y-54435793D01*
X109331854Y-54375695D01*
X109149271Y-54278103D01*
X108989235Y-54146765D01*
X108857897Y-53986729D01*
X108760305Y-53804146D01*
X108700207Y-53606032D01*
X108679915Y-53400000D01*
X108700207Y-53193968D01*
X108760305Y-52995854D01*
X108857897Y-52813271D01*
X108989235Y-52653235D01*
X109149271Y-52521897D01*
X109331854Y-52424305D01*
X109529968Y-52364207D01*
X109653490Y-52352041D01*
X109684369Y-52349000D01*
X110787631Y-52349000D01*
X110818510Y-52352041D01*
X110818510Y-52352041D01*
G37*
M02*
