%TF.GenerationSoftware,KiCad,Pcbnew,(6.0.0-rc1-dev-882-gdbc9130da)*%
%TF.CreationDate,2019-10-11T13:43:29+08:00*%
%TF.ProjectId,SoftDimmableLamp,536F667444696D6D61626C654C616D70,rev?*%
%TF.SameCoordinates,Original*%
%TF.FileFunction,Copper,L2,Bot,Signal*%
%TF.FilePolarity,Positive*%
%FSLAX46Y46*%
G04 Gerber Fmt 4.6, Leading zero omitted, Abs format (unit mm)*
G04 Created by KiCad (PCBNEW (6.0.0-rc1-dev-882-gdbc9130da)) date 2019/10/11 13:43:29*
%MOMM*%
%LPD*%
G01*
G04 APERTURE LIST*
%ADD10R,1.400000X1.400000*%
%ADD11C,1.400000*%
%ADD12R,2.000000X2.600000*%
%ADD13O,2.000000X2.600000*%
%ADD14R,1.600000X1.600000*%
%ADD15C,1.600000*%
%ADD16C,6.000000*%
%ADD17C,0.800000*%
%ADD18R,2.080000X3.600000*%
%ADD19O,2.080000X3.600000*%
%ADD20C,2.340000*%
%ADD21R,3.600000X2.100000*%
%ADD22O,3.600000X2.100000*%
%ADD23O,3.000000X2.000000*%
%ADD24R,1.800000X1.800000*%
%ADD25C,1.800000*%
%ADD26C,0.508000*%
%ADD27C,0.381000*%
%ADD28C,0.254000*%
%ADD29C,0.350000*%
%ADD30O,1.800000X0.800000*%
G04 APERTURE END LIST*
D10*
X88138000Y-77724000D03*
D11*
X93218000Y-77724000D03*
X90678000Y-75184000D03*
D12*
X101346000Y-87884000D03*
D13*
X98806000Y-87884000D03*
D14*
X118618000Y-94234000D03*
D15*
X118618000Y-91734000D03*
D16*
X55000000Y-95000000D03*
D17*
X55000000Y-92625000D03*
X52943190Y-93812500D03*
X52943190Y-96187500D03*
X55000000Y-97375000D03*
X57056810Y-96187500D03*
X57056810Y-93812500D03*
D16*
X125000000Y-95000000D03*
D17*
X125000000Y-92625000D03*
X122943190Y-93812500D03*
X122943190Y-96187500D03*
X125000000Y-97375000D03*
X127056810Y-96187500D03*
X127056810Y-93812500D03*
D16*
X95000000Y-55000000D03*
D17*
X95000000Y-52625000D03*
X92943190Y-53812500D03*
X92943190Y-56187500D03*
X95000000Y-57375000D03*
X97056810Y-56187500D03*
X97056810Y-53812500D03*
D18*
X69342000Y-60198000D03*
D19*
X64262000Y-60198000D03*
D18*
X87630000Y-89662000D03*
D19*
X92710000Y-89662000D03*
D20*
X54610000Y-84930000D03*
X54610000Y-79930000D03*
X54610000Y-74930000D03*
X59610000Y-84930000D03*
X59610000Y-79930000D03*
X59610000Y-74930000D03*
D21*
X118745000Y-67818000D03*
D22*
X118745000Y-60198000D03*
D21*
X118872000Y-85344000D03*
D22*
X118872000Y-77724000D03*
D23*
X110236000Y-77900000D03*
X110236000Y-85400000D03*
X110236000Y-60900000D03*
X110236000Y-53400000D03*
D24*
X53086000Y-60960000D03*
D25*
X53086000Y-63500000D03*
D17*
X57056810Y-53812500D03*
X57056810Y-56187500D03*
X55000000Y-57375000D03*
X52943190Y-56187500D03*
X52943190Y-53812500D03*
X55000000Y-52625000D03*
D16*
X55000000Y-55000000D03*
D17*
X79502000Y-53848000D03*
X77978000Y-59436000D03*
X78994000Y-69342000D03*
X80518000Y-80518000D03*
X80518000Y-83058000D03*
X77978000Y-77470000D03*
X70612000Y-76454000D03*
X81280000Y-77978000D03*
X89662000Y-70866000D03*
X68859000Y-87376000D03*
X72136000Y-94996000D03*
D15*
X110744000Y-91440000D03*
X101219000Y-96266000D03*
X105918000Y-87376000D03*
X103759000Y-87376000D03*
X105859885Y-95000106D03*
X123571000Y-76454000D03*
X123571000Y-80899000D03*
X123571000Y-85090000D03*
D17*
X68834024Y-67310048D03*
X100330000Y-77470000D03*
X102030000Y-77470000D03*
X103730000Y-77470000D03*
X105430000Y-77470000D03*
X107130000Y-77470000D03*
X100330000Y-79170000D03*
X102030000Y-79170000D03*
X103730000Y-79170000D03*
X105430000Y-79170000D03*
X107130000Y-79170000D03*
X100330000Y-80870000D03*
X102030000Y-80870000D03*
X103730000Y-80870000D03*
X105430000Y-80870000D03*
X107130000Y-80870000D03*
X100330000Y-82570000D03*
X102030000Y-82570000D03*
X103730000Y-82570000D03*
X105430000Y-82570000D03*
X107130000Y-82570000D03*
X73152000Y-92456000D03*
X73152006Y-88392006D03*
X66548000Y-78232000D03*
X81280000Y-60706000D03*
X70866000Y-78232000D03*
X76200000Y-64985989D03*
X71374000Y-71374000D03*
X76708000Y-75438000D03*
X64770000Y-79629000D03*
X67710000Y-71755000D03*
X102489000Y-65151000D03*
X100711000Y-65151000D03*
X99060000Y-65151000D03*
X97155000Y-65151000D03*
X102489000Y-70104000D03*
X102489000Y-66802000D03*
X100711000Y-70104000D03*
X100711000Y-66802000D03*
X99060000Y-70104000D03*
X99060000Y-68453000D03*
X99060000Y-66802000D03*
X97155000Y-70104000D03*
X97155000Y-68453000D03*
X97155000Y-66802000D03*
X100711000Y-68453000D03*
X102489000Y-68453000D03*
X97155000Y-63500000D03*
X99060000Y-63500000D03*
X100711000Y-63500000D03*
X102489000Y-63500000D03*
X97155000Y-71882000D03*
X99060000Y-71882000D03*
X100711000Y-71882000D03*
X102489000Y-71882000D03*
X104394000Y-63500000D03*
X104394000Y-65151000D03*
X104394000Y-66802000D03*
X104394000Y-68437760D03*
X104394000Y-70104000D03*
X104394000Y-71882000D03*
X83312000Y-84582000D03*
X79756000Y-58928000D03*
X79502000Y-62230000D03*
X88138000Y-68598000D03*
X88138000Y-66782000D03*
X85090000Y-80137000D03*
X86614000Y-85851998D03*
D26*
X73152000Y-88392012D02*
X73152006Y-88392006D01*
X73152000Y-92456000D02*
X73152000Y-88392012D01*
D27*
X69030315Y-78232000D02*
X66548000Y-78232000D01*
X70866000Y-78232000D02*
X69030315Y-78232000D01*
X81280000Y-61701862D02*
X77995873Y-64985989D01*
X76765685Y-64985989D02*
X76200000Y-64985989D01*
X81280000Y-60706000D02*
X81280000Y-61701862D01*
X77995873Y-64985989D02*
X76765685Y-64985989D01*
D28*
X75438000Y-75438000D02*
X71374000Y-71374000D01*
X76708000Y-75438000D02*
X75438000Y-75438000D01*
D27*
X65703499Y-73761501D02*
X67710000Y-71755000D01*
X64770000Y-79629000D02*
X64770000Y-74695000D01*
X64770000Y-74695000D02*
X65703499Y-73761501D01*
X79756000Y-58928000D02*
X79756000Y-61722000D01*
X79756000Y-61722000D02*
X79502000Y-61976000D01*
X79502000Y-61976000D02*
X79502000Y-62230000D01*
X88138000Y-66802000D02*
X88138000Y-66782000D01*
X88138000Y-68598000D02*
X88138000Y-66782000D01*
X87503000Y-77724000D02*
X88138000Y-77724000D01*
X85090000Y-80137000D02*
X87503000Y-77724000D01*
X83312000Y-84582000D02*
X84581998Y-85851998D01*
X84581998Y-85851998D02*
X86048315Y-85851998D01*
X86048315Y-85851998D02*
X86614000Y-85851998D01*
D28*
G36*
X104908525Y-62175198D02*
X120381692Y-65653661D01*
X120744986Y-65827397D01*
X120987386Y-66130339D01*
X121077209Y-66522892D01*
X121077209Y-69072528D01*
X120985443Y-69469070D01*
X120738191Y-69773430D01*
X120368857Y-69944488D01*
X104902948Y-73181539D01*
X104711122Y-73201398D01*
X94357509Y-73201398D01*
X94011870Y-73132646D01*
X93729455Y-72943943D01*
X93540752Y-72661528D01*
X93472000Y-72315889D01*
X93472000Y-63037907D01*
X93540752Y-62692268D01*
X93729455Y-62409853D01*
X94011870Y-62221150D01*
X94357509Y-62152398D01*
X104703159Y-62152398D01*
X104908525Y-62175198D01*
X104908525Y-62175198D01*
G37*
X104908525Y-62175198D02*
X120381692Y-65653661D01*
X120744986Y-65827397D01*
X120987386Y-66130339D01*
X121077209Y-66522892D01*
X121077209Y-69072528D01*
X120985443Y-69469070D01*
X120738191Y-69773430D01*
X120368857Y-69944488D01*
X104902948Y-73181539D01*
X104711122Y-73201398D01*
X94357509Y-73201398D01*
X94011870Y-73132646D01*
X93729455Y-72943943D01*
X93540752Y-72661528D01*
X93472000Y-72315889D01*
X93472000Y-63037907D01*
X93540752Y-62692268D01*
X93729455Y-62409853D01*
X94011870Y-62221150D01*
X94357509Y-62152398D01*
X104703159Y-62152398D01*
X104908525Y-62175198D01*
G36*
X129032000Y-51177509D02*
X129032000Y-98174491D01*
X128963248Y-98520130D01*
X128774545Y-98802545D01*
X128492130Y-98991248D01*
X128146491Y-99060000D01*
X51426300Y-99060000D01*
X51081738Y-98991694D01*
X50835000Y-98827522D01*
X50835000Y-94316736D01*
X51565000Y-94316736D01*
X51565000Y-95683264D01*
X52087947Y-96945771D01*
X53054229Y-97912053D01*
X54316736Y-98435000D01*
X55683264Y-98435000D01*
X56945771Y-97912053D01*
X57912053Y-96945771D01*
X58435000Y-95683264D01*
X58435000Y-94316736D01*
X57912053Y-93054229D01*
X57107950Y-92250126D01*
X72117000Y-92250126D01*
X72117000Y-92661874D01*
X72274569Y-93042280D01*
X72565720Y-93333431D01*
X72946126Y-93491000D01*
X73357874Y-93491000D01*
X73495484Y-93434000D01*
X117374478Y-93434000D01*
X117374478Y-95034000D01*
X117408239Y-95203729D01*
X117504383Y-95347617D01*
X117648271Y-95443761D01*
X117818000Y-95477522D01*
X119418000Y-95477522D01*
X119587729Y-95443761D01*
X119731617Y-95347617D01*
X119827761Y-95203729D01*
X119861522Y-95034000D01*
X119861522Y-94316736D01*
X121565000Y-94316736D01*
X121565000Y-95683264D01*
X122087947Y-96945771D01*
X123054229Y-97912053D01*
X124316736Y-98435000D01*
X125683264Y-98435000D01*
X126945771Y-97912053D01*
X127912053Y-96945771D01*
X128435000Y-95683264D01*
X128435000Y-94316736D01*
X127912053Y-93054229D01*
X126945771Y-92087947D01*
X125683264Y-91565000D01*
X124316736Y-91565000D01*
X123054229Y-92087947D01*
X122087947Y-93054229D01*
X121565000Y-94316736D01*
X119861522Y-94316736D01*
X119861522Y-93434000D01*
X119827761Y-93264271D01*
X119731617Y-93120383D01*
X119587729Y-93024239D01*
X119418000Y-92990478D01*
X117818000Y-92990478D01*
X117648271Y-93024239D01*
X117504383Y-93120383D01*
X117408239Y-93264271D01*
X117374478Y-93434000D01*
X73495484Y-93434000D01*
X73738280Y-93333431D01*
X74029431Y-93042280D01*
X74187000Y-92661874D01*
X74187000Y-92632318D01*
X117899287Y-92632318D01*
X117984383Y-92822164D01*
X118449036Y-92981807D01*
X118939413Y-92951482D01*
X119251617Y-92822164D01*
X119336713Y-92632318D01*
X118618000Y-91913605D01*
X117899287Y-92632318D01*
X74187000Y-92632318D01*
X74187000Y-92250126D01*
X74041000Y-91897650D01*
X74041000Y-88950370D01*
X74187006Y-88597880D01*
X74187006Y-88186132D01*
X74052747Y-87862000D01*
X86146478Y-87862000D01*
X86146478Y-91462000D01*
X86180239Y-91631729D01*
X86276383Y-91775617D01*
X86420271Y-91871761D01*
X86590000Y-91905522D01*
X88670000Y-91905522D01*
X88839729Y-91871761D01*
X88983617Y-91775617D01*
X89079761Y-91631729D01*
X89113522Y-91462000D01*
X89113522Y-89789000D01*
X91235000Y-89789000D01*
X91235000Y-90549000D01*
X91395878Y-91103791D01*
X91756820Y-91554785D01*
X92262875Y-91833323D01*
X92354680Y-91853563D01*
X92583000Y-91782335D01*
X92583000Y-89789000D01*
X92837000Y-89789000D01*
X92837000Y-91782335D01*
X93065320Y-91853563D01*
X93157125Y-91833323D01*
X93644555Y-91565036D01*
X117370193Y-91565036D01*
X117400518Y-92055413D01*
X117529836Y-92367617D01*
X117719682Y-92452713D01*
X118438395Y-91734000D01*
X118797605Y-91734000D01*
X119516318Y-92452713D01*
X119706164Y-92367617D01*
X119865807Y-91902964D01*
X119835482Y-91412587D01*
X119706164Y-91100383D01*
X119516318Y-91015287D01*
X118797605Y-91734000D01*
X118438395Y-91734000D01*
X117719682Y-91015287D01*
X117529836Y-91100383D01*
X117370193Y-91565036D01*
X93644555Y-91565036D01*
X93663180Y-91554785D01*
X94024122Y-91103791D01*
X94101868Y-90835682D01*
X117899287Y-90835682D01*
X118618000Y-91554395D01*
X119336713Y-90835682D01*
X119251617Y-90645836D01*
X118786964Y-90486193D01*
X118296587Y-90516518D01*
X117984383Y-90645836D01*
X117899287Y-90835682D01*
X94101868Y-90835682D01*
X94185000Y-90549000D01*
X94185000Y-89789000D01*
X92837000Y-89789000D01*
X92583000Y-89789000D01*
X91235000Y-89789000D01*
X89113522Y-89789000D01*
X89113522Y-88775000D01*
X91235000Y-88775000D01*
X91235000Y-89535000D01*
X92583000Y-89535000D01*
X92583000Y-87541665D01*
X92837000Y-87541665D01*
X92837000Y-89535000D01*
X94185000Y-89535000D01*
X94185000Y-88775000D01*
X94024122Y-88220209D01*
X93663180Y-87769215D01*
X93157125Y-87490677D01*
X93065320Y-87470437D01*
X92837000Y-87541665D01*
X92583000Y-87541665D01*
X92354680Y-87470437D01*
X92262875Y-87490677D01*
X91756820Y-87769215D01*
X91395878Y-88220209D01*
X91235000Y-88775000D01*
X89113522Y-88775000D01*
X89113522Y-87862000D01*
X89079761Y-87692271D01*
X88983617Y-87548383D01*
X88839729Y-87452239D01*
X88670000Y-87418478D01*
X86590000Y-87418478D01*
X86420271Y-87452239D01*
X86276383Y-87548383D01*
X86180239Y-87692271D01*
X86146478Y-87862000D01*
X74052747Y-87862000D01*
X74029437Y-87805726D01*
X73738286Y-87514575D01*
X73357880Y-87357006D01*
X72946132Y-87357006D01*
X72565726Y-87514575D01*
X72274575Y-87805726D01*
X72117006Y-88186132D01*
X72117006Y-88597880D01*
X72263001Y-88950343D01*
X72263000Y-91897650D01*
X72117000Y-92250126D01*
X57107950Y-92250126D01*
X56945771Y-92087947D01*
X55683264Y-91565000D01*
X54316736Y-91565000D01*
X53054229Y-92087947D01*
X52087947Y-93054229D01*
X51565000Y-94316736D01*
X50835000Y-94316736D01*
X50835000Y-84610746D01*
X53005000Y-84610746D01*
X53005000Y-85249254D01*
X53249347Y-85839160D01*
X53700840Y-86290653D01*
X54290746Y-86535000D01*
X54929254Y-86535000D01*
X55519160Y-86290653D01*
X55970653Y-85839160D01*
X56215000Y-85249254D01*
X56215000Y-84610746D01*
X58005000Y-84610746D01*
X58005000Y-85249254D01*
X58249347Y-85839160D01*
X58700840Y-86290653D01*
X59290746Y-86535000D01*
X59929254Y-86535000D01*
X60519160Y-86290653D01*
X60970653Y-85839160D01*
X61215000Y-85249254D01*
X61215000Y-84610746D01*
X61134296Y-84415908D01*
X82477000Y-84415908D01*
X82477000Y-84748092D01*
X82604121Y-85054990D01*
X82839010Y-85289879D01*
X83145908Y-85417000D01*
X83262410Y-85417000D01*
X84096142Y-86250733D01*
X84131038Y-86302958D01*
X84337940Y-86441206D01*
X84520393Y-86477498D01*
X84520397Y-86477498D01*
X84581997Y-86489751D01*
X84643597Y-86477498D01*
X86058631Y-86477498D01*
X86141010Y-86559877D01*
X86447908Y-86686998D01*
X86780092Y-86686998D01*
X87028751Y-86584000D01*
X99902478Y-86584000D01*
X99902478Y-89184000D01*
X99936239Y-89353729D01*
X100032383Y-89497617D01*
X100176271Y-89593761D01*
X100346000Y-89627522D01*
X102346000Y-89627522D01*
X102515729Y-89593761D01*
X102659617Y-89497617D01*
X102755761Y-89353729D01*
X102789522Y-89184000D01*
X102789522Y-86584000D01*
X102755761Y-86414271D01*
X102659617Y-86270383D01*
X102515729Y-86174239D01*
X102346000Y-86140478D01*
X100346000Y-86140478D01*
X100176271Y-86174239D01*
X100032383Y-86270383D01*
X99936239Y-86414271D01*
X99902478Y-86584000D01*
X87028751Y-86584000D01*
X87086990Y-86559877D01*
X87321879Y-86324988D01*
X87449000Y-86018090D01*
X87449000Y-85685906D01*
X87330575Y-85400000D01*
X108272887Y-85400000D01*
X108384260Y-85959909D01*
X108701423Y-86434577D01*
X109176091Y-86751740D01*
X109594667Y-86835000D01*
X110877333Y-86835000D01*
X111295909Y-86751740D01*
X111770577Y-86434577D01*
X112087740Y-85959909D01*
X112199113Y-85400000D01*
X112087740Y-84840091D01*
X111770577Y-84365423D01*
X111295909Y-84048260D01*
X110877333Y-83965000D01*
X109594667Y-83965000D01*
X109176091Y-84048260D01*
X108701423Y-84365423D01*
X108384260Y-84840091D01*
X108272887Y-85400000D01*
X87330575Y-85400000D01*
X87321879Y-85379008D01*
X87086990Y-85144119D01*
X86780092Y-85016998D01*
X86447908Y-85016998D01*
X86141010Y-85144119D01*
X86058631Y-85226498D01*
X84841089Y-85226498D01*
X84147000Y-84532410D01*
X84147000Y-84415908D01*
X84019879Y-84109010D01*
X83784990Y-83874121D01*
X83478092Y-83747000D01*
X83145908Y-83747000D01*
X82839010Y-83874121D01*
X82604121Y-84109010D01*
X82477000Y-84415908D01*
X61134296Y-84415908D01*
X60970653Y-84020840D01*
X60519160Y-83569347D01*
X59929254Y-83325000D01*
X59290746Y-83325000D01*
X58700840Y-83569347D01*
X58249347Y-84020840D01*
X58005000Y-84610746D01*
X56215000Y-84610746D01*
X55970653Y-84020840D01*
X55519160Y-83569347D01*
X54929254Y-83325000D01*
X54290746Y-83325000D01*
X53700840Y-83569347D01*
X53249347Y-84020840D01*
X53005000Y-84610746D01*
X50835000Y-84610746D01*
X50835000Y-79610746D01*
X53005000Y-79610746D01*
X53005000Y-80249254D01*
X53249347Y-80839160D01*
X53700840Y-81290653D01*
X54290746Y-81535000D01*
X54929254Y-81535000D01*
X55519160Y-81290653D01*
X55970653Y-80839160D01*
X56215000Y-80249254D01*
X56215000Y-79610746D01*
X58005000Y-79610746D01*
X58005000Y-80249254D01*
X58249347Y-80839160D01*
X58700840Y-81290653D01*
X59290746Y-81535000D01*
X59929254Y-81535000D01*
X60519160Y-81290653D01*
X60970653Y-80839160D01*
X61215000Y-80249254D01*
X61215000Y-79610746D01*
X61153764Y-79462908D01*
X63935000Y-79462908D01*
X63935000Y-79795092D01*
X64062121Y-80101990D01*
X64297010Y-80336879D01*
X64603908Y-80464000D01*
X64936092Y-80464000D01*
X65242990Y-80336879D01*
X65477879Y-80101990D01*
X65532174Y-79970908D01*
X84255000Y-79970908D01*
X84255000Y-80303092D01*
X84382121Y-80609990D01*
X84617010Y-80844879D01*
X84923908Y-80972000D01*
X85256092Y-80972000D01*
X85562990Y-80844879D01*
X85797879Y-80609990D01*
X85925000Y-80303092D01*
X85925000Y-80186589D01*
X87276244Y-78835347D01*
X87438000Y-78867522D01*
X88838000Y-78867522D01*
X89007729Y-78833761D01*
X89151617Y-78737617D01*
X89247761Y-78593729D01*
X89256511Y-78549735D01*
X92571870Y-78549735D01*
X92644648Y-78729217D01*
X93072972Y-78872112D01*
X93523375Y-78840217D01*
X93791352Y-78729217D01*
X93864130Y-78549735D01*
X93218000Y-77903605D01*
X92571870Y-78549735D01*
X89256511Y-78549735D01*
X89281522Y-78424000D01*
X89281522Y-77578972D01*
X92069888Y-77578972D01*
X92101783Y-78029375D01*
X92212783Y-78297352D01*
X92392265Y-78370130D01*
X93038395Y-77724000D01*
X93397605Y-77724000D01*
X94043735Y-78370130D01*
X94223217Y-78297352D01*
X94355779Y-77900000D01*
X108272887Y-77900000D01*
X108384260Y-78459909D01*
X108701423Y-78934577D01*
X109176091Y-79251740D01*
X109594667Y-79335000D01*
X110877333Y-79335000D01*
X111295909Y-79251740D01*
X111770577Y-78934577D01*
X112087740Y-78459909D01*
X112199113Y-77900000D01*
X112164105Y-77724000D01*
X116607908Y-77724000D01*
X116723161Y-78303418D01*
X117051375Y-78794625D01*
X117542582Y-79122839D01*
X117975744Y-79209000D01*
X119768256Y-79209000D01*
X120201418Y-79122839D01*
X120692625Y-78794625D01*
X121020839Y-78303418D01*
X121136092Y-77724000D01*
X121020839Y-77144582D01*
X120692625Y-76653375D01*
X120201418Y-76325161D01*
X119768256Y-76239000D01*
X117975744Y-76239000D01*
X117542582Y-76325161D01*
X117051375Y-76653375D01*
X116723161Y-77144582D01*
X116607908Y-77724000D01*
X112164105Y-77724000D01*
X112087740Y-77340091D01*
X111770577Y-76865423D01*
X111295909Y-76548260D01*
X110877333Y-76465000D01*
X109594667Y-76465000D01*
X109176091Y-76548260D01*
X108701423Y-76865423D01*
X108384260Y-77340091D01*
X108272887Y-77900000D01*
X94355779Y-77900000D01*
X94366112Y-77869028D01*
X94334217Y-77418625D01*
X94223217Y-77150648D01*
X94043735Y-77077870D01*
X93397605Y-77724000D01*
X93038395Y-77724000D01*
X92392265Y-77077870D01*
X92212783Y-77150648D01*
X92069888Y-77578972D01*
X89281522Y-77578972D01*
X89281522Y-77024000D01*
X89256512Y-76898265D01*
X92571870Y-76898265D01*
X93218000Y-77544395D01*
X93864130Y-76898265D01*
X93791352Y-76718783D01*
X93363028Y-76575888D01*
X92912625Y-76607783D01*
X92644648Y-76718783D01*
X92571870Y-76898265D01*
X89256512Y-76898265D01*
X89247761Y-76854271D01*
X89151617Y-76710383D01*
X89007729Y-76614239D01*
X88838000Y-76580478D01*
X87438000Y-76580478D01*
X87268271Y-76614239D01*
X87124383Y-76710383D01*
X87028239Y-76854271D01*
X86994478Y-77024000D01*
X86994478Y-77347931D01*
X85040411Y-79302000D01*
X84923908Y-79302000D01*
X84617010Y-79429121D01*
X84382121Y-79664010D01*
X84255000Y-79970908D01*
X65532174Y-79970908D01*
X65605000Y-79795092D01*
X65605000Y-79462908D01*
X65477879Y-79156010D01*
X65395500Y-79073631D01*
X65395500Y-78065908D01*
X65713000Y-78065908D01*
X65713000Y-78398092D01*
X65840121Y-78704990D01*
X66075010Y-78939879D01*
X66381908Y-79067000D01*
X66714092Y-79067000D01*
X67020990Y-78939879D01*
X67103369Y-78857500D01*
X70310631Y-78857500D01*
X70393010Y-78939879D01*
X70699908Y-79067000D01*
X71032092Y-79067000D01*
X71338990Y-78939879D01*
X71573879Y-78704990D01*
X71701000Y-78398092D01*
X71701000Y-78065908D01*
X71573879Y-77759010D01*
X71338990Y-77524121D01*
X71032092Y-77397000D01*
X70699908Y-77397000D01*
X70393010Y-77524121D01*
X70310631Y-77606500D01*
X67103369Y-77606500D01*
X67020990Y-77524121D01*
X66714092Y-77397000D01*
X66381908Y-77397000D01*
X66075010Y-77524121D01*
X65840121Y-77759010D01*
X65713000Y-78065908D01*
X65395500Y-78065908D01*
X65395500Y-74954089D01*
X66189355Y-74160235D01*
X66189357Y-74160232D01*
X67759590Y-72590000D01*
X67876092Y-72590000D01*
X68182990Y-72462879D01*
X68417879Y-72227990D01*
X68545000Y-71921092D01*
X68545000Y-71588908D01*
X68417879Y-71282010D01*
X68343777Y-71207908D01*
X70539000Y-71207908D01*
X70539000Y-71540092D01*
X70666121Y-71846990D01*
X70901010Y-72081879D01*
X71207908Y-72209000D01*
X71414213Y-72209000D01*
X75001468Y-75796256D01*
X75032821Y-75843179D01*
X75079744Y-75874532D01*
X75079745Y-75874533D01*
X75134307Y-75910990D01*
X75218719Y-75967392D01*
X75382649Y-76000000D01*
X75382654Y-76000000D01*
X75438000Y-76011009D01*
X75493346Y-76000000D01*
X76089131Y-76000000D01*
X76235010Y-76145879D01*
X76541908Y-76273000D01*
X76874092Y-76273000D01*
X77180990Y-76145879D01*
X77317134Y-76009735D01*
X90031870Y-76009735D01*
X90104648Y-76189217D01*
X90532972Y-76332112D01*
X90983375Y-76300217D01*
X91251352Y-76189217D01*
X91324130Y-76009735D01*
X90678000Y-75363605D01*
X90031870Y-76009735D01*
X77317134Y-76009735D01*
X77415879Y-75910990D01*
X77543000Y-75604092D01*
X77543000Y-75271908D01*
X77446515Y-75038972D01*
X89529888Y-75038972D01*
X89561783Y-75489375D01*
X89672783Y-75757352D01*
X89852265Y-75830130D01*
X90498395Y-75184000D01*
X90857605Y-75184000D01*
X91503735Y-75830130D01*
X91683217Y-75757352D01*
X91826112Y-75329028D01*
X91794217Y-74878625D01*
X91683217Y-74610648D01*
X91503735Y-74537870D01*
X90857605Y-75184000D01*
X90498395Y-75184000D01*
X89852265Y-74537870D01*
X89672783Y-74610648D01*
X89529888Y-75038972D01*
X77446515Y-75038972D01*
X77415879Y-74965010D01*
X77180990Y-74730121D01*
X76874092Y-74603000D01*
X76541908Y-74603000D01*
X76235010Y-74730121D01*
X76089131Y-74876000D01*
X75670788Y-74876000D01*
X75153053Y-74358265D01*
X90031870Y-74358265D01*
X90678000Y-75004395D01*
X91324130Y-74358265D01*
X91251352Y-74178783D01*
X90823028Y-74035888D01*
X90372625Y-74067783D01*
X90104648Y-74178783D01*
X90031870Y-74358265D01*
X75153053Y-74358265D01*
X72209000Y-71414213D01*
X72209000Y-71207908D01*
X72081879Y-70901010D01*
X71846990Y-70666121D01*
X71540092Y-70539000D01*
X71207908Y-70539000D01*
X70901010Y-70666121D01*
X70666121Y-70901010D01*
X70539000Y-71207908D01*
X68343777Y-71207908D01*
X68182990Y-71047121D01*
X67876092Y-70920000D01*
X67543908Y-70920000D01*
X67237010Y-71047121D01*
X67002121Y-71282010D01*
X66875000Y-71588908D01*
X66875000Y-71705410D01*
X65304768Y-73275643D01*
X65304765Y-73275645D01*
X64371268Y-74209143D01*
X64319041Y-74244040D01*
X64284144Y-74296267D01*
X64180792Y-74450943D01*
X64132247Y-74695000D01*
X64144501Y-74756606D01*
X64144500Y-79073631D01*
X64062121Y-79156010D01*
X63935000Y-79462908D01*
X61153764Y-79462908D01*
X60970653Y-79020840D01*
X60519160Y-78569347D01*
X59929254Y-78325000D01*
X59290746Y-78325000D01*
X58700840Y-78569347D01*
X58249347Y-79020840D01*
X58005000Y-79610746D01*
X56215000Y-79610746D01*
X55970653Y-79020840D01*
X55519160Y-78569347D01*
X54929254Y-78325000D01*
X54290746Y-78325000D01*
X53700840Y-78569347D01*
X53249347Y-79020840D01*
X53005000Y-79610746D01*
X50835000Y-79610746D01*
X50835000Y-74610746D01*
X53005000Y-74610746D01*
X53005000Y-75249254D01*
X53249347Y-75839160D01*
X53700840Y-76290653D01*
X54290746Y-76535000D01*
X54929254Y-76535000D01*
X55519160Y-76290653D01*
X55970653Y-75839160D01*
X56215000Y-75249254D01*
X56215000Y-74610746D01*
X58005000Y-74610746D01*
X58005000Y-75249254D01*
X58249347Y-75839160D01*
X58700840Y-76290653D01*
X59290746Y-76535000D01*
X59929254Y-76535000D01*
X60519160Y-76290653D01*
X60970653Y-75839160D01*
X61215000Y-75249254D01*
X61215000Y-74610746D01*
X60970653Y-74020840D01*
X60519160Y-73569347D01*
X59929254Y-73325000D01*
X59290746Y-73325000D01*
X58700840Y-73569347D01*
X58249347Y-74020840D01*
X58005000Y-74610746D01*
X56215000Y-74610746D01*
X55970653Y-74020840D01*
X55519160Y-73569347D01*
X54929254Y-73325000D01*
X54290746Y-73325000D01*
X53700840Y-73569347D01*
X53249347Y-74020840D01*
X53005000Y-74610746D01*
X50835000Y-74610746D01*
X50835000Y-66615908D01*
X87303000Y-66615908D01*
X87303000Y-66948092D01*
X87430121Y-67254990D01*
X87512501Y-67337370D01*
X87512500Y-68042631D01*
X87430121Y-68125010D01*
X87303000Y-68431908D01*
X87303000Y-68764092D01*
X87430121Y-69070990D01*
X87665010Y-69305879D01*
X87971908Y-69433000D01*
X88304092Y-69433000D01*
X88610990Y-69305879D01*
X88845879Y-69070990D01*
X88973000Y-68764092D01*
X88973000Y-68431908D01*
X88845879Y-68125010D01*
X88763500Y-68042631D01*
X88763500Y-67337369D01*
X88845879Y-67254990D01*
X88973000Y-66948092D01*
X88973000Y-66615908D01*
X88845879Y-66309010D01*
X88610990Y-66074121D01*
X88304092Y-65947000D01*
X87971908Y-65947000D01*
X87665010Y-66074121D01*
X87430121Y-66309010D01*
X87303000Y-66615908D01*
X50835000Y-66615908D01*
X50835000Y-61195750D01*
X51751000Y-61195750D01*
X51751000Y-61946527D01*
X51817225Y-62106408D01*
X51939592Y-62228775D01*
X52099473Y-62295000D01*
X52506605Y-62295000D01*
X52329783Y-62368242D01*
X51954242Y-62743783D01*
X51751000Y-63234452D01*
X51751000Y-63765548D01*
X51954242Y-64256217D01*
X52329783Y-64631758D01*
X52820452Y-64835000D01*
X53351548Y-64835000D01*
X53388009Y-64819897D01*
X75365000Y-64819897D01*
X75365000Y-65152081D01*
X75492121Y-65458979D01*
X75727010Y-65693868D01*
X76033908Y-65820989D01*
X76366092Y-65820989D01*
X76672990Y-65693868D01*
X76755369Y-65611489D01*
X77934272Y-65611489D01*
X77995873Y-65623742D01*
X78057474Y-65611489D01*
X78057478Y-65611489D01*
X78239931Y-65575197D01*
X78446833Y-65436949D01*
X78481732Y-65384719D01*
X80841053Y-63025398D01*
X92710000Y-63025398D01*
X92710000Y-72328398D01*
X92722201Y-72452280D01*
X92798321Y-72834963D01*
X92893137Y-73063868D01*
X93109910Y-73388292D01*
X93285106Y-73563488D01*
X93609530Y-73780261D01*
X93838435Y-73875077D01*
X94221118Y-73951197D01*
X94345000Y-73963398D01*
X104717680Y-73963398D01*
X104783071Y-73960022D01*
X104987934Y-73938813D01*
X105052631Y-73928721D01*
X120539160Y-70687354D01*
X120675940Y-70642022D01*
X121085100Y-70452519D01*
X121311096Y-70276706D01*
X121595411Y-69926723D01*
X121721198Y-69669501D01*
X121822860Y-69230196D01*
X121839209Y-69087031D01*
X121839209Y-66508549D01*
X121823211Y-66366910D01*
X121723706Y-65932045D01*
X121600519Y-65676957D01*
X121321808Y-65328634D01*
X121099950Y-65152497D01*
X120697498Y-64960035D01*
X120562817Y-64913361D01*
X109983210Y-62535000D01*
X110897031Y-62535000D01*
X111373945Y-62440136D01*
X111914769Y-62078769D01*
X112276136Y-61537945D01*
X112403031Y-60900000D01*
X112276136Y-60262055D01*
X112233336Y-60198000D01*
X116276989Y-60198000D01*
X116407765Y-60855454D01*
X116780183Y-61412817D01*
X117337546Y-61785235D01*
X117829043Y-61883000D01*
X119660957Y-61883000D01*
X120152454Y-61785235D01*
X120709817Y-61412817D01*
X121082235Y-60855454D01*
X121213011Y-60198000D01*
X121082235Y-59540546D01*
X120709817Y-58983183D01*
X120152454Y-58610765D01*
X119660957Y-58513000D01*
X117829043Y-58513000D01*
X117337546Y-58610765D01*
X116780183Y-58983183D01*
X116407765Y-59540546D01*
X116276989Y-60198000D01*
X112233336Y-60198000D01*
X111914769Y-59721231D01*
X111373945Y-59359864D01*
X110897031Y-59265000D01*
X109574969Y-59265000D01*
X109098055Y-59359864D01*
X108557231Y-59721231D01*
X108195864Y-60262055D01*
X108068969Y-60900000D01*
X108195864Y-61537945D01*
X108557231Y-62078769D01*
X108863209Y-62283217D01*
X105068799Y-61430210D01*
X104999590Y-61418625D01*
X104780258Y-61394275D01*
X104710191Y-61390398D01*
X94345000Y-61390398D01*
X94221118Y-61402599D01*
X93838435Y-61478719D01*
X93609530Y-61573535D01*
X93285106Y-61790308D01*
X93109910Y-61965504D01*
X92893137Y-62289928D01*
X92798321Y-62518833D01*
X92722201Y-62901516D01*
X92710000Y-63025398D01*
X80841053Y-63025398D01*
X81678733Y-62187719D01*
X81730960Y-62152822D01*
X81869208Y-61945920D01*
X81905500Y-61763467D01*
X81905500Y-61763463D01*
X81917753Y-61701862D01*
X81905500Y-61640261D01*
X81905500Y-61261369D01*
X81987879Y-61178990D01*
X82115000Y-60872092D01*
X82115000Y-60539908D01*
X81987879Y-60233010D01*
X81752990Y-59998121D01*
X81446092Y-59871000D01*
X81113908Y-59871000D01*
X80807010Y-59998121D01*
X80572121Y-60233010D01*
X80445000Y-60539908D01*
X80445000Y-60872092D01*
X80572121Y-61178990D01*
X80654501Y-61261370D01*
X80654501Y-61442771D01*
X80390687Y-61706585D01*
X80381500Y-61660401D01*
X80381500Y-59483369D01*
X80463879Y-59400990D01*
X80591000Y-59094092D01*
X80591000Y-58761908D01*
X80463879Y-58455010D01*
X80228990Y-58220121D01*
X79922092Y-58093000D01*
X79589908Y-58093000D01*
X79283010Y-58220121D01*
X79048121Y-58455010D01*
X78921000Y-58761908D01*
X78921000Y-59094092D01*
X79048121Y-59400990D01*
X79130500Y-59483369D01*
X79130501Y-61462910D01*
X79103270Y-61490141D01*
X79098464Y-61493352D01*
X79029010Y-61522121D01*
X78794121Y-61757010D01*
X78667000Y-62063908D01*
X78667000Y-62396092D01*
X78794121Y-62702990D01*
X79029010Y-62937879D01*
X79121205Y-62976067D01*
X77736784Y-64360489D01*
X76755369Y-64360489D01*
X76672990Y-64278110D01*
X76366092Y-64150989D01*
X76033908Y-64150989D01*
X75727010Y-64278110D01*
X75492121Y-64512999D01*
X75365000Y-64819897D01*
X53388009Y-64819897D01*
X53842217Y-64631758D01*
X54217758Y-64256217D01*
X54421000Y-63765548D01*
X54421000Y-63234452D01*
X54217758Y-62743783D01*
X53842217Y-62368242D01*
X53665395Y-62295000D01*
X54072527Y-62295000D01*
X54232408Y-62228775D01*
X54354775Y-62106408D01*
X54421000Y-61946527D01*
X54421000Y-61195750D01*
X54312250Y-61087000D01*
X53213000Y-61087000D01*
X53213000Y-61107000D01*
X52959000Y-61107000D01*
X52959000Y-61087000D01*
X51859750Y-61087000D01*
X51751000Y-61195750D01*
X50835000Y-61195750D01*
X50835000Y-59973473D01*
X51751000Y-59973473D01*
X51751000Y-60724250D01*
X51859750Y-60833000D01*
X52959000Y-60833000D01*
X52959000Y-59733750D01*
X53213000Y-59733750D01*
X53213000Y-60833000D01*
X54312250Y-60833000D01*
X54421000Y-60724250D01*
X54421000Y-59973473D01*
X54354775Y-59813592D01*
X54232408Y-59691225D01*
X54072527Y-59625000D01*
X53321750Y-59625000D01*
X53213000Y-59733750D01*
X52959000Y-59733750D01*
X52850250Y-59625000D01*
X52099473Y-59625000D01*
X51939592Y-59691225D01*
X51817225Y-59813592D01*
X51751000Y-59973473D01*
X50835000Y-59973473D01*
X50835000Y-59292730D01*
X62787000Y-59292730D01*
X62787000Y-61103269D01*
X62872581Y-61533515D01*
X63198585Y-62021415D01*
X63686484Y-62347419D01*
X64262000Y-62461896D01*
X64837515Y-62347419D01*
X65325415Y-62021415D01*
X65651419Y-61533516D01*
X65737000Y-61103270D01*
X65737000Y-59292730D01*
X65651419Y-58862484D01*
X65341061Y-58398000D01*
X67858478Y-58398000D01*
X67858478Y-61998000D01*
X67892239Y-62167729D01*
X67988383Y-62311617D01*
X68132271Y-62407761D01*
X68302000Y-62441522D01*
X70382000Y-62441522D01*
X70551729Y-62407761D01*
X70695617Y-62311617D01*
X70791761Y-62167729D01*
X70825522Y-61998000D01*
X70825522Y-58398000D01*
X70791761Y-58228271D01*
X70695617Y-58084383D01*
X70551729Y-57988239D01*
X70382000Y-57954478D01*
X68302000Y-57954478D01*
X68132271Y-57988239D01*
X67988383Y-58084383D01*
X67892239Y-58228271D01*
X67858478Y-58398000D01*
X65341061Y-58398000D01*
X65325415Y-58374585D01*
X64837516Y-58048581D01*
X64262000Y-57934104D01*
X63686485Y-58048581D01*
X63198586Y-58374585D01*
X62872582Y-58862484D01*
X62787000Y-59292730D01*
X50835000Y-59292730D01*
X50835000Y-54316736D01*
X51565000Y-54316736D01*
X51565000Y-55683264D01*
X52087947Y-56945771D01*
X53054229Y-57912053D01*
X54316736Y-58435000D01*
X55683264Y-58435000D01*
X56945771Y-57912053D01*
X57912053Y-56945771D01*
X58435000Y-55683264D01*
X58435000Y-54316736D01*
X91565000Y-54316736D01*
X91565000Y-55683264D01*
X92087947Y-56945771D01*
X93054229Y-57912053D01*
X94316736Y-58435000D01*
X95683264Y-58435000D01*
X96945771Y-57912053D01*
X97912053Y-56945771D01*
X98435000Y-55683264D01*
X98435000Y-54316736D01*
X98055276Y-53400000D01*
X108068969Y-53400000D01*
X108195864Y-54037945D01*
X108557231Y-54578769D01*
X109098055Y-54940136D01*
X109574969Y-55035000D01*
X110897031Y-55035000D01*
X111373945Y-54940136D01*
X111914769Y-54578769D01*
X112276136Y-54037945D01*
X112403031Y-53400000D01*
X112276136Y-52762055D01*
X111914769Y-52221231D01*
X111373945Y-51859864D01*
X110897031Y-51765000D01*
X109574969Y-51765000D01*
X109098055Y-51859864D01*
X108557231Y-52221231D01*
X108195864Y-52762055D01*
X108068969Y-53400000D01*
X98055276Y-53400000D01*
X97912053Y-53054229D01*
X96945771Y-52087947D01*
X95683264Y-51565000D01*
X94316736Y-51565000D01*
X93054229Y-52087947D01*
X92087947Y-53054229D01*
X91565000Y-54316736D01*
X58435000Y-54316736D01*
X57912053Y-53054229D01*
X56945771Y-52087947D01*
X55683264Y-51565000D01*
X54316736Y-51565000D01*
X53054229Y-52087947D01*
X52087947Y-53054229D01*
X51565000Y-54316736D01*
X50835000Y-54316736D01*
X50835000Y-50835000D01*
X128963871Y-50835000D01*
X129032000Y-51177509D01*
X129032000Y-51177509D01*
G37*
X129032000Y-51177509D02*
X129032000Y-98174491D01*
X128963248Y-98520130D01*
X128774545Y-98802545D01*
X128492130Y-98991248D01*
X128146491Y-99060000D01*
X51426300Y-99060000D01*
X51081738Y-98991694D01*
X50835000Y-98827522D01*
X50835000Y-94316736D01*
X51565000Y-94316736D01*
X51565000Y-95683264D01*
X52087947Y-96945771D01*
X53054229Y-97912053D01*
X54316736Y-98435000D01*
X55683264Y-98435000D01*
X56945771Y-97912053D01*
X57912053Y-96945771D01*
X58435000Y-95683264D01*
X58435000Y-94316736D01*
X57912053Y-93054229D01*
X57107950Y-92250126D01*
X72117000Y-92250126D01*
X72117000Y-92661874D01*
X72274569Y-93042280D01*
X72565720Y-93333431D01*
X72946126Y-93491000D01*
X73357874Y-93491000D01*
X73495484Y-93434000D01*
X117374478Y-93434000D01*
X117374478Y-95034000D01*
X117408239Y-95203729D01*
X117504383Y-95347617D01*
X117648271Y-95443761D01*
X117818000Y-95477522D01*
X119418000Y-95477522D01*
X119587729Y-95443761D01*
X119731617Y-95347617D01*
X119827761Y-95203729D01*
X119861522Y-95034000D01*
X119861522Y-94316736D01*
X121565000Y-94316736D01*
X121565000Y-95683264D01*
X122087947Y-96945771D01*
X123054229Y-97912053D01*
X124316736Y-98435000D01*
X125683264Y-98435000D01*
X126945771Y-97912053D01*
X127912053Y-96945771D01*
X128435000Y-95683264D01*
X128435000Y-94316736D01*
X127912053Y-93054229D01*
X126945771Y-92087947D01*
X125683264Y-91565000D01*
X124316736Y-91565000D01*
X123054229Y-92087947D01*
X122087947Y-93054229D01*
X121565000Y-94316736D01*
X119861522Y-94316736D01*
X119861522Y-93434000D01*
X119827761Y-93264271D01*
X119731617Y-93120383D01*
X119587729Y-93024239D01*
X119418000Y-92990478D01*
X117818000Y-92990478D01*
X117648271Y-93024239D01*
X117504383Y-93120383D01*
X117408239Y-93264271D01*
X117374478Y-93434000D01*
X73495484Y-93434000D01*
X73738280Y-93333431D01*
X74029431Y-93042280D01*
X74187000Y-92661874D01*
X74187000Y-92632318D01*
X117899287Y-92632318D01*
X117984383Y-92822164D01*
X118449036Y-92981807D01*
X118939413Y-92951482D01*
X119251617Y-92822164D01*
X119336713Y-92632318D01*
X118618000Y-91913605D01*
X117899287Y-92632318D01*
X74187000Y-92632318D01*
X74187000Y-92250126D01*
X74041000Y-91897650D01*
X74041000Y-88950370D01*
X74187006Y-88597880D01*
X74187006Y-88186132D01*
X74052747Y-87862000D01*
X86146478Y-87862000D01*
X86146478Y-91462000D01*
X86180239Y-91631729D01*
X86276383Y-91775617D01*
X86420271Y-91871761D01*
X86590000Y-91905522D01*
X88670000Y-91905522D01*
X88839729Y-91871761D01*
X88983617Y-91775617D01*
X89079761Y-91631729D01*
X89113522Y-91462000D01*
X89113522Y-89789000D01*
X91235000Y-89789000D01*
X91235000Y-90549000D01*
X91395878Y-91103791D01*
X91756820Y-91554785D01*
X92262875Y-91833323D01*
X92354680Y-91853563D01*
X92583000Y-91782335D01*
X92583000Y-89789000D01*
X92837000Y-89789000D01*
X92837000Y-91782335D01*
X93065320Y-91853563D01*
X93157125Y-91833323D01*
X93644555Y-91565036D01*
X117370193Y-91565036D01*
X117400518Y-92055413D01*
X117529836Y-92367617D01*
X117719682Y-92452713D01*
X118438395Y-91734000D01*
X118797605Y-91734000D01*
X119516318Y-92452713D01*
X119706164Y-92367617D01*
X119865807Y-91902964D01*
X119835482Y-91412587D01*
X119706164Y-91100383D01*
X119516318Y-91015287D01*
X118797605Y-91734000D01*
X118438395Y-91734000D01*
X117719682Y-91015287D01*
X117529836Y-91100383D01*
X117370193Y-91565036D01*
X93644555Y-91565036D01*
X93663180Y-91554785D01*
X94024122Y-91103791D01*
X94101868Y-90835682D01*
X117899287Y-90835682D01*
X118618000Y-91554395D01*
X119336713Y-90835682D01*
X119251617Y-90645836D01*
X118786964Y-90486193D01*
X118296587Y-90516518D01*
X117984383Y-90645836D01*
X117899287Y-90835682D01*
X94101868Y-90835682D01*
X94185000Y-90549000D01*
X94185000Y-89789000D01*
X92837000Y-89789000D01*
X92583000Y-89789000D01*
X91235000Y-89789000D01*
X89113522Y-89789000D01*
X89113522Y-88775000D01*
X91235000Y-88775000D01*
X91235000Y-89535000D01*
X92583000Y-89535000D01*
X92583000Y-87541665D01*
X92837000Y-87541665D01*
X92837000Y-89535000D01*
X94185000Y-89535000D01*
X94185000Y-88775000D01*
X94024122Y-88220209D01*
X93663180Y-87769215D01*
X93157125Y-87490677D01*
X93065320Y-87470437D01*
X92837000Y-87541665D01*
X92583000Y-87541665D01*
X92354680Y-87470437D01*
X92262875Y-87490677D01*
X91756820Y-87769215D01*
X91395878Y-88220209D01*
X91235000Y-88775000D01*
X89113522Y-88775000D01*
X89113522Y-87862000D01*
X89079761Y-87692271D01*
X88983617Y-87548383D01*
X88839729Y-87452239D01*
X88670000Y-87418478D01*
X86590000Y-87418478D01*
X86420271Y-87452239D01*
X86276383Y-87548383D01*
X86180239Y-87692271D01*
X86146478Y-87862000D01*
X74052747Y-87862000D01*
X74029437Y-87805726D01*
X73738286Y-87514575D01*
X73357880Y-87357006D01*
X72946132Y-87357006D01*
X72565726Y-87514575D01*
X72274575Y-87805726D01*
X72117006Y-88186132D01*
X72117006Y-88597880D01*
X72263001Y-88950343D01*
X72263000Y-91897650D01*
X72117000Y-92250126D01*
X57107950Y-92250126D01*
X56945771Y-92087947D01*
X55683264Y-91565000D01*
X54316736Y-91565000D01*
X53054229Y-92087947D01*
X52087947Y-93054229D01*
X51565000Y-94316736D01*
X50835000Y-94316736D01*
X50835000Y-84610746D01*
X53005000Y-84610746D01*
X53005000Y-85249254D01*
X53249347Y-85839160D01*
X53700840Y-86290653D01*
X54290746Y-86535000D01*
X54929254Y-86535000D01*
X55519160Y-86290653D01*
X55970653Y-85839160D01*
X56215000Y-85249254D01*
X56215000Y-84610746D01*
X58005000Y-84610746D01*
X58005000Y-85249254D01*
X58249347Y-85839160D01*
X58700840Y-86290653D01*
X59290746Y-86535000D01*
X59929254Y-86535000D01*
X60519160Y-86290653D01*
X60970653Y-85839160D01*
X61215000Y-85249254D01*
X61215000Y-84610746D01*
X61134296Y-84415908D01*
X82477000Y-84415908D01*
X82477000Y-84748092D01*
X82604121Y-85054990D01*
X82839010Y-85289879D01*
X83145908Y-85417000D01*
X83262410Y-85417000D01*
X84096142Y-86250733D01*
X84131038Y-86302958D01*
X84337940Y-86441206D01*
X84520393Y-86477498D01*
X84520397Y-86477498D01*
X84581997Y-86489751D01*
X84643597Y-86477498D01*
X86058631Y-86477498D01*
X86141010Y-86559877D01*
X86447908Y-86686998D01*
X86780092Y-86686998D01*
X87028751Y-86584000D01*
X99902478Y-86584000D01*
X99902478Y-89184000D01*
X99936239Y-89353729D01*
X100032383Y-89497617D01*
X100176271Y-89593761D01*
X100346000Y-89627522D01*
X102346000Y-89627522D01*
X102515729Y-89593761D01*
X102659617Y-89497617D01*
X102755761Y-89353729D01*
X102789522Y-89184000D01*
X102789522Y-86584000D01*
X102755761Y-86414271D01*
X102659617Y-86270383D01*
X102515729Y-86174239D01*
X102346000Y-86140478D01*
X100346000Y-86140478D01*
X100176271Y-86174239D01*
X100032383Y-86270383D01*
X99936239Y-86414271D01*
X99902478Y-86584000D01*
X87028751Y-86584000D01*
X87086990Y-86559877D01*
X87321879Y-86324988D01*
X87449000Y-86018090D01*
X87449000Y-85685906D01*
X87330575Y-85400000D01*
X108272887Y-85400000D01*
X108384260Y-85959909D01*
X108701423Y-86434577D01*
X109176091Y-86751740D01*
X109594667Y-86835000D01*
X110877333Y-86835000D01*
X111295909Y-86751740D01*
X111770577Y-86434577D01*
X112087740Y-85959909D01*
X112199113Y-85400000D01*
X112087740Y-84840091D01*
X111770577Y-84365423D01*
X111295909Y-84048260D01*
X110877333Y-83965000D01*
X109594667Y-83965000D01*
X109176091Y-84048260D01*
X108701423Y-84365423D01*
X108384260Y-84840091D01*
X108272887Y-85400000D01*
X87330575Y-85400000D01*
X87321879Y-85379008D01*
X87086990Y-85144119D01*
X86780092Y-85016998D01*
X86447908Y-85016998D01*
X86141010Y-85144119D01*
X86058631Y-85226498D01*
X84841089Y-85226498D01*
X84147000Y-84532410D01*
X84147000Y-84415908D01*
X84019879Y-84109010D01*
X83784990Y-83874121D01*
X83478092Y-83747000D01*
X83145908Y-83747000D01*
X82839010Y-83874121D01*
X82604121Y-84109010D01*
X82477000Y-84415908D01*
X61134296Y-84415908D01*
X60970653Y-84020840D01*
X60519160Y-83569347D01*
X59929254Y-83325000D01*
X59290746Y-83325000D01*
X58700840Y-83569347D01*
X58249347Y-84020840D01*
X58005000Y-84610746D01*
X56215000Y-84610746D01*
X55970653Y-84020840D01*
X55519160Y-83569347D01*
X54929254Y-83325000D01*
X54290746Y-83325000D01*
X53700840Y-83569347D01*
X53249347Y-84020840D01*
X53005000Y-84610746D01*
X50835000Y-84610746D01*
X50835000Y-79610746D01*
X53005000Y-79610746D01*
X53005000Y-80249254D01*
X53249347Y-80839160D01*
X53700840Y-81290653D01*
X54290746Y-81535000D01*
X54929254Y-81535000D01*
X55519160Y-81290653D01*
X55970653Y-80839160D01*
X56215000Y-80249254D01*
X56215000Y-79610746D01*
X58005000Y-79610746D01*
X58005000Y-80249254D01*
X58249347Y-80839160D01*
X58700840Y-81290653D01*
X59290746Y-81535000D01*
X59929254Y-81535000D01*
X60519160Y-81290653D01*
X60970653Y-80839160D01*
X61215000Y-80249254D01*
X61215000Y-79610746D01*
X61153764Y-79462908D01*
X63935000Y-79462908D01*
X63935000Y-79795092D01*
X64062121Y-80101990D01*
X64297010Y-80336879D01*
X64603908Y-80464000D01*
X64936092Y-80464000D01*
X65242990Y-80336879D01*
X65477879Y-80101990D01*
X65532174Y-79970908D01*
X84255000Y-79970908D01*
X84255000Y-80303092D01*
X84382121Y-80609990D01*
X84617010Y-80844879D01*
X84923908Y-80972000D01*
X85256092Y-80972000D01*
X85562990Y-80844879D01*
X85797879Y-80609990D01*
X85925000Y-80303092D01*
X85925000Y-80186589D01*
X87276244Y-78835347D01*
X87438000Y-78867522D01*
X88838000Y-78867522D01*
X89007729Y-78833761D01*
X89151617Y-78737617D01*
X89247761Y-78593729D01*
X89256511Y-78549735D01*
X92571870Y-78549735D01*
X92644648Y-78729217D01*
X93072972Y-78872112D01*
X93523375Y-78840217D01*
X93791352Y-78729217D01*
X93864130Y-78549735D01*
X93218000Y-77903605D01*
X92571870Y-78549735D01*
X89256511Y-78549735D01*
X89281522Y-78424000D01*
X89281522Y-77578972D01*
X92069888Y-77578972D01*
X92101783Y-78029375D01*
X92212783Y-78297352D01*
X92392265Y-78370130D01*
X93038395Y-77724000D01*
X93397605Y-77724000D01*
X94043735Y-78370130D01*
X94223217Y-78297352D01*
X94355779Y-77900000D01*
X108272887Y-77900000D01*
X108384260Y-78459909D01*
X108701423Y-78934577D01*
X109176091Y-79251740D01*
X109594667Y-79335000D01*
X110877333Y-79335000D01*
X111295909Y-79251740D01*
X111770577Y-78934577D01*
X112087740Y-78459909D01*
X112199113Y-77900000D01*
X112164105Y-77724000D01*
X116607908Y-77724000D01*
X116723161Y-78303418D01*
X117051375Y-78794625D01*
X117542582Y-79122839D01*
X117975744Y-79209000D01*
X119768256Y-79209000D01*
X120201418Y-79122839D01*
X120692625Y-78794625D01*
X121020839Y-78303418D01*
X121136092Y-77724000D01*
X121020839Y-77144582D01*
X120692625Y-76653375D01*
X120201418Y-76325161D01*
X119768256Y-76239000D01*
X117975744Y-76239000D01*
X117542582Y-76325161D01*
X117051375Y-76653375D01*
X116723161Y-77144582D01*
X116607908Y-77724000D01*
X112164105Y-77724000D01*
X112087740Y-77340091D01*
X111770577Y-76865423D01*
X111295909Y-76548260D01*
X110877333Y-76465000D01*
X109594667Y-76465000D01*
X109176091Y-76548260D01*
X108701423Y-76865423D01*
X108384260Y-77340091D01*
X108272887Y-77900000D01*
X94355779Y-77900000D01*
X94366112Y-77869028D01*
X94334217Y-77418625D01*
X94223217Y-77150648D01*
X94043735Y-77077870D01*
X93397605Y-77724000D01*
X93038395Y-77724000D01*
X92392265Y-77077870D01*
X92212783Y-77150648D01*
X92069888Y-77578972D01*
X89281522Y-77578972D01*
X89281522Y-77024000D01*
X89256512Y-76898265D01*
X92571870Y-76898265D01*
X93218000Y-77544395D01*
X93864130Y-76898265D01*
X93791352Y-76718783D01*
X93363028Y-76575888D01*
X92912625Y-76607783D01*
X92644648Y-76718783D01*
X92571870Y-76898265D01*
X89256512Y-76898265D01*
X89247761Y-76854271D01*
X89151617Y-76710383D01*
X89007729Y-76614239D01*
X88838000Y-76580478D01*
X87438000Y-76580478D01*
X87268271Y-76614239D01*
X87124383Y-76710383D01*
X87028239Y-76854271D01*
X86994478Y-77024000D01*
X86994478Y-77347931D01*
X85040411Y-79302000D01*
X84923908Y-79302000D01*
X84617010Y-79429121D01*
X84382121Y-79664010D01*
X84255000Y-79970908D01*
X65532174Y-79970908D01*
X65605000Y-79795092D01*
X65605000Y-79462908D01*
X65477879Y-79156010D01*
X65395500Y-79073631D01*
X65395500Y-78065908D01*
X65713000Y-78065908D01*
X65713000Y-78398092D01*
X65840121Y-78704990D01*
X66075010Y-78939879D01*
X66381908Y-79067000D01*
X66714092Y-79067000D01*
X67020990Y-78939879D01*
X67103369Y-78857500D01*
X70310631Y-78857500D01*
X70393010Y-78939879D01*
X70699908Y-79067000D01*
X71032092Y-79067000D01*
X71338990Y-78939879D01*
X71573879Y-78704990D01*
X71701000Y-78398092D01*
X71701000Y-78065908D01*
X71573879Y-77759010D01*
X71338990Y-77524121D01*
X71032092Y-77397000D01*
X70699908Y-77397000D01*
X70393010Y-77524121D01*
X70310631Y-77606500D01*
X67103369Y-77606500D01*
X67020990Y-77524121D01*
X66714092Y-77397000D01*
X66381908Y-77397000D01*
X66075010Y-77524121D01*
X65840121Y-77759010D01*
X65713000Y-78065908D01*
X65395500Y-78065908D01*
X65395500Y-74954089D01*
X66189355Y-74160235D01*
X66189357Y-74160232D01*
X67759590Y-72590000D01*
X67876092Y-72590000D01*
X68182990Y-72462879D01*
X68417879Y-72227990D01*
X68545000Y-71921092D01*
X68545000Y-71588908D01*
X68417879Y-71282010D01*
X68343777Y-71207908D01*
X70539000Y-71207908D01*
X70539000Y-71540092D01*
X70666121Y-71846990D01*
X70901010Y-72081879D01*
X71207908Y-72209000D01*
X71414213Y-72209000D01*
X75001468Y-75796256D01*
X75032821Y-75843179D01*
X75079744Y-75874532D01*
X75079745Y-75874533D01*
X75134307Y-75910990D01*
X75218719Y-75967392D01*
X75382649Y-76000000D01*
X75382654Y-76000000D01*
X75438000Y-76011009D01*
X75493346Y-76000000D01*
X76089131Y-76000000D01*
X76235010Y-76145879D01*
X76541908Y-76273000D01*
X76874092Y-76273000D01*
X77180990Y-76145879D01*
X77317134Y-76009735D01*
X90031870Y-76009735D01*
X90104648Y-76189217D01*
X90532972Y-76332112D01*
X90983375Y-76300217D01*
X91251352Y-76189217D01*
X91324130Y-76009735D01*
X90678000Y-75363605D01*
X90031870Y-76009735D01*
X77317134Y-76009735D01*
X77415879Y-75910990D01*
X77543000Y-75604092D01*
X77543000Y-75271908D01*
X77446515Y-75038972D01*
X89529888Y-75038972D01*
X89561783Y-75489375D01*
X89672783Y-75757352D01*
X89852265Y-75830130D01*
X90498395Y-75184000D01*
X90857605Y-75184000D01*
X91503735Y-75830130D01*
X91683217Y-75757352D01*
X91826112Y-75329028D01*
X91794217Y-74878625D01*
X91683217Y-74610648D01*
X91503735Y-74537870D01*
X90857605Y-75184000D01*
X90498395Y-75184000D01*
X89852265Y-74537870D01*
X89672783Y-74610648D01*
X89529888Y-75038972D01*
X77446515Y-75038972D01*
X77415879Y-74965010D01*
X77180990Y-74730121D01*
X76874092Y-74603000D01*
X76541908Y-74603000D01*
X76235010Y-74730121D01*
X76089131Y-74876000D01*
X75670788Y-74876000D01*
X75153053Y-74358265D01*
X90031870Y-74358265D01*
X90678000Y-75004395D01*
X91324130Y-74358265D01*
X91251352Y-74178783D01*
X90823028Y-74035888D01*
X90372625Y-74067783D01*
X90104648Y-74178783D01*
X90031870Y-74358265D01*
X75153053Y-74358265D01*
X72209000Y-71414213D01*
X72209000Y-71207908D01*
X72081879Y-70901010D01*
X71846990Y-70666121D01*
X71540092Y-70539000D01*
X71207908Y-70539000D01*
X70901010Y-70666121D01*
X70666121Y-70901010D01*
X70539000Y-71207908D01*
X68343777Y-71207908D01*
X68182990Y-71047121D01*
X67876092Y-70920000D01*
X67543908Y-70920000D01*
X67237010Y-71047121D01*
X67002121Y-71282010D01*
X66875000Y-71588908D01*
X66875000Y-71705410D01*
X65304768Y-73275643D01*
X65304765Y-73275645D01*
X64371268Y-74209143D01*
X64319041Y-74244040D01*
X64284144Y-74296267D01*
X64180792Y-74450943D01*
X64132247Y-74695000D01*
X64144501Y-74756606D01*
X64144500Y-79073631D01*
X64062121Y-79156010D01*
X63935000Y-79462908D01*
X61153764Y-79462908D01*
X60970653Y-79020840D01*
X60519160Y-78569347D01*
X59929254Y-78325000D01*
X59290746Y-78325000D01*
X58700840Y-78569347D01*
X58249347Y-79020840D01*
X58005000Y-79610746D01*
X56215000Y-79610746D01*
X55970653Y-79020840D01*
X55519160Y-78569347D01*
X54929254Y-78325000D01*
X54290746Y-78325000D01*
X53700840Y-78569347D01*
X53249347Y-79020840D01*
X53005000Y-79610746D01*
X50835000Y-79610746D01*
X50835000Y-74610746D01*
X53005000Y-74610746D01*
X53005000Y-75249254D01*
X53249347Y-75839160D01*
X53700840Y-76290653D01*
X54290746Y-76535000D01*
X54929254Y-76535000D01*
X55519160Y-76290653D01*
X55970653Y-75839160D01*
X56215000Y-75249254D01*
X56215000Y-74610746D01*
X58005000Y-74610746D01*
X58005000Y-75249254D01*
X58249347Y-75839160D01*
X58700840Y-76290653D01*
X59290746Y-76535000D01*
X59929254Y-76535000D01*
X60519160Y-76290653D01*
X60970653Y-75839160D01*
X61215000Y-75249254D01*
X61215000Y-74610746D01*
X60970653Y-74020840D01*
X60519160Y-73569347D01*
X59929254Y-73325000D01*
X59290746Y-73325000D01*
X58700840Y-73569347D01*
X58249347Y-74020840D01*
X58005000Y-74610746D01*
X56215000Y-74610746D01*
X55970653Y-74020840D01*
X55519160Y-73569347D01*
X54929254Y-73325000D01*
X54290746Y-73325000D01*
X53700840Y-73569347D01*
X53249347Y-74020840D01*
X53005000Y-74610746D01*
X50835000Y-74610746D01*
X50835000Y-66615908D01*
X87303000Y-66615908D01*
X87303000Y-66948092D01*
X87430121Y-67254990D01*
X87512501Y-67337370D01*
X87512500Y-68042631D01*
X87430121Y-68125010D01*
X87303000Y-68431908D01*
X87303000Y-68764092D01*
X87430121Y-69070990D01*
X87665010Y-69305879D01*
X87971908Y-69433000D01*
X88304092Y-69433000D01*
X88610990Y-69305879D01*
X88845879Y-69070990D01*
X88973000Y-68764092D01*
X88973000Y-68431908D01*
X88845879Y-68125010D01*
X88763500Y-68042631D01*
X88763500Y-67337369D01*
X88845879Y-67254990D01*
X88973000Y-66948092D01*
X88973000Y-66615908D01*
X88845879Y-66309010D01*
X88610990Y-66074121D01*
X88304092Y-65947000D01*
X87971908Y-65947000D01*
X87665010Y-66074121D01*
X87430121Y-66309010D01*
X87303000Y-66615908D01*
X50835000Y-66615908D01*
X50835000Y-61195750D01*
X51751000Y-61195750D01*
X51751000Y-61946527D01*
X51817225Y-62106408D01*
X51939592Y-62228775D01*
X52099473Y-62295000D01*
X52506605Y-62295000D01*
X52329783Y-62368242D01*
X51954242Y-62743783D01*
X51751000Y-63234452D01*
X51751000Y-63765548D01*
X51954242Y-64256217D01*
X52329783Y-64631758D01*
X52820452Y-64835000D01*
X53351548Y-64835000D01*
X53388009Y-64819897D01*
X75365000Y-64819897D01*
X75365000Y-65152081D01*
X75492121Y-65458979D01*
X75727010Y-65693868D01*
X76033908Y-65820989D01*
X76366092Y-65820989D01*
X76672990Y-65693868D01*
X76755369Y-65611489D01*
X77934272Y-65611489D01*
X77995873Y-65623742D01*
X78057474Y-65611489D01*
X78057478Y-65611489D01*
X78239931Y-65575197D01*
X78446833Y-65436949D01*
X78481732Y-65384719D01*
X80841053Y-63025398D01*
X92710000Y-63025398D01*
X92710000Y-72328398D01*
X92722201Y-72452280D01*
X92798321Y-72834963D01*
X92893137Y-73063868D01*
X93109910Y-73388292D01*
X93285106Y-73563488D01*
X93609530Y-73780261D01*
X93838435Y-73875077D01*
X94221118Y-73951197D01*
X94345000Y-73963398D01*
X104717680Y-73963398D01*
X104783071Y-73960022D01*
X104987934Y-73938813D01*
X105052631Y-73928721D01*
X120539160Y-70687354D01*
X120675940Y-70642022D01*
X121085100Y-70452519D01*
X121311096Y-70276706D01*
X121595411Y-69926723D01*
X121721198Y-69669501D01*
X121822860Y-69230196D01*
X121839209Y-69087031D01*
X121839209Y-66508549D01*
X121823211Y-66366910D01*
X121723706Y-65932045D01*
X121600519Y-65676957D01*
X121321808Y-65328634D01*
X121099950Y-65152497D01*
X120697498Y-64960035D01*
X120562817Y-64913361D01*
X109983210Y-62535000D01*
X110897031Y-62535000D01*
X111373945Y-62440136D01*
X111914769Y-62078769D01*
X112276136Y-61537945D01*
X112403031Y-60900000D01*
X112276136Y-60262055D01*
X112233336Y-60198000D01*
X116276989Y-60198000D01*
X116407765Y-60855454D01*
X116780183Y-61412817D01*
X117337546Y-61785235D01*
X117829043Y-61883000D01*
X119660957Y-61883000D01*
X120152454Y-61785235D01*
X120709817Y-61412817D01*
X121082235Y-60855454D01*
X121213011Y-60198000D01*
X121082235Y-59540546D01*
X120709817Y-58983183D01*
X120152454Y-58610765D01*
X119660957Y-58513000D01*
X117829043Y-58513000D01*
X117337546Y-58610765D01*
X116780183Y-58983183D01*
X116407765Y-59540546D01*
X116276989Y-60198000D01*
X112233336Y-60198000D01*
X111914769Y-59721231D01*
X111373945Y-59359864D01*
X110897031Y-59265000D01*
X109574969Y-59265000D01*
X109098055Y-59359864D01*
X108557231Y-59721231D01*
X108195864Y-60262055D01*
X108068969Y-60900000D01*
X108195864Y-61537945D01*
X108557231Y-62078769D01*
X108863209Y-62283217D01*
X105068799Y-61430210D01*
X104999590Y-61418625D01*
X104780258Y-61394275D01*
X104710191Y-61390398D01*
X94345000Y-61390398D01*
X94221118Y-61402599D01*
X93838435Y-61478719D01*
X93609530Y-61573535D01*
X93285106Y-61790308D01*
X93109910Y-61965504D01*
X92893137Y-62289928D01*
X92798321Y-62518833D01*
X92722201Y-62901516D01*
X92710000Y-63025398D01*
X80841053Y-63025398D01*
X81678733Y-62187719D01*
X81730960Y-62152822D01*
X81869208Y-61945920D01*
X81905500Y-61763467D01*
X81905500Y-61763463D01*
X81917753Y-61701862D01*
X81905500Y-61640261D01*
X81905500Y-61261369D01*
X81987879Y-61178990D01*
X82115000Y-60872092D01*
X82115000Y-60539908D01*
X81987879Y-60233010D01*
X81752990Y-59998121D01*
X81446092Y-59871000D01*
X81113908Y-59871000D01*
X80807010Y-59998121D01*
X80572121Y-60233010D01*
X80445000Y-60539908D01*
X80445000Y-60872092D01*
X80572121Y-61178990D01*
X80654501Y-61261370D01*
X80654501Y-61442771D01*
X80390687Y-61706585D01*
X80381500Y-61660401D01*
X80381500Y-59483369D01*
X80463879Y-59400990D01*
X80591000Y-59094092D01*
X80591000Y-58761908D01*
X80463879Y-58455010D01*
X80228990Y-58220121D01*
X79922092Y-58093000D01*
X79589908Y-58093000D01*
X79283010Y-58220121D01*
X79048121Y-58455010D01*
X78921000Y-58761908D01*
X78921000Y-59094092D01*
X79048121Y-59400990D01*
X79130500Y-59483369D01*
X79130501Y-61462910D01*
X79103270Y-61490141D01*
X79098464Y-61493352D01*
X79029010Y-61522121D01*
X78794121Y-61757010D01*
X78667000Y-62063908D01*
X78667000Y-62396092D01*
X78794121Y-62702990D01*
X79029010Y-62937879D01*
X79121205Y-62976067D01*
X77736784Y-64360489D01*
X76755369Y-64360489D01*
X76672990Y-64278110D01*
X76366092Y-64150989D01*
X76033908Y-64150989D01*
X75727010Y-64278110D01*
X75492121Y-64512999D01*
X75365000Y-64819897D01*
X53388009Y-64819897D01*
X53842217Y-64631758D01*
X54217758Y-64256217D01*
X54421000Y-63765548D01*
X54421000Y-63234452D01*
X54217758Y-62743783D01*
X53842217Y-62368242D01*
X53665395Y-62295000D01*
X54072527Y-62295000D01*
X54232408Y-62228775D01*
X54354775Y-62106408D01*
X54421000Y-61946527D01*
X54421000Y-61195750D01*
X54312250Y-61087000D01*
X53213000Y-61087000D01*
X53213000Y-61107000D01*
X52959000Y-61107000D01*
X52959000Y-61087000D01*
X51859750Y-61087000D01*
X51751000Y-61195750D01*
X50835000Y-61195750D01*
X50835000Y-59973473D01*
X51751000Y-59973473D01*
X51751000Y-60724250D01*
X51859750Y-60833000D01*
X52959000Y-60833000D01*
X52959000Y-59733750D01*
X53213000Y-59733750D01*
X53213000Y-60833000D01*
X54312250Y-60833000D01*
X54421000Y-60724250D01*
X54421000Y-59973473D01*
X54354775Y-59813592D01*
X54232408Y-59691225D01*
X54072527Y-59625000D01*
X53321750Y-59625000D01*
X53213000Y-59733750D01*
X52959000Y-59733750D01*
X52850250Y-59625000D01*
X52099473Y-59625000D01*
X51939592Y-59691225D01*
X51817225Y-59813592D01*
X51751000Y-59973473D01*
X50835000Y-59973473D01*
X50835000Y-59292730D01*
X62787000Y-59292730D01*
X62787000Y-61103269D01*
X62872581Y-61533515D01*
X63198585Y-62021415D01*
X63686484Y-62347419D01*
X64262000Y-62461896D01*
X64837515Y-62347419D01*
X65325415Y-62021415D01*
X65651419Y-61533516D01*
X65737000Y-61103270D01*
X65737000Y-59292730D01*
X65651419Y-58862484D01*
X65341061Y-58398000D01*
X67858478Y-58398000D01*
X67858478Y-61998000D01*
X67892239Y-62167729D01*
X67988383Y-62311617D01*
X68132271Y-62407761D01*
X68302000Y-62441522D01*
X70382000Y-62441522D01*
X70551729Y-62407761D01*
X70695617Y-62311617D01*
X70791761Y-62167729D01*
X70825522Y-61998000D01*
X70825522Y-58398000D01*
X70791761Y-58228271D01*
X70695617Y-58084383D01*
X70551729Y-57988239D01*
X70382000Y-57954478D01*
X68302000Y-57954478D01*
X68132271Y-57988239D01*
X67988383Y-58084383D01*
X67892239Y-58228271D01*
X67858478Y-58398000D01*
X65341061Y-58398000D01*
X65325415Y-58374585D01*
X64837516Y-58048581D01*
X64262000Y-57934104D01*
X63686485Y-58048581D01*
X63198586Y-58374585D01*
X62872582Y-58862484D01*
X62787000Y-59292730D01*
X50835000Y-59292730D01*
X50835000Y-54316736D01*
X51565000Y-54316736D01*
X51565000Y-55683264D01*
X52087947Y-56945771D01*
X53054229Y-57912053D01*
X54316736Y-58435000D01*
X55683264Y-58435000D01*
X56945771Y-57912053D01*
X57912053Y-56945771D01*
X58435000Y-55683264D01*
X58435000Y-54316736D01*
X91565000Y-54316736D01*
X91565000Y-55683264D01*
X92087947Y-56945771D01*
X93054229Y-57912053D01*
X94316736Y-58435000D01*
X95683264Y-58435000D01*
X96945771Y-57912053D01*
X97912053Y-56945771D01*
X98435000Y-55683264D01*
X98435000Y-54316736D01*
X98055276Y-53400000D01*
X108068969Y-53400000D01*
X108195864Y-54037945D01*
X108557231Y-54578769D01*
X109098055Y-54940136D01*
X109574969Y-55035000D01*
X110897031Y-55035000D01*
X111373945Y-54940136D01*
X111914769Y-54578769D01*
X112276136Y-54037945D01*
X112403031Y-53400000D01*
X112276136Y-52762055D01*
X111914769Y-52221231D01*
X111373945Y-51859864D01*
X110897031Y-51765000D01*
X109574969Y-51765000D01*
X109098055Y-51859864D01*
X108557231Y-52221231D01*
X108195864Y-52762055D01*
X108068969Y-53400000D01*
X98055276Y-53400000D01*
X97912053Y-53054229D01*
X96945771Y-52087947D01*
X95683264Y-51565000D01*
X94316736Y-51565000D01*
X93054229Y-52087947D01*
X92087947Y-53054229D01*
X91565000Y-54316736D01*
X58435000Y-54316736D01*
X57912053Y-53054229D01*
X56945771Y-52087947D01*
X55683264Y-51565000D01*
X54316736Y-51565000D01*
X53054229Y-52087947D01*
X52087947Y-53054229D01*
X51565000Y-54316736D01*
X50835000Y-54316736D01*
X50835000Y-50835000D01*
X128963871Y-50835000D01*
X129032000Y-51177509D01*
D29*
X79502000Y-53848000D03*
X77978000Y-59436000D03*
X78994000Y-69342000D03*
X80518000Y-80518000D03*
X80518000Y-83058000D03*
X77978000Y-77470000D03*
X70612000Y-76454000D03*
X81280000Y-77978000D03*
X89662000Y-70866000D03*
X68859000Y-87376000D03*
X72136000Y-94996000D03*
X110744000Y-91440000D03*
X101219000Y-96266000D03*
X105918000Y-87376000D03*
X103759000Y-87376000D03*
X105859885Y-95000106D03*
X123571000Y-76454000D03*
X123571000Y-80899000D03*
X123571000Y-85090000D03*
X68834024Y-67310048D03*
X100330000Y-77470000D03*
X102030000Y-77470000D03*
X103730000Y-77470000D03*
X105430000Y-77470000D03*
X107130000Y-77470000D03*
X100330000Y-79170000D03*
X102030000Y-79170000D03*
X103730000Y-79170000D03*
X105430000Y-79170000D03*
X107130000Y-79170000D03*
X100330000Y-80870000D03*
X102030000Y-80870000D03*
X103730000Y-80870000D03*
X105430000Y-80870000D03*
X107130000Y-80870000D03*
X100330000Y-82570000D03*
X102030000Y-82570000D03*
X103730000Y-82570000D03*
X105430000Y-82570000D03*
X107130000Y-82570000D03*
X73152000Y-92456000D03*
X73152006Y-88392006D03*
X66548000Y-78232000D03*
X81280000Y-60706000D03*
X70866000Y-78232000D03*
X76200000Y-64985989D03*
X71374000Y-71374000D03*
X76708000Y-75438000D03*
X64770000Y-79629000D03*
X67710000Y-71755000D03*
X102489000Y-65151000D03*
X100711000Y-65151000D03*
X99060000Y-65151000D03*
X97155000Y-65151000D03*
X102489000Y-70104000D03*
X102489000Y-66802000D03*
X100711000Y-70104000D03*
X100711000Y-66802000D03*
X99060000Y-70104000D03*
X99060000Y-68453000D03*
X99060000Y-66802000D03*
X97155000Y-70104000D03*
X97155000Y-68453000D03*
X97155000Y-66802000D03*
X100711000Y-68453000D03*
X102489000Y-68453000D03*
X97155000Y-63500000D03*
X99060000Y-63500000D03*
X100711000Y-63500000D03*
X102489000Y-63500000D03*
X97155000Y-71882000D03*
X99060000Y-71882000D03*
X100711000Y-71882000D03*
X102489000Y-71882000D03*
X104394000Y-63500000D03*
X104394000Y-65151000D03*
X104394000Y-66802000D03*
X104394000Y-68437760D03*
X104394000Y-70104000D03*
X104394000Y-71882000D03*
X83312000Y-84582000D03*
X79756000Y-58928000D03*
X79502000Y-62230000D03*
X88138000Y-68598000D03*
X88138000Y-66782000D03*
X85090000Y-80137000D03*
X86614000Y-85851998D03*
X88138000Y-77724000D03*
X93218000Y-77724000D03*
X90678000Y-75184000D03*
X101346000Y-87884000D03*
X98806000Y-87884000D03*
X118618000Y-94234000D03*
X118618000Y-91734000D03*
X55000000Y-95000000D03*
X55000000Y-92625000D03*
X52943190Y-93812500D03*
X52943190Y-96187500D03*
X55000000Y-97375000D03*
X57056810Y-96187500D03*
X57056810Y-93812500D03*
X125000000Y-95000000D03*
X125000000Y-92625000D03*
X122943190Y-93812500D03*
X122943190Y-96187500D03*
X125000000Y-97375000D03*
X127056810Y-96187500D03*
X127056810Y-93812500D03*
X95000000Y-55000000D03*
X95000000Y-52625000D03*
X92943190Y-53812500D03*
X92943190Y-56187500D03*
X95000000Y-57375000D03*
X97056810Y-56187500D03*
X97056810Y-53812500D03*
X69342000Y-60198000D03*
X64262000Y-60198000D03*
X87630000Y-89662000D03*
X92710000Y-89662000D03*
X54610000Y-84930000D03*
X54610000Y-79930000D03*
X54610000Y-74930000D03*
X59610000Y-84930000D03*
X59610000Y-79930000D03*
X59610000Y-74930000D03*
X118745000Y-67818000D03*
X118745000Y-60198000D03*
X118872000Y-85344000D03*
X118872000Y-77724000D03*
D30*
X110236000Y-77900000D03*
X110236000Y-85400000D03*
X110236000Y-60900000D03*
X110236000Y-53400000D03*
D29*
X53086000Y-60960000D03*
X53086000Y-63500000D03*
X57056810Y-53812500D03*
X57056810Y-56187500D03*
X55000000Y-57375000D03*
X52943190Y-56187500D03*
X52943190Y-53812500D03*
X55000000Y-52625000D03*
X55000000Y-55000000D03*
M02*
