M48
;DRILL file {KiCad (6.0.0-rc1-dev-882-gdbc9130da)} date 2019/10/18 11:57:10
;FORMAT={-:-/ absolute / metric / decimal}
FMAT,2
METRIC
T1C0.400
T2C0.500
T3C0.700
T4C0.800
T5C0.900
T6C1.200
T7C1.300
T8C1.400
T9C1.600
T10C2.000
T11C3.500
%
G90
G05
M71
T1
X57.438Y-88.9
X62.137Y-89.535
X66.201Y-93.672
X67.344Y-102.616
X68.326Y-101.6
X69.596Y-101.981
X69.884Y-87.757
X71.109Y-93.472
X71.154Y-89.662
X73.433Y-90.805
X74.168Y-99.568
X74.202Y-101.219
X74.295Y-94.996
X74.295Y-97.501
X77.597Y-100.838
X77.724Y-97.663
X83.058Y-98.044
X86.487Y-99.441
X87.41Y-90.551
X89.535Y-92.964
X91.111Y-97.409
X91.186Y-101.219
X102.108Y-90.805
X104.14Y-90.805
X104.267Y-97.917
X107.696Y-95.631
X107.696Y-99.441
X115.697Y-98.425
X115.951Y-102.616
X120.142Y-95.631
X123.444Y-100.965
X123.571Y-98.425
X126.238Y-98.425
X52.943Y-103.812
X52.943Y-106.188
X55.0Y-102.625
X55.0Y-107.375
X57.057Y-103.812
X57.057Y-106.188
X123.943Y-104.812
X123.943Y-107.188
X126.0Y-103.625
X126.0Y-108.375
X128.057Y-104.812
X128.057Y-107.188
X67.943Y-78.812
X67.943Y-81.188
X70.0Y-77.625
X70.0Y-82.375
X72.057Y-78.812
X72.057Y-81.188
X122.943Y-68.812
X122.943Y-71.188
X125.0Y-67.625
X125.0Y-72.375
X127.057Y-68.812
X127.057Y-71.188
T2
X73.821Y-88.646
X81.661Y-93.345
X83.312Y-83.312
X83.693Y-99.695
X83.82Y-103.378
X85.725Y-88.773
X85.725Y-93.98
X87.757Y-92.837
X95.665Y-98.459
X96.393Y-91.694
X98.46Y-88.816
X99.314Y-52.197
X99.314Y-53.975
X99.314Y-55.975
X100.457Y-91.948
X101.314Y-52.197
X101.314Y-53.975
X101.314Y-55.975
X102.997Y-52.197
X102.997Y-53.975
X102.997Y-55.975
X104.997Y-52.197
X104.997Y-53.975
X104.997Y-55.975
X106.997Y-52.197
X106.997Y-53.975
X106.997Y-55.975
X108.997Y-53.975
X108.997Y-55.975
X109.029Y-52.197
X110.998Y-53.975
X110.998Y-55.975
X110.998Y-73.533
X110.998Y-75.533
X111.125Y-81.407
X111.125Y-83.407
X112.998Y-53.975
X112.998Y-55.975
X112.998Y-73.533
X112.998Y-75.533
X113.125Y-81.407
X113.125Y-83.407
X114.998Y-52.07
X114.998Y-53.975
X114.998Y-55.975
X114.998Y-73.533
X114.998Y-75.533
X115.125Y-81.407
X115.125Y-83.407
X116.998Y-52.07
X116.998Y-53.975
X116.998Y-55.975
X116.998Y-73.533
X116.998Y-75.533
X117.125Y-81.407
X117.125Y-83.407
T3
X75.311Y-105.664
X77.851Y-103.124
X80.391Y-105.664
T5
X86.106Y-104.775
X88.646Y-104.775
T6
X126.365Y-79.836
X126.365Y-84.836
X111.76Y-96.393
X111.76Y-98.933
X67.818Y-106.426
X70.358Y-106.426
T7
X54.102Y-69.742
X54.102Y-74.742
X54.102Y-79.742
X54.102Y-94.742
X61.602Y-69.742
X61.602Y-74.742
X61.602Y-79.742
X61.602Y-94.742
X88.011Y-78.613
X88.011Y-86.113
X103.011Y-78.613
X103.011Y-86.113
X108.011Y-78.613
X108.011Y-86.113
X113.011Y-78.613
X113.011Y-86.113
T8
X54.356Y-50.673
X61.976Y-50.673
X123.19Y-44.196
X123.19Y-51.816
T9
X106.68Y-103.251
T10
X57.202Y-60.96
X62.202Y-60.96
X122.202Y-60.833
X127.202Y-60.96
T11
X55.0Y-105.0
X126.0Y-106.0
X70.0Y-80.0
X125.0Y-70.0
T4
G00X68.259Y-46.363
M15
G01X68.259Y-47.363
M16
G05
G00X75.759Y-46.363
M15
G01X75.759Y-47.363
M16
G05
G00X97.759Y-46.363
M15
G01X97.759Y-47.363
M16
G05
G00X105.259Y-46.363
M15
G01X105.259Y-47.363
M16
G05
T0
M30
