%TF.GenerationSoftware,KiCad,Pcbnew,(6.0.0-rc1-dev-882-gdbc9130da)*%
%TF.CreationDate,2019-10-18T11:57:10+08:00*%
%TF.ProjectId,SoftStartLamp,536F667453746172744C616D702E6B69,rev?*%
%TF.SameCoordinates,Original*%
%TF.FileFunction,Soldermask,Top*%
%TF.FilePolarity,Negative*%
%FSLAX46Y46*%
G04 Gerber Fmt 4.6, Leading zero omitted, Abs format (unit mm)*
G04 Created by KiCad (PCBNEW (6.0.0-rc1-dev-882-gdbc9130da)) date 2019/10/18 11:57:10*
%MOMM*%
%LPD*%
G01*
G04 APERTURE LIST*
%ADD10C,0.100000*%
%ADD11C,0.350000*%
G04 APERTURE END LIST*
D10*
G36*
X52705000Y-48895000D02*
X55880000Y-48895000D01*
X65151000Y-59817000D01*
X65151000Y-71501000D01*
X52197000Y-71501000D01*
X52197000Y-52705000D01*
X52578000Y-49022000D01*
X52705000Y-48895000D01*
G37*
X52705000Y-48895000D02*
X55880000Y-48895000D01*
X65151000Y-59817000D01*
X65151000Y-71501000D01*
X52197000Y-71501000D01*
X52197000Y-52705000D01*
X52578000Y-49022000D01*
X52705000Y-48895000D01*
D11*
G36*
X126889941Y-103066248D02*
X126889943Y-103066249D01*
X126889944Y-103066249D01*
X127445190Y-103296239D01*
X127903898Y-103602738D01*
X127944902Y-103630136D01*
X128369864Y-104055098D01*
X128369866Y-104055101D01*
X128703761Y-104554810D01*
X128925529Y-105090207D01*
X128933752Y-105110059D01*
X129051000Y-105699501D01*
X129051000Y-106300499D01*
X128944246Y-106837186D01*
X128933751Y-106889944D01*
X128703761Y-107445190D01*
X128478655Y-107782085D01*
X128369864Y-107944902D01*
X127944902Y-108369864D01*
X127944899Y-108369866D01*
X127445190Y-108703761D01*
X126889944Y-108933751D01*
X126889943Y-108933751D01*
X126889941Y-108933752D01*
X126300499Y-109051000D01*
X125699501Y-109051000D01*
X125110059Y-108933752D01*
X125110057Y-108933751D01*
X125110056Y-108933751D01*
X124554810Y-108703761D01*
X124055101Y-108369866D01*
X124055098Y-108369864D01*
X123630136Y-107944902D01*
X123521345Y-107782085D01*
X123296239Y-107445190D01*
X123066249Y-106889944D01*
X123055755Y-106837186D01*
X122949000Y-106300499D01*
X122949000Y-105699501D01*
X123066248Y-105110059D01*
X123074471Y-105090207D01*
X123296239Y-104554810D01*
X123630134Y-104055101D01*
X123630136Y-104055098D01*
X124055098Y-103630136D01*
X124096102Y-103602738D01*
X124554810Y-103296239D01*
X125110056Y-103066249D01*
X125110057Y-103066249D01*
X125110059Y-103066248D01*
X125699501Y-102949000D01*
X126300499Y-102949000D01*
X126889941Y-103066248D01*
X126889941Y-103066248D01*
G37*
G36*
X55889941Y-102066248D02*
X55889943Y-102066249D01*
X55889944Y-102066249D01*
X56445190Y-102296239D01*
X56859392Y-102573000D01*
X56944902Y-102630136D01*
X57369864Y-103055098D01*
X57369866Y-103055101D01*
X57703761Y-103554810D01*
X57929584Y-104099996D01*
X57933752Y-104110059D01*
X58051000Y-104699501D01*
X58051000Y-105300499D01*
X57935122Y-105883056D01*
X57933751Y-105889944D01*
X57703761Y-106445190D01*
X57406588Y-106889941D01*
X57369864Y-106944902D01*
X56944902Y-107369864D01*
X56944899Y-107369866D01*
X56445190Y-107703761D01*
X55889944Y-107933751D01*
X55889943Y-107933751D01*
X55889941Y-107933752D01*
X55300499Y-108051000D01*
X54699501Y-108051000D01*
X54110059Y-107933752D01*
X54110057Y-107933751D01*
X54110056Y-107933751D01*
X53554810Y-107703761D01*
X53055101Y-107369866D01*
X53055098Y-107369864D01*
X52630136Y-106944902D01*
X52593412Y-106889941D01*
X52296239Y-106445190D01*
X52066249Y-105889944D01*
X52064879Y-105883056D01*
X51949000Y-105300499D01*
X51949000Y-104699501D01*
X52066248Y-104110059D01*
X52070416Y-104099996D01*
X52296239Y-103554810D01*
X52630134Y-103055101D01*
X52630136Y-103055098D01*
X53055098Y-102630136D01*
X53140608Y-102573000D01*
X53554810Y-102296239D01*
X54110056Y-102066249D01*
X54110057Y-102066249D01*
X54110059Y-102066248D01*
X54699501Y-101949000D01*
X55300499Y-101949000D01*
X55889941Y-102066248D01*
X55889941Y-102066248D01*
G37*
G36*
X70564031Y-105090207D02*
X70762145Y-105150305D01*
X70944729Y-105247897D01*
X71104765Y-105379235D01*
X71104766Y-105379237D01*
X71104768Y-105379238D01*
X71158691Y-105444944D01*
X71236103Y-105539271D01*
X71333695Y-105721854D01*
X71393793Y-105919968D01*
X71409000Y-106074370D01*
X71409000Y-106777629D01*
X71393793Y-106932031D01*
X71365686Y-107024686D01*
X71333695Y-107130147D01*
X71317005Y-107161371D01*
X71236103Y-107312729D01*
X71104765Y-107472765D01*
X70944729Y-107604103D01*
X70762146Y-107701695D01*
X70564032Y-107761793D01*
X70358000Y-107782085D01*
X70151969Y-107761793D01*
X69953855Y-107701695D01*
X69771272Y-107604103D01*
X69611236Y-107472765D01*
X69526787Y-107369864D01*
X69479899Y-107312731D01*
X69382306Y-107130148D01*
X69350314Y-107024686D01*
X69322207Y-106932032D01*
X69307000Y-106777630D01*
X69307000Y-106074371D01*
X69322207Y-105919969D01*
X69382305Y-105721855D01*
X69479897Y-105539271D01*
X69611235Y-105379235D01*
X69611237Y-105379234D01*
X69611238Y-105379232D01*
X69771269Y-105247899D01*
X69771271Y-105247897D01*
X69953854Y-105150305D01*
X70151968Y-105090207D01*
X70358000Y-105069915D01*
X70564031Y-105090207D01*
X70564031Y-105090207D01*
G37*
G36*
X68869000Y-107777000D02*
X66767000Y-107777000D01*
X66767000Y-105075000D01*
X68869000Y-105075000D01*
X68869000Y-107777000D01*
X68869000Y-107777000D01*
G37*
G36*
X76062000Y-106415000D02*
X74560000Y-106415000D01*
X74560000Y-104913000D01*
X76062000Y-104913000D01*
X76062000Y-106415000D01*
X76062000Y-106415000D01*
G37*
G36*
X80523004Y-104924544D02*
X80610059Y-104941860D01*
X80746732Y-104998472D01*
X80827435Y-105052396D01*
X80869738Y-105080662D01*
X80974338Y-105185262D01*
X80974340Y-105185265D01*
X81056528Y-105308268D01*
X81113140Y-105444941D01*
X81126814Y-105513688D01*
X81142000Y-105590031D01*
X81142000Y-105737969D01*
X81132082Y-105787829D01*
X81113140Y-105883059D01*
X81056528Y-106019732D01*
X81020021Y-106074369D01*
X80974338Y-106142738D01*
X80869738Y-106247338D01*
X80869735Y-106247340D01*
X80746732Y-106329528D01*
X80610059Y-106386140D01*
X80523004Y-106403456D01*
X80464969Y-106415000D01*
X80317031Y-106415000D01*
X80258996Y-106403456D01*
X80171941Y-106386140D01*
X80035268Y-106329528D01*
X79912265Y-106247340D01*
X79912262Y-106247338D01*
X79807662Y-106142738D01*
X79761979Y-106074369D01*
X79725472Y-106019732D01*
X79668860Y-105883059D01*
X79649918Y-105787829D01*
X79640000Y-105737969D01*
X79640000Y-105590031D01*
X79655186Y-105513688D01*
X79668860Y-105444941D01*
X79725472Y-105308268D01*
X79807660Y-105185265D01*
X79807662Y-105185262D01*
X79912262Y-105080662D01*
X79954565Y-105052396D01*
X80035268Y-104998472D01*
X80171941Y-104941860D01*
X80258996Y-104924544D01*
X80317031Y-104913000D01*
X80464969Y-104913000D01*
X80523004Y-104924544D01*
X80523004Y-104924544D01*
G37*
G36*
X98064000Y-106066000D02*
X97262000Y-106066000D01*
X97262000Y-104714000D01*
X98064000Y-104714000D01*
X98064000Y-106066000D01*
X98064000Y-106066000D01*
G37*
G36*
X87057000Y-105726000D02*
X85155000Y-105726000D01*
X85155000Y-103824000D01*
X87057000Y-103824000D01*
X87057000Y-105726000D01*
X87057000Y-105726000D01*
G37*
G36*
X88923396Y-103860546D02*
X89096466Y-103932234D01*
X89252230Y-104036312D01*
X89384688Y-104168770D01*
X89488766Y-104324534D01*
X89560454Y-104497604D01*
X89597000Y-104681333D01*
X89597000Y-104868667D01*
X89560454Y-105052396D01*
X89488766Y-105225466D01*
X89384688Y-105381230D01*
X89252230Y-105513688D01*
X89096466Y-105617766D01*
X88923396Y-105689454D01*
X88739667Y-105726000D01*
X88552333Y-105726000D01*
X88368604Y-105689454D01*
X88195534Y-105617766D01*
X88039770Y-105513688D01*
X87907312Y-105381230D01*
X87803234Y-105225466D01*
X87731546Y-105052396D01*
X87695000Y-104868667D01*
X87695000Y-104681333D01*
X87731546Y-104497604D01*
X87803234Y-104324534D01*
X87907312Y-104168770D01*
X88039770Y-104036312D01*
X88195534Y-103932234D01*
X88368604Y-103860546D01*
X88552333Y-103824000D01*
X88739667Y-103824000D01*
X88923396Y-103860546D01*
X88923396Y-103860546D01*
G37*
G36*
X91803000Y-105426000D02*
X90501000Y-105426000D01*
X90501000Y-104124000D01*
X91803000Y-104124000D01*
X91803000Y-105426000D01*
X91803000Y-105426000D01*
G37*
G36*
X93903000Y-105426000D02*
X92601000Y-105426000D01*
X92601000Y-104124000D01*
X93903000Y-104124000D01*
X93903000Y-105426000D01*
X93903000Y-105426000D01*
G37*
G36*
X107103238Y-101855760D02*
X107103240Y-101855761D01*
X107103241Y-101855761D01*
X107367306Y-101965140D01*
X107367307Y-101965141D01*
X107604962Y-102123937D01*
X107807063Y-102326038D01*
X107807065Y-102326041D01*
X107965860Y-102563694D01*
X108050597Y-102768268D01*
X108075240Y-102827762D01*
X108131000Y-103108088D01*
X108131000Y-103393912D01*
X108084013Y-103630134D01*
X108075239Y-103674241D01*
X107965860Y-103938306D01*
X107857822Y-104099996D01*
X107807063Y-104175962D01*
X107604962Y-104378063D01*
X107604959Y-104378065D01*
X107367306Y-104536860D01*
X107103241Y-104646239D01*
X107103240Y-104646239D01*
X107103238Y-104646240D01*
X106822912Y-104702000D01*
X106537088Y-104702000D01*
X106256762Y-104646240D01*
X106256760Y-104646239D01*
X106256759Y-104646239D01*
X105992694Y-104536860D01*
X105755041Y-104378065D01*
X105755038Y-104378063D01*
X105552937Y-104175962D01*
X105502178Y-104099996D01*
X105394140Y-103938306D01*
X105284761Y-103674241D01*
X105275988Y-103630134D01*
X105229000Y-103393912D01*
X105229000Y-103108088D01*
X105284760Y-102827762D01*
X105309403Y-102768268D01*
X105394140Y-102563694D01*
X105552935Y-102326041D01*
X105552937Y-102326038D01*
X105755038Y-102123937D01*
X105992693Y-101965141D01*
X105992694Y-101965140D01*
X106256759Y-101855761D01*
X106256760Y-101855761D01*
X106256762Y-101855760D01*
X106537088Y-101800000D01*
X106822912Y-101800000D01*
X107103238Y-101855760D01*
X107103238Y-101855760D01*
G37*
G36*
X118092000Y-103902000D02*
X116790000Y-103902000D01*
X116790000Y-102600000D01*
X118092000Y-102600000D01*
X118092000Y-103902000D01*
X118092000Y-103902000D01*
G37*
G36*
X120192000Y-103902000D02*
X118890000Y-103902000D01*
X118890000Y-102600000D01*
X120192000Y-102600000D01*
X120192000Y-103902000D01*
X120192000Y-103902000D01*
G37*
G36*
X77983004Y-102384544D02*
X78070059Y-102401860D01*
X78206732Y-102458472D01*
X78206733Y-102458473D01*
X78329738Y-102540662D01*
X78434338Y-102645262D01*
X78434340Y-102645265D01*
X78516528Y-102768268D01*
X78573140Y-102904941D01*
X78587138Y-102975314D01*
X78602000Y-103050031D01*
X78602000Y-103197969D01*
X78590456Y-103256004D01*
X78573140Y-103343059D01*
X78516528Y-103479732D01*
X78436922Y-103598871D01*
X78434338Y-103602738D01*
X78329738Y-103707338D01*
X78329735Y-103707340D01*
X78206732Y-103789528D01*
X78070059Y-103846140D01*
X77983004Y-103863456D01*
X77924969Y-103875000D01*
X77777031Y-103875000D01*
X77718996Y-103863456D01*
X77631941Y-103846140D01*
X77495268Y-103789528D01*
X77372265Y-103707340D01*
X77372262Y-103707338D01*
X77267662Y-103602738D01*
X77265078Y-103598871D01*
X77185472Y-103479732D01*
X77128860Y-103343059D01*
X77111544Y-103256004D01*
X77100000Y-103197969D01*
X77100000Y-103050031D01*
X77114862Y-102975314D01*
X77128860Y-102904941D01*
X77185472Y-102768268D01*
X77267660Y-102645265D01*
X77267662Y-102645262D01*
X77372262Y-102540662D01*
X77495267Y-102458473D01*
X77495268Y-102458472D01*
X77631941Y-102401860D01*
X77718996Y-102384544D01*
X77777031Y-102373000D01*
X77924969Y-102373000D01*
X77983004Y-102384544D01*
X77983004Y-102384544D01*
G37*
G36*
X114292000Y-103675000D02*
X112940000Y-103675000D01*
X112940000Y-102573000D01*
X114292000Y-102573000D01*
X114292000Y-103675000D01*
X114292000Y-103675000D01*
G37*
G36*
X111342000Y-103675000D02*
X109990000Y-103675000D01*
X109990000Y-102573000D01*
X111342000Y-102573000D01*
X111342000Y-103675000D01*
X111342000Y-103675000D01*
G37*
G36*
X97114000Y-103566000D02*
X96312000Y-103566000D01*
X96312000Y-102214000D01*
X97114000Y-102214000D01*
X97114000Y-103566000D01*
X97114000Y-103566000D01*
G37*
G36*
X99014000Y-103566000D02*
X98212000Y-103566000D01*
X98212000Y-102214000D01*
X99014000Y-102214000D01*
X99014000Y-103566000D01*
X99014000Y-103566000D01*
G37*
G36*
X122583294Y-103433657D02*
X121281294Y-103433657D01*
X121281294Y-102131657D01*
X122583294Y-102131657D01*
X122583294Y-103433657D01*
X122583294Y-103433657D01*
G37*
G36*
X101963000Y-102378000D02*
X100661000Y-102378000D01*
X100661000Y-101076000D01*
X101963000Y-101076000D01*
X101963000Y-102378000D01*
X101963000Y-102378000D01*
G37*
G36*
X104063000Y-102378000D02*
X102761000Y-102378000D01*
X102761000Y-101076000D01*
X104063000Y-101076000D01*
X104063000Y-102378000D01*
X104063000Y-102378000D01*
G37*
G36*
X71510000Y-102239000D02*
X70508000Y-102239000D01*
X70508000Y-101337000D01*
X71510000Y-101337000D01*
X71510000Y-102239000D01*
X71510000Y-102239000D01*
G37*
G36*
X125664000Y-101935000D02*
X124312000Y-101935000D01*
X124312000Y-101133000D01*
X125664000Y-101133000D01*
X125664000Y-101935000D01*
X125664000Y-101935000D01*
G37*
G36*
X90347000Y-101870000D02*
X89045000Y-101870000D01*
X89045000Y-100568000D01*
X90347000Y-100568000D01*
X90347000Y-101870000D01*
X90347000Y-101870000D01*
G37*
G36*
X88247000Y-101870000D02*
X86945000Y-101870000D01*
X86945000Y-100568000D01*
X88247000Y-100568000D01*
X88247000Y-101870000D01*
X88247000Y-101870000D01*
G37*
G36*
X76470000Y-101650000D02*
X75168000Y-101650000D01*
X75168000Y-100348000D01*
X76470000Y-100348000D01*
X76470000Y-101650000D01*
X76470000Y-101650000D01*
G37*
G36*
X122583294Y-101333657D02*
X121281294Y-101333657D01*
X121281294Y-100031657D01*
X122583294Y-100031657D01*
X122583294Y-101333657D01*
X122583294Y-101333657D01*
G37*
G36*
X73510000Y-101289000D02*
X72508000Y-101289000D01*
X72508000Y-100387000D01*
X73510000Y-100387000D01*
X73510000Y-101289000D01*
X73510000Y-101289000D01*
G37*
G36*
X79384000Y-101223000D02*
X78382000Y-101223000D01*
X78382000Y-100321000D01*
X79384000Y-100321000D01*
X79384000Y-101223000D01*
X79384000Y-101223000D01*
G37*
G36*
X128164000Y-100985000D02*
X126812000Y-100985000D01*
X126812000Y-100183000D01*
X128164000Y-100183000D01*
X128164000Y-100985000D01*
X128164000Y-100985000D01*
G37*
G36*
X120192000Y-100854000D02*
X118890000Y-100854000D01*
X118890000Y-99552000D01*
X120192000Y-99552000D01*
X120192000Y-100854000D01*
X120192000Y-100854000D01*
G37*
G36*
X118092000Y-100854000D02*
X116790000Y-100854000D01*
X116790000Y-99552000D01*
X118092000Y-99552000D01*
X118092000Y-100854000D01*
X118092000Y-100854000D01*
G37*
G36*
X69104000Y-100634000D02*
X67802000Y-100634000D01*
X67802000Y-99332000D01*
X69104000Y-99332000D01*
X69104000Y-100634000D01*
X69104000Y-100634000D01*
G37*
G36*
X96316000Y-100600000D02*
X95014000Y-100600000D01*
X95014000Y-99298000D01*
X96316000Y-99298000D01*
X96316000Y-100600000D01*
X96316000Y-100600000D01*
G37*
G36*
X66852000Y-100600000D02*
X65550000Y-100600000D01*
X65550000Y-99298000D01*
X66852000Y-99298000D01*
X66852000Y-100600000D01*
X66852000Y-100600000D01*
G37*
G36*
X64752000Y-100600000D02*
X63450000Y-100600000D01*
X63450000Y-99298000D01*
X64752000Y-99298000D01*
X64752000Y-100600000D01*
X64752000Y-100600000D01*
G37*
G36*
X94216000Y-100600000D02*
X92914000Y-100600000D01*
X92914000Y-99298000D01*
X94216000Y-99298000D01*
X94216000Y-100600000D01*
X94216000Y-100600000D01*
G37*
G36*
X71510000Y-100339000D02*
X70508000Y-100339000D01*
X70508000Y-99437000D01*
X71510000Y-99437000D01*
X71510000Y-100339000D01*
X71510000Y-100339000D01*
G37*
G36*
X81384000Y-100273000D02*
X80382000Y-100273000D01*
X80382000Y-99371000D01*
X81384000Y-99371000D01*
X81384000Y-100273000D01*
X81384000Y-100273000D01*
G37*
G36*
X101963000Y-100092000D02*
X100661000Y-100092000D01*
X100661000Y-98790000D01*
X101963000Y-98790000D01*
X101963000Y-100092000D01*
X101963000Y-100092000D01*
G37*
G36*
X104063000Y-100092000D02*
X102761000Y-100092000D01*
X102761000Y-98790000D01*
X104063000Y-98790000D01*
X104063000Y-100092000D01*
X104063000Y-100092000D01*
G37*
G36*
X125664000Y-100035000D02*
X124312000Y-100035000D01*
X124312000Y-99233000D01*
X125664000Y-99233000D01*
X125664000Y-100035000D01*
X125664000Y-100035000D01*
G37*
G36*
X113111000Y-99984000D02*
X110409000Y-99984000D01*
X110409000Y-97882000D01*
X113111000Y-97882000D01*
X113111000Y-99984000D01*
X113111000Y-99984000D01*
G37*
G36*
X61190000Y-99857000D02*
X59088000Y-99857000D01*
X59088000Y-97755000D01*
X61190000Y-97755000D01*
X61190000Y-99857000D01*
X61190000Y-99857000D01*
G37*
G36*
X56990000Y-99857000D02*
X54888000Y-99857000D01*
X54888000Y-97755000D01*
X56990000Y-97755000D01*
X56990000Y-99857000D01*
X56990000Y-99857000D01*
G37*
G36*
X76470000Y-99550000D02*
X75168000Y-99550000D01*
X75168000Y-98248000D01*
X76470000Y-98248000D01*
X76470000Y-99550000D01*
X76470000Y-99550000D01*
G37*
G36*
X79384000Y-99323000D02*
X78382000Y-99323000D01*
X78382000Y-98421000D01*
X79384000Y-98421000D01*
X79384000Y-99323000D01*
X79384000Y-99323000D01*
G37*
G36*
X122583294Y-99276657D02*
X121281294Y-99276657D01*
X121281294Y-97974657D01*
X122583294Y-97974657D01*
X122583294Y-99276657D01*
X122583294Y-99276657D01*
G37*
G36*
X69104000Y-98534000D02*
X67802000Y-98534000D01*
X67802000Y-97232000D01*
X69104000Y-97232000D01*
X69104000Y-98534000D01*
X69104000Y-98534000D01*
G37*
G36*
X71576000Y-98441000D02*
X70274000Y-98441000D01*
X70274000Y-97139000D01*
X71576000Y-97139000D01*
X71576000Y-98441000D01*
X71576000Y-98441000D01*
G37*
G36*
X73676000Y-98441000D02*
X72374000Y-98441000D01*
X72374000Y-97139000D01*
X73676000Y-97139000D01*
X73676000Y-98441000D01*
X73676000Y-98441000D01*
G37*
G36*
X117782294Y-98191657D02*
X116430294Y-98191657D01*
X116430294Y-97389657D01*
X117782294Y-97389657D01*
X117782294Y-98191657D01*
X117782294Y-98191657D01*
G37*
G36*
X76470000Y-97713000D02*
X75168000Y-97713000D01*
X75168000Y-96411000D01*
X76470000Y-96411000D01*
X76470000Y-97713000D01*
X76470000Y-97713000D01*
G37*
G36*
X88154000Y-97552000D02*
X86852000Y-97552000D01*
X86852000Y-96250000D01*
X88154000Y-96250000D01*
X88154000Y-97552000D01*
X88154000Y-97552000D01*
G37*
G36*
X90254000Y-97552000D02*
X88952000Y-97552000D01*
X88952000Y-96250000D01*
X90254000Y-96250000D01*
X90254000Y-97552000D01*
X90254000Y-97552000D01*
G37*
G36*
X79384000Y-97540000D02*
X78382000Y-97540000D01*
X78382000Y-96638000D01*
X79384000Y-96638000D01*
X79384000Y-97540000D01*
X79384000Y-97540000D01*
G37*
G36*
X128997000Y-97448000D02*
X127995000Y-97448000D01*
X127995000Y-95846000D01*
X128997000Y-95846000D01*
X128997000Y-97448000D01*
X128997000Y-97448000D01*
G37*
G36*
X125497000Y-97448000D02*
X124495000Y-97448000D01*
X124495000Y-95846000D01*
X125497000Y-95846000D01*
X125497000Y-97448000D01*
X125497000Y-97448000D01*
G37*
G36*
X112142510Y-95345041D02*
X112266032Y-95357207D01*
X112464146Y-95417305D01*
X112646729Y-95514897D01*
X112806765Y-95646235D01*
X112938103Y-95806271D01*
X113035695Y-95988854D01*
X113095793Y-96186968D01*
X113116085Y-96393000D01*
X113095793Y-96599032D01*
X113035695Y-96797146D01*
X112938103Y-96979729D01*
X112806765Y-97139765D01*
X112646729Y-97271103D01*
X112464146Y-97368695D01*
X112266032Y-97428793D01*
X112142510Y-97440959D01*
X112111631Y-97444000D01*
X111408369Y-97444000D01*
X111377490Y-97440959D01*
X111253968Y-97428793D01*
X111055854Y-97368695D01*
X110873271Y-97271103D01*
X110713235Y-97139765D01*
X110581897Y-96979729D01*
X110484305Y-96797146D01*
X110424207Y-96599032D01*
X110403915Y-96393000D01*
X110424207Y-96186968D01*
X110484305Y-95988854D01*
X110581897Y-95806271D01*
X110713235Y-95646235D01*
X110873271Y-95514897D01*
X111055854Y-95417305D01*
X111253968Y-95357207D01*
X111377490Y-95345041D01*
X111408369Y-95342000D01*
X112111631Y-95342000D01*
X112142510Y-95345041D01*
X112142510Y-95345041D01*
G37*
G36*
X120282294Y-97241657D02*
X118930294Y-97241657D01*
X118930294Y-96439657D01*
X120282294Y-96439657D01*
X120282294Y-97241657D01*
X120282294Y-97241657D01*
G37*
G36*
X83754000Y-97236000D02*
X82402000Y-97236000D01*
X82402000Y-96434000D01*
X83754000Y-96434000D01*
X83754000Y-97236000D01*
X83754000Y-97236000D01*
G37*
G36*
X106950000Y-97205000D02*
X105648000Y-97205000D01*
X105648000Y-95903000D01*
X106950000Y-95903000D01*
X106950000Y-97205000D01*
X106950000Y-97205000D01*
G37*
G36*
X122583294Y-97176657D02*
X121281294Y-97176657D01*
X121281294Y-95874657D01*
X122583294Y-95874657D01*
X122583294Y-97176657D01*
X122583294Y-97176657D01*
G37*
G36*
X94255335Y-96374934D02*
X94294610Y-96378802D01*
X94341413Y-96393000D01*
X94370199Y-96401732D01*
X94439860Y-96438967D01*
X94500922Y-96489078D01*
X94551033Y-96550140D01*
X94588268Y-96619801D01*
X94595911Y-96644998D01*
X94611198Y-96695390D01*
X94618940Y-96774000D01*
X94611198Y-96852610D01*
X94595911Y-96903002D01*
X94588268Y-96928199D01*
X94551033Y-96997860D01*
X94500922Y-97058922D01*
X94439860Y-97109033D01*
X94370199Y-97146268D01*
X94345002Y-97153911D01*
X94294610Y-97169198D01*
X94255335Y-97173066D01*
X94235699Y-97175000D01*
X93096301Y-97175000D01*
X93076665Y-97173066D01*
X93037390Y-97169198D01*
X92986998Y-97153911D01*
X92961801Y-97146268D01*
X92892140Y-97109033D01*
X92831078Y-97058922D01*
X92780967Y-96997860D01*
X92743732Y-96928199D01*
X92736089Y-96903002D01*
X92720802Y-96852610D01*
X92713060Y-96774000D01*
X92720802Y-96695390D01*
X92736089Y-96644998D01*
X92743732Y-96619801D01*
X92780967Y-96550140D01*
X92831078Y-96489078D01*
X92892140Y-96438967D01*
X92961801Y-96401732D01*
X92990587Y-96393000D01*
X93037390Y-96378802D01*
X93076665Y-96374934D01*
X93096301Y-96373000D01*
X94235699Y-96373000D01*
X94255335Y-96374934D01*
X94255335Y-96374934D01*
G37*
G36*
X99455335Y-96374934D02*
X99494610Y-96378802D01*
X99541413Y-96393000D01*
X99570199Y-96401732D01*
X99639860Y-96438967D01*
X99700922Y-96489078D01*
X99751033Y-96550140D01*
X99788268Y-96619801D01*
X99795911Y-96644998D01*
X99811198Y-96695390D01*
X99818940Y-96774000D01*
X99811198Y-96852610D01*
X99795911Y-96903002D01*
X99788268Y-96928199D01*
X99751033Y-96997860D01*
X99700922Y-97058922D01*
X99639860Y-97109033D01*
X99570199Y-97146268D01*
X99545002Y-97153911D01*
X99494610Y-97169198D01*
X99455335Y-97173066D01*
X99435699Y-97175000D01*
X98296301Y-97175000D01*
X98276665Y-97173066D01*
X98237390Y-97169198D01*
X98186998Y-97153911D01*
X98161801Y-97146268D01*
X98092140Y-97109033D01*
X98031078Y-97058922D01*
X97980967Y-96997860D01*
X97943732Y-96928199D01*
X97936089Y-96903002D01*
X97920802Y-96852610D01*
X97913060Y-96774000D01*
X97920802Y-96695390D01*
X97936089Y-96644998D01*
X97943732Y-96619801D01*
X97980967Y-96550140D01*
X98031078Y-96489078D01*
X98092140Y-96438967D01*
X98161801Y-96401732D01*
X98190587Y-96393000D01*
X98237390Y-96378802D01*
X98276665Y-96374934D01*
X98296301Y-96373000D01*
X99435699Y-96373000D01*
X99455335Y-96374934D01*
X99455335Y-96374934D01*
G37*
G36*
X104825000Y-97171000D02*
X103523000Y-97171000D01*
X103523000Y-95869000D01*
X104825000Y-95869000D01*
X104825000Y-97171000D01*
X104825000Y-97171000D01*
G37*
G36*
X102725000Y-97171000D02*
X101423000Y-97171000D01*
X101423000Y-95869000D01*
X102725000Y-95869000D01*
X102725000Y-97171000D01*
X102725000Y-97171000D01*
G37*
G36*
X81384000Y-96590000D02*
X80382000Y-96590000D01*
X80382000Y-95688000D01*
X81384000Y-95688000D01*
X81384000Y-96590000D01*
X81384000Y-96590000D01*
G37*
G36*
X117782294Y-96291657D02*
X116430294Y-96291657D01*
X116430294Y-95489657D01*
X117782294Y-95489657D01*
X117782294Y-96291657D01*
X117782294Y-96291657D01*
G37*
G36*
X86254000Y-96286000D02*
X84902000Y-96286000D01*
X84902000Y-95484000D01*
X86254000Y-95484000D01*
X86254000Y-96286000D01*
X86254000Y-96286000D01*
G37*
G36*
X61981485Y-93490996D02*
X61981487Y-93490997D01*
X61981488Y-93490997D01*
X62218255Y-93589069D01*
X62431342Y-93731449D01*
X62612551Y-93912658D01*
X62754931Y-94125745D01*
X62853004Y-94362515D01*
X62903000Y-94613861D01*
X62903000Y-94870139D01*
X62855527Y-95108802D01*
X62853003Y-95121488D01*
X62833336Y-95168968D01*
X62754931Y-95358255D01*
X62612551Y-95571342D01*
X62431342Y-95752551D01*
X62431339Y-95752553D01*
X62218255Y-95894931D01*
X61981488Y-95993003D01*
X61981487Y-95993003D01*
X61981485Y-95993004D01*
X61730139Y-96043000D01*
X61473861Y-96043000D01*
X61222515Y-95993004D01*
X61222513Y-95993003D01*
X61222512Y-95993003D01*
X60985745Y-95894931D01*
X60772661Y-95752553D01*
X60772658Y-95752551D01*
X60591449Y-95571342D01*
X60449069Y-95358255D01*
X60370664Y-95168968D01*
X60350997Y-95121488D01*
X60348474Y-95108802D01*
X60301000Y-94870139D01*
X60301000Y-94613861D01*
X60350996Y-94362515D01*
X60449069Y-94125745D01*
X60591449Y-93912658D01*
X60772658Y-93731449D01*
X60985745Y-93589069D01*
X61222512Y-93490997D01*
X61222513Y-93490997D01*
X61222515Y-93490996D01*
X61473861Y-93441000D01*
X61730139Y-93441000D01*
X61981485Y-93490996D01*
X61981485Y-93490996D01*
G37*
G36*
X54481485Y-93490996D02*
X54481487Y-93490997D01*
X54481488Y-93490997D01*
X54718255Y-93589069D01*
X54931342Y-93731449D01*
X55112551Y-93912658D01*
X55254931Y-94125745D01*
X55353004Y-94362515D01*
X55403000Y-94613861D01*
X55403000Y-94870139D01*
X55355527Y-95108802D01*
X55353003Y-95121488D01*
X55333336Y-95168968D01*
X55254931Y-95358255D01*
X55112551Y-95571342D01*
X54931342Y-95752551D01*
X54931339Y-95752553D01*
X54718255Y-95894931D01*
X54481488Y-95993003D01*
X54481487Y-95993003D01*
X54481485Y-95993004D01*
X54230139Y-96043000D01*
X53973861Y-96043000D01*
X53722515Y-95993004D01*
X53722513Y-95993003D01*
X53722512Y-95993003D01*
X53485745Y-95894931D01*
X53272661Y-95752553D01*
X53272658Y-95752551D01*
X53091449Y-95571342D01*
X52949069Y-95358255D01*
X52870664Y-95168968D01*
X52850997Y-95121488D01*
X52848474Y-95108802D01*
X52801000Y-94870139D01*
X52801000Y-94613861D01*
X52850996Y-94362515D01*
X52949069Y-94125745D01*
X53091449Y-93912658D01*
X53272658Y-93731449D01*
X53485745Y-93589069D01*
X53722512Y-93490997D01*
X53722513Y-93490997D01*
X53722515Y-93490996D01*
X53973861Y-93441000D01*
X54230139Y-93441000D01*
X54481485Y-93490996D01*
X54481485Y-93490996D01*
G37*
G36*
X94255335Y-95104934D02*
X94294610Y-95108802D01*
X94336419Y-95121485D01*
X94370199Y-95131732D01*
X94439860Y-95168967D01*
X94500922Y-95219078D01*
X94551033Y-95280140D01*
X94588268Y-95349801D01*
X94590832Y-95358255D01*
X94611198Y-95425390D01*
X94618940Y-95504000D01*
X94611198Y-95582610D01*
X94601979Y-95613000D01*
X94588268Y-95658199D01*
X94551033Y-95727860D01*
X94500922Y-95788922D01*
X94439860Y-95839033D01*
X94370199Y-95876268D01*
X94345002Y-95883911D01*
X94294610Y-95899198D01*
X94256005Y-95903000D01*
X94235699Y-95905000D01*
X93096301Y-95905000D01*
X93075995Y-95903000D01*
X93037390Y-95899198D01*
X92986998Y-95883911D01*
X92961801Y-95876268D01*
X92892140Y-95839033D01*
X92831078Y-95788922D01*
X92780967Y-95727860D01*
X92743732Y-95658199D01*
X92730021Y-95613000D01*
X92720802Y-95582610D01*
X92713060Y-95504000D01*
X92720802Y-95425390D01*
X92741168Y-95358255D01*
X92743732Y-95349801D01*
X92780967Y-95280140D01*
X92831078Y-95219078D01*
X92892140Y-95168967D01*
X92961801Y-95131732D01*
X92995581Y-95121485D01*
X93037390Y-95108802D01*
X93076665Y-95104934D01*
X93096301Y-95103000D01*
X94235699Y-95103000D01*
X94255335Y-95104934D01*
X94255335Y-95104934D01*
G37*
G36*
X99455335Y-95104934D02*
X99494610Y-95108802D01*
X99536419Y-95121485D01*
X99570199Y-95131732D01*
X99639860Y-95168967D01*
X99700922Y-95219078D01*
X99751033Y-95280140D01*
X99788268Y-95349801D01*
X99790832Y-95358255D01*
X99811198Y-95425390D01*
X99818940Y-95504000D01*
X99811198Y-95582610D01*
X99801979Y-95613000D01*
X99788268Y-95658199D01*
X99751033Y-95727860D01*
X99700922Y-95788922D01*
X99639860Y-95839033D01*
X99570199Y-95876268D01*
X99545002Y-95883911D01*
X99494610Y-95899198D01*
X99456005Y-95903000D01*
X99435699Y-95905000D01*
X98296301Y-95905000D01*
X98275995Y-95903000D01*
X98237390Y-95899198D01*
X98186998Y-95883911D01*
X98161801Y-95876268D01*
X98092140Y-95839033D01*
X98031078Y-95788922D01*
X97980967Y-95727860D01*
X97943732Y-95658199D01*
X97930021Y-95613000D01*
X97920802Y-95582610D01*
X97913060Y-95504000D01*
X97920802Y-95425390D01*
X97941168Y-95358255D01*
X97943732Y-95349801D01*
X97980967Y-95280140D01*
X98031078Y-95219078D01*
X98092140Y-95168967D01*
X98161801Y-95131732D01*
X98195581Y-95121485D01*
X98237390Y-95108802D01*
X98276665Y-95104934D01*
X98296301Y-95103000D01*
X99435699Y-95103000D01*
X99455335Y-95104934D01*
X99455335Y-95104934D01*
G37*
G36*
X79384000Y-95640000D02*
X78382000Y-95640000D01*
X78382000Y-94738000D01*
X79384000Y-94738000D01*
X79384000Y-95640000D01*
X79384000Y-95640000D01*
G37*
G36*
X76470000Y-95613000D02*
X75168000Y-95613000D01*
X75168000Y-94311000D01*
X76470000Y-94311000D01*
X76470000Y-95613000D01*
X76470000Y-95613000D01*
G37*
G36*
X83754000Y-95336000D02*
X82402000Y-95336000D01*
X82402000Y-94534000D01*
X83754000Y-94534000D01*
X83754000Y-95336000D01*
X83754000Y-95336000D01*
G37*
G36*
X90347000Y-95139000D02*
X89045000Y-95139000D01*
X89045000Y-93837000D01*
X90347000Y-93837000D01*
X90347000Y-95139000D01*
X90347000Y-95139000D01*
G37*
G36*
X88247000Y-95139000D02*
X86945000Y-95139000D01*
X86945000Y-93837000D01*
X88247000Y-93837000D01*
X88247000Y-95139000D01*
X88247000Y-95139000D01*
G37*
G36*
X106950000Y-95105000D02*
X105648000Y-95105000D01*
X105648000Y-93803000D01*
X106950000Y-93803000D01*
X106950000Y-95105000D01*
X106950000Y-95105000D01*
G37*
G36*
X102759000Y-94953000D02*
X101457000Y-94953000D01*
X101457000Y-93651000D01*
X102759000Y-93651000D01*
X102759000Y-94953000D01*
X102759000Y-94953000D01*
G37*
G36*
X104791000Y-94919000D02*
X103489000Y-94919000D01*
X103489000Y-93617000D01*
X104791000Y-93617000D01*
X104791000Y-94919000D01*
X104791000Y-94919000D01*
G37*
G36*
X119950294Y-94763657D02*
X118648294Y-94763657D01*
X118648294Y-93461657D01*
X119950294Y-93461657D01*
X119950294Y-94763657D01*
X119950294Y-94763657D01*
G37*
G36*
X117850294Y-94763657D02*
X116548294Y-94763657D01*
X116548294Y-93461657D01*
X117850294Y-93461657D01*
X117850294Y-94763657D01*
X117850294Y-94763657D01*
G37*
G36*
X121914294Y-94763657D02*
X120612294Y-94763657D01*
X120612294Y-93461657D01*
X121914294Y-93461657D01*
X121914294Y-94763657D01*
X121914294Y-94763657D01*
G37*
G36*
X124014294Y-94763657D02*
X122712294Y-94763657D01*
X122712294Y-93461657D01*
X124014294Y-93461657D01*
X124014294Y-94763657D01*
X124014294Y-94763657D01*
G37*
G36*
X94255335Y-93834934D02*
X94294610Y-93838802D01*
X94345002Y-93854089D01*
X94370199Y-93861732D01*
X94439860Y-93898967D01*
X94500922Y-93949078D01*
X94551033Y-94010140D01*
X94588268Y-94079801D01*
X94588268Y-94079802D01*
X94611198Y-94155390D01*
X94618940Y-94234000D01*
X94611198Y-94312610D01*
X94596060Y-94362512D01*
X94588268Y-94388199D01*
X94551033Y-94457860D01*
X94500922Y-94518922D01*
X94439860Y-94569033D01*
X94370199Y-94606268D01*
X94345168Y-94613861D01*
X94294610Y-94629198D01*
X94255335Y-94633066D01*
X94235699Y-94635000D01*
X93096301Y-94635000D01*
X93076665Y-94633066D01*
X93037390Y-94629198D01*
X92986832Y-94613861D01*
X92961801Y-94606268D01*
X92892140Y-94569033D01*
X92831078Y-94518922D01*
X92780967Y-94457860D01*
X92743732Y-94388199D01*
X92735940Y-94362512D01*
X92720802Y-94312610D01*
X92713060Y-94234000D01*
X92720802Y-94155390D01*
X92743732Y-94079802D01*
X92743732Y-94079801D01*
X92780967Y-94010140D01*
X92831078Y-93949078D01*
X92892140Y-93898967D01*
X92961801Y-93861732D01*
X92986998Y-93854089D01*
X93037390Y-93838802D01*
X93076665Y-93834934D01*
X93096301Y-93833000D01*
X94235699Y-93833000D01*
X94255335Y-93834934D01*
X94255335Y-93834934D01*
G37*
G36*
X99455335Y-93834934D02*
X99494610Y-93838802D01*
X99545002Y-93854089D01*
X99570199Y-93861732D01*
X99639860Y-93898967D01*
X99700922Y-93949078D01*
X99751033Y-94010140D01*
X99788268Y-94079801D01*
X99788268Y-94079802D01*
X99811198Y-94155390D01*
X99818940Y-94234000D01*
X99811198Y-94312610D01*
X99796060Y-94362512D01*
X99788268Y-94388199D01*
X99751033Y-94457860D01*
X99700922Y-94518922D01*
X99639860Y-94569033D01*
X99570199Y-94606268D01*
X99545168Y-94613861D01*
X99494610Y-94629198D01*
X99455335Y-94633066D01*
X99435699Y-94635000D01*
X98296301Y-94635000D01*
X98276665Y-94633066D01*
X98237390Y-94629198D01*
X98186832Y-94613861D01*
X98161801Y-94606268D01*
X98092140Y-94569033D01*
X98031078Y-94518922D01*
X97980967Y-94457860D01*
X97943732Y-94388199D01*
X97935940Y-94362512D01*
X97920802Y-94312610D01*
X97913060Y-94234000D01*
X97920802Y-94155390D01*
X97943732Y-94079802D01*
X97943732Y-94079801D01*
X97980967Y-94010140D01*
X98031078Y-93949078D01*
X98092140Y-93898967D01*
X98161801Y-93861732D01*
X98186998Y-93854089D01*
X98237390Y-93838802D01*
X98276665Y-93834934D01*
X98296301Y-93833000D01*
X99435699Y-93833000D01*
X99455335Y-93834934D01*
X99455335Y-93834934D01*
G37*
G36*
X128481000Y-94631000D02*
X127179000Y-94631000D01*
X127179000Y-93329000D01*
X128481000Y-93329000D01*
X128481000Y-94631000D01*
X128481000Y-94631000D01*
G37*
G36*
X126381000Y-94631000D02*
X125079000Y-94631000D01*
X125079000Y-93329000D01*
X126381000Y-93329000D01*
X126381000Y-94631000D01*
X126381000Y-94631000D01*
G37*
G36*
X70408000Y-94123000D02*
X69106000Y-94123000D01*
X69106000Y-92821000D01*
X70408000Y-92821000D01*
X70408000Y-94123000D01*
X70408000Y-94123000D01*
G37*
G36*
X68308000Y-94123000D02*
X67006000Y-94123000D01*
X67006000Y-92821000D01*
X68308000Y-92821000D01*
X68308000Y-94123000D01*
X68308000Y-94123000D01*
G37*
G36*
X75454000Y-93649000D02*
X74152000Y-93649000D01*
X74152000Y-92347000D01*
X75454000Y-92347000D01*
X75454000Y-93649000D01*
X75454000Y-93649000D01*
G37*
G36*
X99455335Y-92564934D02*
X99494610Y-92568802D01*
X99545002Y-92584089D01*
X99570199Y-92591732D01*
X99639860Y-92628967D01*
X99700922Y-92679078D01*
X99751033Y-92740140D01*
X99788268Y-92809801D01*
X99788268Y-92809802D01*
X99811198Y-92885390D01*
X99818940Y-92964000D01*
X99811198Y-93042610D01*
X99795911Y-93093002D01*
X99788268Y-93118199D01*
X99751033Y-93187860D01*
X99700922Y-93248922D01*
X99639860Y-93299033D01*
X99570199Y-93336268D01*
X99545002Y-93343911D01*
X99494610Y-93359198D01*
X99455335Y-93363066D01*
X99435699Y-93365000D01*
X98296301Y-93365000D01*
X98276665Y-93363066D01*
X98237390Y-93359198D01*
X98186998Y-93343911D01*
X98161801Y-93336268D01*
X98092140Y-93299033D01*
X98031078Y-93248922D01*
X97980967Y-93187860D01*
X97943732Y-93118199D01*
X97936089Y-93093002D01*
X97920802Y-93042610D01*
X97913060Y-92964000D01*
X97920802Y-92885390D01*
X97943732Y-92809802D01*
X97943732Y-92809801D01*
X97980967Y-92740140D01*
X98031078Y-92679078D01*
X98092140Y-92628967D01*
X98161801Y-92591732D01*
X98186998Y-92584089D01*
X98237390Y-92568802D01*
X98276665Y-92564934D01*
X98296301Y-92563000D01*
X99435699Y-92563000D01*
X99455335Y-92564934D01*
X99455335Y-92564934D01*
G37*
G36*
X94255335Y-92564934D02*
X94294610Y-92568802D01*
X94345002Y-92584089D01*
X94370199Y-92591732D01*
X94439860Y-92628967D01*
X94500922Y-92679078D01*
X94551033Y-92740140D01*
X94588268Y-92809801D01*
X94588268Y-92809802D01*
X94611198Y-92885390D01*
X94618940Y-92964000D01*
X94611198Y-93042610D01*
X94595911Y-93093002D01*
X94588268Y-93118199D01*
X94551033Y-93187860D01*
X94500922Y-93248922D01*
X94439860Y-93299033D01*
X94370199Y-93336268D01*
X94345002Y-93343911D01*
X94294610Y-93359198D01*
X94255335Y-93363066D01*
X94235699Y-93365000D01*
X93096301Y-93365000D01*
X93076665Y-93363066D01*
X93037390Y-93359198D01*
X92986998Y-93343911D01*
X92961801Y-93336268D01*
X92892140Y-93299033D01*
X92831078Y-93248922D01*
X92780967Y-93187860D01*
X92743732Y-93118199D01*
X92736089Y-93093002D01*
X92720802Y-93042610D01*
X92713060Y-92964000D01*
X92720802Y-92885390D01*
X92743732Y-92809802D01*
X92743732Y-92809801D01*
X92780967Y-92740140D01*
X92831078Y-92679078D01*
X92892140Y-92628967D01*
X92961801Y-92591732D01*
X92986998Y-92584089D01*
X93037390Y-92568802D01*
X93076665Y-92564934D01*
X93096301Y-92563000D01*
X94235699Y-92563000D01*
X94255335Y-92564934D01*
X94255335Y-92564934D01*
G37*
G36*
X86537000Y-92980000D02*
X85235000Y-92980000D01*
X85235000Y-91678000D01*
X86537000Y-91678000D01*
X86537000Y-92980000D01*
X86537000Y-92980000D01*
G37*
G36*
X84437000Y-92980000D02*
X83135000Y-92980000D01*
X83135000Y-91678000D01*
X84437000Y-91678000D01*
X84437000Y-92980000D01*
X84437000Y-92980000D01*
G37*
G36*
X102759000Y-92853000D02*
X101457000Y-92853000D01*
X101457000Y-91551000D01*
X102759000Y-91551000D01*
X102759000Y-92853000D01*
X102759000Y-92853000D01*
G37*
G36*
X104791000Y-92819000D02*
X103489000Y-92819000D01*
X103489000Y-91517000D01*
X104791000Y-91517000D01*
X104791000Y-92819000D01*
X104791000Y-92819000D01*
G37*
G36*
X81612610Y-90808802D02*
X81663002Y-90824089D01*
X81688199Y-90831732D01*
X81757860Y-90868967D01*
X81818922Y-90919078D01*
X81869033Y-90980140D01*
X81906268Y-91049801D01*
X81906268Y-91049802D01*
X81929198Y-91125390D01*
X81935000Y-91184302D01*
X81935000Y-92323698D01*
X81929198Y-92382610D01*
X81913911Y-92433002D01*
X81906268Y-92458199D01*
X81869033Y-92527860D01*
X81818922Y-92588922D01*
X81757859Y-92639035D01*
X81688201Y-92676267D01*
X81678934Y-92679078D01*
X81612609Y-92699198D01*
X81534000Y-92706940D01*
X81455390Y-92699198D01*
X81404998Y-92683911D01*
X81379801Y-92676268D01*
X81310140Y-92639033D01*
X81249078Y-92588922D01*
X81198965Y-92527859D01*
X81161733Y-92458201D01*
X81155766Y-92438529D01*
X81138802Y-92382609D01*
X81133000Y-92323697D01*
X81133001Y-91184302D01*
X81138803Y-91125390D01*
X81161733Y-91049802D01*
X81161733Y-91049801D01*
X81198968Y-90980140D01*
X81249079Y-90919078D01*
X81310141Y-90868967D01*
X81379802Y-90831732D01*
X81404999Y-90824089D01*
X81455391Y-90808802D01*
X81534000Y-90801060D01*
X81612610Y-90808802D01*
X81612610Y-90808802D01*
G37*
G36*
X80342610Y-90808802D02*
X80393002Y-90824089D01*
X80418199Y-90831732D01*
X80487860Y-90868967D01*
X80548922Y-90919078D01*
X80599033Y-90980140D01*
X80636268Y-91049801D01*
X80636268Y-91049802D01*
X80659198Y-91125390D01*
X80665000Y-91184302D01*
X80665000Y-92323698D01*
X80659198Y-92382610D01*
X80643911Y-92433002D01*
X80636268Y-92458199D01*
X80599033Y-92527860D01*
X80548922Y-92588922D01*
X80487859Y-92639035D01*
X80418201Y-92676267D01*
X80408934Y-92679078D01*
X80342609Y-92699198D01*
X80264000Y-92706940D01*
X80185390Y-92699198D01*
X80134998Y-92683911D01*
X80109801Y-92676268D01*
X80040140Y-92639033D01*
X79979078Y-92588922D01*
X79928965Y-92527859D01*
X79891733Y-92458201D01*
X79885766Y-92438529D01*
X79868802Y-92382609D01*
X79863000Y-92323697D01*
X79863001Y-91184302D01*
X79868803Y-91125390D01*
X79891733Y-91049802D01*
X79891733Y-91049801D01*
X79928968Y-90980140D01*
X79979079Y-90919078D01*
X80040141Y-90868967D01*
X80109802Y-90831732D01*
X80134999Y-90824089D01*
X80185391Y-90808802D01*
X80264000Y-90801060D01*
X80342610Y-90808802D01*
X80342610Y-90808802D01*
G37*
G36*
X79072610Y-90808802D02*
X79123002Y-90824089D01*
X79148199Y-90831732D01*
X79217860Y-90868967D01*
X79278922Y-90919078D01*
X79329033Y-90980140D01*
X79366268Y-91049801D01*
X79366268Y-91049802D01*
X79389198Y-91125390D01*
X79395000Y-91184302D01*
X79395000Y-92323698D01*
X79389198Y-92382610D01*
X79373911Y-92433002D01*
X79366268Y-92458199D01*
X79329033Y-92527860D01*
X79278922Y-92588922D01*
X79217859Y-92639035D01*
X79148201Y-92676267D01*
X79138934Y-92679078D01*
X79072609Y-92699198D01*
X78994000Y-92706940D01*
X78915390Y-92699198D01*
X78864998Y-92683911D01*
X78839801Y-92676268D01*
X78770140Y-92639033D01*
X78709078Y-92588922D01*
X78658965Y-92527859D01*
X78621733Y-92458201D01*
X78615766Y-92438529D01*
X78598802Y-92382609D01*
X78593000Y-92323697D01*
X78593001Y-91184302D01*
X78598803Y-91125390D01*
X78621733Y-91049802D01*
X78621733Y-91049801D01*
X78658968Y-90980140D01*
X78709079Y-90919078D01*
X78770141Y-90868967D01*
X78839802Y-90831732D01*
X78864999Y-90824089D01*
X78915391Y-90808802D01*
X78994000Y-90801060D01*
X79072610Y-90808802D01*
X79072610Y-90808802D01*
G37*
G36*
X77802610Y-90808802D02*
X77853002Y-90824089D01*
X77878199Y-90831732D01*
X77947860Y-90868967D01*
X78008922Y-90919078D01*
X78059033Y-90980140D01*
X78096268Y-91049801D01*
X78096268Y-91049802D01*
X78119198Y-91125390D01*
X78125000Y-91184302D01*
X78125000Y-92323698D01*
X78119198Y-92382610D01*
X78103911Y-92433002D01*
X78096268Y-92458199D01*
X78059033Y-92527860D01*
X78008922Y-92588922D01*
X77947859Y-92639035D01*
X77878201Y-92676267D01*
X77868934Y-92679078D01*
X77802609Y-92699198D01*
X77724000Y-92706940D01*
X77645390Y-92699198D01*
X77594998Y-92683911D01*
X77569801Y-92676268D01*
X77500140Y-92639033D01*
X77439078Y-92588922D01*
X77388965Y-92527859D01*
X77351733Y-92458201D01*
X77345766Y-92438529D01*
X77328802Y-92382609D01*
X77323000Y-92323697D01*
X77323001Y-91184302D01*
X77328803Y-91125390D01*
X77351733Y-91049802D01*
X77351733Y-91049801D01*
X77388968Y-90980140D01*
X77439079Y-90919078D01*
X77500141Y-90868967D01*
X77569802Y-90831732D01*
X77594999Y-90824089D01*
X77645391Y-90808802D01*
X77724000Y-90801060D01*
X77802610Y-90808802D01*
X77802610Y-90808802D01*
G37*
G36*
X70506000Y-92029000D02*
X69154000Y-92029000D01*
X69154000Y-91227000D01*
X70506000Y-91227000D01*
X70506000Y-92029000D01*
X70506000Y-92029000D01*
G37*
G36*
X127738000Y-91602000D02*
X125636000Y-91602000D01*
X125636000Y-89500000D01*
X127738000Y-89500000D01*
X127738000Y-91602000D01*
X127738000Y-91602000D01*
G37*
G36*
X123538000Y-91602000D02*
X121436000Y-91602000D01*
X121436000Y-89500000D01*
X123538000Y-89500000D01*
X123538000Y-91602000D01*
X123538000Y-91602000D01*
G37*
G36*
X75454000Y-91549000D02*
X74152000Y-91549000D01*
X74152000Y-90247000D01*
X75454000Y-90247000D01*
X75454000Y-91549000D01*
X75454000Y-91549000D01*
G37*
G36*
X68006000Y-91079000D02*
X66654000Y-91079000D01*
X66654000Y-90277000D01*
X68006000Y-90277000D01*
X68006000Y-91079000D01*
X68006000Y-91079000D01*
G37*
G36*
X70506000Y-90129000D02*
X69154000Y-90129000D01*
X69154000Y-89327000D01*
X70506000Y-89327000D01*
X70506000Y-90129000D01*
X70506000Y-90129000D01*
G37*
G36*
X76089000Y-89331000D02*
X74787000Y-89331000D01*
X74787000Y-88029000D01*
X76089000Y-88029000D01*
X76089000Y-89331000D01*
X76089000Y-89331000D01*
G37*
G36*
X77802610Y-85608802D02*
X77853002Y-85624089D01*
X77878199Y-85631732D01*
X77947860Y-85668967D01*
X78008922Y-85719078D01*
X78059033Y-85780140D01*
X78096268Y-85849801D01*
X78096268Y-85849802D01*
X78119198Y-85925390D01*
X78125000Y-85984302D01*
X78125000Y-87123698D01*
X78119198Y-87182610D01*
X78104519Y-87231000D01*
X78096268Y-87258199D01*
X78059033Y-87327860D01*
X78008922Y-87388922D01*
X77947859Y-87439035D01*
X77878201Y-87476267D01*
X77858529Y-87482234D01*
X77802609Y-87499198D01*
X77724000Y-87506940D01*
X77645390Y-87499198D01*
X77594998Y-87483911D01*
X77569801Y-87476268D01*
X77500140Y-87439033D01*
X77439078Y-87388922D01*
X77388965Y-87327859D01*
X77351733Y-87258201D01*
X77343482Y-87231000D01*
X77328802Y-87182609D01*
X77323000Y-87123697D01*
X77323001Y-85984302D01*
X77328803Y-85925390D01*
X77351733Y-85849802D01*
X77351733Y-85849801D01*
X77388968Y-85780140D01*
X77439079Y-85719078D01*
X77500141Y-85668967D01*
X77569802Y-85631732D01*
X77594999Y-85624089D01*
X77645391Y-85608802D01*
X77724000Y-85601060D01*
X77802610Y-85608802D01*
X77802610Y-85608802D01*
G37*
G36*
X79072610Y-85608802D02*
X79123002Y-85624089D01*
X79148199Y-85631732D01*
X79217860Y-85668967D01*
X79278922Y-85719078D01*
X79329033Y-85780140D01*
X79366268Y-85849801D01*
X79366268Y-85849802D01*
X79389198Y-85925390D01*
X79395000Y-85984302D01*
X79395000Y-87123698D01*
X79389198Y-87182610D01*
X79374519Y-87231000D01*
X79366268Y-87258199D01*
X79329033Y-87327860D01*
X79278922Y-87388922D01*
X79217859Y-87439035D01*
X79148201Y-87476267D01*
X79128529Y-87482234D01*
X79072609Y-87499198D01*
X78994000Y-87506940D01*
X78915390Y-87499198D01*
X78864998Y-87483911D01*
X78839801Y-87476268D01*
X78770140Y-87439033D01*
X78709078Y-87388922D01*
X78658965Y-87327859D01*
X78621733Y-87258201D01*
X78613482Y-87231000D01*
X78598802Y-87182609D01*
X78593000Y-87123697D01*
X78593001Y-85984302D01*
X78598803Y-85925390D01*
X78621733Y-85849802D01*
X78621733Y-85849801D01*
X78658968Y-85780140D01*
X78709079Y-85719078D01*
X78770141Y-85668967D01*
X78839802Y-85631732D01*
X78864999Y-85624089D01*
X78915391Y-85608802D01*
X78994000Y-85601060D01*
X79072610Y-85608802D01*
X79072610Y-85608802D01*
G37*
G36*
X80342610Y-85608802D02*
X80393002Y-85624089D01*
X80418199Y-85631732D01*
X80487860Y-85668967D01*
X80548922Y-85719078D01*
X80599033Y-85780140D01*
X80636268Y-85849801D01*
X80636268Y-85849802D01*
X80659198Y-85925390D01*
X80665000Y-85984302D01*
X80665000Y-87123698D01*
X80659198Y-87182610D01*
X80644519Y-87231000D01*
X80636268Y-87258199D01*
X80599033Y-87327860D01*
X80548922Y-87388922D01*
X80487859Y-87439035D01*
X80418201Y-87476267D01*
X80398529Y-87482234D01*
X80342609Y-87499198D01*
X80264000Y-87506940D01*
X80185390Y-87499198D01*
X80134998Y-87483911D01*
X80109801Y-87476268D01*
X80040140Y-87439033D01*
X79979078Y-87388922D01*
X79928965Y-87327859D01*
X79891733Y-87258201D01*
X79883482Y-87231000D01*
X79868802Y-87182609D01*
X79863000Y-87123697D01*
X79863001Y-85984302D01*
X79868803Y-85925390D01*
X79891733Y-85849802D01*
X79891733Y-85849801D01*
X79928968Y-85780140D01*
X79979079Y-85719078D01*
X80040141Y-85668967D01*
X80109802Y-85631732D01*
X80134999Y-85624089D01*
X80185391Y-85608802D01*
X80264000Y-85601060D01*
X80342610Y-85608802D01*
X80342610Y-85608802D01*
G37*
G36*
X81612610Y-85608802D02*
X81663002Y-85624089D01*
X81688199Y-85631732D01*
X81757860Y-85668967D01*
X81818922Y-85719078D01*
X81869033Y-85780140D01*
X81906268Y-85849801D01*
X81906268Y-85849802D01*
X81929198Y-85925390D01*
X81935000Y-85984302D01*
X81935000Y-87123698D01*
X81929198Y-87182610D01*
X81914519Y-87231000D01*
X81906268Y-87258199D01*
X81869033Y-87327860D01*
X81818922Y-87388922D01*
X81757859Y-87439035D01*
X81688201Y-87476267D01*
X81668529Y-87482234D01*
X81612609Y-87499198D01*
X81534000Y-87506940D01*
X81455390Y-87499198D01*
X81404998Y-87483911D01*
X81379801Y-87476268D01*
X81310140Y-87439033D01*
X81249078Y-87388922D01*
X81198965Y-87327859D01*
X81161733Y-87258201D01*
X81153482Y-87231000D01*
X81138802Y-87182609D01*
X81133000Y-87123697D01*
X81133001Y-85984302D01*
X81138803Y-85925390D01*
X81161733Y-85849802D01*
X81161733Y-85849801D01*
X81198968Y-85780140D01*
X81249079Y-85719078D01*
X81310141Y-85668967D01*
X81379802Y-85631732D01*
X81404999Y-85624089D01*
X81455391Y-85608802D01*
X81534000Y-85601060D01*
X81612610Y-85608802D01*
X81612610Y-85608802D01*
G37*
G36*
X68376000Y-87426000D02*
X67074000Y-87426000D01*
X67074000Y-86124000D01*
X68376000Y-86124000D01*
X68376000Y-87426000D01*
X68376000Y-87426000D01*
G37*
G36*
X88390485Y-84861996D02*
X88390487Y-84861997D01*
X88390488Y-84861997D01*
X88627255Y-84960069D01*
X88840342Y-85102449D01*
X89021551Y-85283658D01*
X89021553Y-85283661D01*
X89163931Y-85496745D01*
X89235268Y-85668967D01*
X89262004Y-85733515D01*
X89312000Y-85984861D01*
X89312000Y-86241139D01*
X89262004Y-86492485D01*
X89163931Y-86729255D01*
X89021551Y-86942342D01*
X88840342Y-87123551D01*
X88751958Y-87182607D01*
X88627255Y-87265931D01*
X88390488Y-87364003D01*
X88390487Y-87364003D01*
X88390485Y-87364004D01*
X88139139Y-87414000D01*
X87882861Y-87414000D01*
X87631515Y-87364004D01*
X87631513Y-87364003D01*
X87631512Y-87364003D01*
X87394745Y-87265931D01*
X87270042Y-87182607D01*
X87181658Y-87123551D01*
X87000449Y-86942342D01*
X86858069Y-86729255D01*
X86759996Y-86492485D01*
X86710000Y-86241139D01*
X86710000Y-85984861D01*
X86759996Y-85733515D01*
X86786733Y-85668967D01*
X86858069Y-85496745D01*
X87000447Y-85283661D01*
X87000449Y-85283658D01*
X87181658Y-85102449D01*
X87394745Y-84960069D01*
X87631512Y-84861997D01*
X87631513Y-84861997D01*
X87631515Y-84861996D01*
X87882861Y-84812000D01*
X88139139Y-84812000D01*
X88390485Y-84861996D01*
X88390485Y-84861996D01*
G37*
G36*
X103390485Y-84861996D02*
X103390487Y-84861997D01*
X103390488Y-84861997D01*
X103627255Y-84960069D01*
X103840342Y-85102449D01*
X104021551Y-85283658D01*
X104021553Y-85283661D01*
X104163931Y-85496745D01*
X104235268Y-85668967D01*
X104262004Y-85733515D01*
X104312000Y-85984861D01*
X104312000Y-86241139D01*
X104262004Y-86492485D01*
X104163931Y-86729255D01*
X104021551Y-86942342D01*
X103840342Y-87123551D01*
X103751958Y-87182607D01*
X103627255Y-87265931D01*
X103390488Y-87364003D01*
X103390487Y-87364003D01*
X103390485Y-87364004D01*
X103139139Y-87414000D01*
X102882861Y-87414000D01*
X102631515Y-87364004D01*
X102631513Y-87364003D01*
X102631512Y-87364003D01*
X102394745Y-87265931D01*
X102270042Y-87182607D01*
X102181658Y-87123551D01*
X102000449Y-86942342D01*
X101858069Y-86729255D01*
X101759996Y-86492485D01*
X101710000Y-86241139D01*
X101710000Y-85984861D01*
X101759996Y-85733515D01*
X101786733Y-85668967D01*
X101858069Y-85496745D01*
X102000447Y-85283661D01*
X102000449Y-85283658D01*
X102181658Y-85102449D01*
X102394745Y-84960069D01*
X102631512Y-84861997D01*
X102631513Y-84861997D01*
X102631515Y-84861996D01*
X102882861Y-84812000D01*
X103139139Y-84812000D01*
X103390485Y-84861996D01*
X103390485Y-84861996D01*
G37*
G36*
X108390485Y-84861996D02*
X108390487Y-84861997D01*
X108390488Y-84861997D01*
X108627255Y-84960069D01*
X108840342Y-85102449D01*
X109021551Y-85283658D01*
X109021553Y-85283661D01*
X109163931Y-85496745D01*
X109235268Y-85668967D01*
X109262004Y-85733515D01*
X109312000Y-85984861D01*
X109312000Y-86241139D01*
X109262004Y-86492485D01*
X109163931Y-86729255D01*
X109021551Y-86942342D01*
X108840342Y-87123551D01*
X108751958Y-87182607D01*
X108627255Y-87265931D01*
X108390488Y-87364003D01*
X108390487Y-87364003D01*
X108390485Y-87364004D01*
X108139139Y-87414000D01*
X107882861Y-87414000D01*
X107631515Y-87364004D01*
X107631513Y-87364003D01*
X107631512Y-87364003D01*
X107394745Y-87265931D01*
X107270042Y-87182607D01*
X107181658Y-87123551D01*
X107000449Y-86942342D01*
X106858069Y-86729255D01*
X106759996Y-86492485D01*
X106710000Y-86241139D01*
X106710000Y-85984861D01*
X106759996Y-85733515D01*
X106786733Y-85668967D01*
X106858069Y-85496745D01*
X107000447Y-85283661D01*
X107000449Y-85283658D01*
X107181658Y-85102449D01*
X107394745Y-84960069D01*
X107631512Y-84861997D01*
X107631513Y-84861997D01*
X107631515Y-84861996D01*
X107882861Y-84812000D01*
X108139139Y-84812000D01*
X108390485Y-84861996D01*
X108390485Y-84861996D01*
G37*
G36*
X113390485Y-84861996D02*
X113390487Y-84861997D01*
X113390488Y-84861997D01*
X113627255Y-84960069D01*
X113840342Y-85102449D01*
X114021551Y-85283658D01*
X114021553Y-85283661D01*
X114163931Y-85496745D01*
X114235268Y-85668967D01*
X114262004Y-85733515D01*
X114312000Y-85984861D01*
X114312000Y-86241139D01*
X114262004Y-86492485D01*
X114163931Y-86729255D01*
X114021551Y-86942342D01*
X113840342Y-87123551D01*
X113751958Y-87182607D01*
X113627255Y-87265931D01*
X113390488Y-87364003D01*
X113390487Y-87364003D01*
X113390485Y-87364004D01*
X113139139Y-87414000D01*
X112882861Y-87414000D01*
X112631515Y-87364004D01*
X112631513Y-87364003D01*
X112631512Y-87364003D01*
X112394745Y-87265931D01*
X112270042Y-87182607D01*
X112181658Y-87123551D01*
X112000449Y-86942342D01*
X111858069Y-86729255D01*
X111759996Y-86492485D01*
X111710000Y-86241139D01*
X111710000Y-85984861D01*
X111759996Y-85733515D01*
X111786733Y-85668967D01*
X111858069Y-85496745D01*
X112000447Y-85283661D01*
X112000449Y-85283658D01*
X112181658Y-85102449D01*
X112394745Y-84960069D01*
X112631512Y-84861997D01*
X112631513Y-84861997D01*
X112631515Y-84861996D01*
X112882861Y-84812000D01*
X113139139Y-84812000D01*
X113390485Y-84861996D01*
X113390485Y-84861996D01*
G37*
G36*
X76089000Y-87231000D02*
X74787000Y-87231000D01*
X74787000Y-85929000D01*
X76089000Y-85929000D01*
X76089000Y-87231000D01*
X76089000Y-87231000D01*
G37*
G36*
X70546000Y-87076000D02*
X69194000Y-87076000D01*
X69194000Y-86274000D01*
X70546000Y-86274000D01*
X70546000Y-87076000D01*
X70546000Y-87076000D01*
G37*
G36*
X126744485Y-83584996D02*
X126744487Y-83584997D01*
X126744488Y-83584997D01*
X126981255Y-83683069D01*
X127194342Y-83825449D01*
X127375551Y-84006658D01*
X127517931Y-84219745D01*
X127616004Y-84456515D01*
X127666000Y-84707861D01*
X127666000Y-84964139D01*
X127616004Y-85215485D01*
X127517931Y-85452255D01*
X127375551Y-85665342D01*
X127194342Y-85846551D01*
X127194339Y-85846553D01*
X126981255Y-85988931D01*
X126744488Y-86087003D01*
X126744487Y-86087003D01*
X126744485Y-86087004D01*
X126493139Y-86137000D01*
X126236861Y-86137000D01*
X125985515Y-86087004D01*
X125985513Y-86087003D01*
X125985512Y-86087003D01*
X125748745Y-85988931D01*
X125535661Y-85846553D01*
X125535658Y-85846551D01*
X125354449Y-85665342D01*
X125212069Y-85452255D01*
X125113996Y-85215485D01*
X125064000Y-84964139D01*
X125064000Y-84707861D01*
X125113996Y-84456515D01*
X125212069Y-84219745D01*
X125354449Y-84006658D01*
X125535658Y-83825449D01*
X125748745Y-83683069D01*
X125985512Y-83584997D01*
X125985513Y-83584997D01*
X125985515Y-83584996D01*
X126236861Y-83535000D01*
X126493139Y-83535000D01*
X126744485Y-83584996D01*
X126744485Y-83584996D01*
G37*
G36*
X73046000Y-86126000D02*
X71694000Y-86126000D01*
X71694000Y-85324000D01*
X73046000Y-85324000D01*
X73046000Y-86126000D01*
X73046000Y-86126000D01*
G37*
G36*
X68376000Y-85326000D02*
X67074000Y-85326000D01*
X67074000Y-84024000D01*
X68376000Y-84024000D01*
X68376000Y-85326000D01*
X68376000Y-85326000D01*
G37*
G36*
X120304000Y-85320000D02*
X118202000Y-85320000D01*
X118202000Y-83218000D01*
X120304000Y-83218000D01*
X120304000Y-85320000D01*
X120304000Y-85320000D01*
G37*
G36*
X70546000Y-85176000D02*
X69194000Y-85176000D01*
X69194000Y-84374000D01*
X70546000Y-84374000D01*
X70546000Y-85176000D01*
X70546000Y-85176000D01*
G37*
G36*
X78409000Y-84725000D02*
X77107000Y-84725000D01*
X77107000Y-83423000D01*
X78409000Y-83423000D01*
X78409000Y-84725000D01*
X78409000Y-84725000D01*
G37*
G36*
X76309000Y-84725000D02*
X75007000Y-84725000D01*
X75007000Y-83423000D01*
X76309000Y-83423000D01*
X76309000Y-84725000D01*
X76309000Y-84725000D01*
G37*
G36*
X82507000Y-83709000D02*
X81205000Y-83709000D01*
X81205000Y-82407000D01*
X82507000Y-82407000D01*
X82507000Y-83709000D01*
X82507000Y-83709000D01*
G37*
G36*
X80407000Y-83709000D02*
X79105000Y-83709000D01*
X79105000Y-82407000D01*
X80407000Y-82407000D01*
X80407000Y-83709000D01*
X80407000Y-83709000D01*
G37*
G36*
X70889941Y-77066248D02*
X70889943Y-77066249D01*
X70889944Y-77066249D01*
X71445190Y-77296239D01*
X71617497Y-77411371D01*
X71944902Y-77630136D01*
X72369864Y-78055098D01*
X72369866Y-78055101D01*
X72703761Y-78554810D01*
X72885053Y-78992488D01*
X72933752Y-79110059D01*
X73051000Y-79699501D01*
X73051000Y-80300499D01*
X72942383Y-80846551D01*
X72933751Y-80889944D01*
X72703761Y-81445190D01*
X72608892Y-81587171D01*
X72369864Y-81944902D01*
X71944902Y-82369864D01*
X71944899Y-82369866D01*
X71445190Y-82703761D01*
X70889944Y-82933751D01*
X70889943Y-82933751D01*
X70889941Y-82933752D01*
X70300499Y-83051000D01*
X69699501Y-83051000D01*
X69110059Y-82933752D01*
X69110057Y-82933751D01*
X69110056Y-82933751D01*
X68554810Y-82703761D01*
X68055101Y-82369866D01*
X68055098Y-82369864D01*
X67630136Y-81944902D01*
X67391108Y-81587171D01*
X67296239Y-81445190D01*
X67066249Y-80889944D01*
X67057618Y-80846551D01*
X66949000Y-80300499D01*
X66949000Y-79699501D01*
X67066248Y-79110059D01*
X67114947Y-78992488D01*
X67296239Y-78554810D01*
X67630134Y-78055101D01*
X67630136Y-78055098D01*
X68055098Y-77630136D01*
X68382503Y-77411371D01*
X68554810Y-77296239D01*
X69110056Y-77066249D01*
X69110057Y-77066249D01*
X69110059Y-77066248D01*
X69699501Y-76949000D01*
X70300499Y-76949000D01*
X70889941Y-77066248D01*
X70889941Y-77066248D01*
G37*
G36*
X76343000Y-82693000D02*
X75041000Y-82693000D01*
X75041000Y-81391000D01*
X76343000Y-81391000D01*
X76343000Y-82693000D01*
X76343000Y-82693000D01*
G37*
G36*
X78443000Y-82693000D02*
X77141000Y-82693000D01*
X77141000Y-81391000D01*
X78443000Y-81391000D01*
X78443000Y-82693000D01*
X78443000Y-82693000D01*
G37*
G36*
X126744485Y-78584996D02*
X126744487Y-78584997D01*
X126744488Y-78584997D01*
X126976134Y-78680948D01*
X126981255Y-78683069D01*
X127194342Y-78825449D01*
X127375551Y-79006658D01*
X127375553Y-79006661D01*
X127517931Y-79219745D01*
X127610134Y-79442342D01*
X127616004Y-79456515D01*
X127666000Y-79707861D01*
X127666000Y-79964139D01*
X127616004Y-80215485D01*
X127517931Y-80452255D01*
X127375551Y-80665342D01*
X127194342Y-80846551D01*
X127194339Y-80846553D01*
X126981255Y-80988931D01*
X126744488Y-81087003D01*
X126744487Y-81087003D01*
X126744485Y-81087004D01*
X126493139Y-81137000D01*
X126236861Y-81137000D01*
X125985515Y-81087004D01*
X125985513Y-81087003D01*
X125985512Y-81087003D01*
X125748745Y-80988931D01*
X125535661Y-80846553D01*
X125535658Y-80846551D01*
X125354449Y-80665342D01*
X125212069Y-80452255D01*
X125113996Y-80215485D01*
X125064000Y-79964139D01*
X125064000Y-79707861D01*
X125113996Y-79456515D01*
X125119867Y-79442342D01*
X125212069Y-79219745D01*
X125354447Y-79006661D01*
X125354449Y-79006658D01*
X125535658Y-78825449D01*
X125748745Y-78683069D01*
X125753866Y-78680948D01*
X125985512Y-78584997D01*
X125985513Y-78584997D01*
X125985515Y-78584996D01*
X126236861Y-78535000D01*
X126493139Y-78535000D01*
X126744485Y-78584996D01*
X126744485Y-78584996D01*
G37*
G36*
X120304000Y-81120000D02*
X118202000Y-81120000D01*
X118202000Y-79018000D01*
X120304000Y-79018000D01*
X120304000Y-81120000D01*
X120304000Y-81120000D01*
G37*
G36*
X61981485Y-78490996D02*
X61981487Y-78490997D01*
X61981488Y-78490997D01*
X62135544Y-78554809D01*
X62218255Y-78589069D01*
X62431342Y-78731449D01*
X62612551Y-78912658D01*
X62754931Y-79125745D01*
X62853004Y-79362515D01*
X62903000Y-79613861D01*
X62903000Y-79870139D01*
X62853004Y-80121485D01*
X62754931Y-80358255D01*
X62612551Y-80571342D01*
X62431342Y-80752551D01*
X62431339Y-80752553D01*
X62218255Y-80894931D01*
X61981488Y-80993003D01*
X61981487Y-80993003D01*
X61981485Y-80993004D01*
X61730139Y-81043000D01*
X61473861Y-81043000D01*
X61222515Y-80993004D01*
X61222513Y-80993003D01*
X61222512Y-80993003D01*
X60985745Y-80894931D01*
X60772661Y-80752553D01*
X60772658Y-80752551D01*
X60591449Y-80571342D01*
X60449069Y-80358255D01*
X60350996Y-80121485D01*
X60301000Y-79870139D01*
X60301000Y-79613861D01*
X60350996Y-79362515D01*
X60449069Y-79125745D01*
X60591449Y-78912658D01*
X60772658Y-78731449D01*
X60985745Y-78589069D01*
X61068456Y-78554809D01*
X61222512Y-78490997D01*
X61222513Y-78490997D01*
X61222515Y-78490996D01*
X61473861Y-78441000D01*
X61730139Y-78441000D01*
X61981485Y-78490996D01*
X61981485Y-78490996D01*
G37*
G36*
X54481485Y-78490996D02*
X54481487Y-78490997D01*
X54481488Y-78490997D01*
X54635544Y-78554809D01*
X54718255Y-78589069D01*
X54931342Y-78731449D01*
X55112551Y-78912658D01*
X55254931Y-79125745D01*
X55353004Y-79362515D01*
X55403000Y-79613861D01*
X55403000Y-79870139D01*
X55353004Y-80121485D01*
X55254931Y-80358255D01*
X55112551Y-80571342D01*
X54931342Y-80752551D01*
X54931339Y-80752553D01*
X54718255Y-80894931D01*
X54481488Y-80993003D01*
X54481487Y-80993003D01*
X54481485Y-80993004D01*
X54230139Y-81043000D01*
X53973861Y-81043000D01*
X53722515Y-80993004D01*
X53722513Y-80993003D01*
X53722512Y-80993003D01*
X53485745Y-80894931D01*
X53272661Y-80752553D01*
X53272658Y-80752551D01*
X53091449Y-80571342D01*
X52949069Y-80358255D01*
X52850996Y-80121485D01*
X52801000Y-79870139D01*
X52801000Y-79613861D01*
X52850996Y-79362515D01*
X52949069Y-79125745D01*
X53091449Y-78912658D01*
X53272658Y-78731449D01*
X53485745Y-78589069D01*
X53568456Y-78554809D01*
X53722512Y-78490997D01*
X53722513Y-78490997D01*
X53722515Y-78490996D01*
X53973861Y-78441000D01*
X54230139Y-78441000D01*
X54481485Y-78490996D01*
X54481485Y-78490996D01*
G37*
G36*
X79723000Y-80553000D02*
X77621000Y-80553000D01*
X77621000Y-78451000D01*
X79723000Y-78451000D01*
X79723000Y-80553000D01*
X79723000Y-80553000D01*
G37*
G36*
X83923000Y-80553000D02*
X81821000Y-80553000D01*
X81821000Y-78451000D01*
X83923000Y-78451000D01*
X83923000Y-80553000D01*
X83923000Y-80553000D01*
G37*
G36*
X108390485Y-77361996D02*
X108390487Y-77361997D01*
X108390488Y-77361997D01*
X108627255Y-77460069D01*
X108840342Y-77602449D01*
X109021551Y-77783658D01*
X109163931Y-77996745D01*
X109262004Y-78233515D01*
X109312000Y-78484861D01*
X109312000Y-78741139D01*
X109277883Y-78912658D01*
X109262003Y-78992488D01*
X109206806Y-79125745D01*
X109163931Y-79229255D01*
X109021551Y-79442342D01*
X108840342Y-79623551D01*
X108840339Y-79623553D01*
X108627255Y-79765931D01*
X108390488Y-79864003D01*
X108390487Y-79864003D01*
X108390485Y-79864004D01*
X108139139Y-79914000D01*
X107882861Y-79914000D01*
X107631515Y-79864004D01*
X107631513Y-79864003D01*
X107631512Y-79864003D01*
X107394745Y-79765931D01*
X107181661Y-79623553D01*
X107181658Y-79623551D01*
X107000449Y-79442342D01*
X106858069Y-79229255D01*
X106815194Y-79125745D01*
X106759997Y-78992488D01*
X106744118Y-78912658D01*
X106710000Y-78741139D01*
X106710000Y-78484861D01*
X106759996Y-78233515D01*
X106858069Y-77996745D01*
X107000449Y-77783658D01*
X107181658Y-77602449D01*
X107394745Y-77460069D01*
X107631512Y-77361997D01*
X107631513Y-77361997D01*
X107631515Y-77361996D01*
X107882861Y-77312000D01*
X108139139Y-77312000D01*
X108390485Y-77361996D01*
X108390485Y-77361996D01*
G37*
G36*
X113390485Y-77361996D02*
X113390487Y-77361997D01*
X113390488Y-77361997D01*
X113627255Y-77460069D01*
X113840342Y-77602449D01*
X114021551Y-77783658D01*
X114163931Y-77996745D01*
X114262004Y-78233515D01*
X114312000Y-78484861D01*
X114312000Y-78741139D01*
X114277883Y-78912658D01*
X114262003Y-78992488D01*
X114206806Y-79125745D01*
X114163931Y-79229255D01*
X114021551Y-79442342D01*
X113840342Y-79623551D01*
X113840339Y-79623553D01*
X113627255Y-79765931D01*
X113390488Y-79864003D01*
X113390487Y-79864003D01*
X113390485Y-79864004D01*
X113139139Y-79914000D01*
X112882861Y-79914000D01*
X112631515Y-79864004D01*
X112631513Y-79864003D01*
X112631512Y-79864003D01*
X112394745Y-79765931D01*
X112181661Y-79623553D01*
X112181658Y-79623551D01*
X112000449Y-79442342D01*
X111858069Y-79229255D01*
X111815194Y-79125745D01*
X111759997Y-78992488D01*
X111744118Y-78912658D01*
X111710000Y-78741139D01*
X111710000Y-78484861D01*
X111759996Y-78233515D01*
X111858069Y-77996745D01*
X112000449Y-77783658D01*
X112181658Y-77602449D01*
X112394745Y-77460069D01*
X112631512Y-77361997D01*
X112631513Y-77361997D01*
X112631515Y-77361996D01*
X112882861Y-77312000D01*
X113139139Y-77312000D01*
X113390485Y-77361996D01*
X113390485Y-77361996D01*
G37*
G36*
X88390485Y-77361996D02*
X88390487Y-77361997D01*
X88390488Y-77361997D01*
X88627255Y-77460069D01*
X88840342Y-77602449D01*
X89021551Y-77783658D01*
X89163931Y-77996745D01*
X89262004Y-78233515D01*
X89312000Y-78484861D01*
X89312000Y-78741139D01*
X89277883Y-78912658D01*
X89262003Y-78992488D01*
X89206806Y-79125745D01*
X89163931Y-79229255D01*
X89021551Y-79442342D01*
X88840342Y-79623551D01*
X88840339Y-79623553D01*
X88627255Y-79765931D01*
X88390488Y-79864003D01*
X88390487Y-79864003D01*
X88390485Y-79864004D01*
X88139139Y-79914000D01*
X87882861Y-79914000D01*
X87631515Y-79864004D01*
X87631513Y-79864003D01*
X87631512Y-79864003D01*
X87394745Y-79765931D01*
X87181661Y-79623553D01*
X87181658Y-79623551D01*
X87000449Y-79442342D01*
X86858069Y-79229255D01*
X86815194Y-79125745D01*
X86759997Y-78992488D01*
X86744118Y-78912658D01*
X86710000Y-78741139D01*
X86710000Y-78484861D01*
X86759996Y-78233515D01*
X86858069Y-77996745D01*
X87000449Y-77783658D01*
X87181658Y-77602449D01*
X87394745Y-77460069D01*
X87631512Y-77361997D01*
X87631513Y-77361997D01*
X87631515Y-77361996D01*
X87882861Y-77312000D01*
X88139139Y-77312000D01*
X88390485Y-77361996D01*
X88390485Y-77361996D01*
G37*
G36*
X103390485Y-77361996D02*
X103390487Y-77361997D01*
X103390488Y-77361997D01*
X103627255Y-77460069D01*
X103840342Y-77602449D01*
X104021551Y-77783658D01*
X104163931Y-77996745D01*
X104262004Y-78233515D01*
X104312000Y-78484861D01*
X104312000Y-78741139D01*
X104277883Y-78912658D01*
X104262003Y-78992488D01*
X104206806Y-79125745D01*
X104163931Y-79229255D01*
X104021551Y-79442342D01*
X103840342Y-79623551D01*
X103840339Y-79623553D01*
X103627255Y-79765931D01*
X103390488Y-79864003D01*
X103390487Y-79864003D01*
X103390485Y-79864004D01*
X103139139Y-79914000D01*
X102882861Y-79914000D01*
X102631515Y-79864004D01*
X102631513Y-79864003D01*
X102631512Y-79864003D01*
X102394745Y-79765931D01*
X102181661Y-79623553D01*
X102181658Y-79623551D01*
X102000449Y-79442342D01*
X101858069Y-79229255D01*
X101815194Y-79125745D01*
X101759997Y-78992488D01*
X101744118Y-78912658D01*
X101710000Y-78741139D01*
X101710000Y-78484861D01*
X101759996Y-78233515D01*
X101858069Y-77996745D01*
X102000449Y-77783658D01*
X102181658Y-77602449D01*
X102394745Y-77460069D01*
X102631512Y-77361997D01*
X102631513Y-77361997D01*
X102631515Y-77361996D01*
X102882861Y-77312000D01*
X103139139Y-77312000D01*
X103390485Y-77361996D01*
X103390485Y-77361996D01*
G37*
G36*
X61981485Y-73490996D02*
X61981487Y-73490997D01*
X61981488Y-73490997D01*
X62218255Y-73589069D01*
X62431342Y-73731449D01*
X62612551Y-73912658D01*
X62754931Y-74125745D01*
X62853004Y-74362515D01*
X62903000Y-74613861D01*
X62903000Y-74870139D01*
X62853004Y-75121485D01*
X62754931Y-75358255D01*
X62612551Y-75571342D01*
X62431342Y-75752551D01*
X62431339Y-75752553D01*
X62218255Y-75894931D01*
X61981488Y-75993003D01*
X61981487Y-75993003D01*
X61981485Y-75993004D01*
X61730139Y-76043000D01*
X61473861Y-76043000D01*
X61222515Y-75993004D01*
X61222513Y-75993003D01*
X61222512Y-75993003D01*
X60985745Y-75894931D01*
X60772661Y-75752553D01*
X60772658Y-75752551D01*
X60591449Y-75571342D01*
X60449069Y-75358255D01*
X60350996Y-75121485D01*
X60301000Y-74870139D01*
X60301000Y-74613861D01*
X60350996Y-74362515D01*
X60449069Y-74125745D01*
X60591449Y-73912658D01*
X60772658Y-73731449D01*
X60985745Y-73589069D01*
X61222512Y-73490997D01*
X61222513Y-73490997D01*
X61222515Y-73490996D01*
X61473861Y-73441000D01*
X61730139Y-73441000D01*
X61981485Y-73490996D01*
X61981485Y-73490996D01*
G37*
G36*
X54481485Y-73490996D02*
X54481487Y-73490997D01*
X54481488Y-73490997D01*
X54718255Y-73589069D01*
X54931342Y-73731449D01*
X55112551Y-73912658D01*
X55254931Y-74125745D01*
X55353004Y-74362515D01*
X55403000Y-74613861D01*
X55403000Y-74870139D01*
X55353004Y-75121485D01*
X55254931Y-75358255D01*
X55112551Y-75571342D01*
X54931342Y-75752551D01*
X54931339Y-75752553D01*
X54718255Y-75894931D01*
X54481488Y-75993003D01*
X54481487Y-75993003D01*
X54481485Y-75993004D01*
X54230139Y-76043000D01*
X53973861Y-76043000D01*
X53722515Y-75993004D01*
X53722513Y-75993003D01*
X53722512Y-75993003D01*
X53485745Y-75894931D01*
X53272661Y-75752553D01*
X53272658Y-75752551D01*
X53091449Y-75571342D01*
X52949069Y-75358255D01*
X52850996Y-75121485D01*
X52801000Y-74870139D01*
X52801000Y-74613861D01*
X52850996Y-74362515D01*
X52949069Y-74125745D01*
X53091449Y-73912658D01*
X53272658Y-73731449D01*
X53485745Y-73589069D01*
X53722512Y-73490997D01*
X53722513Y-73490997D01*
X53722515Y-73490996D01*
X53973861Y-73441000D01*
X54230139Y-73441000D01*
X54481485Y-73490996D01*
X54481485Y-73490996D01*
G37*
G36*
X73027331Y-69928211D02*
X73355092Y-70063974D01*
X73650073Y-70261074D01*
X73900926Y-70511927D01*
X74098026Y-70806908D01*
X74233789Y-71134669D01*
X74303000Y-71482616D01*
X74303000Y-71837384D01*
X74233789Y-72185331D01*
X74098026Y-72513092D01*
X73900926Y-72808073D01*
X73650073Y-73058926D01*
X73355092Y-73256026D01*
X73027331Y-73391789D01*
X72679384Y-73461000D01*
X72324616Y-73461000D01*
X71976669Y-73391789D01*
X71648908Y-73256026D01*
X71353927Y-73058926D01*
X71103074Y-72808073D01*
X70905974Y-72513092D01*
X70770211Y-72185331D01*
X70701000Y-71837384D01*
X70701000Y-71482616D01*
X70770211Y-71134669D01*
X70905974Y-70806908D01*
X71103074Y-70511927D01*
X71353927Y-70261074D01*
X71648908Y-70063974D01*
X71976669Y-69928211D01*
X72324616Y-69859000D01*
X72679384Y-69859000D01*
X73027331Y-69928211D01*
X73027331Y-69928211D01*
G37*
G36*
X125889941Y-67066248D02*
X125889943Y-67066249D01*
X125889944Y-67066249D01*
X126445190Y-67296239D01*
X126445191Y-67296240D01*
X126944902Y-67630136D01*
X127369864Y-68055098D01*
X127369866Y-68055101D01*
X127703761Y-68554810D01*
X127851986Y-68912658D01*
X127933752Y-69110059D01*
X128051000Y-69699501D01*
X128051000Y-70300499D01*
X127944246Y-70837186D01*
X127933751Y-70889944D01*
X127703761Y-71445190D01*
X127608892Y-71587171D01*
X127369864Y-71944902D01*
X126944902Y-72369864D01*
X126944899Y-72369866D01*
X126445190Y-72703761D01*
X125889944Y-72933751D01*
X125889943Y-72933751D01*
X125889941Y-72933752D01*
X125300499Y-73051000D01*
X124699501Y-73051000D01*
X124110059Y-72933752D01*
X124110057Y-72933751D01*
X124110056Y-72933751D01*
X123554810Y-72703761D01*
X123055101Y-72369866D01*
X123055098Y-72369864D01*
X122630136Y-71944902D01*
X122391108Y-71587171D01*
X122296239Y-71445190D01*
X122066249Y-70889944D01*
X122055755Y-70837186D01*
X121949000Y-70300499D01*
X121949000Y-69699501D01*
X122066248Y-69110059D01*
X122148014Y-68912658D01*
X122296239Y-68554810D01*
X122630134Y-68055101D01*
X122630136Y-68055098D01*
X123055098Y-67630136D01*
X123554809Y-67296240D01*
X123554810Y-67296239D01*
X124110056Y-67066249D01*
X124110057Y-67066249D01*
X124110059Y-67066248D01*
X124699501Y-66949000D01*
X125300499Y-66949000D01*
X125889941Y-67066248D01*
X125889941Y-67066248D01*
G37*
G36*
X61981485Y-68490996D02*
X61981487Y-68490997D01*
X61981488Y-68490997D01*
X62063588Y-68525004D01*
X62218255Y-68589069D01*
X62431342Y-68731449D01*
X62612551Y-68912658D01*
X62754931Y-69125745D01*
X62853004Y-69362515D01*
X62903000Y-69613861D01*
X62903000Y-69870139D01*
X62853004Y-70121485D01*
X62754931Y-70358255D01*
X62612551Y-70571342D01*
X62431342Y-70752551D01*
X62431339Y-70752553D01*
X62218255Y-70894931D01*
X61981488Y-70993003D01*
X61981487Y-70993003D01*
X61981485Y-70993004D01*
X61730139Y-71043000D01*
X61473861Y-71043000D01*
X61222515Y-70993004D01*
X61222513Y-70993003D01*
X61222512Y-70993003D01*
X60985745Y-70894931D01*
X60772661Y-70752553D01*
X60772658Y-70752551D01*
X60591449Y-70571342D01*
X60449069Y-70358255D01*
X60350996Y-70121485D01*
X60301000Y-69870139D01*
X60301000Y-69613861D01*
X60350996Y-69362515D01*
X60449069Y-69125745D01*
X60591449Y-68912658D01*
X60772658Y-68731449D01*
X60985745Y-68589069D01*
X61140412Y-68525004D01*
X61222512Y-68490997D01*
X61222513Y-68490997D01*
X61222515Y-68490996D01*
X61473861Y-68441000D01*
X61730139Y-68441000D01*
X61981485Y-68490996D01*
X61981485Y-68490996D01*
G37*
G36*
X54481485Y-68490996D02*
X54481487Y-68490997D01*
X54481488Y-68490997D01*
X54563588Y-68525004D01*
X54718255Y-68589069D01*
X54931342Y-68731449D01*
X55112551Y-68912658D01*
X55254931Y-69125745D01*
X55353004Y-69362515D01*
X55403000Y-69613861D01*
X55403000Y-69870139D01*
X55353004Y-70121485D01*
X55254931Y-70358255D01*
X55112551Y-70571342D01*
X54931342Y-70752551D01*
X54931339Y-70752553D01*
X54718255Y-70894931D01*
X54481488Y-70993003D01*
X54481487Y-70993003D01*
X54481485Y-70993004D01*
X54230139Y-71043000D01*
X53973861Y-71043000D01*
X53722515Y-70993004D01*
X53722513Y-70993003D01*
X53722512Y-70993003D01*
X53485745Y-70894931D01*
X53272661Y-70752553D01*
X53272658Y-70752551D01*
X53091449Y-70571342D01*
X52949069Y-70358255D01*
X52850996Y-70121485D01*
X52801000Y-69870139D01*
X52801000Y-69613861D01*
X52850996Y-69362515D01*
X52949069Y-69125745D01*
X53091449Y-68912658D01*
X53272658Y-68731449D01*
X53485745Y-68589069D01*
X53640412Y-68525004D01*
X53722512Y-68490997D01*
X53722513Y-68490997D01*
X53722515Y-68490996D01*
X53973861Y-68441000D01*
X54230139Y-68441000D01*
X54481485Y-68490996D01*
X54481485Y-68490996D01*
G37*
G36*
X127800252Y-58987818D02*
X127800254Y-58987819D01*
X127800255Y-58987819D01*
X128173513Y-59142427D01*
X128173514Y-59142428D01*
X128509439Y-59366886D01*
X128795114Y-59652561D01*
X128795116Y-59652564D01*
X129019573Y-59988487D01*
X129174181Y-60361745D01*
X129253000Y-60757994D01*
X129253000Y-61162006D01*
X129174181Y-61558255D01*
X129019573Y-61931513D01*
X129019572Y-61931514D01*
X128795114Y-62267439D01*
X128509439Y-62553114D01*
X128509436Y-62553116D01*
X128173513Y-62777573D01*
X127800255Y-62932181D01*
X127800254Y-62932181D01*
X127800252Y-62932182D01*
X127404007Y-63011000D01*
X126999993Y-63011000D01*
X126603748Y-62932182D01*
X126603746Y-62932181D01*
X126603745Y-62932181D01*
X126230487Y-62777573D01*
X125894564Y-62553116D01*
X125894561Y-62553114D01*
X125608886Y-62267439D01*
X125384428Y-61931514D01*
X125384427Y-61931513D01*
X125229819Y-61558255D01*
X125151000Y-61162006D01*
X125151000Y-60757994D01*
X125229819Y-60361745D01*
X125384427Y-59988487D01*
X125608884Y-59652564D01*
X125608886Y-59652561D01*
X125894561Y-59366886D01*
X126230486Y-59142428D01*
X126230487Y-59142427D01*
X126603745Y-58987819D01*
X126603746Y-58987819D01*
X126603748Y-58987818D01*
X126999993Y-58909000D01*
X127404007Y-58909000D01*
X127800252Y-58987818D01*
X127800252Y-58987818D01*
G37*
G36*
X62800252Y-58987818D02*
X62800254Y-58987819D01*
X62800255Y-58987819D01*
X63173513Y-59142427D01*
X63173514Y-59142428D01*
X63509439Y-59366886D01*
X63795114Y-59652561D01*
X63795116Y-59652564D01*
X64019573Y-59988487D01*
X64174181Y-60361745D01*
X64253000Y-60757994D01*
X64253000Y-61162006D01*
X64174181Y-61558255D01*
X64019573Y-61931513D01*
X64019572Y-61931514D01*
X63795114Y-62267439D01*
X63509439Y-62553114D01*
X63509436Y-62553116D01*
X63173513Y-62777573D01*
X62800255Y-62932181D01*
X62800254Y-62932181D01*
X62800252Y-62932182D01*
X62404007Y-63011000D01*
X61999993Y-63011000D01*
X61603748Y-62932182D01*
X61603746Y-62932181D01*
X61603745Y-62932181D01*
X61230487Y-62777573D01*
X60894564Y-62553116D01*
X60894561Y-62553114D01*
X60608886Y-62267439D01*
X60384428Y-61931514D01*
X60384427Y-61931513D01*
X60229819Y-61558255D01*
X60151000Y-61162006D01*
X60151000Y-60757994D01*
X60229819Y-60361745D01*
X60384427Y-59988487D01*
X60608884Y-59652564D01*
X60608886Y-59652561D01*
X60894561Y-59366886D01*
X61230486Y-59142428D01*
X61230487Y-59142427D01*
X61603745Y-58987819D01*
X61603746Y-58987819D01*
X61603748Y-58987818D01*
X61999993Y-58909000D01*
X62404007Y-58909000D01*
X62800252Y-58987818D01*
X62800252Y-58987818D01*
G37*
G36*
X57800252Y-58987818D02*
X57800254Y-58987819D01*
X57800255Y-58987819D01*
X58173513Y-59142427D01*
X58173514Y-59142428D01*
X58509439Y-59366886D01*
X58795114Y-59652561D01*
X58795116Y-59652564D01*
X59019573Y-59988487D01*
X59174181Y-60361745D01*
X59253000Y-60757994D01*
X59253000Y-61162006D01*
X59174181Y-61558255D01*
X59019573Y-61931513D01*
X59019572Y-61931514D01*
X58795114Y-62267439D01*
X58509439Y-62553114D01*
X58509436Y-62553116D01*
X58173513Y-62777573D01*
X57800255Y-62932181D01*
X57800254Y-62932181D01*
X57800252Y-62932182D01*
X57404007Y-63011000D01*
X56999993Y-63011000D01*
X56603748Y-62932182D01*
X56603746Y-62932181D01*
X56603745Y-62932181D01*
X56230487Y-62777573D01*
X55894564Y-62553116D01*
X55894561Y-62553114D01*
X55608886Y-62267439D01*
X55384428Y-61931514D01*
X55384427Y-61931513D01*
X55229819Y-61558255D01*
X55151000Y-61162006D01*
X55151000Y-60757994D01*
X55229819Y-60361745D01*
X55384427Y-59988487D01*
X55608884Y-59652564D01*
X55608886Y-59652561D01*
X55894561Y-59366886D01*
X56230486Y-59142428D01*
X56230487Y-59142427D01*
X56603745Y-58987819D01*
X56603746Y-58987819D01*
X56603748Y-58987818D01*
X56999993Y-58909000D01*
X57404007Y-58909000D01*
X57800252Y-58987818D01*
X57800252Y-58987818D01*
G37*
G36*
X122800252Y-58860818D02*
X122800254Y-58860819D01*
X122800255Y-58860819D01*
X123173513Y-59015427D01*
X123363583Y-59142428D01*
X123509439Y-59239886D01*
X123795114Y-59525561D01*
X123795116Y-59525564D01*
X124019573Y-59861487D01*
X124174181Y-60234745D01*
X124253000Y-60630994D01*
X124253000Y-61035006D01*
X124174181Y-61431255D01*
X124019573Y-61804513D01*
X124019572Y-61804514D01*
X123795114Y-62140439D01*
X123509439Y-62426114D01*
X123509436Y-62426116D01*
X123173513Y-62650573D01*
X122800255Y-62805181D01*
X122800254Y-62805181D01*
X122800252Y-62805182D01*
X122404007Y-62884000D01*
X121999993Y-62884000D01*
X121603748Y-62805182D01*
X121603746Y-62805181D01*
X121603745Y-62805181D01*
X121230487Y-62650573D01*
X120894564Y-62426116D01*
X120894561Y-62426114D01*
X120608886Y-62140439D01*
X120384428Y-61804514D01*
X120384427Y-61804513D01*
X120229819Y-61431255D01*
X120151000Y-61035006D01*
X120151000Y-60630994D01*
X120229819Y-60234745D01*
X120384427Y-59861487D01*
X120608884Y-59525564D01*
X120608886Y-59525561D01*
X120894561Y-59239886D01*
X121040417Y-59142428D01*
X121230487Y-59015427D01*
X121603745Y-58860819D01*
X121603746Y-58860819D01*
X121603748Y-58860818D01*
X121999993Y-58782000D01*
X122404007Y-58782000D01*
X122800252Y-58860818D01*
X122800252Y-58860818D01*
G37*
G36*
X125041000Y-52917000D02*
X121339000Y-52917000D01*
X121339000Y-50715000D01*
X125041000Y-50715000D01*
X125041000Y-52917000D01*
X125041000Y-52917000D01*
G37*
G36*
X54571830Y-48837930D02*
X54571833Y-48837931D01*
X54571834Y-48837931D01*
X54779373Y-48900887D01*
X54779375Y-48900888D01*
X54970644Y-49003123D01*
X55138291Y-49140709D01*
X55275877Y-49308356D01*
X55378112Y-49499625D01*
X55378113Y-49499627D01*
X55441069Y-49707166D01*
X55441070Y-49707170D01*
X55457000Y-49868911D01*
X55457000Y-51477089D01*
X55441070Y-51638830D01*
X55441069Y-51638833D01*
X55441069Y-51638834D01*
X55434974Y-51658928D01*
X55378112Y-51846375D01*
X55275877Y-52037644D01*
X55138291Y-52205291D01*
X54970642Y-52342877D01*
X54779372Y-52445113D01*
X54571833Y-52508069D01*
X54571832Y-52508069D01*
X54571829Y-52508070D01*
X54356000Y-52529327D01*
X54140170Y-52508070D01*
X54140167Y-52508069D01*
X54140166Y-52508069D01*
X53932627Y-52445113D01*
X53932625Y-52445112D01*
X53741356Y-52342877D01*
X53573709Y-52205291D01*
X53436123Y-52037642D01*
X53333887Y-51846372D01*
X53270931Y-51638833D01*
X53270931Y-51638832D01*
X53270930Y-51638829D01*
X53255000Y-51477088D01*
X53255000Y-49868911D01*
X53270930Y-49707165D01*
X53333887Y-49499629D01*
X53436124Y-49308356D01*
X53573710Y-49140709D01*
X53741357Y-49003123D01*
X53932626Y-48900888D01*
X53932628Y-48900887D01*
X54140167Y-48837931D01*
X54140168Y-48837931D01*
X54140171Y-48837930D01*
X54356000Y-48816673D01*
X54571830Y-48837930D01*
X54571830Y-48837930D01*
G37*
G36*
X63077000Y-52524000D02*
X60875000Y-52524000D01*
X60875000Y-48822000D01*
X63077000Y-48822000D01*
X63077000Y-52524000D01*
X63077000Y-52524000D01*
G37*
G36*
X112427331Y-48528211D02*
X112755092Y-48663974D01*
X113050073Y-48861074D01*
X113300926Y-49111927D01*
X113498026Y-49406908D01*
X113633789Y-49734669D01*
X113703000Y-50082616D01*
X113703000Y-50437384D01*
X113633789Y-50785331D01*
X113498026Y-51113092D01*
X113300926Y-51408073D01*
X113050073Y-51658926D01*
X112755092Y-51856026D01*
X112427331Y-51991789D01*
X112079384Y-52061000D01*
X111724616Y-52061000D01*
X111376669Y-51991789D01*
X111048908Y-51856026D01*
X110753927Y-51658926D01*
X110503074Y-51408073D01*
X110305974Y-51113092D01*
X110170211Y-50785331D01*
X110101000Y-50437384D01*
X110101000Y-50082616D01*
X110170211Y-49734669D01*
X110305974Y-49406908D01*
X110503074Y-49111927D01*
X110753927Y-48861074D01*
X111048908Y-48663974D01*
X111376669Y-48528211D01*
X111724616Y-48459000D01*
X112079384Y-48459000D01*
X112427331Y-48528211D01*
X112427331Y-48528211D01*
G37*
G36*
X75965031Y-45327207D02*
X76163145Y-45387305D01*
X76345729Y-45484897D01*
X76505765Y-45616235D01*
X76505766Y-45616237D01*
X76505768Y-45616238D01*
X76584568Y-45712257D01*
X76637103Y-45776271D01*
X76734695Y-45958854D01*
X76794793Y-46156968D01*
X76810000Y-46311370D01*
X76810000Y-47414630D01*
X76794793Y-47569032D01*
X76734695Y-47767146D01*
X76637103Y-47949729D01*
X76505765Y-48109765D01*
X76345729Y-48241103D01*
X76163146Y-48338695D01*
X75965032Y-48398793D01*
X75759000Y-48419085D01*
X75552969Y-48398793D01*
X75354855Y-48338695D01*
X75172272Y-48241103D01*
X75012236Y-48109765D01*
X74880899Y-47949731D01*
X74783306Y-47767148D01*
X74723207Y-47569028D01*
X74708000Y-47414631D01*
X74708000Y-46311370D01*
X74723207Y-46156973D01*
X74723207Y-46156969D01*
X74783305Y-45958855D01*
X74880897Y-45776271D01*
X75012235Y-45616235D01*
X75012237Y-45616234D01*
X75012238Y-45616232D01*
X75172269Y-45484899D01*
X75172271Y-45484897D01*
X75354854Y-45387305D01*
X75552968Y-45327207D01*
X75759000Y-45306915D01*
X75965031Y-45327207D01*
X75965031Y-45327207D01*
G37*
G36*
X97965031Y-45327207D02*
X98163145Y-45387305D01*
X98345729Y-45484897D01*
X98505765Y-45616235D01*
X98505766Y-45616237D01*
X98505768Y-45616238D01*
X98584568Y-45712257D01*
X98637103Y-45776271D01*
X98734695Y-45958854D01*
X98794793Y-46156968D01*
X98810000Y-46311370D01*
X98810000Y-47414630D01*
X98794793Y-47569032D01*
X98734695Y-47767146D01*
X98637103Y-47949729D01*
X98505765Y-48109765D01*
X98345729Y-48241103D01*
X98163146Y-48338695D01*
X97965032Y-48398793D01*
X97759000Y-48419085D01*
X97552969Y-48398793D01*
X97354855Y-48338695D01*
X97172272Y-48241103D01*
X97012236Y-48109765D01*
X96880899Y-47949731D01*
X96783306Y-47767148D01*
X96723207Y-47569028D01*
X96708000Y-47414631D01*
X96708000Y-46311370D01*
X96723207Y-46156973D01*
X96723207Y-46156969D01*
X96783305Y-45958855D01*
X96880897Y-45776271D01*
X97012235Y-45616235D01*
X97012237Y-45616234D01*
X97012238Y-45616232D01*
X97172269Y-45484899D01*
X97172271Y-45484897D01*
X97354854Y-45387305D01*
X97552968Y-45327207D01*
X97759000Y-45306915D01*
X97965031Y-45327207D01*
X97965031Y-45327207D01*
G37*
G36*
X105465031Y-45327207D02*
X105663145Y-45387305D01*
X105845729Y-45484897D01*
X106005765Y-45616235D01*
X106005766Y-45616237D01*
X106005768Y-45616238D01*
X106084568Y-45712257D01*
X106137103Y-45776271D01*
X106234695Y-45958854D01*
X106294793Y-46156968D01*
X106310000Y-46311370D01*
X106310000Y-47414630D01*
X106294793Y-47569032D01*
X106234695Y-47767146D01*
X106137103Y-47949729D01*
X106005765Y-48109765D01*
X105845729Y-48241103D01*
X105663146Y-48338695D01*
X105465032Y-48398793D01*
X105259000Y-48419085D01*
X105052969Y-48398793D01*
X104854855Y-48338695D01*
X104672272Y-48241103D01*
X104512236Y-48109765D01*
X104380899Y-47949731D01*
X104283306Y-47767148D01*
X104223207Y-47569028D01*
X104208000Y-47414631D01*
X104208000Y-46311370D01*
X104223207Y-46156973D01*
X104223207Y-46156969D01*
X104283305Y-45958855D01*
X104380897Y-45776271D01*
X104512235Y-45616235D01*
X104512237Y-45616234D01*
X104512238Y-45616232D01*
X104672269Y-45484899D01*
X104672271Y-45484897D01*
X104854854Y-45387305D01*
X105052968Y-45327207D01*
X105259000Y-45306915D01*
X105465031Y-45327207D01*
X105465031Y-45327207D01*
G37*
G36*
X68465031Y-45327207D02*
X68663145Y-45387305D01*
X68845729Y-45484897D01*
X69005765Y-45616235D01*
X69005766Y-45616237D01*
X69005768Y-45616238D01*
X69084568Y-45712257D01*
X69137103Y-45776271D01*
X69234695Y-45958854D01*
X69294793Y-46156968D01*
X69310000Y-46311370D01*
X69310000Y-47414630D01*
X69294793Y-47569032D01*
X69234695Y-47767146D01*
X69137103Y-47949729D01*
X69005765Y-48109765D01*
X68845729Y-48241103D01*
X68663146Y-48338695D01*
X68465032Y-48398793D01*
X68259000Y-48419085D01*
X68052969Y-48398793D01*
X67854855Y-48338695D01*
X67672272Y-48241103D01*
X67512236Y-48109765D01*
X67380899Y-47949731D01*
X67283306Y-47767148D01*
X67223207Y-47569028D01*
X67208000Y-47414631D01*
X67208000Y-46311370D01*
X67223207Y-46156973D01*
X67223207Y-46156969D01*
X67283305Y-45958855D01*
X67380897Y-45776271D01*
X67512235Y-45616235D01*
X67512237Y-45616234D01*
X67512238Y-45616232D01*
X67672269Y-45484899D01*
X67672271Y-45484897D01*
X67854854Y-45387305D01*
X68052968Y-45327207D01*
X68259000Y-45306915D01*
X68465031Y-45327207D01*
X68465031Y-45327207D01*
G37*
G36*
X124155830Y-43110930D02*
X124155833Y-43110931D01*
X124155834Y-43110931D01*
X124363373Y-43173887D01*
X124363375Y-43173888D01*
X124554644Y-43276123D01*
X124722291Y-43413709D01*
X124859877Y-43581356D01*
X124962112Y-43772625D01*
X125025070Y-43980170D01*
X125046327Y-44196000D01*
X125025070Y-44411830D01*
X124962112Y-44619375D01*
X124859877Y-44810644D01*
X124722291Y-44978291D01*
X124554644Y-45115877D01*
X124363375Y-45218112D01*
X124363373Y-45218113D01*
X124155834Y-45281069D01*
X124155833Y-45281069D01*
X124155830Y-45281070D01*
X123994089Y-45297000D01*
X122385911Y-45297000D01*
X122224170Y-45281070D01*
X122224167Y-45281069D01*
X122224166Y-45281069D01*
X122016627Y-45218113D01*
X122016625Y-45218112D01*
X121825356Y-45115877D01*
X121657709Y-44978291D01*
X121520123Y-44810644D01*
X121417888Y-44619375D01*
X121354930Y-44411830D01*
X121333673Y-44196000D01*
X121354930Y-43980170D01*
X121417888Y-43772625D01*
X121520123Y-43581356D01*
X121657709Y-43413709D01*
X121825356Y-43276123D01*
X122016625Y-43173888D01*
X122016627Y-43173887D01*
X122224166Y-43110931D01*
X122224167Y-43110931D01*
X122224170Y-43110930D01*
X122385911Y-43095000D01*
X123994089Y-43095000D01*
X124155830Y-43110930D01*
X124155830Y-43110930D01*
G37*
M02*
