%TF.GenerationSoftware,KiCad,Pcbnew,(6.0.0-rc1-dev-882-gdbc9130da)*%
%TF.CreationDate,2019-10-18T11:57:10+08:00*%
%TF.ProjectId,SoftStartLamp,536F667453746172744C616D702E6B69,rev?*%
%TF.SameCoordinates,Original*%
%TF.FileFunction,Legend,Top*%
%TF.FilePolarity,Positive*%
%FSLAX46Y46*%
G04 Gerber Fmt 4.6, Leading zero omitted, Abs format (unit mm)*
G04 Created by KiCad (PCBNEW (6.0.0-rc1-dev-882-gdbc9130da)) date 2019/10/18 11:57:10*
%MOMM*%
%LPD*%
G01*
G04 APERTURE LIST*
%ADD10C,0.200000*%
%ADD11C,0.150000*%
%ADD12C,0.300000*%
%ADD13C,0.120000*%
%ADD14C,0.254000*%
%ADD15C,0.381000*%
%ADD16C,0.400000*%
%ADD17C,0.250000*%
%ADD18C,0.500000*%
%ADD19C,0.508000*%
%ADD20C,0.152400*%
G04 APERTURE END LIST*
D10*
X110209476Y-106869761D02*
X110352333Y-106917380D01*
X110590428Y-106917380D01*
X110685666Y-106869761D01*
X110733285Y-106822142D01*
X110780904Y-106726904D01*
X110780904Y-106631666D01*
X110733285Y-106536428D01*
X110685666Y-106488809D01*
X110590428Y-106441190D01*
X110399952Y-106393571D01*
X110304714Y-106345952D01*
X110257095Y-106298333D01*
X110209476Y-106203095D01*
X110209476Y-106107857D01*
X110257095Y-106012619D01*
X110304714Y-105965000D01*
X110399952Y-105917380D01*
X110638047Y-105917380D01*
X110780904Y-105965000D01*
X111352333Y-106917380D02*
X111257095Y-106869761D01*
X111209476Y-106822142D01*
X111161857Y-106726904D01*
X111161857Y-106441190D01*
X111209476Y-106345952D01*
X111257095Y-106298333D01*
X111352333Y-106250714D01*
X111495190Y-106250714D01*
X111590428Y-106298333D01*
X111638047Y-106345952D01*
X111685666Y-106441190D01*
X111685666Y-106726904D01*
X111638047Y-106822142D01*
X111590428Y-106869761D01*
X111495190Y-106917380D01*
X111352333Y-106917380D01*
X111971380Y-106250714D02*
X112352333Y-106250714D01*
X112114238Y-106917380D02*
X112114238Y-106060238D01*
X112161857Y-105965000D01*
X112257095Y-105917380D01*
X112352333Y-105917380D01*
X112542809Y-106250714D02*
X112923761Y-106250714D01*
X112685666Y-105917380D02*
X112685666Y-106774523D01*
X112733285Y-106869761D01*
X112828523Y-106917380D01*
X112923761Y-106917380D01*
X113971380Y-106869761D02*
X114114238Y-106917380D01*
X114352333Y-106917380D01*
X114447571Y-106869761D01*
X114495190Y-106822142D01*
X114542809Y-106726904D01*
X114542809Y-106631666D01*
X114495190Y-106536428D01*
X114447571Y-106488809D01*
X114352333Y-106441190D01*
X114161857Y-106393571D01*
X114066619Y-106345952D01*
X114019000Y-106298333D01*
X113971380Y-106203095D01*
X113971380Y-106107857D01*
X114019000Y-106012619D01*
X114066619Y-105965000D01*
X114161857Y-105917380D01*
X114399952Y-105917380D01*
X114542809Y-105965000D01*
X114828523Y-106250714D02*
X115209476Y-106250714D01*
X114971380Y-105917380D02*
X114971380Y-106774523D01*
X115019000Y-106869761D01*
X115114238Y-106917380D01*
X115209476Y-106917380D01*
X115971380Y-106917380D02*
X115971380Y-106393571D01*
X115923761Y-106298333D01*
X115828523Y-106250714D01*
X115638047Y-106250714D01*
X115542809Y-106298333D01*
X115971380Y-106869761D02*
X115876142Y-106917380D01*
X115638047Y-106917380D01*
X115542809Y-106869761D01*
X115495190Y-106774523D01*
X115495190Y-106679285D01*
X115542809Y-106584047D01*
X115638047Y-106536428D01*
X115876142Y-106536428D01*
X115971380Y-106488809D01*
X116447571Y-106917380D02*
X116447571Y-106250714D01*
X116447571Y-106441190D02*
X116495190Y-106345952D01*
X116542809Y-106298333D01*
X116638047Y-106250714D01*
X116733285Y-106250714D01*
X116923761Y-106250714D02*
X117304714Y-106250714D01*
X117066619Y-105917380D02*
X117066619Y-106774523D01*
X117114238Y-106869761D01*
X117209476Y-106917380D01*
X117304714Y-106917380D01*
X118876142Y-106917380D02*
X118399952Y-106917380D01*
X118399952Y-105917380D01*
X119638047Y-106917380D02*
X119638047Y-106393571D01*
X119590428Y-106298333D01*
X119495190Y-106250714D01*
X119304714Y-106250714D01*
X119209476Y-106298333D01*
X119638047Y-106869761D02*
X119542809Y-106917380D01*
X119304714Y-106917380D01*
X119209476Y-106869761D01*
X119161857Y-106774523D01*
X119161857Y-106679285D01*
X119209476Y-106584047D01*
X119304714Y-106536428D01*
X119542809Y-106536428D01*
X119638047Y-106488809D01*
X120114238Y-106917380D02*
X120114238Y-106250714D01*
X120114238Y-106345952D02*
X120161857Y-106298333D01*
X120257095Y-106250714D01*
X120399952Y-106250714D01*
X120495190Y-106298333D01*
X120542809Y-106393571D01*
X120542809Y-106917380D01*
X120542809Y-106393571D02*
X120590428Y-106298333D01*
X120685666Y-106250714D01*
X120828523Y-106250714D01*
X120923761Y-106298333D01*
X120971380Y-106393571D01*
X120971380Y-106917380D01*
X121447571Y-106250714D02*
X121447571Y-107250714D01*
X121447571Y-106298333D02*
X121542809Y-106250714D01*
X121733285Y-106250714D01*
X121828523Y-106298333D01*
X121876142Y-106345952D01*
X121923761Y-106441190D01*
X121923761Y-106726904D01*
X121876142Y-106822142D01*
X121828523Y-106869761D01*
X121733285Y-106917380D01*
X121542809Y-106917380D01*
X121447571Y-106869761D01*
X110114238Y-107617380D02*
X110447571Y-108617380D01*
X110780904Y-107617380D01*
X111304714Y-107617380D02*
X111399952Y-107617380D01*
X111495190Y-107665000D01*
X111542809Y-107712619D01*
X111590428Y-107807857D01*
X111638047Y-107998333D01*
X111638047Y-108236428D01*
X111590428Y-108426904D01*
X111542809Y-108522142D01*
X111495190Y-108569761D01*
X111399952Y-108617380D01*
X111304714Y-108617380D01*
X111209476Y-108569761D01*
X111161857Y-108522142D01*
X111114238Y-108426904D01*
X111066619Y-108236428D01*
X111066619Y-107998333D01*
X111114238Y-107807857D01*
X111161857Y-107712619D01*
X111209476Y-107665000D01*
X111304714Y-107617380D01*
X112066619Y-108522142D02*
X112114238Y-108569761D01*
X112066619Y-108617380D01*
X112019000Y-108569761D01*
X112066619Y-108522142D01*
X112066619Y-108617380D01*
X112495190Y-107712619D02*
X112542809Y-107665000D01*
X112638047Y-107617380D01*
X112876142Y-107617380D01*
X112971380Y-107665000D01*
X113019000Y-107712619D01*
X113066619Y-107807857D01*
X113066619Y-107903095D01*
X113019000Y-108045952D01*
X112447571Y-108617380D01*
X113066619Y-108617380D01*
X96509285Y-107425380D02*
X96033095Y-107425380D01*
X96033095Y-106425380D01*
X97271190Y-106758714D02*
X97271190Y-107425380D01*
X96842619Y-106758714D02*
X96842619Y-107282523D01*
X96890238Y-107377761D01*
X96985476Y-107425380D01*
X97128333Y-107425380D01*
X97223571Y-107377761D01*
X97271190Y-107330142D01*
X97795000Y-107377761D02*
X97795000Y-107425380D01*
X97747380Y-107520619D01*
X97699761Y-107568238D01*
X98890238Y-106425380D02*
X99556904Y-106425380D01*
X98890238Y-107425380D01*
X99556904Y-107425380D01*
X100318809Y-107377761D02*
X100223571Y-107425380D01*
X100033095Y-107425380D01*
X99937857Y-107377761D01*
X99890238Y-107282523D01*
X99890238Y-106901571D01*
X99937857Y-106806333D01*
X100033095Y-106758714D01*
X100223571Y-106758714D01*
X100318809Y-106806333D01*
X100366428Y-106901571D01*
X100366428Y-106996809D01*
X99890238Y-107092047D01*
X100795000Y-106758714D02*
X100795000Y-107425380D01*
X100795000Y-106853952D02*
X100842619Y-106806333D01*
X100937857Y-106758714D01*
X101080714Y-106758714D01*
X101175952Y-106806333D01*
X101223571Y-106901571D01*
X101223571Y-107425380D01*
X101699761Y-107425380D02*
X101699761Y-106758714D01*
X101699761Y-106425380D02*
X101652142Y-106473000D01*
X101699761Y-106520619D01*
X101747380Y-106473000D01*
X101699761Y-106425380D01*
X101699761Y-106520619D01*
X102175952Y-106758714D02*
X102175952Y-107425380D01*
X102175952Y-106853952D02*
X102223571Y-106806333D01*
X102318809Y-106758714D01*
X102461666Y-106758714D01*
X102556904Y-106806333D01*
X102604523Y-106901571D01*
X102604523Y-107425380D01*
X103509285Y-106758714D02*
X103509285Y-107568238D01*
X103461666Y-107663476D01*
X103414047Y-107711095D01*
X103318809Y-107758714D01*
X103175952Y-107758714D01*
X103080714Y-107711095D01*
X103509285Y-107377761D02*
X103414047Y-107425380D01*
X103223571Y-107425380D01*
X103128333Y-107377761D01*
X103080714Y-107330142D01*
X103033095Y-107234904D01*
X103033095Y-106949190D01*
X103080714Y-106853952D01*
X103128333Y-106806333D01*
X103223571Y-106758714D01*
X103414047Y-106758714D01*
X103509285Y-106806333D01*
X95985476Y-108220619D02*
X96033095Y-108173000D01*
X96128333Y-108125380D01*
X96366428Y-108125380D01*
X96461666Y-108173000D01*
X96509285Y-108220619D01*
X96556904Y-108315857D01*
X96556904Y-108411095D01*
X96509285Y-108553952D01*
X95937857Y-109125380D01*
X96556904Y-109125380D01*
X97175952Y-108125380D02*
X97271190Y-108125380D01*
X97366428Y-108173000D01*
X97414047Y-108220619D01*
X97461666Y-108315857D01*
X97509285Y-108506333D01*
X97509285Y-108744428D01*
X97461666Y-108934904D01*
X97414047Y-109030142D01*
X97366428Y-109077761D01*
X97271190Y-109125380D01*
X97175952Y-109125380D01*
X97080714Y-109077761D01*
X97033095Y-109030142D01*
X96985476Y-108934904D01*
X96937857Y-108744428D01*
X96937857Y-108506333D01*
X96985476Y-108315857D01*
X97033095Y-108220619D01*
X97080714Y-108173000D01*
X97175952Y-108125380D01*
X98461666Y-109125380D02*
X97890238Y-109125380D01*
X98175952Y-109125380D02*
X98175952Y-108125380D01*
X98080714Y-108268238D01*
X97985476Y-108363476D01*
X97890238Y-108411095D01*
X98937857Y-109125380D02*
X99128333Y-109125380D01*
X99223571Y-109077761D01*
X99271190Y-109030142D01*
X99366428Y-108887285D01*
X99414047Y-108696809D01*
X99414047Y-108315857D01*
X99366428Y-108220619D01*
X99318809Y-108173000D01*
X99223571Y-108125380D01*
X99033095Y-108125380D01*
X98937857Y-108173000D01*
X98890238Y-108220619D01*
X98842619Y-108315857D01*
X98842619Y-108553952D01*
X98890238Y-108649190D01*
X98937857Y-108696809D01*
X99033095Y-108744428D01*
X99223571Y-108744428D01*
X99318809Y-108696809D01*
X99366428Y-108649190D01*
X99414047Y-108553952D01*
X99842619Y-109030142D02*
X99890238Y-109077761D01*
X99842619Y-109125380D01*
X99795000Y-109077761D01*
X99842619Y-109030142D01*
X99842619Y-109125380D01*
X100842619Y-109125380D02*
X100271190Y-109125380D01*
X100556904Y-109125380D02*
X100556904Y-108125380D01*
X100461666Y-108268238D01*
X100366428Y-108363476D01*
X100271190Y-108411095D01*
X101461666Y-108125380D02*
X101556904Y-108125380D01*
X101652142Y-108173000D01*
X101699761Y-108220619D01*
X101747380Y-108315857D01*
X101795000Y-108506333D01*
X101795000Y-108744428D01*
X101747380Y-108934904D01*
X101699761Y-109030142D01*
X101652142Y-109077761D01*
X101556904Y-109125380D01*
X101461666Y-109125380D01*
X101366428Y-109077761D01*
X101318809Y-109030142D01*
X101271190Y-108934904D01*
X101223571Y-108744428D01*
X101223571Y-108506333D01*
X101271190Y-108315857D01*
X101318809Y-108220619D01*
X101366428Y-108173000D01*
X101461666Y-108125380D01*
X102223571Y-109030142D02*
X102271190Y-109077761D01*
X102223571Y-109125380D01*
X102175952Y-109077761D01*
X102223571Y-109030142D01*
X102223571Y-109125380D01*
X103223571Y-109125380D02*
X102652142Y-109125380D01*
X102937857Y-109125380D02*
X102937857Y-108125380D01*
X102842619Y-108268238D01*
X102747380Y-108363476D01*
X102652142Y-108411095D01*
X103795000Y-108553952D02*
X103699761Y-108506333D01*
X103652142Y-108458714D01*
X103604523Y-108363476D01*
X103604523Y-108315857D01*
X103652142Y-108220619D01*
X103699761Y-108173000D01*
X103795000Y-108125380D01*
X103985476Y-108125380D01*
X104080714Y-108173000D01*
X104128333Y-108220619D01*
X104175952Y-108315857D01*
X104175952Y-108363476D01*
X104128333Y-108458714D01*
X104080714Y-108506333D01*
X103985476Y-108553952D01*
X103795000Y-108553952D01*
X103699761Y-108601571D01*
X103652142Y-108649190D01*
X103604523Y-108744428D01*
X103604523Y-108934904D01*
X103652142Y-109030142D01*
X103699761Y-109077761D01*
X103795000Y-109125380D01*
X103985476Y-109125380D01*
X104080714Y-109077761D01*
X104128333Y-109030142D01*
X104175952Y-108934904D01*
X104175952Y-108744428D01*
X104128333Y-108649190D01*
X104080714Y-108601571D01*
X103985476Y-108553952D01*
D11*
X119324428Y-52323952D02*
X119324428Y-51562047D01*
X73130380Y-107314857D02*
X72130380Y-107314857D01*
X72130380Y-106933904D01*
X72178000Y-106838666D01*
X72225619Y-106791047D01*
X72320857Y-106743428D01*
X72463714Y-106743428D01*
X72558952Y-106791047D01*
X72606571Y-106838666D01*
X72654190Y-106933904D01*
X72654190Y-107314857D01*
X72130380Y-106457714D02*
X72130380Y-105886285D01*
X73130380Y-106172000D02*
X72130380Y-106172000D01*
X73035142Y-104981523D02*
X73082761Y-105029142D01*
X73130380Y-105172000D01*
X73130380Y-105267238D01*
X73082761Y-105410095D01*
X72987523Y-105505333D01*
X72892285Y-105552952D01*
X72701809Y-105600571D01*
X72558952Y-105600571D01*
X72368476Y-105552952D01*
X72273238Y-105505333D01*
X72178000Y-105410095D01*
X72130380Y-105267238D01*
X72130380Y-105172000D01*
X72178000Y-105029142D01*
X72225619Y-104981523D01*
X81772571Y-107021380D02*
X82344000Y-107021380D01*
X82058285Y-108021380D02*
X82058285Y-107021380D01*
X83058285Y-107973761D02*
X82963047Y-108021380D01*
X82772571Y-108021380D01*
X82677333Y-107973761D01*
X82629714Y-107878523D01*
X82629714Y-107497571D01*
X82677333Y-107402333D01*
X82772571Y-107354714D01*
X82963047Y-107354714D01*
X83058285Y-107402333D01*
X83105904Y-107497571D01*
X83105904Y-107592809D01*
X82629714Y-107688047D01*
X83534476Y-108021380D02*
X83534476Y-107354714D01*
X83534476Y-107449952D02*
X83582095Y-107402333D01*
X83677333Y-107354714D01*
X83820190Y-107354714D01*
X83915428Y-107402333D01*
X83963047Y-107497571D01*
X83963047Y-108021380D01*
X83963047Y-107497571D02*
X84010666Y-107402333D01*
X84105904Y-107354714D01*
X84248761Y-107354714D01*
X84344000Y-107402333D01*
X84391619Y-107497571D01*
X84391619Y-108021380D01*
X84867809Y-107354714D02*
X84867809Y-108354714D01*
X84867809Y-107402333D02*
X84963047Y-107354714D01*
X85153523Y-107354714D01*
X85248761Y-107402333D01*
X85296380Y-107449952D01*
X85344000Y-107545190D01*
X85344000Y-107830904D01*
X85296380Y-107926142D01*
X85248761Y-107973761D01*
X85153523Y-108021380D01*
X84963047Y-108021380D01*
X84867809Y-107973761D01*
X86486857Y-107735666D02*
X86963047Y-107735666D01*
X86391619Y-108021380D02*
X86724952Y-107021380D01*
X87058285Y-108021380D01*
X87820190Y-108021380D02*
X87820190Y-107021380D01*
X87820190Y-107973761D02*
X87724952Y-108021380D01*
X87534476Y-108021380D01*
X87439238Y-107973761D01*
X87391619Y-107926142D01*
X87344000Y-107830904D01*
X87344000Y-107545190D01*
X87391619Y-107449952D01*
X87439238Y-107402333D01*
X87534476Y-107354714D01*
X87724952Y-107354714D01*
X87820190Y-107402333D01*
X88296380Y-107354714D02*
X88296380Y-108211857D01*
X88248761Y-108307095D01*
X88153523Y-108354714D01*
X88105904Y-108354714D01*
X88296380Y-107021380D02*
X88248761Y-107069000D01*
X88296380Y-107116619D01*
X88344000Y-107069000D01*
X88296380Y-107021380D01*
X88296380Y-107116619D01*
X88772571Y-107926142D02*
X88820190Y-107973761D01*
X88772571Y-108021380D01*
X88724952Y-107973761D01*
X88772571Y-107926142D01*
X88772571Y-108021380D01*
X51633380Y-56633904D02*
X51633380Y-57110095D01*
X50633380Y-57110095D01*
X51633380Y-55872000D02*
X51109571Y-55872000D01*
X51014333Y-55919619D01*
X50966714Y-56014857D01*
X50966714Y-56205333D01*
X51014333Y-56300571D01*
X51585761Y-55872000D02*
X51633380Y-55967238D01*
X51633380Y-56205333D01*
X51585761Y-56300571D01*
X51490523Y-56348190D01*
X51395285Y-56348190D01*
X51300047Y-56300571D01*
X51252428Y-56205333D01*
X51252428Y-55967238D01*
X51204809Y-55872000D01*
X51633380Y-55395809D02*
X50966714Y-55395809D01*
X51061952Y-55395809D02*
X51014333Y-55348190D01*
X50966714Y-55252952D01*
X50966714Y-55110095D01*
X51014333Y-55014857D01*
X51109571Y-54967238D01*
X51633380Y-54967238D01*
X51109571Y-54967238D02*
X51014333Y-54919619D01*
X50966714Y-54824380D01*
X50966714Y-54681523D01*
X51014333Y-54586285D01*
X51109571Y-54538666D01*
X51633380Y-54538666D01*
X50966714Y-54062476D02*
X51966714Y-54062476D01*
X51014333Y-54062476D02*
X50966714Y-53967238D01*
X50966714Y-53776761D01*
X51014333Y-53681523D01*
X51061952Y-53633904D01*
X51157190Y-53586285D01*
X51442904Y-53586285D01*
X51538142Y-53633904D01*
X51585761Y-53681523D01*
X51633380Y-53776761D01*
X51633380Y-53967238D01*
X51585761Y-54062476D01*
D10*
X127920476Y-57221380D02*
X127872857Y-57269000D01*
X127777619Y-57316619D01*
X127539523Y-57316619D01*
X127444285Y-57269000D01*
X127396666Y-57221380D01*
X127349047Y-57126142D01*
X127349047Y-57030904D01*
X127396666Y-56888047D01*
X127968095Y-56316619D01*
X127349047Y-56316619D01*
X126491904Y-56983285D02*
X126491904Y-56316619D01*
X126730000Y-57364238D02*
X126968095Y-56649952D01*
X126349047Y-56649952D01*
X126110952Y-57316619D02*
X125777619Y-56316619D01*
X125444285Y-57316619D01*
X125110952Y-56316619D02*
X125110952Y-57316619D01*
X124872857Y-57316619D01*
X124730000Y-57269000D01*
X124634761Y-57173761D01*
X124587142Y-57078523D01*
X124539523Y-56888047D01*
X124539523Y-56745190D01*
X124587142Y-56554714D01*
X124634761Y-56459476D01*
X124730000Y-56364238D01*
X124872857Y-56316619D01*
X125110952Y-56316619D01*
X123539523Y-56411857D02*
X123587142Y-56364238D01*
X123730000Y-56316619D01*
X123825238Y-56316619D01*
X123968095Y-56364238D01*
X124063333Y-56459476D01*
X124110952Y-56554714D01*
X124158571Y-56745190D01*
X124158571Y-56888047D01*
X124110952Y-57078523D01*
X124063333Y-57173761D01*
X123968095Y-57269000D01*
X123825238Y-57316619D01*
X123730000Y-57316619D01*
X123587142Y-57269000D01*
X123539523Y-57221380D01*
D12*
X128079571Y-76053142D02*
X129222428Y-76053142D01*
X128651000Y-76624571D02*
X128651000Y-75481714D01*
X124206142Y-75584857D02*
X123706142Y-75584857D01*
X123706142Y-76370571D02*
X123706142Y-74870571D01*
X124420428Y-74870571D01*
X125634714Y-76370571D02*
X125634714Y-75584857D01*
X125563285Y-75442000D01*
X125420428Y-75370571D01*
X125134714Y-75370571D01*
X124991857Y-75442000D01*
X125634714Y-76299142D02*
X125491857Y-76370571D01*
X125134714Y-76370571D01*
X124991857Y-76299142D01*
X124920428Y-76156285D01*
X124920428Y-76013428D01*
X124991857Y-75870571D01*
X125134714Y-75799142D01*
X125491857Y-75799142D01*
X125634714Y-75727714D01*
X126349000Y-75370571D02*
X126349000Y-76370571D01*
X126349000Y-75513428D02*
X126420428Y-75442000D01*
X126563285Y-75370571D01*
X126777571Y-75370571D01*
X126920428Y-75442000D01*
X126991857Y-75584857D01*
X126991857Y-76370571D01*
D11*
X106045095Y-107323000D02*
X105949857Y-107275380D01*
X105807000Y-107275380D01*
X105664142Y-107323000D01*
X105568904Y-107418238D01*
X105521285Y-107513476D01*
X105473666Y-107703952D01*
X105473666Y-107846809D01*
X105521285Y-108037285D01*
X105568904Y-108132523D01*
X105664142Y-108227761D01*
X105807000Y-108275380D01*
X105902238Y-108275380D01*
X106045095Y-108227761D01*
X106092714Y-108180142D01*
X106092714Y-107846809D01*
X105902238Y-107846809D01*
X106521285Y-108275380D02*
X106521285Y-107275380D01*
X107092714Y-108275380D01*
X107092714Y-107275380D01*
X107568904Y-108275380D02*
X107568904Y-107275380D01*
X107807000Y-107275380D01*
X107949857Y-107323000D01*
X108045095Y-107418238D01*
X108092714Y-107513476D01*
X108140333Y-107703952D01*
X108140333Y-107846809D01*
X108092714Y-108037285D01*
X108045095Y-108132523D01*
X107949857Y-108227761D01*
X107807000Y-108275380D01*
X107568904Y-108275380D01*
X106021285Y-105751380D02*
X106592714Y-105751380D01*
X106307000Y-106751380D02*
X106307000Y-105751380D01*
X106926047Y-106751380D02*
X106926047Y-105751380D01*
X107307000Y-105751380D01*
X107402238Y-105799000D01*
X107449857Y-105846619D01*
X107497476Y-105941857D01*
X107497476Y-106084714D01*
X107449857Y-106179952D01*
X107402238Y-106227571D01*
X107307000Y-106275190D01*
X106926047Y-106275190D01*
D13*
X76442000Y-81242000D02*
X77042000Y-81242000D01*
X76422000Y-82842000D02*
X77022000Y-82842000D01*
X64851000Y-99149000D02*
X65451000Y-99149000D01*
X64831000Y-100749000D02*
X65431000Y-100749000D01*
X69007000Y-94272000D02*
X68407000Y-94272000D01*
X69027000Y-92672000D02*
X68427000Y-92672000D01*
X68525000Y-85425000D02*
X68525000Y-86025000D01*
X66925000Y-85405000D02*
X66925000Y-86005000D01*
D10*
X69480000Y-90978000D02*
X69480000Y-90378000D01*
D14*
X67930000Y-92138000D02*
X67930000Y-91478000D01*
X67930000Y-92138000D02*
X68745000Y-92138000D01*
X67930000Y-89218000D02*
X68745000Y-89218000D01*
X67930000Y-89878000D02*
X67930000Y-89218000D01*
X67930000Y-89878000D02*
X67930000Y-89218000D01*
X67930000Y-89878000D02*
X67930000Y-89218000D01*
D10*
X70220000Y-85425000D02*
X70220000Y-86025000D01*
D14*
X71770000Y-84265000D02*
X71770000Y-84925000D01*
X71770000Y-84265000D02*
X70955000Y-84265000D01*
X71770000Y-87185000D02*
X70955000Y-87185000D01*
X71770000Y-86525000D02*
X71770000Y-87185000D01*
X71770000Y-86525000D02*
X71770000Y-87185000D01*
X71770000Y-86525000D02*
X71770000Y-87185000D01*
D13*
X92502000Y-105575000D02*
X91902000Y-105575000D01*
X92522000Y-103975000D02*
X91922000Y-103975000D01*
X89048335Y-103696392D02*
G75*
G03X85816000Y-103539484I-1672335J-1078608D01*
G01*
X89048335Y-105853608D02*
G75*
G02X85816000Y-106010516I-1672335J1078608D01*
G01*
X88417130Y-103695163D02*
G75*
G03X86335039Y-103695000I-1041130J-1079837D01*
G01*
X88417130Y-105854837D02*
G75*
G02X86335039Y-105855000I-1041130J1079837D01*
G01*
X85816000Y-103539000D02*
X85816000Y-103695000D01*
X85816000Y-105855000D02*
X85816000Y-106011000D01*
X108740000Y-100303000D02*
X114740000Y-100303000D01*
X114740000Y-100303000D02*
X114740000Y-95023000D01*
X114740000Y-95023000D02*
X108740000Y-95023000D01*
X108740000Y-95023000D02*
X108740000Y-100303000D01*
X114740000Y-98933000D02*
X113740000Y-98933000D01*
X113740000Y-98933000D02*
X113740000Y-96393000D01*
X113740000Y-96393000D02*
X114740000Y-96393000D01*
X113740000Y-98933000D02*
X113310000Y-98683000D01*
X113310000Y-98683000D02*
X113310000Y-96643000D01*
X113310000Y-96643000D02*
X113740000Y-96393000D01*
X114740000Y-98683000D02*
X113740000Y-98683000D01*
X114740000Y-96643000D02*
X113740000Y-96643000D01*
X108740000Y-99733000D02*
X109360000Y-99733000D01*
X109360000Y-99733000D02*
X109360000Y-98133000D01*
X109360000Y-98133000D02*
X108740000Y-98133000D01*
X108740000Y-97193000D02*
X109360000Y-97193000D01*
X109360000Y-97193000D02*
X109360000Y-95593000D01*
X109360000Y-95593000D02*
X108740000Y-95593000D01*
D15*
X74351000Y-107164000D02*
X74351000Y-102164000D01*
X76351000Y-109164000D02*
X81351000Y-109164000D01*
X74351000Y-107164000D02*
X76351000Y-109164000D01*
X75351000Y-108664000D02*
G75*
G03X75351000Y-108664000I-500000J0D01*
G01*
X74351000Y-102164000D02*
X81351000Y-102164000D01*
X81351000Y-102164000D02*
X81351000Y-109164000D01*
D14*
X77229000Y-90554000D02*
X82029000Y-90554000D01*
X77229000Y-87754000D02*
X82029000Y-87754000D01*
X77229000Y-90554000D02*
X77229000Y-87754000D01*
X82029000Y-90554000D02*
X82029000Y-87754000D01*
D12*
X77029000Y-92054000D02*
G75*
G03X77029000Y-92054000I-150000J0D01*
G01*
D16*
X78129000Y-89854000D02*
G75*
G03X78129000Y-89854000I-200000J0D01*
G01*
D13*
X66448000Y-103406000D02*
X66448000Y-109406000D01*
X66448000Y-109406000D02*
X71728000Y-109406000D01*
X71728000Y-109406000D02*
X71728000Y-103406000D01*
X71728000Y-103406000D02*
X66448000Y-103406000D01*
X67818000Y-109406000D02*
X67818000Y-108406000D01*
X67818000Y-108406000D02*
X70358000Y-108406000D01*
X70358000Y-108406000D02*
X70358000Y-109406000D01*
X67818000Y-108406000D02*
X68068000Y-107976000D01*
X68068000Y-107976000D02*
X70108000Y-107976000D01*
X70108000Y-107976000D02*
X70358000Y-108406000D01*
X68068000Y-109406000D02*
X68068000Y-108406000D01*
X70108000Y-109406000D02*
X70108000Y-108406000D01*
X67018000Y-103406000D02*
X67018000Y-104026000D01*
X67018000Y-104026000D02*
X68618000Y-104026000D01*
X68618000Y-104026000D02*
X68618000Y-103406000D01*
X69558000Y-103406000D02*
X69558000Y-104026000D01*
X69558000Y-104026000D02*
X71158000Y-104026000D01*
X71158000Y-104026000D02*
X71158000Y-103406000D01*
X72275000Y-98590000D02*
X71675000Y-98590000D01*
X72295000Y-96990000D02*
X71695000Y-96990000D01*
X88346000Y-100419000D02*
X88946000Y-100419000D01*
X88326000Y-102019000D02*
X88926000Y-102019000D01*
X80506000Y-82258000D02*
X81106000Y-82258000D01*
X80486000Y-83858000D02*
X81086000Y-83858000D01*
X76619000Y-99649000D02*
X76619000Y-100249000D01*
X75019000Y-99629000D02*
X75019000Y-100229000D01*
X76408000Y-83274000D02*
X77008000Y-83274000D01*
X76388000Y-84874000D02*
X76988000Y-84874000D01*
X118791000Y-104051000D02*
X118191000Y-104051000D01*
X118811000Y-102451000D02*
X118211000Y-102451000D01*
D17*
X117094000Y-62992000D02*
X67183000Y-62992000D01*
X117221000Y-58928000D02*
X67310000Y-58928000D01*
X117221000Y-56896000D02*
X67310000Y-56896000D01*
X117094000Y-65151000D02*
X67183000Y-65151000D01*
X117221000Y-60960000D02*
X67310000Y-60960000D01*
D18*
X117329000Y-63333000D02*
X128579000Y-63333000D01*
X117329000Y-58333000D02*
X128579000Y-58333000D01*
X128579000Y-58333000D02*
X128579000Y-63333000D01*
X55952000Y-63460000D02*
X55952000Y-58460000D01*
D13*
X56007000Y-63373000D02*
X55952000Y-63460000D01*
D18*
X67202000Y-58460000D02*
X55952000Y-58460000D01*
X67202000Y-63460000D02*
X55952000Y-63460000D01*
X76602000Y-74960000D02*
X76602000Y-68345000D01*
X67202000Y-74960000D02*
X76602000Y-74960000D01*
X67202000Y-68360000D02*
X67202000Y-74960000D01*
X107823000Y-46990000D02*
X107823000Y-53605000D01*
X117202000Y-46960000D02*
X107802000Y-46960000D01*
X117202000Y-53560000D02*
X117202000Y-46960000D01*
X67202000Y-53560000D02*
X117202000Y-53560000D01*
X117202000Y-68360000D02*
X67202000Y-68360000D01*
X67202000Y-53560000D02*
X67202000Y-68360000D01*
X117202000Y-68360000D02*
X117202000Y-53560000D01*
D13*
X72769000Y-102418000D02*
X72769000Y-101488000D01*
X72769000Y-99258000D02*
X72769000Y-100188000D01*
X72769000Y-99258000D02*
X70609000Y-99258000D01*
X72769000Y-102418000D02*
X71309000Y-102418000D01*
X80643000Y-101402000D02*
X80643000Y-100472000D01*
X80643000Y-98242000D02*
X80643000Y-99172000D01*
X80643000Y-98242000D02*
X78483000Y-98242000D01*
X80643000Y-101402000D02*
X79183000Y-101402000D01*
X80643000Y-97719000D02*
X80643000Y-96789000D01*
X80643000Y-94559000D02*
X80643000Y-95489000D01*
X80643000Y-94559000D02*
X78483000Y-94559000D01*
X80643000Y-97719000D02*
X79183000Y-97719000D01*
X65866000Y-52753000D02*
X65866000Y-40593000D01*
X65866000Y-40593000D02*
X50466000Y-40593000D01*
X50466000Y-40593000D02*
X50466000Y-52753000D01*
X50466000Y-52753000D02*
X65866000Y-52753000D01*
X65866000Y-42093000D02*
X65866000Y-43893000D01*
X65866000Y-43893000D02*
X50466000Y-43893000D01*
X50466000Y-43893000D02*
X50466000Y-42093000D01*
X50466000Y-42093000D02*
X65866000Y-42093000D01*
X62976000Y-40593000D02*
X60976000Y-40593000D01*
X60976000Y-40593000D02*
X61226000Y-42093000D01*
X61226000Y-42093000D02*
X62726000Y-42093000D01*
X62726000Y-42093000D02*
X62976000Y-40593000D01*
X55356000Y-40593000D02*
X53356000Y-40593000D01*
X53356000Y-40593000D02*
X53606000Y-42093000D01*
X53606000Y-42093000D02*
X55106000Y-42093000D01*
X55106000Y-42093000D02*
X55356000Y-40593000D01*
X61676000Y-53553000D02*
X61976000Y-52953000D01*
X61976000Y-52953000D02*
X62276000Y-53553000D01*
X62276000Y-53553000D02*
X61676000Y-53553000D01*
X128905000Y-78740000D02*
X129540000Y-78232000D01*
X129540000Y-81534000D02*
X128905000Y-81026000D01*
X128905000Y-81026000D02*
X128905000Y-78740000D01*
X128905000Y-83693000D02*
X129540000Y-83185000D01*
X128905000Y-85979000D02*
X128905000Y-83693000D01*
X129540000Y-86487000D02*
X128905000Y-85979000D01*
D17*
X129565000Y-87336000D02*
X129565000Y-77336000D01*
X121865000Y-77336000D02*
X129565000Y-77336000D01*
X121865000Y-87336000D02*
X121865000Y-77336000D01*
X121865000Y-87336000D02*
X129565000Y-87336000D01*
D13*
X69253000Y-98633000D02*
X69253000Y-99233000D01*
X67653000Y-98613000D02*
X67653000Y-99213000D01*
X88946000Y-95288000D02*
X88346000Y-95288000D01*
X88966000Y-93688000D02*
X88366000Y-93688000D01*
D14*
X97666000Y-97269000D02*
X97666000Y-92469000D01*
X94866000Y-97269000D02*
X94866000Y-92469000D01*
X97666000Y-97269000D02*
X94866000Y-97269000D01*
X97666000Y-92469000D02*
X94866000Y-92469000D01*
D12*
X99316000Y-97619000D02*
G75*
G03X99316000Y-97619000I-150000J0D01*
G01*
D16*
X97166000Y-96569000D02*
G75*
G03X97166000Y-96569000I-200000J0D01*
G01*
D13*
X88853000Y-97701000D02*
X88253000Y-97701000D01*
X88873000Y-96101000D02*
X88273000Y-96101000D01*
X74003000Y-92248000D02*
X74003000Y-91648000D01*
X75603000Y-92268000D02*
X75603000Y-91668000D01*
X75019000Y-96312000D02*
X75019000Y-95712000D01*
X76619000Y-96332000D02*
X76619000Y-95732000D01*
X84536000Y-91529000D02*
X85136000Y-91529000D01*
X84516000Y-93129000D02*
X85116000Y-93129000D01*
X102824000Y-95720000D02*
X103424000Y-95720000D01*
X102804000Y-97320000D02*
X103404000Y-97320000D01*
X118191000Y-99403000D02*
X118791000Y-99403000D01*
X118171000Y-101003000D02*
X118771000Y-101003000D01*
X103340000Y-93518000D02*
X103340000Y-92918000D01*
X104940000Y-93538000D02*
X104940000Y-92938000D01*
X121132294Y-97875657D02*
X121132294Y-97275657D01*
X122732294Y-97895657D02*
X122732294Y-97295657D01*
X121132294Y-102032657D02*
X121132294Y-101432657D01*
X122732294Y-102052657D02*
X122732294Y-101452657D01*
X102662000Y-102527000D02*
X102062000Y-102527000D01*
X102682000Y-100927000D02*
X102082000Y-100927000D01*
X122613294Y-94912657D02*
X122013294Y-94912657D01*
X122633294Y-93312657D02*
X122033294Y-93312657D01*
X105499000Y-95804000D02*
X105499000Y-95204000D01*
X107099000Y-95824000D02*
X107099000Y-95224000D01*
X127080000Y-94780000D02*
X126480000Y-94780000D01*
X127100000Y-93180000D02*
X126500000Y-93180000D01*
X102662000Y-100241000D02*
X102062000Y-100241000D01*
X102682000Y-98641000D02*
X102082000Y-98641000D01*
D10*
X83428000Y-95585000D02*
X83428000Y-96185000D01*
D14*
X84978000Y-94425000D02*
X84978000Y-95085000D01*
X84978000Y-94425000D02*
X84163000Y-94425000D01*
X84978000Y-97345000D02*
X84163000Y-97345000D01*
X84978000Y-96685000D02*
X84978000Y-97345000D01*
X84978000Y-96685000D02*
X84978000Y-97345000D01*
X84978000Y-96685000D02*
X84978000Y-97345000D01*
D10*
X117456294Y-96540657D02*
X117456294Y-97140657D01*
D14*
X119006294Y-95380657D02*
X119006294Y-96040657D01*
X119006294Y-95380657D02*
X118191294Y-95380657D01*
X119006294Y-98300657D02*
X118191294Y-98300657D01*
X119006294Y-97640657D02*
X119006294Y-98300657D01*
X119006294Y-97640657D02*
X119006294Y-98300657D01*
X119006294Y-97640657D02*
X119006294Y-98300657D01*
D10*
X97963000Y-103240000D02*
X97363000Y-103240000D01*
D14*
X99123000Y-104790000D02*
X98463000Y-104790000D01*
X99123000Y-104790000D02*
X99123000Y-103975000D01*
X96203000Y-104790000D02*
X96203000Y-103975000D01*
X96863000Y-104790000D02*
X96203000Y-104790000D01*
X96863000Y-104790000D02*
X96203000Y-104790000D01*
X96863000Y-104790000D02*
X96203000Y-104790000D01*
D10*
X125338000Y-100284000D02*
X125338000Y-100884000D01*
D14*
X126888000Y-99124000D02*
X126888000Y-99784000D01*
X126888000Y-99124000D02*
X126073000Y-99124000D01*
X126888000Y-102044000D02*
X126073000Y-102044000D01*
X126888000Y-101384000D02*
X126888000Y-102044000D01*
X126888000Y-101384000D02*
X126888000Y-102044000D01*
X126888000Y-101384000D02*
X126888000Y-102044000D01*
D17*
X115121000Y-75913000D02*
X115121000Y-88813000D01*
X85911000Y-88867000D02*
X115111000Y-88867000D01*
X85911000Y-75913000D02*
X115111000Y-75913000D01*
X85911000Y-75913000D02*
X85911000Y-88813000D01*
X51402000Y-67632000D02*
X64302000Y-67632000D01*
X64356000Y-96842000D02*
X64356000Y-67642000D01*
X51402000Y-96842000D02*
X51402000Y-67642000D01*
X51402000Y-96842000D02*
X64302000Y-96842000D01*
D13*
X121110000Y-55706000D02*
X133270000Y-55706000D01*
X133270000Y-55706000D02*
X133270000Y-40306000D01*
X133270000Y-40306000D02*
X121110000Y-40306000D01*
X121110000Y-40306000D02*
X121110000Y-55706000D01*
X131770000Y-55706000D02*
X129970000Y-55706000D01*
X129970000Y-55706000D02*
X129970000Y-40306000D01*
X129970000Y-40306000D02*
X131770000Y-40306000D01*
X131770000Y-40306000D02*
X131770000Y-55706000D01*
X133270000Y-52816000D02*
X133270000Y-50816000D01*
X133270000Y-50816000D02*
X131770000Y-51066000D01*
X131770000Y-51066000D02*
X131770000Y-52566000D01*
X131770000Y-52566000D02*
X133270000Y-52816000D01*
X133270000Y-45196000D02*
X133270000Y-43196000D01*
X133270000Y-43196000D02*
X131770000Y-43446000D01*
X131770000Y-43446000D02*
X131770000Y-44946000D01*
X131770000Y-44946000D02*
X133270000Y-45196000D01*
X120310000Y-51516000D02*
X120910000Y-51816000D01*
X120910000Y-51816000D02*
X120310000Y-52116000D01*
X120310000Y-52116000D02*
X120310000Y-51516000D01*
D19*
X97790000Y-42926000D02*
X97790000Y-50800000D01*
X75752000Y-42863000D02*
X75752000Y-50863000D01*
X68259000Y-50863000D02*
X105259000Y-50863000D01*
X68259000Y-42863000D02*
X105259000Y-42863000D01*
X105259000Y-42863000D02*
X105259000Y-50863000D01*
X68259000Y-42863000D02*
X68259000Y-50863000D01*
D14*
X80072000Y-78302000D02*
X81472000Y-78302000D01*
X80072000Y-80702000D02*
X81472000Y-80702000D01*
X80422000Y-80702000D02*
X80422000Y-78302000D01*
X80072000Y-80702000D02*
X80072000Y-78302000D01*
X81472000Y-80702000D02*
X81472000Y-78302000D01*
X128546000Y-97722000D02*
X124946000Y-97722000D01*
X128546000Y-95572000D02*
X124946000Y-95572000D01*
X127721000Y-95572000D02*
X127721000Y-97722000D01*
D10*
X111641000Y-102424000D02*
X112641000Y-102424000D01*
X111641000Y-103824000D02*
X112641000Y-103824000D01*
X112641000Y-103824000D02*
X112641000Y-102424000D01*
X111641000Y-103824000D02*
X111641000Y-102424000D01*
X111941000Y-103824000D02*
X111941000Y-102424000D01*
D14*
X57339000Y-97606000D02*
X58739000Y-97606000D01*
X57339000Y-100006000D02*
X58739000Y-100006000D01*
X57689000Y-100006000D02*
X57689000Y-97606000D01*
X57339000Y-100006000D02*
X57339000Y-97606000D01*
X58739000Y-100006000D02*
X58739000Y-97606000D01*
X120453000Y-81469000D02*
X120453000Y-82869000D01*
X118053000Y-81469000D02*
X118053000Y-82869000D01*
X118053000Y-81819000D02*
X120453000Y-81819000D01*
X118053000Y-81469000D02*
X120453000Y-81469000D01*
X118053000Y-82869000D02*
X120453000Y-82869000D01*
X123887000Y-89351000D02*
X125287000Y-89351000D01*
X123887000Y-91751000D02*
X125287000Y-91751000D01*
X124237000Y-91751000D02*
X124237000Y-89351000D01*
X123887000Y-91751000D02*
X123887000Y-89351000D01*
X125287000Y-91751000D02*
X125287000Y-89351000D01*
D13*
X74638000Y-87930000D02*
X74638000Y-87330000D01*
X76238000Y-87950000D02*
X76238000Y-87350000D01*
X118549294Y-94912657D02*
X117949294Y-94912657D01*
X118569294Y-93312657D02*
X117969294Y-93312657D01*
X101308000Y-93552000D02*
X101308000Y-92952000D01*
X102908000Y-93572000D02*
X102908000Y-92972000D01*
X94315000Y-99149000D02*
X94915000Y-99149000D01*
X94295000Y-100749000D02*
X94895000Y-100749000D01*
D11*
X108430000Y-103251000D02*
G75*
G03X108430000Y-103251000I-1750000J0D01*
G01*
X74448142Y-80970380D02*
X74114809Y-80494190D01*
X73876714Y-80970380D02*
X73876714Y-79970380D01*
X74257666Y-79970380D01*
X74352904Y-80018000D01*
X74400523Y-80065619D01*
X74448142Y-80160857D01*
X74448142Y-80303714D01*
X74400523Y-80398952D01*
X74352904Y-80446571D01*
X74257666Y-80494190D01*
X73876714Y-80494190D01*
X74829095Y-80065619D02*
X74876714Y-80018000D01*
X74971952Y-79970380D01*
X75210047Y-79970380D01*
X75305285Y-80018000D01*
X75352904Y-80065619D01*
X75400523Y-80160857D01*
X75400523Y-80256095D01*
X75352904Y-80398952D01*
X74781476Y-80970380D01*
X75400523Y-80970380D01*
X76257666Y-79970380D02*
X76067190Y-79970380D01*
X75971952Y-80018000D01*
X75924333Y-80065619D01*
X75829095Y-80208476D01*
X75781476Y-80398952D01*
X75781476Y-80779904D01*
X75829095Y-80875142D01*
X75876714Y-80922761D01*
X75971952Y-80970380D01*
X76162428Y-80970380D01*
X76257666Y-80922761D01*
X76305285Y-80875142D01*
X76352904Y-80779904D01*
X76352904Y-80541809D01*
X76305285Y-80446571D01*
X76257666Y-80398952D01*
X76162428Y-80351333D01*
X75971952Y-80351333D01*
X75876714Y-80398952D01*
X75829095Y-80446571D01*
X75781476Y-80541809D01*
X63907142Y-102179380D02*
X63573809Y-101703190D01*
X63335714Y-102179380D02*
X63335714Y-101179380D01*
X63716666Y-101179380D01*
X63811904Y-101227000D01*
X63859523Y-101274619D01*
X63907142Y-101369857D01*
X63907142Y-101512714D01*
X63859523Y-101607952D01*
X63811904Y-101655571D01*
X63716666Y-101703190D01*
X63335714Y-101703190D01*
X64859523Y-102179380D02*
X64288095Y-102179380D01*
X64573809Y-102179380D02*
X64573809Y-101179380D01*
X64478571Y-101322238D01*
X64383333Y-101417476D01*
X64288095Y-101465095D01*
X65764285Y-101179380D02*
X65288095Y-101179380D01*
X65240476Y-101655571D01*
X65288095Y-101607952D01*
X65383333Y-101560333D01*
X65621428Y-101560333D01*
X65716666Y-101607952D01*
X65764285Y-101655571D01*
X65811904Y-101750809D01*
X65811904Y-101988904D01*
X65764285Y-102084142D01*
X65716666Y-102131761D01*
X65621428Y-102179380D01*
X65383333Y-102179380D01*
X65288095Y-102131761D01*
X65240476Y-102084142D01*
X68064142Y-95764380D02*
X67730809Y-95288190D01*
X67492714Y-95764380D02*
X67492714Y-94764380D01*
X67873666Y-94764380D01*
X67968904Y-94812000D01*
X68016523Y-94859619D01*
X68064142Y-94954857D01*
X68064142Y-95097714D01*
X68016523Y-95192952D01*
X67968904Y-95240571D01*
X67873666Y-95288190D01*
X67492714Y-95288190D01*
X68445095Y-94859619D02*
X68492714Y-94812000D01*
X68587952Y-94764380D01*
X68826047Y-94764380D01*
X68921285Y-94812000D01*
X68968904Y-94859619D01*
X69016523Y-94954857D01*
X69016523Y-95050095D01*
X68968904Y-95192952D01*
X68397476Y-95764380D01*
X69016523Y-95764380D01*
X69921285Y-94764380D02*
X69445095Y-94764380D01*
X69397476Y-95240571D01*
X69445095Y-95192952D01*
X69540333Y-95145333D01*
X69778428Y-95145333D01*
X69873666Y-95192952D01*
X69921285Y-95240571D01*
X69968904Y-95335809D01*
X69968904Y-95573904D01*
X69921285Y-95669142D01*
X69873666Y-95716761D01*
X69778428Y-95764380D01*
X69540333Y-95764380D01*
X69445095Y-95716761D01*
X69397476Y-95669142D01*
X66653380Y-85351857D02*
X66177190Y-85685190D01*
X66653380Y-85923285D02*
X65653380Y-85923285D01*
X65653380Y-85542333D01*
X65701000Y-85447095D01*
X65748619Y-85399476D01*
X65843857Y-85351857D01*
X65986714Y-85351857D01*
X66081952Y-85399476D01*
X66129571Y-85447095D01*
X66177190Y-85542333D01*
X66177190Y-85923285D01*
X65748619Y-84970904D02*
X65701000Y-84923285D01*
X65653380Y-84828047D01*
X65653380Y-84589952D01*
X65701000Y-84494714D01*
X65748619Y-84447095D01*
X65843857Y-84399476D01*
X65939095Y-84399476D01*
X66081952Y-84447095D01*
X66653380Y-85018523D01*
X66653380Y-84399476D01*
X65986714Y-83542333D02*
X66653380Y-83542333D01*
X65605761Y-83780428D02*
X66320047Y-84018523D01*
X66320047Y-83399476D01*
X68137761Y-88812619D02*
X68042523Y-88765000D01*
X67947285Y-88669761D01*
X67804428Y-88526904D01*
X67709190Y-88479285D01*
X67613952Y-88479285D01*
X67661571Y-88717380D02*
X67566333Y-88669761D01*
X67471095Y-88574523D01*
X67423476Y-88384047D01*
X67423476Y-88050714D01*
X67471095Y-87860238D01*
X67566333Y-87765000D01*
X67661571Y-87717380D01*
X67852047Y-87717380D01*
X67947285Y-87765000D01*
X68042523Y-87860238D01*
X68090142Y-88050714D01*
X68090142Y-88384047D01*
X68042523Y-88574523D01*
X67947285Y-88669761D01*
X67852047Y-88717380D01*
X67661571Y-88717380D01*
X68566333Y-88717380D02*
X68756809Y-88717380D01*
X68852047Y-88669761D01*
X68899666Y-88622142D01*
X68994904Y-88479285D01*
X69042523Y-88288809D01*
X69042523Y-87907857D01*
X68994904Y-87812619D01*
X68947285Y-87765000D01*
X68852047Y-87717380D01*
X68661571Y-87717380D01*
X68566333Y-87765000D01*
X68518714Y-87812619D01*
X68471095Y-87907857D01*
X68471095Y-88145952D01*
X68518714Y-88241190D01*
X68566333Y-88288809D01*
X68661571Y-88336428D01*
X68852047Y-88336428D01*
X68947285Y-88288809D01*
X68994904Y-88241190D01*
X69042523Y-88145952D01*
X72328761Y-83986619D02*
X72233523Y-83939000D01*
X72138285Y-83843761D01*
X71995428Y-83700904D01*
X71900190Y-83653285D01*
X71804952Y-83653285D01*
X71852571Y-83891380D02*
X71757333Y-83843761D01*
X71662095Y-83748523D01*
X71614476Y-83558047D01*
X71614476Y-83224714D01*
X71662095Y-83034238D01*
X71757333Y-82939000D01*
X71852571Y-82891380D01*
X72043047Y-82891380D01*
X72138285Y-82939000D01*
X72233523Y-83034238D01*
X72281142Y-83224714D01*
X72281142Y-83558047D01*
X72233523Y-83748523D01*
X72138285Y-83843761D01*
X72043047Y-83891380D01*
X71852571Y-83891380D01*
X72852571Y-83319952D02*
X72757333Y-83272333D01*
X72709714Y-83224714D01*
X72662095Y-83129476D01*
X72662095Y-83081857D01*
X72709714Y-82986619D01*
X72757333Y-82939000D01*
X72852571Y-82891380D01*
X73043047Y-82891380D01*
X73138285Y-82939000D01*
X73185904Y-82986619D01*
X73233523Y-83081857D01*
X73233523Y-83129476D01*
X73185904Y-83224714D01*
X73138285Y-83272333D01*
X73043047Y-83319952D01*
X72852571Y-83319952D01*
X72757333Y-83367571D01*
X72709714Y-83415190D01*
X72662095Y-83510428D01*
X72662095Y-83700904D01*
X72709714Y-83796142D01*
X72757333Y-83843761D01*
X72852571Y-83891380D01*
X73043047Y-83891380D01*
X73138285Y-83843761D01*
X73185904Y-83796142D01*
X73233523Y-83700904D01*
X73233523Y-83510428D01*
X73185904Y-83415190D01*
X73138285Y-83367571D01*
X73043047Y-83319952D01*
X91559142Y-107067380D02*
X91225809Y-106591190D01*
X90987714Y-107067380D02*
X90987714Y-106067380D01*
X91368666Y-106067380D01*
X91463904Y-106115000D01*
X91511523Y-106162619D01*
X91559142Y-106257857D01*
X91559142Y-106400714D01*
X91511523Y-106495952D01*
X91463904Y-106543571D01*
X91368666Y-106591190D01*
X90987714Y-106591190D01*
X91940095Y-106162619D02*
X91987714Y-106115000D01*
X92082952Y-106067380D01*
X92321047Y-106067380D01*
X92416285Y-106115000D01*
X92463904Y-106162619D01*
X92511523Y-106257857D01*
X92511523Y-106353095D01*
X92463904Y-106495952D01*
X91892476Y-107067380D01*
X92511523Y-107067380D01*
X92844857Y-106067380D02*
X93463904Y-106067380D01*
X93130571Y-106448333D01*
X93273428Y-106448333D01*
X93368666Y-106495952D01*
X93416285Y-106543571D01*
X93463904Y-106638809D01*
X93463904Y-106876904D01*
X93416285Y-106972142D01*
X93368666Y-107019761D01*
X93273428Y-107067380D01*
X92987714Y-107067380D01*
X92892476Y-107019761D01*
X92844857Y-106972142D01*
X85113904Y-102267380D02*
X85113904Y-101267380D01*
X85352000Y-101267380D01*
X85494857Y-101315000D01*
X85590095Y-101410238D01*
X85637714Y-101505476D01*
X85685333Y-101695952D01*
X85685333Y-101838809D01*
X85637714Y-102029285D01*
X85590095Y-102124523D01*
X85494857Y-102219761D01*
X85352000Y-102267380D01*
X85113904Y-102267380D01*
X86018666Y-101267380D02*
X86685333Y-101267380D01*
X86256761Y-102267380D01*
X110426666Y-94638761D02*
X110569523Y-94686380D01*
X110807619Y-94686380D01*
X110902857Y-94638761D01*
X110950476Y-94591142D01*
X110998095Y-94495904D01*
X110998095Y-94400666D01*
X110950476Y-94305428D01*
X110902857Y-94257809D01*
X110807619Y-94210190D01*
X110617142Y-94162571D01*
X110521904Y-94114952D01*
X110474285Y-94067333D01*
X110426666Y-93972095D01*
X110426666Y-93876857D01*
X110474285Y-93781619D01*
X110521904Y-93734000D01*
X110617142Y-93686380D01*
X110855238Y-93686380D01*
X110998095Y-93734000D01*
X111331428Y-93686380D02*
X111569523Y-94686380D01*
X111760000Y-93972095D01*
X111950476Y-94686380D01*
X112188571Y-93686380D01*
X113093333Y-94686380D02*
X112521904Y-94686380D01*
X112807619Y-94686380D02*
X112807619Y-93686380D01*
X112712380Y-93829238D01*
X112617142Y-93924476D01*
X112521904Y-93972095D01*
D20*
X82350428Y-106008714D02*
X82096428Y-105645857D01*
X81915000Y-106008714D02*
X81915000Y-105246714D01*
X82205285Y-105246714D01*
X82277857Y-105283000D01*
X82314142Y-105319285D01*
X82350428Y-105391857D01*
X82350428Y-105500714D01*
X82314142Y-105573285D01*
X82277857Y-105609571D01*
X82205285Y-105645857D01*
X81915000Y-105645857D01*
X82568142Y-105246714D02*
X82822142Y-106008714D01*
X83076142Y-105246714D01*
X83729285Y-106008714D02*
X83293857Y-106008714D01*
X83511571Y-106008714D02*
X83511571Y-105246714D01*
X83439000Y-105355571D01*
X83366428Y-105428142D01*
X83293857Y-105464428D01*
D11*
X82417380Y-89661904D02*
X83226904Y-89661904D01*
X83322142Y-89614285D01*
X83369761Y-89566666D01*
X83417380Y-89471428D01*
X83417380Y-89280952D01*
X83369761Y-89185714D01*
X83322142Y-89138095D01*
X83226904Y-89090476D01*
X82417380Y-89090476D01*
X82512619Y-88661904D02*
X82465000Y-88614285D01*
X82417380Y-88519047D01*
X82417380Y-88280952D01*
X82465000Y-88185714D01*
X82512619Y-88138095D01*
X82607857Y-88090476D01*
X82703095Y-88090476D01*
X82845952Y-88138095D01*
X83417380Y-88709523D01*
X83417380Y-88090476D01*
X71620142Y-96464380D02*
X71286809Y-95988190D01*
X71048714Y-96464380D02*
X71048714Y-95464380D01*
X71429666Y-95464380D01*
X71524904Y-95512000D01*
X71572523Y-95559619D01*
X71620142Y-95654857D01*
X71620142Y-95797714D01*
X71572523Y-95892952D01*
X71524904Y-95940571D01*
X71429666Y-95988190D01*
X71048714Y-95988190D01*
X72001095Y-95559619D02*
X72048714Y-95512000D01*
X72143952Y-95464380D01*
X72382047Y-95464380D01*
X72477285Y-95512000D01*
X72524904Y-95559619D01*
X72572523Y-95654857D01*
X72572523Y-95750095D01*
X72524904Y-95892952D01*
X71953476Y-96464380D01*
X72572523Y-96464380D01*
X72953476Y-95559619D02*
X73001095Y-95512000D01*
X73096333Y-95464380D01*
X73334428Y-95464380D01*
X73429666Y-95512000D01*
X73477285Y-95559619D01*
X73524904Y-95654857D01*
X73524904Y-95750095D01*
X73477285Y-95892952D01*
X72905857Y-96464380D01*
X73524904Y-96464380D01*
X90670142Y-103322380D02*
X90336809Y-102846190D01*
X90098714Y-103322380D02*
X90098714Y-102322380D01*
X90479666Y-102322380D01*
X90574904Y-102370000D01*
X90622523Y-102417619D01*
X90670142Y-102512857D01*
X90670142Y-102655714D01*
X90622523Y-102750952D01*
X90574904Y-102798571D01*
X90479666Y-102846190D01*
X90098714Y-102846190D01*
X91051095Y-102417619D02*
X91098714Y-102370000D01*
X91193952Y-102322380D01*
X91432047Y-102322380D01*
X91527285Y-102370000D01*
X91574904Y-102417619D01*
X91622523Y-102512857D01*
X91622523Y-102608095D01*
X91574904Y-102750952D01*
X91003476Y-103322380D01*
X91622523Y-103322380D01*
X92574904Y-103322380D02*
X92003476Y-103322380D01*
X92289190Y-103322380D02*
X92289190Y-102322380D01*
X92193952Y-102465238D01*
X92098714Y-102560476D01*
X92003476Y-102608095D01*
X80383142Y-81986380D02*
X80049809Y-81510190D01*
X79811714Y-81986380D02*
X79811714Y-80986380D01*
X80192666Y-80986380D01*
X80287904Y-81034000D01*
X80335523Y-81081619D01*
X80383142Y-81176857D01*
X80383142Y-81319714D01*
X80335523Y-81414952D01*
X80287904Y-81462571D01*
X80192666Y-81510190D01*
X79811714Y-81510190D01*
X80764095Y-81081619D02*
X80811714Y-81034000D01*
X80906952Y-80986380D01*
X81145047Y-80986380D01*
X81240285Y-81034000D01*
X81287904Y-81081619D01*
X81335523Y-81176857D01*
X81335523Y-81272095D01*
X81287904Y-81414952D01*
X80716476Y-81986380D01*
X81335523Y-81986380D01*
X81954571Y-80986380D02*
X82049809Y-80986380D01*
X82145047Y-81034000D01*
X82192666Y-81081619D01*
X82240285Y-81176857D01*
X82287904Y-81367333D01*
X82287904Y-81605428D01*
X82240285Y-81795904D01*
X82192666Y-81891142D01*
X82145047Y-81938761D01*
X82049809Y-81986380D01*
X81954571Y-81986380D01*
X81859333Y-81938761D01*
X81811714Y-81891142D01*
X81764095Y-81795904D01*
X81716476Y-81605428D01*
X81716476Y-81367333D01*
X81764095Y-81176857D01*
X81811714Y-81081619D01*
X81859333Y-81034000D01*
X81954571Y-80986380D01*
X77704904Y-99701285D02*
X77323952Y-99967952D01*
X77704904Y-100158428D02*
X76904904Y-100158428D01*
X76904904Y-99853666D01*
X76943000Y-99777476D01*
X76981095Y-99739380D01*
X77057285Y-99701285D01*
X77171571Y-99701285D01*
X77247761Y-99739380D01*
X77285857Y-99777476D01*
X77323952Y-99853666D01*
X77323952Y-100158428D01*
X77704904Y-98939380D02*
X77704904Y-99396523D01*
X77704904Y-99167952D02*
X76904904Y-99167952D01*
X77019190Y-99244142D01*
X77095380Y-99320333D01*
X77133476Y-99396523D01*
X77704904Y-98558428D02*
X77704904Y-98406047D01*
X77666809Y-98329857D01*
X77628714Y-98291761D01*
X77514428Y-98215571D01*
X77362047Y-98177476D01*
X77057285Y-98177476D01*
X76981095Y-98215571D01*
X76943000Y-98253666D01*
X76904904Y-98329857D01*
X76904904Y-98482238D01*
X76943000Y-98558428D01*
X76981095Y-98596523D01*
X77057285Y-98634619D01*
X77247761Y-98634619D01*
X77323952Y-98596523D01*
X77362047Y-98558428D01*
X77400142Y-98482238D01*
X77400142Y-98329857D01*
X77362047Y-98253666D01*
X77323952Y-98215571D01*
X77247761Y-98177476D01*
X74654380Y-85224857D02*
X74178190Y-85558190D01*
X74654380Y-85796285D02*
X73654380Y-85796285D01*
X73654380Y-85415333D01*
X73702000Y-85320095D01*
X73749619Y-85272476D01*
X73844857Y-85224857D01*
X73987714Y-85224857D01*
X74082952Y-85272476D01*
X74130571Y-85320095D01*
X74178190Y-85415333D01*
X74178190Y-85796285D01*
X74654380Y-84272476D02*
X74654380Y-84843904D01*
X74654380Y-84558190D02*
X73654380Y-84558190D01*
X73797238Y-84653428D01*
X73892476Y-84748666D01*
X73940095Y-84843904D01*
X74082952Y-83701047D02*
X74035333Y-83796285D01*
X73987714Y-83843904D01*
X73892476Y-83891523D01*
X73844857Y-83891523D01*
X73749619Y-83843904D01*
X73702000Y-83796285D01*
X73654380Y-83701047D01*
X73654380Y-83510571D01*
X73702000Y-83415333D01*
X73749619Y-83367714D01*
X73844857Y-83320095D01*
X73892476Y-83320095D01*
X73987714Y-83367714D01*
X74035333Y-83415333D01*
X74082952Y-83510571D01*
X74082952Y-83701047D01*
X74130571Y-83796285D01*
X74178190Y-83843904D01*
X74273428Y-83891523D01*
X74463904Y-83891523D01*
X74559142Y-83843904D01*
X74606761Y-83796285D01*
X74654380Y-83701047D01*
X74654380Y-83510571D01*
X74606761Y-83415333D01*
X74559142Y-83367714D01*
X74463904Y-83320095D01*
X74273428Y-83320095D01*
X74178190Y-83367714D01*
X74130571Y-83415333D01*
X74082952Y-83510571D01*
X117848142Y-105543380D02*
X117514809Y-105067190D01*
X117276714Y-105543380D02*
X117276714Y-104543380D01*
X117657666Y-104543380D01*
X117752904Y-104591000D01*
X117800523Y-104638619D01*
X117848142Y-104733857D01*
X117848142Y-104876714D01*
X117800523Y-104971952D01*
X117752904Y-105019571D01*
X117657666Y-105067190D01*
X117276714Y-105067190D01*
X118800523Y-105543380D02*
X118229095Y-105543380D01*
X118514809Y-105543380D02*
X118514809Y-104543380D01*
X118419571Y-104686238D01*
X118324333Y-104781476D01*
X118229095Y-104829095D01*
X119181476Y-104638619D02*
X119229095Y-104591000D01*
X119324333Y-104543380D01*
X119562428Y-104543380D01*
X119657666Y-104591000D01*
X119705285Y-104638619D01*
X119752904Y-104733857D01*
X119752904Y-104829095D01*
X119705285Y-104971952D01*
X119133857Y-105543380D01*
X119752904Y-105543380D01*
X114641333Y-70302380D02*
X114308000Y-69826190D01*
X114069904Y-70302380D02*
X114069904Y-69302380D01*
X114450857Y-69302380D01*
X114546095Y-69350000D01*
X114593714Y-69397619D01*
X114641333Y-69492857D01*
X114641333Y-69635714D01*
X114593714Y-69730952D01*
X114546095Y-69778571D01*
X114450857Y-69826190D01*
X114069904Y-69826190D01*
X115593714Y-70302380D02*
X115022285Y-70302380D01*
X115308000Y-70302380D02*
X115308000Y-69302380D01*
X115212761Y-69445238D01*
X115117523Y-69540476D01*
X115022285Y-69588095D01*
X72675761Y-103925619D02*
X72580523Y-103878000D01*
X72485285Y-103782761D01*
X72342428Y-103639904D01*
X72247190Y-103592285D01*
X72151952Y-103592285D01*
X72199571Y-103830380D02*
X72104333Y-103782761D01*
X72009095Y-103687523D01*
X71961476Y-103497047D01*
X71961476Y-103163714D01*
X72009095Y-102973238D01*
X72104333Y-102878000D01*
X72199571Y-102830380D01*
X72390047Y-102830380D01*
X72485285Y-102878000D01*
X72580523Y-102973238D01*
X72628142Y-103163714D01*
X72628142Y-103497047D01*
X72580523Y-103687523D01*
X72485285Y-103782761D01*
X72390047Y-103830380D01*
X72199571Y-103830380D01*
X72961476Y-102830380D02*
X73628142Y-102830380D01*
X73199571Y-103830380D01*
X82835761Y-100369619D02*
X82740523Y-100322000D01*
X82645285Y-100226761D01*
X82502428Y-100083904D01*
X82407190Y-100036285D01*
X82311952Y-100036285D01*
X82359571Y-100274380D02*
X82264333Y-100226761D01*
X82169095Y-100131523D01*
X82121476Y-99941047D01*
X82121476Y-99607714D01*
X82169095Y-99417238D01*
X82264333Y-99322000D01*
X82359571Y-99274380D01*
X82550047Y-99274380D01*
X82645285Y-99322000D01*
X82740523Y-99417238D01*
X82788142Y-99607714D01*
X82788142Y-99941047D01*
X82740523Y-100131523D01*
X82645285Y-100226761D01*
X82550047Y-100274380D01*
X82359571Y-100274380D01*
X83645285Y-99274380D02*
X83454809Y-99274380D01*
X83359571Y-99322000D01*
X83311952Y-99369619D01*
X83216714Y-99512476D01*
X83169095Y-99702952D01*
X83169095Y-100083904D01*
X83216714Y-100179142D01*
X83264333Y-100226761D01*
X83359571Y-100274380D01*
X83550047Y-100274380D01*
X83645285Y-100226761D01*
X83692904Y-100179142D01*
X83740523Y-100083904D01*
X83740523Y-99845809D01*
X83692904Y-99750571D01*
X83645285Y-99702952D01*
X83550047Y-99655333D01*
X83359571Y-99655333D01*
X83264333Y-99702952D01*
X83216714Y-99750571D01*
X83169095Y-99845809D01*
X79787761Y-94186619D02*
X79692523Y-94139000D01*
X79597285Y-94043761D01*
X79454428Y-93900904D01*
X79359190Y-93853285D01*
X79263952Y-93853285D01*
X79311571Y-94091380D02*
X79216333Y-94043761D01*
X79121095Y-93948523D01*
X79073476Y-93758047D01*
X79073476Y-93424714D01*
X79121095Y-93234238D01*
X79216333Y-93139000D01*
X79311571Y-93091380D01*
X79502047Y-93091380D01*
X79597285Y-93139000D01*
X79692523Y-93234238D01*
X79740142Y-93424714D01*
X79740142Y-93758047D01*
X79692523Y-93948523D01*
X79597285Y-94043761D01*
X79502047Y-94091380D01*
X79311571Y-94091380D01*
X80644904Y-93091380D02*
X80168714Y-93091380D01*
X80121095Y-93567571D01*
X80168714Y-93519952D01*
X80263952Y-93472333D01*
X80502047Y-93472333D01*
X80597285Y-93519952D01*
X80644904Y-93567571D01*
X80692523Y-93662809D01*
X80692523Y-93900904D01*
X80644904Y-93996142D01*
X80597285Y-94043761D01*
X80502047Y-94091380D01*
X80263952Y-94091380D01*
X80168714Y-94043761D01*
X80121095Y-93996142D01*
X67066142Y-97956666D02*
X67113761Y-98004285D01*
X67161380Y-98147142D01*
X67161380Y-98242380D01*
X67113761Y-98385238D01*
X67018523Y-98480476D01*
X66923285Y-98528095D01*
X66732809Y-98575714D01*
X66589952Y-98575714D01*
X66399476Y-98528095D01*
X66304238Y-98480476D01*
X66209000Y-98385238D01*
X66161380Y-98242380D01*
X66161380Y-98147142D01*
X66209000Y-98004285D01*
X66256619Y-97956666D01*
X66161380Y-97099523D02*
X66161380Y-97290000D01*
X66209000Y-97385238D01*
X66256619Y-97432857D01*
X66399476Y-97528095D01*
X66589952Y-97575714D01*
X66970904Y-97575714D01*
X67066142Y-97528095D01*
X67113761Y-97480476D01*
X67161380Y-97385238D01*
X67161380Y-97194761D01*
X67113761Y-97099523D01*
X67066142Y-97051904D01*
X66970904Y-97004285D01*
X66732809Y-97004285D01*
X66637571Y-97051904D01*
X66589952Y-97099523D01*
X66542333Y-97194761D01*
X66542333Y-97385238D01*
X66589952Y-97480476D01*
X66637571Y-97528095D01*
X66732809Y-97575714D01*
X91273333Y-94972142D02*
X91225714Y-95019761D01*
X91082857Y-95067380D01*
X90987619Y-95067380D01*
X90844761Y-95019761D01*
X90749523Y-94924523D01*
X90701904Y-94829285D01*
X90654285Y-94638809D01*
X90654285Y-94495952D01*
X90701904Y-94305476D01*
X90749523Y-94210238D01*
X90844761Y-94115000D01*
X90987619Y-94067380D01*
X91082857Y-94067380D01*
X91225714Y-94115000D01*
X91273333Y-94162619D01*
X92178095Y-94067380D02*
X91701904Y-94067380D01*
X91654285Y-94543571D01*
X91701904Y-94495952D01*
X91797142Y-94448333D01*
X92035238Y-94448333D01*
X92130476Y-94495952D01*
X92178095Y-94543571D01*
X92225714Y-94638809D01*
X92225714Y-94876904D01*
X92178095Y-94972142D01*
X92130476Y-95019761D01*
X92035238Y-95067380D01*
X91797142Y-95067380D01*
X91701904Y-95019761D01*
X91654285Y-94972142D01*
X91567504Y-97204523D02*
X92377028Y-97204523D01*
X92472266Y-97156904D01*
X92519885Y-97109285D01*
X92567504Y-97014047D01*
X92567504Y-96823571D01*
X92519885Y-96728333D01*
X92472266Y-96680714D01*
X92377028Y-96633095D01*
X91567504Y-96633095D01*
X92567504Y-95633095D02*
X92567504Y-96204523D01*
X92567504Y-95918809D02*
X91567504Y-95918809D01*
X91710362Y-96014047D01*
X91805600Y-96109285D01*
X91853219Y-96204523D01*
X87910142Y-99258380D02*
X87576809Y-98782190D01*
X87338714Y-99258380D02*
X87338714Y-98258380D01*
X87719666Y-98258380D01*
X87814904Y-98306000D01*
X87862523Y-98353619D01*
X87910142Y-98448857D01*
X87910142Y-98591714D01*
X87862523Y-98686952D01*
X87814904Y-98734571D01*
X87719666Y-98782190D01*
X87338714Y-98782190D01*
X88862523Y-99258380D02*
X88291095Y-99258380D01*
X88576809Y-99258380D02*
X88576809Y-98258380D01*
X88481571Y-98401238D01*
X88386333Y-98496476D01*
X88291095Y-98544095D01*
X89195857Y-98258380D02*
X89862523Y-98258380D01*
X89433952Y-99258380D01*
X73477380Y-93860857D02*
X73001190Y-94194190D01*
X73477380Y-94432285D02*
X72477380Y-94432285D01*
X72477380Y-94051333D01*
X72525000Y-93956095D01*
X72572619Y-93908476D01*
X72667857Y-93860857D01*
X72810714Y-93860857D01*
X72905952Y-93908476D01*
X72953571Y-93956095D01*
X73001190Y-94051333D01*
X73001190Y-94432285D01*
X73477380Y-92908476D02*
X73477380Y-93479904D01*
X73477380Y-93194190D02*
X72477380Y-93194190D01*
X72620238Y-93289428D01*
X72715476Y-93384666D01*
X72763095Y-93479904D01*
X72477380Y-92051333D02*
X72477380Y-92241809D01*
X72525000Y-92337047D01*
X72572619Y-92384666D01*
X72715476Y-92479904D01*
X72905952Y-92527523D01*
X73286904Y-92527523D01*
X73382142Y-92479904D01*
X73429761Y-92432285D01*
X73477380Y-92337047D01*
X73477380Y-92146571D01*
X73429761Y-92051333D01*
X73382142Y-92003714D01*
X73286904Y-91956095D01*
X73048809Y-91956095D01*
X72953571Y-92003714D01*
X72905952Y-92051333D01*
X72858333Y-92146571D01*
X72858333Y-92337047D01*
X72905952Y-92432285D01*
X72953571Y-92479904D01*
X73048809Y-92527523D01*
X77922380Y-96146857D02*
X77446190Y-96480190D01*
X77922380Y-96718285D02*
X76922380Y-96718285D01*
X76922380Y-96337333D01*
X76970000Y-96242095D01*
X77017619Y-96194476D01*
X77112857Y-96146857D01*
X77255714Y-96146857D01*
X77350952Y-96194476D01*
X77398571Y-96242095D01*
X77446190Y-96337333D01*
X77446190Y-96718285D01*
X77922380Y-95194476D02*
X77922380Y-95765904D01*
X77922380Y-95480190D02*
X76922380Y-95480190D01*
X77065238Y-95575428D01*
X77160476Y-95670666D01*
X77208095Y-95765904D01*
X77255714Y-94337333D02*
X77922380Y-94337333D01*
X76874761Y-94575428D02*
X77589047Y-94813523D01*
X77589047Y-94194476D01*
X84193142Y-90941380D02*
X83859809Y-90465190D01*
X83621714Y-90941380D02*
X83621714Y-89941380D01*
X84002666Y-89941380D01*
X84097904Y-89989000D01*
X84145523Y-90036619D01*
X84193142Y-90131857D01*
X84193142Y-90274714D01*
X84145523Y-90369952D01*
X84097904Y-90417571D01*
X84002666Y-90465190D01*
X83621714Y-90465190D01*
X85145523Y-90941380D02*
X84574095Y-90941380D01*
X84859809Y-90941380D02*
X84859809Y-89941380D01*
X84764571Y-90084238D01*
X84669333Y-90179476D01*
X84574095Y-90227095D01*
X85478857Y-89941380D02*
X86097904Y-89941380D01*
X85764571Y-90322333D01*
X85907428Y-90322333D01*
X86002666Y-90369952D01*
X86050285Y-90417571D01*
X86097904Y-90512809D01*
X86097904Y-90750904D01*
X86050285Y-90846142D01*
X86002666Y-90893761D01*
X85907428Y-90941380D01*
X85621714Y-90941380D01*
X85526476Y-90893761D01*
X85478857Y-90846142D01*
X100830142Y-98369380D02*
X100496809Y-97893190D01*
X100258714Y-98369380D02*
X100258714Y-97369380D01*
X100639666Y-97369380D01*
X100734904Y-97417000D01*
X100782523Y-97464619D01*
X100830142Y-97559857D01*
X100830142Y-97702714D01*
X100782523Y-97797952D01*
X100734904Y-97845571D01*
X100639666Y-97893190D01*
X100258714Y-97893190D01*
X101782523Y-98369380D02*
X101211095Y-98369380D01*
X101496809Y-98369380D02*
X101496809Y-97369380D01*
X101401571Y-97512238D01*
X101306333Y-97607476D01*
X101211095Y-97655095D01*
X102734904Y-98369380D02*
X102163476Y-98369380D01*
X102449190Y-98369380D02*
X102449190Y-97369380D01*
X102353952Y-97512238D01*
X102258714Y-97607476D01*
X102163476Y-97655095D01*
X116149380Y-101099857D02*
X115673190Y-101433190D01*
X116149380Y-101671285D02*
X115149380Y-101671285D01*
X115149380Y-101290333D01*
X115197000Y-101195095D01*
X115244619Y-101147476D01*
X115339857Y-101099857D01*
X115482714Y-101099857D01*
X115577952Y-101147476D01*
X115625571Y-101195095D01*
X115673190Y-101290333D01*
X115673190Y-101671285D01*
X116149380Y-100147476D02*
X116149380Y-100718904D01*
X116149380Y-100433190D02*
X115149380Y-100433190D01*
X115292238Y-100528428D01*
X115387476Y-100623666D01*
X115435095Y-100718904D01*
X115149380Y-99528428D02*
X115149380Y-99433190D01*
X115197000Y-99337952D01*
X115244619Y-99290333D01*
X115339857Y-99242714D01*
X115530333Y-99195095D01*
X115768428Y-99195095D01*
X115958904Y-99242714D01*
X116054142Y-99290333D01*
X116101761Y-99337952D01*
X116149380Y-99433190D01*
X116149380Y-99528428D01*
X116101761Y-99623666D01*
X116054142Y-99671285D01*
X115958904Y-99718904D01*
X115768428Y-99766523D01*
X115530333Y-99766523D01*
X115339857Y-99718904D01*
X115244619Y-99671285D01*
X115197000Y-99623666D01*
X115149380Y-99528428D01*
X105862380Y-90336666D02*
X105386190Y-90670000D01*
X105862380Y-90908095D02*
X104862380Y-90908095D01*
X104862380Y-90527142D01*
X104910000Y-90431904D01*
X104957619Y-90384285D01*
X105052857Y-90336666D01*
X105195714Y-90336666D01*
X105290952Y-90384285D01*
X105338571Y-90431904D01*
X105386190Y-90527142D01*
X105386190Y-90908095D01*
X105862380Y-89860476D02*
X105862380Y-89670000D01*
X105814761Y-89574761D01*
X105767142Y-89527142D01*
X105624285Y-89431904D01*
X105433809Y-89384285D01*
X105052857Y-89384285D01*
X104957619Y-89431904D01*
X104910000Y-89479523D01*
X104862380Y-89574761D01*
X104862380Y-89765238D01*
X104910000Y-89860476D01*
X104957619Y-89908095D01*
X105052857Y-89955714D01*
X105290952Y-89955714D01*
X105386190Y-89908095D01*
X105433809Y-89860476D01*
X105481428Y-89765238D01*
X105481428Y-89574761D01*
X105433809Y-89479523D01*
X105386190Y-89431904D01*
X105290952Y-89384285D01*
X120848380Y-98591666D02*
X120372190Y-98925000D01*
X120848380Y-99163095D02*
X119848380Y-99163095D01*
X119848380Y-98782142D01*
X119896000Y-98686904D01*
X119943619Y-98639285D01*
X120038857Y-98591666D01*
X120181714Y-98591666D01*
X120276952Y-98639285D01*
X120324571Y-98686904D01*
X120372190Y-98782142D01*
X120372190Y-99163095D01*
X120276952Y-98020238D02*
X120229333Y-98115476D01*
X120181714Y-98163095D01*
X120086476Y-98210714D01*
X120038857Y-98210714D01*
X119943619Y-98163095D01*
X119896000Y-98115476D01*
X119848380Y-98020238D01*
X119848380Y-97829761D01*
X119896000Y-97734523D01*
X119943619Y-97686904D01*
X120038857Y-97639285D01*
X120086476Y-97639285D01*
X120181714Y-97686904D01*
X120229333Y-97734523D01*
X120276952Y-97829761D01*
X120276952Y-98020238D01*
X120324571Y-98115476D01*
X120372190Y-98163095D01*
X120467428Y-98210714D01*
X120657904Y-98210714D01*
X120753142Y-98163095D01*
X120800761Y-98115476D01*
X120848380Y-98020238D01*
X120848380Y-97829761D01*
X120800761Y-97734523D01*
X120753142Y-97686904D01*
X120657904Y-97639285D01*
X120467428Y-97639285D01*
X120372190Y-97686904D01*
X120324571Y-97734523D01*
X120276952Y-97829761D01*
X124150380Y-102528666D02*
X123674190Y-102862000D01*
X124150380Y-103100095D02*
X123150380Y-103100095D01*
X123150380Y-102719142D01*
X123198000Y-102623904D01*
X123245619Y-102576285D01*
X123340857Y-102528666D01*
X123483714Y-102528666D01*
X123578952Y-102576285D01*
X123626571Y-102623904D01*
X123674190Y-102719142D01*
X123674190Y-103100095D01*
X123150380Y-102195333D02*
X123150380Y-101528666D01*
X124150380Y-101957238D01*
X102195333Y-104019380D02*
X101862000Y-103543190D01*
X101623904Y-104019380D02*
X101623904Y-103019380D01*
X102004857Y-103019380D01*
X102100095Y-103067000D01*
X102147714Y-103114619D01*
X102195333Y-103209857D01*
X102195333Y-103352714D01*
X102147714Y-103447952D01*
X102100095Y-103495571D01*
X102004857Y-103543190D01*
X101623904Y-103543190D01*
X103052476Y-103019380D02*
X102862000Y-103019380D01*
X102766761Y-103067000D01*
X102719142Y-103114619D01*
X102623904Y-103257476D01*
X102576285Y-103447952D01*
X102576285Y-103828904D01*
X102623904Y-103924142D01*
X102671523Y-103971761D01*
X102766761Y-104019380D01*
X102957238Y-104019380D01*
X103052476Y-103971761D01*
X103100095Y-103924142D01*
X103147714Y-103828904D01*
X103147714Y-103590809D01*
X103100095Y-103495571D01*
X103052476Y-103447952D01*
X102957238Y-103400333D01*
X102766761Y-103400333D01*
X102671523Y-103447952D01*
X102623904Y-103495571D01*
X102576285Y-103590809D01*
X122146627Y-92908380D02*
X121813294Y-92432190D01*
X121575198Y-92908380D02*
X121575198Y-91908380D01*
X121956151Y-91908380D01*
X122051389Y-91956000D01*
X122099008Y-92003619D01*
X122146627Y-92098857D01*
X122146627Y-92241714D01*
X122099008Y-92336952D01*
X122051389Y-92384571D01*
X121956151Y-92432190D01*
X121575198Y-92432190D01*
X123051389Y-91908380D02*
X122575198Y-91908380D01*
X122527579Y-92384571D01*
X122575198Y-92336952D01*
X122670436Y-92289333D01*
X122908532Y-92289333D01*
X123003770Y-92336952D01*
X123051389Y-92384571D01*
X123099008Y-92479809D01*
X123099008Y-92717904D01*
X123051389Y-92813142D01*
X123003770Y-92860761D01*
X122908532Y-92908380D01*
X122670436Y-92908380D01*
X122575198Y-92860761D01*
X122527579Y-92813142D01*
X106751380Y-92495666D02*
X106275190Y-92829000D01*
X106751380Y-93067095D02*
X105751380Y-93067095D01*
X105751380Y-92686142D01*
X105799000Y-92590904D01*
X105846619Y-92543285D01*
X105941857Y-92495666D01*
X106084714Y-92495666D01*
X106179952Y-92543285D01*
X106227571Y-92590904D01*
X106275190Y-92686142D01*
X106275190Y-93067095D01*
X106084714Y-91638523D02*
X106751380Y-91638523D01*
X105703761Y-91876619D02*
X106418047Y-92114714D01*
X106418047Y-91495666D01*
X128645333Y-93035380D02*
X128312000Y-92559190D01*
X128073904Y-93035380D02*
X128073904Y-92035380D01*
X128454857Y-92035380D01*
X128550095Y-92083000D01*
X128597714Y-92130619D01*
X128645333Y-92225857D01*
X128645333Y-92368714D01*
X128597714Y-92463952D01*
X128550095Y-92511571D01*
X128454857Y-92559190D01*
X128073904Y-92559190D01*
X128978666Y-92035380D02*
X129597714Y-92035380D01*
X129264380Y-92416333D01*
X129407238Y-92416333D01*
X129502476Y-92463952D01*
X129550095Y-92511571D01*
X129597714Y-92606809D01*
X129597714Y-92844904D01*
X129550095Y-92940142D01*
X129502476Y-92987761D01*
X129407238Y-93035380D01*
X129121523Y-93035380D01*
X129026285Y-92987761D01*
X128978666Y-92940142D01*
X99147333Y-99766380D02*
X98814000Y-99290190D01*
X98575904Y-99766380D02*
X98575904Y-98766380D01*
X98956857Y-98766380D01*
X99052095Y-98814000D01*
X99099714Y-98861619D01*
X99147333Y-98956857D01*
X99147333Y-99099714D01*
X99099714Y-99194952D01*
X99052095Y-99242571D01*
X98956857Y-99290190D01*
X98575904Y-99290190D01*
X99528285Y-98861619D02*
X99575904Y-98814000D01*
X99671142Y-98766380D01*
X99909238Y-98766380D01*
X100004476Y-98814000D01*
X100052095Y-98861619D01*
X100099714Y-98956857D01*
X100099714Y-99052095D01*
X100052095Y-99194952D01*
X99480666Y-99766380D01*
X100099714Y-99766380D01*
X84740761Y-98845619D02*
X84645523Y-98798000D01*
X84550285Y-98702761D01*
X84407428Y-98559904D01*
X84312190Y-98512285D01*
X84216952Y-98512285D01*
X84264571Y-98750380D02*
X84169333Y-98702761D01*
X84074095Y-98607523D01*
X84026476Y-98417047D01*
X84026476Y-98083714D01*
X84074095Y-97893238D01*
X84169333Y-97798000D01*
X84264571Y-97750380D01*
X84455047Y-97750380D01*
X84550285Y-97798000D01*
X84645523Y-97893238D01*
X84693142Y-98083714D01*
X84693142Y-98417047D01*
X84645523Y-98607523D01*
X84550285Y-98702761D01*
X84455047Y-98750380D01*
X84264571Y-98750380D01*
X85550285Y-98083714D02*
X85550285Y-98750380D01*
X85312190Y-97702761D02*
X85074095Y-98417047D01*
X85693142Y-98417047D01*
X116244619Y-96869238D02*
X116197000Y-96964476D01*
X116101761Y-97059714D01*
X115958904Y-97202571D01*
X115911285Y-97297809D01*
X115911285Y-97393047D01*
X116149380Y-97345428D02*
X116101761Y-97440666D01*
X116006523Y-97535904D01*
X115816047Y-97583523D01*
X115482714Y-97583523D01*
X115292238Y-97535904D01*
X115197000Y-97440666D01*
X115149380Y-97345428D01*
X115149380Y-97154952D01*
X115197000Y-97059714D01*
X115292238Y-96964476D01*
X115482714Y-96916857D01*
X115816047Y-96916857D01*
X116006523Y-96964476D01*
X116101761Y-97059714D01*
X116149380Y-97154952D01*
X116149380Y-97345428D01*
X115149380Y-96583523D02*
X115149380Y-95964476D01*
X115530333Y-96297809D01*
X115530333Y-96154952D01*
X115577952Y-96059714D01*
X115625571Y-96012095D01*
X115720809Y-95964476D01*
X115958904Y-95964476D01*
X116054142Y-96012095D01*
X116101761Y-96059714D01*
X116149380Y-96154952D01*
X116149380Y-96440666D01*
X116101761Y-96535904D01*
X116054142Y-96583523D01*
X95670619Y-104362238D02*
X95623000Y-104457476D01*
X95527761Y-104552714D01*
X95384904Y-104695571D01*
X95337285Y-104790809D01*
X95337285Y-104886047D01*
X95575380Y-104838428D02*
X95527761Y-104933666D01*
X95432523Y-105028904D01*
X95242047Y-105076523D01*
X94908714Y-105076523D01*
X94718238Y-105028904D01*
X94623000Y-104933666D01*
X94575380Y-104838428D01*
X94575380Y-104647952D01*
X94623000Y-104552714D01*
X94718238Y-104457476D01*
X94908714Y-104409857D01*
X95242047Y-104409857D01*
X95432523Y-104457476D01*
X95527761Y-104552714D01*
X95575380Y-104647952D01*
X95575380Y-104838428D01*
X94670619Y-104028904D02*
X94623000Y-103981285D01*
X94575380Y-103886047D01*
X94575380Y-103647952D01*
X94623000Y-103552714D01*
X94670619Y-103505095D01*
X94765857Y-103457476D01*
X94861095Y-103457476D01*
X95003952Y-103505095D01*
X95575380Y-104076523D01*
X95575380Y-103457476D01*
X129452619Y-100679238D02*
X129405000Y-100774476D01*
X129309761Y-100869714D01*
X129166904Y-101012571D01*
X129119285Y-101107809D01*
X129119285Y-101203047D01*
X129357380Y-101155428D02*
X129309761Y-101250666D01*
X129214523Y-101345904D01*
X129024047Y-101393523D01*
X128690714Y-101393523D01*
X128500238Y-101345904D01*
X128405000Y-101250666D01*
X128357380Y-101155428D01*
X128357380Y-100964952D01*
X128405000Y-100869714D01*
X128500238Y-100774476D01*
X128690714Y-100726857D01*
X129024047Y-100726857D01*
X129214523Y-100774476D01*
X129309761Y-100869714D01*
X129357380Y-100964952D01*
X129357380Y-101155428D01*
X129357380Y-99774476D02*
X129357380Y-100345904D01*
X129357380Y-100060190D02*
X128357380Y-100060190D01*
X128500238Y-100155428D01*
X128595476Y-100250666D01*
X128643095Y-100345904D01*
X86129904Y-75509380D02*
X86129904Y-74509380D01*
X86701333Y-75509380D02*
X86272761Y-74937952D01*
X86701333Y-74509380D02*
X86129904Y-75080809D01*
X87082285Y-74604619D02*
X87129904Y-74557000D01*
X87225142Y-74509380D01*
X87463238Y-74509380D01*
X87558476Y-74557000D01*
X87606095Y-74604619D01*
X87653714Y-74699857D01*
X87653714Y-74795095D01*
X87606095Y-74937952D01*
X87034666Y-75509380D01*
X87653714Y-75509380D01*
X51458904Y-98623380D02*
X51458904Y-97623380D01*
X52030333Y-98623380D02*
X51601761Y-98051952D01*
X52030333Y-97623380D02*
X51458904Y-98194809D01*
X52982714Y-98623380D02*
X52411285Y-98623380D01*
X52697000Y-98623380D02*
X52697000Y-97623380D01*
X52601761Y-97766238D01*
X52506523Y-97861476D01*
X52411285Y-97909095D01*
X71548666Y-41584571D02*
X71215333Y-41584571D01*
X71215333Y-42108380D02*
X71215333Y-41108380D01*
X71691523Y-41108380D01*
X72596285Y-42108380D02*
X72024857Y-42108380D01*
X72310571Y-42108380D02*
X72310571Y-41108380D01*
X72215333Y-41251238D01*
X72120095Y-41346476D01*
X72024857Y-41394095D01*
X79779904Y-77795380D02*
X79779904Y-76795380D01*
X80018000Y-76795380D01*
X80160857Y-76843000D01*
X80256095Y-76938238D01*
X80303714Y-77033476D01*
X80351333Y-77223952D01*
X80351333Y-77366809D01*
X80303714Y-77557285D01*
X80256095Y-77652523D01*
X80160857Y-77747761D01*
X80018000Y-77795380D01*
X79779904Y-77795380D01*
X81208476Y-76795380D02*
X81018000Y-76795380D01*
X80922761Y-76843000D01*
X80875142Y-76890619D01*
X80779904Y-77033476D01*
X80732285Y-77223952D01*
X80732285Y-77604904D01*
X80779904Y-77700142D01*
X80827523Y-77747761D01*
X80922761Y-77795380D01*
X81113238Y-77795380D01*
X81208476Y-77747761D01*
X81256095Y-77700142D01*
X81303714Y-77604904D01*
X81303714Y-77366809D01*
X81256095Y-77271571D01*
X81208476Y-77223952D01*
X81113238Y-77176333D01*
X80922761Y-77176333D01*
X80827523Y-77223952D01*
X80779904Y-77271571D01*
X80732285Y-77366809D01*
X127404904Y-99004380D02*
X127404904Y-98004380D01*
X127643000Y-98004380D01*
X127785857Y-98052000D01*
X127881095Y-98147238D01*
X127928714Y-98242476D01*
X127976333Y-98432952D01*
X127976333Y-98575809D01*
X127928714Y-98766285D01*
X127881095Y-98861523D01*
X127785857Y-98956761D01*
X127643000Y-99004380D01*
X127404904Y-99004380D01*
X128881095Y-98004380D02*
X128404904Y-98004380D01*
X128357285Y-98480571D01*
X128404904Y-98432952D01*
X128500142Y-98385333D01*
X128738238Y-98385333D01*
X128833476Y-98432952D01*
X128881095Y-98480571D01*
X128928714Y-98575809D01*
X128928714Y-98813904D01*
X128881095Y-98909142D01*
X128833476Y-98956761D01*
X128738238Y-99004380D01*
X128500142Y-99004380D01*
X128404904Y-98956761D01*
X128357285Y-98909142D01*
X110529285Y-102152104D02*
X110529285Y-101152104D01*
X110767381Y-101152104D01*
X110910238Y-101199724D01*
X111005476Y-101294962D01*
X111053095Y-101390200D01*
X111100714Y-101580676D01*
X111100714Y-101723533D01*
X111053095Y-101914009D01*
X111005476Y-102009247D01*
X110910238Y-102104485D01*
X110767381Y-102152104D01*
X110529285Y-102152104D01*
X111957857Y-101485438D02*
X111957857Y-102152104D01*
X111719761Y-101104485D02*
X111481666Y-101818771D01*
X112100714Y-101818771D01*
X57427904Y-101544380D02*
X57427904Y-100544380D01*
X57666000Y-100544380D01*
X57808857Y-100592000D01*
X57904095Y-100687238D01*
X57951714Y-100782476D01*
X57999333Y-100972952D01*
X57999333Y-101115809D01*
X57951714Y-101306285D01*
X57904095Y-101401523D01*
X57808857Y-101496761D01*
X57666000Y-101544380D01*
X57427904Y-101544380D01*
X58332666Y-100544380D02*
X58951714Y-100544380D01*
X58618380Y-100925333D01*
X58761238Y-100925333D01*
X58856476Y-100972952D01*
X58904095Y-101020571D01*
X58951714Y-101115809D01*
X58951714Y-101353904D01*
X58904095Y-101449142D01*
X58856476Y-101496761D01*
X58761238Y-101544380D01*
X58475523Y-101544380D01*
X58380285Y-101496761D01*
X58332666Y-101449142D01*
X117165380Y-83288095D02*
X116165380Y-83288095D01*
X116165380Y-83050000D01*
X116213000Y-82907142D01*
X116308238Y-82811904D01*
X116403476Y-82764285D01*
X116593952Y-82716666D01*
X116736809Y-82716666D01*
X116927285Y-82764285D01*
X117022523Y-82811904D01*
X117117761Y-82907142D01*
X117165380Y-83050000D01*
X117165380Y-83288095D01*
X116260619Y-82335714D02*
X116213000Y-82288095D01*
X116165380Y-82192857D01*
X116165380Y-81954761D01*
X116213000Y-81859523D01*
X116260619Y-81811904D01*
X116355857Y-81764285D01*
X116451095Y-81764285D01*
X116593952Y-81811904D01*
X117165380Y-82383333D01*
X117165380Y-81764285D01*
X119022904Y-91003380D02*
X119022904Y-90003380D01*
X119261000Y-90003380D01*
X119403857Y-90051000D01*
X119499095Y-90146238D01*
X119546714Y-90241476D01*
X119594333Y-90431952D01*
X119594333Y-90574809D01*
X119546714Y-90765285D01*
X119499095Y-90860523D01*
X119403857Y-90955761D01*
X119261000Y-91003380D01*
X119022904Y-91003380D01*
X120546714Y-91003380D02*
X119975285Y-91003380D01*
X120261000Y-91003380D02*
X120261000Y-90003380D01*
X120165761Y-90146238D01*
X120070523Y-90241476D01*
X119975285Y-90289095D01*
X74178142Y-87288666D02*
X74225761Y-87336285D01*
X74273380Y-87479142D01*
X74273380Y-87574380D01*
X74225761Y-87717238D01*
X74130523Y-87812476D01*
X74035285Y-87860095D01*
X73844809Y-87907714D01*
X73701952Y-87907714D01*
X73511476Y-87860095D01*
X73416238Y-87812476D01*
X73321000Y-87717238D01*
X73273380Y-87574380D01*
X73273380Y-87479142D01*
X73321000Y-87336285D01*
X73368619Y-87288666D01*
X73606714Y-86431523D02*
X74273380Y-86431523D01*
X73225761Y-86669619D02*
X73940047Y-86907714D01*
X73940047Y-86288666D01*
X118070333Y-92813142D02*
X118022714Y-92860761D01*
X117879857Y-92908380D01*
X117784619Y-92908380D01*
X117641761Y-92860761D01*
X117546523Y-92765523D01*
X117498904Y-92670285D01*
X117451285Y-92479809D01*
X117451285Y-92336952D01*
X117498904Y-92146476D01*
X117546523Y-92051238D01*
X117641761Y-91956000D01*
X117784619Y-91908380D01*
X117879857Y-91908380D01*
X118022714Y-91956000D01*
X118070333Y-92003619D01*
X118403666Y-91908380D02*
X119022714Y-91908380D01*
X118689380Y-92289333D01*
X118832238Y-92289333D01*
X118927476Y-92336952D01*
X118975095Y-92384571D01*
X119022714Y-92479809D01*
X119022714Y-92717904D01*
X118975095Y-92813142D01*
X118927476Y-92860761D01*
X118832238Y-92908380D01*
X118546523Y-92908380D01*
X118451285Y-92860761D01*
X118403666Y-92813142D01*
X101195142Y-90336666D02*
X101242761Y-90384285D01*
X101290380Y-90527142D01*
X101290380Y-90622380D01*
X101242761Y-90765238D01*
X101147523Y-90860476D01*
X101052285Y-90908095D01*
X100861809Y-90955714D01*
X100718952Y-90955714D01*
X100528476Y-90908095D01*
X100433238Y-90860476D01*
X100338000Y-90765238D01*
X100290380Y-90622380D01*
X100290380Y-90527142D01*
X100338000Y-90384285D01*
X100385619Y-90336666D01*
X100385619Y-89955714D02*
X100338000Y-89908095D01*
X100290380Y-89812857D01*
X100290380Y-89574761D01*
X100338000Y-89479523D01*
X100385619Y-89431904D01*
X100480857Y-89384285D01*
X100576095Y-89384285D01*
X100718952Y-89431904D01*
X101290380Y-90003333D01*
X101290380Y-89384285D01*
X94448333Y-102211142D02*
X94400714Y-102258761D01*
X94257857Y-102306380D01*
X94162619Y-102306380D01*
X94019761Y-102258761D01*
X93924523Y-102163523D01*
X93876904Y-102068285D01*
X93829285Y-101877809D01*
X93829285Y-101734952D01*
X93876904Y-101544476D01*
X93924523Y-101449238D01*
X94019761Y-101354000D01*
X94162619Y-101306380D01*
X94257857Y-101306380D01*
X94400714Y-101354000D01*
X94448333Y-101401619D01*
X95400714Y-102306380D02*
X94829285Y-102306380D01*
X95115000Y-102306380D02*
X95115000Y-101306380D01*
X95019761Y-101449238D01*
X94924523Y-101544476D01*
X94829285Y-101592095D01*
M02*
