*
%FSLAX25Y25*%
%MOIN*%
%ADD10C,0.005906*%
%ADD11C,0.010000*%
%ADD12C,0.015000*%
%ADD13C,0.004724*%
%ADD14C,0.007874*%
%ADD15C,0.001000*%
%ADD16C,0.002000*%
%ADD17C,0.020000*%
%ADD18R,0.032000X0.032000*%
%ADD19C,0.004000*%
%ADD20C,0.016000*%
%ADD21C,0.032000*%
%ADD22C,0.008000*%
%ADD23C,0.128000*%
%ADD24R,0.016000X0.016000*%
%ADD25C,0.064000*%
%ADD26R,0.064000X0.064000*%
%ADD27C,0.011811*%
%ADD28C,0.015748*%
%ADD29R,0.047323X0.047323*%
%ADD30C,0.001102*%
%ADD31R,0.087795X0.087795*%
%ADD32C,0.003937*%
%ADD33R,0.064173X0.064173*%
%ADD34C,0.068110*%
%ADD35R,0.090630X0.090630*%
%ADD36C,0.091732*%
%ADD37R,0.072047X0.072047*%
%ADD38C,0.075984*%
%ADD39C,0.249213*%
%ADD40R,0.093780X0.093780*%
%ADD41C,0.094882*%
%ADD42R,0.057559X0.057559*%
%ADD43R,0.039449X0.039449*%
%ADD44R,0.059134X0.059134*%
%ADD45R,0.248110X0.248110*%
%ADD46C,0.040551*%
%ADD47C,0.105118*%
%ADD48R,0.094567X0.094567*%
%ADD49R,0.051260X0.051260*%
%ADD50R,0.079921X0.079921*%
%ADD51C,0.083858*%
%ADD52C,0.021654*%
%ADD53C,0.039370*%
%ADD54C,0.037402*%
%ADD55C,0.043307*%
%ADD56C,0.047244*%
%ADD57C,0.059055*%
%ADD58C,0.062992*%
%ADD59C,0.066929*%
%ADD60C,0.149606*%
%ADD61C,0.043346*%
%IPPOS*%
%LNgto*%
%LPD*%
G54D10*
X186150Y64982D02*
X184838D01*
Y62920D02*
Y66857D01*
X186712D01*
X189900Y62920D02*
Y64982D01*
X189712Y65357D01*
X189337Y65544D01*
X188587D01*
X188212Y65357D01*
X189900Y63107D02*
X189525Y62920D01*
X188587D01*
X188212Y63107D01*
X188025Y63482D01*
Y63857D01*
X188212Y64232D01*
X188587Y64420D01*
X189525D01*
X189900Y64607D01*
X191774Y65544D02*
Y62920D01*
Y65169D02*
X191962Y65357D01*
X192337Y65544D01*
X192899D01*
X193274Y65357D01*
X193462Y64982D01*
Y62920D01*
X11026Y37920D02*
Y41857D01*
X11963D01*
X12526Y41669D01*
X12901Y41294D01*
X13088Y40919D01*
X13276Y40169D01*
Y39607D01*
X13088Y38857D01*
X12901Y38482D01*
X12526Y38107D01*
X11963Y37920D01*
X11026D01*
X14963D02*
Y40544D01*
Y41857D02*
X14775Y41669D01*
X14963Y41482D01*
X15150Y41669D01*
X14963Y41857D01*
Y41482D01*
X16838Y37920D02*
Y40544D01*
Y40169D02*
X17025Y40357D01*
X17400Y40544D01*
X17963D01*
X18337Y40357D01*
X18525Y39982D01*
Y37920D01*
Y39982D02*
X18712Y40357D01*
X19087Y40544D01*
X19650D01*
X20025Y40357D01*
X20212Y39982D01*
Y37920D01*
X22087D02*
Y40544D01*
Y40169D02*
X22274Y40357D01*
X22649Y40544D01*
X23212D01*
X23587Y40357D01*
X23774Y39982D01*
Y37920D01*
Y39982D02*
X23962Y40357D01*
X24337Y40544D01*
X24899D01*
X25274Y40357D01*
X25462Y39982D01*
Y37920D01*
X28836Y38107D02*
X28461Y37920D01*
X27711D01*
X27336Y38107D01*
X27149Y38482D01*
Y39982D01*
X27336Y40357D01*
X27711Y40544D01*
X28461D01*
X28836Y40357D01*
X29024Y39982D01*
Y39607D01*
X27149Y39232D01*
X30711Y37920D02*
Y40544D01*
Y39795D02*
X30898Y40169D01*
X31086Y40357D01*
X31461Y40544D01*
X31836D01*
X55432Y143107D02*
X55994Y142920D01*
X56932D01*
X57307Y143107D01*
X57494Y143295D01*
X57682Y143670D01*
Y144045D01*
X57494Y144420D01*
X57307Y144607D01*
X56932Y144795D01*
X56182Y144982D01*
X55807Y145169D01*
X55619Y145357D01*
X55432Y145732D01*
Y146107D01*
X55619Y146482D01*
X55807Y146669D01*
X56182Y146857D01*
X57119D01*
X57682Y146669D01*
X58994Y145544D02*
X59744Y142920D01*
X60494Y144795D01*
X61244Y142920D01*
X61994Y145544D01*
X63493Y142920D02*
Y145544D01*
Y146857D02*
X63306Y146669D01*
X63493Y146482D01*
X63681Y146669D01*
X63493Y146857D01*
Y146482D01*
X64806Y145544D02*
X66306D01*
X65368Y146857D02*
Y143482D01*
X65556Y143107D01*
X65931Y142920D01*
X66306D01*
X69305Y143107D02*
X68930Y142920D01*
X68180D01*
X67805Y143107D01*
X67618Y143295D01*
X67430Y143670D01*
Y144795D01*
X67618Y145169D01*
X67805Y145357D01*
X68180Y145544D01*
X68930D01*
X69305Y145357D01*
X70993Y142920D02*
Y146857D01*
X72680Y142920D02*
Y144982D01*
X72492Y145357D01*
X72117Y145544D01*
X71555D01*
X71180Y145357D01*
X70993Y145169D01*
X131650Y51920D02*
Y55857D01*
X133150D01*
X133525Y55669D01*
X133712Y55482D01*
X133900Y55107D01*
Y54544D01*
X133712Y54169D01*
X133525Y53982D01*
X133150Y53795D01*
X131650D01*
X135025Y55857D02*
X137274D01*
X136150Y51920D02*
Y55857D01*
X140837Y52295D02*
X140649Y52107D01*
X140087Y51920D01*
X139712D01*
X139149Y52107D01*
X138774Y52482D01*
X138587Y52857D01*
X138399Y53607D01*
Y54169D01*
X138587Y54919D01*
X138774Y55294D01*
X139149Y55669D01*
X139712Y55857D01*
X140087D01*
X140649Y55669D01*
X140837Y55482D01*
X256369Y64077D02*
X256181Y64264D01*
X255994Y64639D01*
Y65577D01*
X256181Y65952D01*
X256369Y66139D01*
X256744Y66327D01*
X257118D01*
X257681Y66139D01*
X259931Y63889D01*
Y66327D01*
X257306Y69701D02*
X259931D01*
X255806Y68764D02*
X258618Y67826D01*
Y70264D01*
X255994Y71201D02*
X259931Y72513D01*
X255994Y73826D01*
X259931Y75138D02*
X255994D01*
Y76075D01*
X256181Y76638D01*
X256556Y77013D01*
X256931Y77200D01*
X257681Y77388D01*
X258243D01*
X258993Y77200D01*
X259368Y77013D01*
X259743Y76638D01*
X259931Y76075D01*
Y75138D01*
X259556Y81325D02*
X259743Y81137D01*
X259931Y80575D01*
Y80200D01*
X259743Y79637D01*
X259368Y79262D01*
X258993Y79075D01*
X258243Y78888D01*
X257681D01*
X256931Y79075D01*
X256556Y79262D01*
X256181Y79637D01*
X255994Y80200D01*
Y80575D01*
X256181Y81137D01*
X256369Y81325D01*
X258931Y135733D02*
Y133858D01*
X254994D01*
X258931Y138732D02*
X256868D01*
X256493Y138545D01*
X256306Y138170D01*
Y137420D01*
X256493Y137045D01*
X258743Y138732D02*
X258931Y138357D01*
Y137420D01*
X258743Y137045D01*
X258368Y136858D01*
X257993D01*
X257618Y137045D01*
X257431Y137420D01*
Y138357D01*
X257243Y138732D01*
X258931Y140607D02*
X256306D01*
X256681D02*
X256493Y140795D01*
X256306Y141169D01*
Y141732D01*
X256493Y142107D01*
X256868Y142294D01*
X258931D01*
X256868D02*
X256493Y142482D01*
X256306Y142857D01*
Y143419D01*
X256493Y143794D01*
X256868Y143982D01*
X258931D01*
X256306Y145856D02*
X260243D01*
X256493D02*
X256306Y146231D01*
Y146981D01*
X256493Y147356D01*
X256681Y147544D01*
X257056Y147731D01*
X258181D01*
X258556Y147544D01*
X258743Y147356D01*
X258931Y146981D01*
Y146231D01*
X258743Y145856D01*
X37221Y27601D02*
X37971D01*
X38346Y27413D01*
X38721Y27038D01*
X38908Y26289D01*
Y24976D01*
X38721Y24226D01*
X38346Y23851D01*
X37971Y23664D01*
X37221D01*
X36846Y23851D01*
X36471Y24226D01*
X36283Y24976D01*
Y26289D01*
X36471Y27038D01*
X36846Y27413D01*
X37221Y27601D01*
X40220Y26289D02*
X41158Y23664D01*
X42095Y26289D01*
X45095Y23851D02*
X44720Y23664D01*
X43970D01*
X43595Y23851D01*
X43407Y24226D01*
Y25726D01*
X43595Y26101D01*
X43970Y26289D01*
X44720D01*
X45095Y26101D01*
X45282Y25726D01*
Y25351D01*
X43407Y24976D01*
X46970Y23664D02*
Y26289D01*
Y25539D02*
X47157Y25914D01*
X47344Y26101D01*
X47719Y26289D01*
X48094D01*
X49407Y25164D02*
X52406D01*
X53719Y26289D02*
X55219D01*
X54281Y27601D02*
Y24226D01*
X54469Y23851D01*
X54844Y23664D01*
X55219D01*
X58031Y23851D02*
X57656Y23664D01*
X56906D01*
X56531Y23851D01*
X56343Y24226D01*
Y25726D01*
X56531Y26101D01*
X56906Y26289D01*
X57656D01*
X58031Y26101D01*
X58218Y25726D01*
Y25351D01*
X56343Y24976D01*
X59905Y23664D02*
Y26289D01*
Y25914D02*
X60093Y26101D01*
X60468Y26289D01*
X61030D01*
X61405Y26101D01*
X61593Y25726D01*
Y23664D01*
Y25726D02*
X61780Y26101D01*
X62155Y26289D01*
X62718D01*
X63093Y26101D01*
X63280Y25726D01*
Y23664D01*
X65155Y26289D02*
Y22352D01*
Y26101D02*
X65530Y26289D01*
X66280D01*
X66655Y26101D01*
X66842Y25914D01*
X67030Y25539D01*
Y24414D01*
X66842Y24039D01*
X66655Y23851D01*
X66280Y23664D01*
X65530D01*
X65155Y23851D01*
X70217D02*
X69842Y23664D01*
X69092D01*
X68717Y23851D01*
X68529Y24226D01*
Y25726D01*
X68717Y26101D01*
X69092Y26289D01*
X69842D01*
X70217Y26101D01*
X70404Y25726D01*
Y25351D01*
X68529Y24976D01*
X72091Y23664D02*
Y26289D01*
Y25539D02*
X72279Y25914D01*
X72466Y26101D01*
X72841Y26289D01*
X73216D01*
X76216Y23664D02*
Y25726D01*
X76028Y26101D01*
X75653Y26289D01*
X74904D01*
X74529Y26101D01*
X76216Y23851D02*
X75841Y23664D01*
X74904D01*
X74529Y23851D01*
X74341Y24226D01*
Y24601D01*
X74529Y24976D01*
X74904Y25164D01*
X75841D01*
X76216Y25351D01*
X77528Y26289D02*
X79028D01*
X78091Y27601D02*
Y24226D01*
X78278Y23851D01*
X78653Y23664D01*
X79028D01*
X82028Y26289D02*
Y23664D01*
X80340Y26289D02*
Y24226D01*
X80528Y23851D01*
X80903Y23664D01*
X81465D01*
X81840Y23851D01*
X82028Y24039D01*
X83902Y23664D02*
Y26289D01*
Y25539D02*
X84090Y25914D01*
X84277Y26101D01*
X84652Y26289D01*
X85027D01*
X87839Y23851D02*
X87464Y23664D01*
X86715D01*
X86340Y23851D01*
X86152Y24226D01*
Y25726D01*
X86340Y26101D01*
X86715Y26289D01*
X87464D01*
X87839Y26101D01*
X88027Y25726D01*
Y25351D01*
X86152Y24976D01*
X36471Y17168D02*
Y21105D01*
X37971D01*
X38346Y20917D01*
X38533Y20730D01*
X38721Y20355D01*
Y19792D01*
X38533Y19418D01*
X38346Y19230D01*
X37971Y19043D01*
X36471D01*
X40408Y17168D02*
Y19792D01*
Y19043D02*
X40595Y19418D01*
X40783Y19605D01*
X41158Y19792D01*
X41533D01*
X43407Y17168D02*
X43033Y17355D01*
X42845Y17543D01*
X42658Y17918D01*
Y19043D01*
X42845Y19418D01*
X43033Y19605D01*
X43407Y19792D01*
X43970D01*
X44345Y19605D01*
X44532Y19418D01*
X44720Y19043D01*
Y17918D01*
X44532Y17543D01*
X44345Y17355D01*
X43970Y17168D01*
X43407D01*
X45845Y19792D02*
X47344D01*
X46407Y21105D02*
Y17730D01*
X46595Y17355D01*
X46970Y17168D01*
X47344D01*
X50157Y17355D02*
X49782Y17168D01*
X49032D01*
X48657Y17355D01*
X48469Y17730D01*
Y19230D01*
X48657Y19605D01*
X49032Y19792D01*
X49782D01*
X50157Y19605D01*
X50344Y19230D01*
Y18855D01*
X48469Y18480D01*
X53719Y17355D02*
X53344Y17168D01*
X52594D01*
X52219Y17355D01*
X52031Y17543D01*
X51844Y17918D01*
Y19043D01*
X52031Y19418D01*
X52219Y19605D01*
X52594Y19792D01*
X53344D01*
X53719Y19605D01*
X54844Y19792D02*
X56343D01*
X55406Y21105D02*
Y17730D01*
X55593Y17355D01*
X55968Y17168D01*
X56343D01*
X59156Y17355D02*
X58781Y17168D01*
X58031D01*
X57656Y17355D01*
X57468Y17730D01*
Y19230D01*
X57656Y19605D01*
X58031Y19792D01*
X58781D01*
X59156Y19605D01*
X59343Y19230D01*
Y18855D01*
X57468Y18480D01*
X62718Y17168D02*
Y21105D01*
Y17355D02*
X62343Y17168D01*
X61593D01*
X61218Y17355D01*
X61030Y17543D01*
X60843Y17918D01*
Y19043D01*
X61030Y19418D01*
X61218Y19605D01*
X61593Y19792D01*
X62343D01*
X62718Y19605D01*
X36283Y10859D02*
X36846Y10672D01*
X37783D01*
X38158Y10859D01*
X38346Y11047D01*
X38533Y11422D01*
Y11797D01*
X38346Y12172D01*
X38158Y12359D01*
X37783Y12546D01*
X37033Y12734D01*
X36658Y12921D01*
X36471Y13109D01*
X36283Y13484D01*
Y13859D01*
X36471Y14234D01*
X36658Y14421D01*
X37033Y14609D01*
X37971D01*
X38533Y14421D01*
X40783Y10672D02*
X40408Y10859D01*
X40220Y11047D01*
X40033Y11422D01*
Y12546D01*
X40220Y12921D01*
X40408Y13109D01*
X40783Y13296D01*
X41345D01*
X41720Y13109D01*
X41908Y12921D01*
X42095Y12546D01*
Y11422D01*
X41908Y11047D01*
X41720Y10859D01*
X41345Y10672D01*
X40783D01*
X43220Y13296D02*
X44720D01*
X43782Y10672D02*
Y14046D01*
X43970Y14421D01*
X44345Y14609D01*
X44720D01*
X45470Y13296D02*
X46970D01*
X46032Y14609D02*
Y11234D01*
X46220Y10859D01*
X46595Y10672D01*
X46970D01*
X48282Y12172D02*
X51281D01*
X52969Y10859D02*
X53344Y10672D01*
X54094D01*
X54469Y10859D01*
X54656Y11234D01*
Y11422D01*
X54469Y11797D01*
X54094Y11984D01*
X53531D01*
X53156Y12172D01*
X52969Y12546D01*
Y12734D01*
X53156Y13109D01*
X53531Y13296D01*
X54094D01*
X54469Y13109D01*
X55781Y13296D02*
X57281D01*
X56343Y14609D02*
Y11234D01*
X56531Y10859D01*
X56906Y10672D01*
X57281D01*
X60280D02*
Y12734D01*
X60093Y13109D01*
X59718Y13296D01*
X58968D01*
X58593Y13109D01*
X60280Y10859D02*
X59905Y10672D01*
X58968D01*
X58593Y10859D01*
X58406Y11234D01*
Y11609D01*
X58593Y11984D01*
X58968Y12172D01*
X59905D01*
X60280Y12359D01*
X62155Y10672D02*
Y13296D01*
Y12546D02*
X62343Y12921D01*
X62530Y13109D01*
X62905Y13296D01*
X63280D01*
X64030D02*
X65530D01*
X64592Y14609D02*
Y11234D01*
X64780Y10859D01*
X65155Y10672D01*
X65530D01*
X36471Y4176D02*
Y8113D01*
X37408D01*
X37971Y7925D01*
X38346Y7550D01*
X38533Y7175D01*
X38721Y6425D01*
Y5863D01*
X38533Y5113D01*
X38346Y4738D01*
X37971Y4363D01*
X37408Y4176D01*
X36471D01*
X40408D02*
Y6800D01*
Y8113D02*
X40220Y7925D01*
X40408Y7738D01*
X40595Y7925D01*
X40408Y8113D01*
Y7738D01*
X42283Y4176D02*
Y6800D01*
Y6425D02*
X42470Y6613D01*
X42845Y6800D01*
X43407D01*
X43782Y6613D01*
X43970Y6238D01*
Y4176D01*
Y6238D02*
X44157Y6613D01*
X44532Y6800D01*
X45095D01*
X45470Y6613D01*
X45657Y6238D01*
Y4176D01*
X47532D02*
Y6800D01*
Y6425D02*
X47719Y6613D01*
X48094Y6800D01*
X48657D01*
X49032Y6613D01*
X49219Y6238D01*
Y4176D01*
Y6238D02*
X49407Y6613D01*
X49782Y6800D01*
X50344D01*
X50719Y6613D01*
X50907Y6238D01*
Y4176D01*
X54469D02*
Y6238D01*
X54281Y6613D01*
X53906Y6800D01*
X53156D01*
X52781Y6613D01*
X54469Y4363D02*
X54094Y4176D01*
X53156D01*
X52781Y4363D01*
X52594Y4738D01*
Y5113D01*
X52781Y5488D01*
X53156Y5675D01*
X54094D01*
X54469Y5863D01*
X56343Y4176D02*
Y8113D01*
Y6613D02*
X56718Y6800D01*
X57468D01*
X57843Y6613D01*
X58031Y6425D01*
X58218Y6050D01*
Y4926D01*
X58031Y4551D01*
X57843Y4363D01*
X57468Y4176D01*
X56718D01*
X56343Y4363D01*
X60468Y4176D02*
X60093Y4363D01*
X59905Y4738D01*
Y8113D01*
X63467Y4363D02*
X63093Y4176D01*
X62343D01*
X61968Y4363D01*
X61780Y4738D01*
Y6238D01*
X61968Y6613D01*
X62343Y6800D01*
X63093D01*
X63467Y6613D01*
X63655Y6238D01*
Y5863D01*
X61780Y5488D01*
X70217Y4176D02*
X68342D01*
Y8113D01*
X73216Y4176D02*
Y6238D01*
X73029Y6613D01*
X72654Y6800D01*
X71904D01*
X71529Y6613D01*
X73216Y4363D02*
X72841Y4176D01*
X71904D01*
X71529Y4363D01*
X71341Y4738D01*
Y5113D01*
X71529Y5488D01*
X71904Y5675D01*
X72841D01*
X73216Y5863D01*
X75091Y4176D02*
Y6800D01*
Y6425D02*
X75278Y6613D01*
X75653Y6800D01*
X76216D01*
X76591Y6613D01*
X76778Y6238D01*
Y4176D01*
Y6238D02*
X76966Y6613D01*
X77341Y6800D01*
X77903D01*
X78278Y6613D01*
X78466Y6238D01*
Y4176D01*
X80340Y6800D02*
Y2863D01*
Y6613D02*
X80715Y6800D01*
X81465D01*
X81840Y6613D01*
X82028Y6425D01*
X82215Y6050D01*
Y4926D01*
X82028Y4551D01*
X81840Y4363D01*
X81465Y4176D01*
X80715D01*
X80340Y4363D01*
X86340Y8113D02*
X87652Y4176D01*
X88964Y8113D01*
X92339Y4176D02*
X90089D01*
X91214D02*
Y8113D01*
X90839Y7550D01*
X90464Y7175D01*
X90089Y6988D01*
X94026Y4551D02*
X94214Y4363D01*
X94026Y4176D01*
X93839Y4363D01*
X94026Y4551D01*
Y4176D01*
X96651Y8113D02*
X97026D01*
X97401Y7925D01*
X97588Y7738D01*
X97776Y7363D01*
X97963Y6613D01*
Y5675D01*
X97776Y4926D01*
X97588Y4551D01*
X97401Y4363D01*
X97026Y4176D01*
X96651D01*
X96276Y4363D01*
X96088Y4551D01*
X95901Y4926D01*
X95713Y5675D01*
Y6613D01*
X95901Y7363D01*
X96088Y7738D01*
X96276Y7925D01*
X96651Y8113D01*
X271995Y191105D02*
X274620D01*
X271995Y187168D01*
X274620D01*
X277619Y187355D02*
X277244Y187168D01*
X276495D01*
X276120Y187355D01*
X275932Y187730D01*
Y189230D01*
X276120Y189605D01*
X276495Y189792D01*
X277244D01*
X277619Y189605D01*
X277807Y189230D01*
Y188855D01*
X275932Y188480D01*
X279494Y189792D02*
Y187168D01*
Y189418D02*
X279682Y189605D01*
X280057Y189792D01*
X280619D01*
X280994Y189605D01*
X281181Y189230D01*
Y187168D01*
X283056D02*
Y189792D01*
Y191105D02*
X282869Y190917D01*
X283056Y190730D01*
X283244Y190917D01*
X283056Y191105D01*
Y190730D01*
X284931Y189792D02*
Y187168D01*
Y189418D02*
X285118Y189605D01*
X285493Y189792D01*
X286056D01*
X286431Y189605D01*
X286618Y189230D01*
Y187168D01*
X290180Y189792D02*
Y186605D01*
X289993Y186230D01*
X289805Y186043D01*
X289430Y185855D01*
X288868D01*
X288493Y186043D01*
X290180Y187355D02*
X289805Y187168D01*
X289055D01*
X288681Y187355D01*
X288493Y187543D01*
X288306Y187918D01*
Y189043D01*
X288493Y189418D01*
X288681Y189605D01*
X289055Y189792D01*
X289805D01*
X290180Y189605D01*
X296930Y187168D02*
X295055D01*
Y191105D01*
X299929Y189792D02*
Y187168D01*
X298242Y189792D02*
Y187730D01*
X298429Y187355D01*
X298804Y187168D01*
X299367D01*
X299742Y187355D01*
X299929Y187543D01*
X267777Y184234D02*
X267964Y184421D01*
X268339Y184609D01*
X269277D01*
X269652Y184421D01*
X269839Y184234D01*
X270027Y183859D01*
Y183484D01*
X269839Y182921D01*
X267589Y180672D01*
X270027D01*
X272464Y184609D02*
X272839D01*
X273214Y184421D01*
X273401Y184234D01*
X273589Y183859D01*
X273776Y183109D01*
Y182172D01*
X273589Y181422D01*
X273401Y181047D01*
X273214Y180859D01*
X272839Y180672D01*
X272464D01*
X272089Y180859D01*
X271901Y181047D01*
X271714Y181422D01*
X271526Y182172D01*
Y183109D01*
X271714Y183859D01*
X271901Y184234D01*
X272089Y184421D01*
X272464Y184609D01*
X277526Y180672D02*
X275276D01*
X276401D02*
Y184609D01*
X276026Y184046D01*
X275651Y183671D01*
X275276Y183484D01*
X279400Y180672D02*
X280150D01*
X280525Y180859D01*
X280713Y181047D01*
X281088Y181609D01*
X281275Y182359D01*
Y183859D01*
X281088Y184234D01*
X280900Y184421D01*
X280525Y184609D01*
X279775D01*
X279400Y184421D01*
X279213Y184234D01*
X279025Y183859D01*
Y182921D01*
X279213Y182546D01*
X279400Y182359D01*
X279775Y182172D01*
X280525D01*
X280900Y182359D01*
X281088Y182546D01*
X281275Y182921D01*
X285775Y184796D02*
X282400Y179734D01*
X289149Y180672D02*
X286900D01*
X288024D02*
Y184609D01*
X287649Y184046D01*
X287274Y183671D01*
X286900Y183484D01*
X291586Y184609D02*
X291961D01*
X292336Y184421D01*
X292524Y184234D01*
X292711Y183859D01*
X292899Y183109D01*
Y182172D01*
X292711Y181422D01*
X292524Y181047D01*
X292336Y180859D01*
X291961Y180672D01*
X291586D01*
X291211Y180859D01*
X291024Y181047D01*
X290837Y181422D01*
X290649Y182172D01*
Y183109D01*
X290837Y183859D01*
X291024Y184234D01*
X291211Y184421D01*
X291586Y184609D01*
X297398Y184796D02*
X294024Y179734D01*
X300773Y180672D02*
X298523D01*
X299648D02*
Y184609D01*
X299273Y184046D01*
X298898Y183671D01*
X298523Y183484D01*
X304522Y180672D02*
X302273D01*
X303397D02*
Y184609D01*
X303023Y184046D01*
X302648Y183671D01*
X302273Y183484D01*
X184463Y72482D02*
X184650Y72669D01*
X185025Y72857D01*
X185963D01*
X186337Y72669D01*
X186525Y72482D01*
X186712Y72107D01*
Y71732D01*
X186525Y71169D01*
X184275Y68920D01*
X186712D01*
X190087Y71544D02*
Y68920D01*
X189150Y73044D02*
X188212Y70232D01*
X190649D01*
X191587Y72857D02*
X192899Y68920D01*
X194211Y72857D01*
X210650Y57420D02*
X213649D01*
X212150Y55920D02*
Y58919D01*
X256650Y156420D02*
X259649D01*
X258150Y154920D02*
Y157919D01*
X257650Y87420D02*
X260649D01*
X259150Y85920D02*
Y88919D01*
X216868Y61016D02*
Y59703D01*
X218931D02*
X214994D01*
Y61578D01*
X216306Y64765D02*
X218931D01*
X216306Y63078D02*
X218368D01*
X218743Y63265D01*
X218931Y63640D01*
Y64203D01*
X218743Y64578D01*
X218556Y64765D01*
X218743Y66453D02*
X218931Y66828D01*
Y67577D01*
X218743Y67952D01*
X218368Y68140D01*
X218181D01*
X217806Y67952D01*
X217618Y67577D01*
Y67015D01*
X217431Y66640D01*
X217056Y66453D01*
X216868D01*
X216493Y66640D01*
X216306Y67015D01*
Y67577D01*
X216493Y67952D01*
X218743Y71327D02*
X218931Y70952D01*
Y70202D01*
X218743Y69827D01*
X218368Y69640D01*
X216868D01*
X216493Y69827D01*
X216306Y70202D01*
Y70952D01*
X216493Y71327D01*
X216868Y71514D01*
X217243D01*
X217618Y69640D01*
X215369Y76014D02*
X215181Y76201D01*
X214994Y76576D01*
Y77514D01*
X215181Y77889D01*
X215369Y78076D01*
X215744Y78264D01*
X216118D01*
X216681Y78076D01*
X218931Y75826D01*
Y78264D01*
X214994Y80701D02*
Y81076D01*
X215181Y81451D01*
X215369Y81638D01*
X215744Y81826D01*
X216493Y82013D01*
X217431D01*
X218181Y81826D01*
X218556Y81638D01*
X218743Y81451D01*
X218931Y81076D01*
Y80701D01*
X218743Y80326D01*
X218556Y80138D01*
X218181Y79951D01*
X217431Y79763D01*
X216493D01*
X215744Y79951D01*
X215369Y80138D01*
X215181Y80326D01*
X214994Y80701D01*
X217806Y83513D02*
Y85388D01*
X218931Y83138D02*
X214994Y84450D01*
X218931Y85763D01*
X218743Y89887D02*
X218931Y90450D01*
Y91387D01*
X218743Y91762D01*
X218556Y91949D01*
X218181Y92137D01*
X217806D01*
X217431Y91949D01*
X217243Y91762D01*
X217056Y91387D01*
X216868Y90637D01*
X216681Y90262D01*
X216493Y90075D01*
X216118Y89887D01*
X215744D01*
X215369Y90075D01*
X215181Y90262D01*
X214994Y90637D01*
Y91574D01*
X215181Y92137D01*
X218931Y94387D02*
X218743Y94012D01*
X218368Y93824D01*
X214994D01*
X218931Y96449D02*
X218743Y96074D01*
X218556Y95886D01*
X218181Y95699D01*
X217056D01*
X216681Y95886D01*
X216493Y96074D01*
X216306Y96449D01*
Y97011D01*
X216493Y97386D01*
X216681Y97574D01*
X217056Y97761D01*
X218181D01*
X218556Y97574D01*
X218743Y97386D01*
X218931Y97011D01*
Y96449D01*
X216306Y99073D02*
X218931Y99823D01*
X217056Y100573D01*
X218931Y101323D01*
X216306Y102073D01*
G54D11*
X227236Y5469D02*
X213063D01*
X227236Y13933D02*
X213063D01*
X223988D02*
Y5469D01*
X191055Y85543D02*
X190268D01*
X191055Y65858D02*
X190268D01*
X180031Y85543D02*
X179244D01*
X180031Y65858D02*
X179244D01*
X191055D02*
Y85543D01*
X179244Y65858D02*
Y85543D01*
X185150Y73732D02*
X189087Y77669D01*
X181213D01*
X185150Y73732D02*
X181213Y77669D01*
X189087Y73732D02*
X181213D01*
X185150Y72669D02*
Y78732D01*
G54D12*
X146370Y81795D02*
Y101480D01*
X154244Y73921D02*
X173929D01*
X146370Y81795D02*
X154244Y73921D01*
X146370Y101480D02*
X173929D01*
Y73921D01*
G54D13*
X207543Y35811D02*
Y59433D01*
X186756D01*
Y35811D01*
X207543D01*
X202150Y59433D02*
Y55496D01*
X192150D01*
Y59433D01*
X202150Y55496D02*
X201165Y53803D01*
X193134D01*
X192150Y55496D01*
X201165Y59433D02*
Y55496D01*
X193134Y59433D02*
Y55496D01*
X205299Y35811D02*
Y38252D01*
X199000D01*
Y35811D01*
X195299D02*
Y38252D01*
X189000D01*
Y35811D01*
X260110Y27622D02*
X280189D01*
X260110Y27780D02*
X280189D01*
X260114Y27937D02*
X280185D01*
X260118Y28094D02*
X280181D01*
X260126Y28252D02*
X280173D01*
X260138Y28409D02*
X280161D01*
X260154Y28567D02*
X280146D01*
X260169Y28724D02*
X266291D01*
X274008D02*
X280130D01*
X260185Y28882D02*
X266291D01*
X274008D02*
X280114D01*
X260209Y29039D02*
X266291D01*
X274008D02*
X280091D01*
X260232Y29197D02*
X266291D01*
X274008D02*
X280067D01*
X260256Y29354D02*
X266291D01*
X274008D02*
X280043D01*
X260283Y29512D02*
X266291D01*
X274008D02*
X280016D01*
X260315Y29669D02*
X266291D01*
X274008D02*
X279984D01*
X260350Y29827D02*
X266291D01*
X274008D02*
X279949D01*
X260386Y29984D02*
X266291D01*
X274008D02*
X279913D01*
X260425Y30142D02*
X266291D01*
X274008D02*
X279874D01*
X260465Y30299D02*
X266291D01*
X274008D02*
X279835D01*
X260512Y30461D02*
X266291D01*
X274008D02*
X279787D01*
X260559Y30618D02*
X266291D01*
X274008D02*
X279740D01*
X260606Y30776D02*
X266291D01*
X274008D02*
X279693D01*
X260661Y30933D02*
X266291D01*
X274008D02*
X279638D01*
X260717Y31091D02*
X266291D01*
X274008D02*
X279583D01*
X260772Y31248D02*
X266291D01*
X274008D02*
X279528D01*
X260835Y31406D02*
X266291D01*
X274008D02*
X279465D01*
X260898Y31563D02*
X266291D01*
X274008D02*
X279402D01*
X260965Y31720D02*
X266291D01*
X274008D02*
X279335D01*
X261035Y31878D02*
X266291D01*
X274008D02*
X279264D01*
X261110Y32035D02*
X266291D01*
X274008D02*
X279189D01*
X261189Y32193D02*
X266291D01*
X274008D02*
X279110D01*
X261268Y32350D02*
X266291D01*
X274008D02*
X279031D01*
X261354Y32508D02*
X266291D01*
X274008D02*
X278945D01*
X261441Y32665D02*
X266291D01*
X274008D02*
X278858D01*
X261531Y32823D02*
X266291D01*
X274008D02*
X278768D01*
X261626Y32980D02*
X266291D01*
X274008D02*
X278673D01*
X261724Y33138D02*
X266291D01*
X274008D02*
X278575D01*
X261831Y33295D02*
X266291D01*
X274008D02*
X278469D01*
X261937Y33453D02*
X266291D01*
X274008D02*
X278362D01*
X262047Y33610D02*
X266291D01*
X274008D02*
X278252D01*
X262165Y33768D02*
X266291D01*
X274008D02*
X278134D01*
X262287Y33925D02*
X266291D01*
X274008D02*
X278012D01*
X262413Y34083D02*
X266291D01*
X274008D02*
X277886D01*
X262543Y34240D02*
X266291D01*
X274008D02*
X277756D01*
X262681Y34398D02*
X266291D01*
X274008D02*
X277618D01*
X262823Y34555D02*
X266291D01*
X274008D02*
X277476D01*
X262972Y34713D02*
X266291D01*
X274008D02*
X277327D01*
X263130Y34870D02*
X266291D01*
X274008D02*
X277169D01*
X263291Y35028D02*
X266291D01*
X274008D02*
X277008D01*
X263461Y35185D02*
X266291D01*
X274008D02*
X276839D01*
X263638Y35343D02*
X266291D01*
X274008D02*
X276661D01*
X263827Y35500D02*
X266291D01*
X274008D02*
X276472D01*
X264024Y35657D02*
X266291D01*
X274008D02*
X276276D01*
X264228Y35815D02*
X266291D01*
X274008D02*
X276071D01*
X264449Y35972D02*
X266291D01*
X274008D02*
X275850D01*
X264677Y36130D02*
X266291D01*
X274008D02*
X275622D01*
X264925Y36287D02*
X266291D01*
X274008D02*
X275374D01*
X265185Y36445D02*
X275114D01*
X265469Y36602D02*
X274831D01*
X265772Y36760D02*
X274528D01*
X266102Y36917D02*
X274197D01*
X266472Y37075D02*
X273827D01*
X266886Y37232D02*
X273413D01*
X267366Y37390D02*
X272933D01*
X267949Y37547D02*
X272350D01*
X268756Y37705D02*
X271543D01*
X270150Y14039D02*
Y18764D01*
X267591Y16402D02*
X272709D01*
X90402Y148512D02*
Y196386D01*
X41898D02*
Y148512D01*
X90402D01*
Y190480D02*
Y183394D01*
X41898D01*
Y190480D01*
X90402D01*
X72213Y196386D02*
X73197Y190480D01*
X79102D01*
X80087Y196386D01*
X52213D02*
X53197Y190480D01*
X59102D01*
X60087Y196386D01*
X74969Y145362D02*
X76150Y147724D01*
X77331Y145362D01*
X74969D01*
G54D14*
X104969Y166157D02*
X107331D01*
G54D11*
X100402Y172260D02*
X103000D01*
X100402D02*
Y169051D01*
X111898Y172260D02*
Y169051D01*
X109299Y172260D02*
X111898D01*
X109299D02*
X111898D01*
X109299D02*
X111898D01*
G54D14*
X131969Y151157D02*
X134331D01*
G54D11*
X127402Y157260D02*
X130000D01*
X127402D02*
Y154051D01*
X138898Y157260D02*
Y154051D01*
X136299Y157260D02*
X138898D01*
X136299D02*
X138898D01*
X136299D02*
X138898D01*
G54D14*
X109614Y155201D02*
Y150201D01*
X108039Y156776D02*
X104417D01*
X95677Y155201D02*
Y150201D01*
X100874Y156776D02*
X97252D01*
X100874Y148626D02*
X97252D01*
X108039D02*
X104417D01*
G54D11*
X211217Y139465D02*
Y108165D01*
X183083Y139465D02*
Y108165D01*
X211217D01*
X188882D02*
Y103047D01*
X186913D02*
X188882D01*
X186913Y108165D02*
Y103047D01*
X183083Y139465D02*
X211217D01*
X207475Y108182D02*
Y103064D01*
X205506D02*
X207475D01*
X205506Y108182D02*
Y103064D01*
G54D14*
X120606Y124882D02*
Y122520D01*
G54D11*
X126709Y129449D02*
Y126850D01*
Y129449D02*
X123500D01*
X126709Y117953D02*
X123500D01*
X126709Y120551D02*
Y117953D01*
Y120551D02*
Y117953D01*
Y120551D02*
Y117953D01*
X257055Y40543D02*
X256268D01*
X257055Y20858D02*
X256268D01*
X246031Y40543D02*
X245244D01*
X246031Y20858D02*
X245244D01*
X257055D02*
Y40543D01*
X245244Y20858D02*
Y40543D01*
X251150Y28732D02*
X255087Y32669D01*
X247213D01*
X251150Y28732D02*
X247213Y32669D01*
X255087Y28732D02*
X247213D01*
X251150Y27669D02*
Y33732D01*
G54D14*
X139969Y115157D02*
X142331D01*
G54D11*
X135402Y121260D02*
X138000D01*
X135402D02*
Y118051D01*
X146898Y121260D02*
Y118051D01*
X144299Y121260D02*
X146898D01*
X144299D02*
X146898D01*
X144299D02*
X146898D01*
X84638Y48150D02*
Y29252D01*
X95661Y48150D02*
Y29252D01*
X84638Y48150D02*
X95661D01*
X84638Y29252D02*
X95661D01*
X88701Y93189D02*
X107598D01*
X88701Y104213D02*
X107598D01*
X88701Y93189D02*
Y104213D01*
X107598Y93189D02*
Y104213D01*
X211094Y40063D02*
Y29827D01*
Y40063D02*
X214638D01*
X229205D02*
Y29827D01*
X225661Y40063D02*
X229205D01*
G54D13*
X133898Y48890D02*
Y1016D01*
X182402D02*
Y48890D01*
X133898D01*
Y6921D02*
Y14008D01*
X182402D01*
Y6921D01*
X133898D01*
X152087Y1016D02*
X151102Y6921D01*
X145197D01*
X144213Y1016D01*
X172087D02*
X171102Y6921D01*
X165197D01*
X164213Y1016D01*
X149331Y52039D02*
X148150Y49677D01*
X146969Y52039D01*
X149331D01*
X51067Y43543D02*
X2953D01*
X51067Y114492D02*
X2953D01*
X51067Y43543D02*
Y114492D01*
X2953Y43543D02*
Y114492D01*
G54D15*
Y65186D02*
X3114Y65093D01*
Y64907D01*
X2953Y64814D01*
X50D01*
Y65186D01*
X2953D01*
G54D16*
X100Y65000D02*
X3089D01*
X100Y64864D02*
X2953D01*
X100Y64900D02*
X3045D01*
X100Y64864D02*
Y65000D01*
X3089D02*
X3049Y64904D01*
X2953Y64864D01*
X100D01*
Y65100D02*
X3045D01*
X100Y65136D02*
X2953D01*
X100Y65000D02*
Y65136D01*
X2953D02*
X3049Y65096D01*
X3089Y65000D01*
X100Y65136D02*
X2953D01*
G54D15*
Y93218D02*
X3114Y93125D01*
Y92938D01*
X2953Y92845D01*
X50D01*
Y93218D01*
X2953D01*
G54D16*
X100Y93031D02*
X3089D01*
X100Y92895D02*
X2953D01*
X100Y92931D02*
X3045D01*
X100Y92895D02*
Y93031D01*
X3089D02*
X3049Y92935D01*
X2953Y92895D01*
X100D01*
Y93131D02*
X3045D01*
X100Y93168D02*
X2953D01*
X100Y93031D02*
Y93168D01*
X2953D02*
X3049Y93128D01*
X3089Y93031D01*
X100Y93168D02*
X2953D01*
G54D13*
Y65000D02*
Y93031D01*
G54D14*
X77331Y122244D02*
X74969D01*
G54D11*
X81898Y116142D02*
X79299D01*
X81898D02*
Y119350D01*
X70402Y116142D02*
Y119350D01*
X73000Y116142D02*
X70402D01*
X73000D02*
X70402D01*
X73000D02*
X70402D01*
G54D14*
X129606Y91882D02*
Y89520D01*
G54D11*
X135709Y96449D02*
Y93850D01*
Y96449D02*
X132500D01*
X135709Y84953D02*
X132500D01*
X135709Y87551D02*
Y84953D01*
Y87551D02*
Y84953D01*
Y87551D02*
Y84953D01*
G54D13*
X262461Y111386D02*
X310335D01*
Y172016D01*
X262461D01*
Y111386D01*
X304429D02*
X297343D01*
Y172016D01*
X304429D01*
Y111386D01*
X310335Y122764D02*
Y130638D01*
X304429Y129654D01*
Y123748D01*
X310335Y122764D01*
Y152764D02*
Y160638D01*
X304429Y159654D01*
Y153748D01*
X310335Y152764D01*
X259311Y127882D02*
X261673Y126701D01*
X259311Y125520D01*
Y127882D01*
X262961Y42386D02*
X310835D01*
Y103016D01*
X262961D01*
Y42386D01*
X304929D02*
X297843D01*
Y103016D01*
X304929D01*
Y42386D01*
X310835Y53764D02*
Y61638D01*
X304929Y60654D01*
Y54748D01*
X310835Y53764D01*
Y83764D02*
Y91638D01*
X304929Y90654D01*
Y84748D01*
X310835Y83764D01*
X259811Y58882D02*
X262173Y57701D01*
X259811Y56520D01*
Y58882D01*
G54D17*
X252898Y86965D02*
X221402D01*
X252898Y153965D02*
X221402D01*
Y183465D02*
Y57480D01*
X252898Y183465D02*
Y57480D01*
X221402D01*
X252898Y183465D02*
X221402D01*
G54D14*
X129906Y27669D02*
Y23732D01*
X124394Y27669D02*
Y23732D01*
X129906D01*
X124394Y27669D02*
X129906D01*
X124394Y26488D02*
X129906D01*
X114394Y23732D02*
Y27669D01*
X119906Y23732D02*
Y27669D01*
X114394D01*
X119906Y23732D02*
X114394D01*
X119906Y24913D02*
X114394D01*
G54D13*
X17016Y154843D02*
X16402D01*
X7898D02*
X7283D01*
G54D14*
X157181Y54201D02*
Y59201D01*
X158756Y52626D02*
X162378D01*
X171118Y54201D02*
Y59201D01*
X165921Y52626D02*
X169543D01*
X165921Y60776D02*
X169543D01*
X158756D02*
X162378D01*
X104118Y22201D02*
Y17201D01*
X102543Y23776D02*
X98921D01*
X90181Y22201D02*
Y17201D01*
X95378Y23776D02*
X91756D01*
X95378Y15626D02*
X91756D01*
X102543D02*
X98921D01*
X103677Y64201D02*
Y69201D01*
X105252Y62626D02*
X108874D01*
X117614Y64201D02*
Y69201D01*
X112417Y62626D02*
X116039D01*
X112417Y70776D02*
X116039D01*
X105252D02*
X108874D01*
X83650Y94732D02*
X78650D01*
X85224Y96307D02*
Y99929D01*
X83650Y108669D02*
X78650D01*
X85224Y103472D02*
Y107094D01*
X77075Y103472D02*
Y107094D01*
Y96307D02*
Y99929D01*
X198650Y32669D02*
X203650D01*
X197075Y31094D02*
Y27472D01*
X198650Y18732D02*
X203650D01*
X197075Y23929D02*
Y20307D01*
X205224Y23929D02*
Y20307D01*
Y31094D02*
Y27472D01*
X241650Y15732D02*
X236650D01*
X243224Y17307D02*
Y20929D01*
X241650Y29669D02*
X236650D01*
X243224Y24472D02*
Y28094D01*
X235075Y24472D02*
Y28094D01*
Y17307D02*
Y20929D01*
G54D13*
X90402Y196386D02*
X41898D01*
X80087D02*
X72213D01*
X60087D02*
X52213D01*
X133898Y1016D02*
X182402D01*
X144213D02*
X152087D01*
X164213D02*
X172087D01*
X265505Y36700D02*
X264420Y36057D01*
X263423Y35285D01*
X262528Y34396D01*
X261750Y33404D01*
X261101Y32323D01*
X260590Y31170D01*
X260225Y29963D01*
X260012Y28720D01*
X259954Y27460D01*
X260052Y26203D01*
X260304Y24967D01*
X260707Y23772D01*
X261255Y22636D01*
X261938Y21576D01*
X262747Y20609D01*
X263670Y19749D01*
X264691Y19009D01*
X265504Y18545D01*
X274795D02*
X275880Y19188D01*
X276877Y19960D01*
X277772Y20849D01*
X278550Y21841D01*
X279199Y22922D01*
X279710Y24075D01*
X280074Y25283D01*
X280287Y26526D01*
X280345Y27785D01*
X280247Y29043D01*
X279994Y30278D01*
X279591Y31473D01*
X279044Y32609D01*
X278360Y33669D01*
X277551Y34636D01*
X276629Y35496D01*
X275607Y36235D01*
X274794Y36700D01*
X273638Y37204D01*
X272429Y37561D01*
X271185Y37766D01*
X269924Y37816D01*
X268668Y37711D01*
X267434Y37451D01*
X266241Y37040D01*
X265504Y36699D01*
G54D14*
X108039Y148626D02*
X108527Y148703D01*
X108967Y148928D01*
X109315Y149278D01*
X109539Y149719D01*
X109614Y150201D01*
Y155201D02*
X109537Y155689D01*
X109312Y156128D01*
X108962Y156477D01*
X108522Y156700D01*
X108039Y156776D01*
X97252D02*
X96764Y156698D01*
X96324Y156473D01*
X95976Y156124D01*
X95753Y155683D01*
X95677Y155201D01*
Y150201D02*
X95755Y149713D01*
X95979Y149273D01*
X96329Y148925D01*
X96770Y148702D01*
X97252Y148626D01*
G54D13*
X16396Y142117D02*
X17280Y142780D01*
X18062Y143561D01*
X18727Y144444D01*
X19260Y145412D01*
X19652Y146445D01*
X19895Y147523D01*
X19984Y148625D01*
X19917Y149728D01*
X19695Y150811D01*
X19323Y151851D01*
X18808Y152829D01*
X18161Y153725D01*
X17394Y154521D01*
X17014Y154843D01*
X7285D02*
X6470Y154097D01*
X5767Y153244D01*
X5191Y152301D01*
X4754Y151286D01*
X4464Y150219D01*
X4326Y149123D01*
X4345Y148018D01*
X4519Y146926D01*
X4844Y145870D01*
X5315Y144870D01*
X5922Y143947D01*
X6653Y143118D01*
X7493Y142400D01*
X7903Y142117D01*
X16401Y144602D02*
X17008Y145344D01*
X17488Y146175D01*
X17826Y147073D01*
X18015Y148013D01*
X18049Y148972D01*
X17927Y149923D01*
X17653Y150843D01*
X17234Y151705D01*
X16680Y152489D01*
X16402Y152799D01*
X7898D02*
X7290Y152057D01*
X6811Y151226D01*
X6473Y150328D01*
X6284Y149387D01*
X6250Y148429D01*
X6372Y147477D01*
X6647Y146558D01*
X7066Y145695D01*
X7620Y144912D01*
X7898Y144602D01*
G54D14*
X158756Y60776D02*
X158268Y60698D01*
X157828Y60474D01*
X157480Y60124D01*
X157257Y59683D01*
X157181Y59201D01*
Y54201D02*
X157259Y53713D01*
X157483Y53273D01*
X157833Y52925D01*
X158274Y52702D01*
X158756Y52626D01*
X169543D02*
X170031Y52703D01*
X170471Y52928D01*
X170819Y53278D01*
X171042Y53719D01*
X171118Y54201D01*
Y59201D02*
X171041Y59689D01*
X170816Y60128D01*
X170466Y60477D01*
X170026Y60700D01*
X169543Y60776D01*
X102543Y15626D02*
X103031Y15703D01*
X103471Y15928D01*
X103819Y16278D01*
X104042Y16719D01*
X104118Y17201D01*
Y22201D02*
X104041Y22689D01*
X103816Y23128D01*
X103466Y23477D01*
X103026Y23700D01*
X102543Y23776D01*
X91756D02*
X91268Y23698D01*
X90828Y23473D01*
X90480Y23124D01*
X90257Y22683D01*
X90181Y22201D01*
Y17201D02*
X90259Y16713D01*
X90483Y16273D01*
X90833Y15925D01*
X91274Y15702D01*
X91756Y15626D01*
X105252Y70776D02*
X104764Y70698D01*
X104324Y70474D01*
X103976Y70124D01*
X103753Y69683D01*
X103677Y69201D01*
Y64201D02*
X103755Y63713D01*
X103979Y63273D01*
X104329Y62925D01*
X104770Y62702D01*
X105252Y62626D01*
X116039D02*
X116527Y62703D01*
X116967Y62928D01*
X117315Y63278D01*
X117539Y63719D01*
X117614Y64201D01*
Y69201D02*
X117537Y69689D01*
X117312Y70128D01*
X116962Y70477D01*
X116522Y70700D01*
X116039Y70776D01*
X77075Y96307D02*
X77152Y95819D01*
X77377Y95380D01*
X77727Y95031D01*
X78167Y94808D01*
X78650Y94732D01*
X83650D02*
X84137Y94810D01*
X84577Y95034D01*
X84926Y95384D01*
X85149Y95825D01*
X85224Y96307D01*
Y107094D02*
X85147Y107582D01*
X84922Y108022D01*
X84572Y108371D01*
X84132Y108594D01*
X83650Y108669D01*
X78650D02*
X78162Y108592D01*
X77722Y108367D01*
X77374Y108017D01*
X77150Y107577D01*
X77075Y107094D01*
X205224Y31094D02*
X205147Y31582D01*
X204922Y32022D01*
X204572Y32371D01*
X204132Y32594D01*
X203650Y32669D01*
X198650D02*
X198162Y32592D01*
X197722Y32367D01*
X197374Y32017D01*
X197150Y31577D01*
X197075Y31094D01*
Y20307D02*
X197152Y19819D01*
X197377Y19380D01*
X197727Y19031D01*
X198167Y18808D01*
X198650Y18732D01*
X203650D02*
X204137Y18810D01*
X204577Y19034D01*
X204926Y19384D01*
X205149Y19825D01*
X205224Y20307D01*
X235075Y17307D02*
X235152Y16819D01*
X235377Y16380D01*
X235727Y16031D01*
X236167Y15808D01*
X236650Y15732D01*
X241650D02*
X242137Y15810D01*
X242577Y16034D01*
X242926Y16384D01*
X243149Y16825D01*
X243224Y17307D01*
Y28094D02*
X243147Y28582D01*
X242922Y29022D01*
X242572Y29371D01*
X242132Y29594D01*
X241650Y29669D01*
X236650D02*
X236162Y29592D01*
X235722Y29367D01*
X235374Y29017D01*
X235150Y28577D01*
X235075Y28094D01*
G54D10*
X141798Y12319D02*
Y9770D01*
X141676Y9291D01*
X141554Y9132D01*
X141310Y8973D01*
X141066D01*
X140823Y9132D01*
X140701Y9291D01*
X140579Y9770D01*
Y10088D01*
X143607Y12319D02*
Y8973D01*
Y12319D02*
X144703D01*
X145069Y12160D01*
X145191Y12000D01*
X145313Y11682D01*
Y11204D01*
X145191Y10885D01*
X145069Y10726D01*
X144703Y10566D01*
X143607D01*
X146513Y10407D02*
X148706D01*
X150028Y11522D02*
Y11682D01*
X150150Y12000D01*
X150271Y12160D01*
X150515Y12319D01*
X151003D01*
X151246Y12160D01*
X151368Y12000D01*
X151490Y11682D01*
Y11363D01*
X151368Y11044D01*
X151124Y10566D01*
X149906Y8973D01*
X151612D01*
X152690Y12319D02*
X153299Y8973D01*
X153909Y12319D02*
X153299Y8973D01*
X153909Y12319D02*
X154518Y8973D01*
X155127Y12319D02*
X154518Y8973D01*
X156814Y12319D02*
X156449Y12160D01*
X156327Y11841D01*
Y11522D01*
X156449Y11204D01*
X156693Y11044D01*
X157180Y10885D01*
X157546Y10726D01*
X157789Y10407D01*
X157911Y10088D01*
Y9610D01*
X157789Y9291D01*
X157667Y9132D01*
X157302Y8973D01*
X156814D01*
X156449Y9132D01*
X156327Y9291D01*
X156205Y9610D01*
Y10088D01*
X156327Y10407D01*
X156571Y10726D01*
X156936Y10885D01*
X157424Y11044D01*
X157667Y11204D01*
X157789Y11522D01*
Y11841D01*
X157667Y12160D01*
X157302Y12319D01*
X156814D01*
X159720Y11682D02*
X159964Y11841D01*
X160330Y12319D01*
Y8973D01*
X164089Y11204D02*
X163967Y10726D01*
X163723Y10407D01*
X163357Y10248D01*
X163235D01*
X162870Y10407D01*
X162626Y10726D01*
X162504Y11204D01*
Y11363D01*
X162626Y11841D01*
X162870Y12160D01*
X163235Y12319D01*
X163357D01*
X163723Y12160D01*
X163967Y11841D01*
X164089Y11204D01*
Y10407D01*
X163967Y9610D01*
X163723Y9132D01*
X163357Y8973D01*
X163114D01*
X162748Y9132D01*
X162626Y9451D01*
X167360Y12319D02*
X166141Y8973D01*
X165654Y12319D02*
X167360D01*
X170388Y11841D02*
X170266Y12160D01*
X169900Y12319D01*
X169657D01*
X169291Y12160D01*
X169047Y11682D01*
X168925Y10885D01*
Y10088D01*
X169047Y9451D01*
X169291Y9132D01*
X169657Y8973D01*
X169778D01*
X170144Y9132D01*
X170388Y9451D01*
X170510Y9929D01*
Y10088D01*
X170388Y10566D01*
X170144Y10885D01*
X169778Y11044D01*
X169657D01*
X169291Y10885D01*
X169047Y10566D01*
X168925Y10088D01*
X173537Y11841D02*
X173415Y12160D01*
X173050Y12319D01*
X172806D01*
X172441Y12160D01*
X172197Y11682D01*
X172075Y10885D01*
Y10088D01*
X172197Y9451D01*
X172441Y9132D01*
X172806Y8973D01*
X172928D01*
X173294Y9132D01*
X173537Y9451D01*
X173659Y9929D01*
Y10088D01*
X173537Y10566D01*
X173294Y10885D01*
X172928Y11044D01*
X172806D01*
X172441Y10885D01*
X172197Y10566D01*
X172075Y10088D01*
%LPC*%
X172075Y10088D02*
G54D15*
X220150Y45157D02*
X221028Y45070D01*
X221873Y44814D01*
X222651Y44398D01*
X223334Y43838D01*
X223894Y43155D01*
X224310Y42377D01*
X224566Y41532D01*
X224631Y40874D01*
Y34528D01*
X224566Y33869D01*
X224310Y33025D01*
X223894Y32246D01*
X223334Y31564D01*
X222651Y31004D01*
X222131Y30721D01*
X222127Y30718D01*
X222072Y30572D01*
Y25402D01*
X222044Y25119D01*
X221934Y24757D01*
X221756Y24423D01*
X221516Y24130D01*
X221223Y23890D01*
X220889Y23711D01*
X220527Y23601D01*
X220150Y23564D01*
X219773Y23601D01*
X219410Y23711D01*
X219076Y23890D01*
X218784Y24130D01*
X218543Y24423D01*
X218365Y24757D01*
X218255Y25119D01*
X218227Y25402D01*
X218223Y30629D01*
X218222Y30634D01*
X218222D02*
X218119Y30752D01*
X218119D02*
X217648Y31004D01*
X216965Y31564D01*
X216405Y32246D01*
X215989Y33025D01*
X215733Y33869D01*
X215668Y34528D01*
Y40874D01*
X215733Y41532D01*
X215989Y42377D01*
X216405Y43155D01*
X216965Y43838D01*
X217648Y44398D01*
X218426Y44814D01*
X219271Y45070D01*
X220150Y45157D01*
G54D16*
X215718Y34525D02*
X224581D01*
X215718Y34525D02*
X224581D01*
X215718Y40876D02*
X224581D01*
X215787Y41542D02*
X224513D01*
X215787Y33860D02*
X224513D01*
X215787Y33860D02*
X224513D01*
X215787Y41542D02*
X224513D01*
X216054Y42396D02*
X224245D01*
X216054Y33006D02*
X224245D01*
X216054Y42396D02*
X224245D01*
X216491Y43183D02*
X223808D01*
X216054Y33005D02*
X224245D01*
X216491Y32218D02*
X223808D01*
X216491Y43183D02*
X223808D01*
X216491Y32218D02*
X223808D01*
X217085Y43873D02*
X223214D01*
X217085Y43873D02*
X223214D01*
X217085Y31528D02*
X223214D01*
X217085Y31528D02*
X223214D01*
X217829Y44440D02*
X222471D01*
X217829Y44440D02*
X222471D01*
X217829Y30962D02*
X222473D01*
X217829Y30962D02*
X222473D01*
X218746Y44860D02*
X221553D01*
X218246Y30706D02*
X222053D01*
X218259Y30680D02*
X222039D01*
X218273Y30624D02*
X222024D01*
X218273Y30596D02*
X222020D01*
X218273Y30576D02*
X222022D01*
X218277Y25399D02*
X222022D01*
X218309Y25109D02*
X221991D01*
X218309Y25109D02*
X221991D01*
X218430Y24738D02*
X221869D01*
X218430Y24738D02*
X221869D01*
X218629Y24395D02*
X221670D01*
X218629Y24395D02*
X221670D01*
X218903Y24095D02*
X221396D01*
X218903Y24095D02*
X221396D01*
X219257Y23848D02*
X221042D01*
X219257Y23848D02*
X221042D01*
X219730Y23665D02*
X220569D01*
X219730Y23665D02*
X220569D01*
X215774Y33960D02*
X224525D01*
X215759Y34115D02*
X224540D01*
X215744Y34270D02*
X224555D01*
X215728Y34425D02*
X224571D01*
X215783Y33869D02*
X215718Y34530D01*
X224582Y34535D02*
X224517Y33879D01*
G54D18*
X217218Y36125D02*
X223081D01*
X217218Y39276D02*
X223081D01*
G54D16*
X215728Y40976D02*
X224571D01*
X215744Y41131D02*
X224555D01*
X215759Y41287D02*
X224540D01*
X215774Y41442D02*
X224525D01*
X215718Y40871D02*
X215782Y41522D01*
X224516Y41532D02*
X224581Y40871D01*
G54D19*
X216091Y33206D02*
X224208D01*
X216022Y33433D02*
X224277D01*
X215953Y33660D02*
X224346D01*
G54D16*
X216036Y33044D02*
X215782Y33879D01*
X224520Y33889D02*
X224261Y33035D01*
G54D19*
X216128Y33082D02*
X215881Y33899D01*
X224346Y33660D02*
X224208Y33206D01*
X215953Y41742D02*
X224346D01*
X216022Y41969D02*
X224277D01*
X216091Y42196D02*
X224208D01*
G54D16*
X215779Y41513D02*
X216038Y42367D01*
X224264Y42358D02*
X224517Y41522D01*
G54D19*
X215953Y41742D02*
X216091Y42196D01*
X224171Y42319D02*
X224418Y41503D01*
G54D16*
X216110Y42496D02*
X224190D01*
X216188Y42643D02*
X224111D01*
X216267Y42790D02*
X224033D01*
X216345Y42936D02*
X223954D01*
X216424Y43083D02*
X223876D01*
X216036Y42358D02*
X216447Y43127D01*
X223847Y43136D02*
X224268Y42349D01*
X216423Y32318D02*
X223876D01*
X216345Y32465D02*
X223954D01*
X216267Y32612D02*
X224033D01*
X216188Y32759D02*
X224111D01*
X216110Y32905D02*
X224190D01*
X216447Y32274D02*
X216031Y33053D01*
X224264Y33044D02*
X223847Y32265D01*
X216977Y31628D02*
X223322D01*
X216843Y31792D02*
X223456D01*
X216709Y31955D02*
X223590D01*
X216575Y32118D02*
X223724D01*
X217001Y31599D02*
X216441Y32282D01*
X223852Y32274D02*
X223292Y31592D01*
X216575Y43283D02*
X223724D01*
X216709Y43447D02*
X223590D01*
X216843Y43610D02*
X223456D01*
X216977Y43773D02*
X223322D01*
X216441Y43120D02*
X217007Y43810D01*
X223298Y43802D02*
X223852Y43127D01*
X217656Y31062D02*
X222644D01*
X217507Y31184D02*
X222792D01*
X217358Y31306D02*
X222941D01*
X217209Y31428D02*
X223090D01*
X217683Y31039D02*
X216993Y31606D01*
X223298Y31599D02*
X222623Y31045D01*
X217209Y43973D02*
X223090D01*
X217358Y44095D02*
X222941D01*
X217507Y44218D02*
X222792D01*
X217656Y44340D02*
X222644D01*
X217001Y43802D02*
X217676Y44356D01*
X222616Y44362D02*
X223306Y43796D01*
X218125Y30806D02*
X222182D01*
X218019Y30862D02*
X222285D01*
X218140Y30797D02*
X217676Y31046D01*
X222632Y31050D02*
X222159Y30793D01*
X218019Y44540D02*
X222280D01*
X218226Y44650D02*
X222074D01*
X218432Y44760D02*
X221867D01*
X217667Y44351D02*
X218446Y44768D01*
X221854D02*
X222624Y44356D01*
X218213Y30751D02*
X218140Y30797D01*
X222159Y30793D02*
X222104Y30764D01*
X218273Y30633D02*
X218213Y30751D01*
X222104Y30764D02*
X222027Y30649D01*
X218273Y30596D02*
X218273Y30633D01*
X222027Y30649D02*
X222020Y30596D01*
X218273Y30576D02*
X218273Y30596D01*
X222020Y30596D02*
X222022Y30568D01*
G54D20*
X218977Y26199D02*
X221322D01*
X218976Y27392D02*
X221322D01*
X218975Y28584D02*
X221322D01*
X218974Y29776D02*
X221322D01*
G54D16*
X218277Y25404D02*
X218273Y30576D01*
X222022Y30568D02*
Y25404D01*
G54D20*
X218977Y25439D02*
X218973Y30577D01*
X221322Y30538D02*
Y25439D01*
G54D16*
X218296Y25209D02*
X222003D01*
X218288Y25299D02*
X222012D01*
X218304Y25129D02*
X218277Y25404D01*
X222022Y25404D02*
X221994Y25119D01*
X218393Y24838D02*
X221907D01*
X218341Y25009D02*
X221959D01*
X218414Y24767D02*
X218301Y25138D01*
X221995Y25129D02*
X221888Y24776D01*
X218562Y24495D02*
X221738D01*
X218485Y24638D02*
X221814D01*
X218585Y24451D02*
X218411Y24776D01*
X221893Y24785D02*
X221709Y24442D01*
X219081Y44960D02*
X221218D01*
X219276Y45019D02*
X221023D01*
X218446Y44768D02*
X219281Y45021D01*
X221018D02*
X221854Y44768D01*
X218795Y24195D02*
X221504D01*
X218713Y24295D02*
X221586D01*
X218819Y24166D02*
X218579Y24458D01*
X221714Y24451D02*
X221474Y24158D01*
X219084Y23948D02*
X221215D01*
X219028Y23995D02*
X221272D01*
X219104Y23932D02*
X218812Y24172D01*
X221480Y24166D02*
X221187Y23925D01*
X219432Y23757D02*
X220867D01*
X219438Y23753D02*
X219096Y23936D01*
X221195Y23932D02*
X220870Y23758D01*
X219281Y45021D02*
X220150Y45106D01*
X221018Y45021D01*
X219782Y23651D02*
X219430Y23758D01*
X220879Y23761D02*
X220507Y23648D01*
X220150Y23615D02*
X219773Y23652D01*
X220517Y23651D02*
X220150Y23615D01*
X215819Y33760D02*
X224481D01*
X224282Y33106D02*
X216017D01*
X224481Y41642D02*
X215819D01*
X216017Y42296D02*
X224282D01*
G54D15*
X241107Y108044D02*
X283493Y108044D01*
X283493Y92357D01*
X281007Y92357D01*
X279007Y94357D01*
X232806D01*
X232806Y105969D01*
X241107Y108044D01*
G54D16*
X233162Y106008D02*
X283443D01*
X279126Y94307D02*
X283443D01*
G54D21*
X234356Y95907D02*
X281943D01*
X234356Y98741D02*
X281943D01*
X234356Y101574D02*
X281943D01*
X234356Y104408D02*
X281943D01*
G54D16*
X232856Y94407D02*
X232856Y105930D01*
X283443Y106008D02*
X283443Y94307D01*
G54D21*
X234356Y95907D02*
X234356Y104759D01*
X281943Y106008D02*
X281943Y94307D01*
G54D16*
X279028Y94407D02*
X232856D01*
G54D22*
X236005Y106408D02*
X283143D01*
X238578Y107051D02*
X283143D01*
X241150Y107694D02*
X283143D01*
G54D16*
X232856Y105930D02*
X241125Y107997D01*
X283443Y107994D02*
X283443Y106008D01*
G54D22*
X233156Y105696D02*
X241150Y107694D01*
X283143D02*
X283143Y106008D01*
G54D16*
X241113Y107994D02*
X283443Y107994D01*
G54D22*
X281152Y92707D02*
X283143D01*
X280552Y93307D02*
X283143D01*
X279952Y93907D02*
X283143D01*
G54D16*
X281028Y92407D02*
X279028Y94407D01*
X283443Y94307D02*
X283443Y92406D01*
G54D22*
X281152Y92707D02*
X279152Y94707D01*
X283143Y94307D02*
X283143Y92707D01*
G54D16*
X283443Y92407D02*
X281028Y92407D01*
X232856Y105908D02*
X283443D01*
G54D19*
X232956Y105808D02*
X283343D01*
X232956Y94507D02*
X232956Y105808D01*
G54D22*
X233156Y105608D02*
X283143D01*
X233156Y94707D02*
X233156Y105608D01*
G54D20*
X233556Y105208D02*
X282743D01*
X233556Y95107D02*
X233556Y105208D01*
G54D16*
X283443Y94407D02*
X278987D01*
G54D19*
Y94507D02*
X232956D01*
X283343D02*
X278987D01*
G54D22*
Y94707D02*
X233156D01*
X283143D02*
X278987D01*
G54D20*
Y95107D02*
X233556D01*
X282743D02*
X278987D01*
G54D16*
X241113Y107994D02*
X283443D01*
G54D19*
X241125Y107894D02*
X283343D01*
X234381Y106208D02*
X241125Y107894D01*
X283343D02*
X283343Y106208D01*
G54D16*
X283443Y92407D02*
X281028D01*
G54D19*
X283343Y92507D02*
X281069D01*
X283343Y94107D02*
X283343Y92507D01*
X281069D02*
X279469Y94107D01*
G54D15*
X274331Y92379D02*
X275020Y92311D01*
X275251Y92241D01*
X278150D01*
X278420Y92169D01*
X278618Y91971D01*
X278690Y91701D01*
Y88693D01*
X278713Y88618D01*
X278803Y87701D01*
X278713Y86784D01*
X278690Y86708D01*
Y82701D01*
X278637Y82467D01*
X278489Y82280D01*
X243489Y54280D01*
D03*
X243489Y54280D02*
X243329Y54191D01*
X243150Y54160D01*
X243150Y54160D02*
X242153D01*
X242139Y54147D01*
X242139Y54147D02*
X241526Y53672D01*
X240838Y53315D01*
X240096Y53088D01*
X239326Y52999D01*
X239326Y52999D02*
X234968Y52999D01*
Y52999D02*
X234199Y53089D01*
X233459Y53316D01*
X232772Y53673D01*
X232160Y54147D01*
Y54147D02*
X232146Y54160D01*
X231150D01*
X230879Y54233D01*
X230681Y54431D01*
X230609Y54701D01*
Y90701D01*
X230609Y90701D02*
X230650Y90907D01*
X230766Y91081D01*
X230766Y91081D02*
X231766Y92081D01*
X231942Y92200D01*
X232150Y92241D01*
X267049D01*
X267295Y92316D01*
X274331Y92379D01*
G54D16*
X230659Y82238D02*
X278359D01*
X230659Y54701D02*
X243937D01*
X230659Y82701D02*
X278640D01*
X230659Y86701D02*
X278640D01*
X230659Y86774D02*
X278659D01*
X230659Y87701D02*
X278754D01*
X230659Y88628D02*
X278659D01*
X230659Y88701D02*
X278640D01*
X230659Y90701D02*
X278640D01*
X230873Y91120D02*
X278640D01*
X231454Y91701D02*
X278640D01*
X230975Y54241D02*
X243325D01*
X231886Y92117D02*
X278413D01*
X269943Y92291D02*
X274729D01*
X232273Y54110D02*
X242027D01*
G54D23*
X236959Y61101D02*
X241850D01*
X236959Y68470D02*
X251061D01*
X236959Y75838D02*
X260272D01*
G54D16*
X230659Y54701D02*
Y82238D01*
X278455Y82317D02*
X244032Y54779D01*
G54D23*
X236959Y61101D02*
Y82238D01*
X260272Y75838D02*
X241850Y61101D01*
G54D16*
X230816Y54341D02*
X243485D01*
X230716Y54471D02*
X243647D01*
X230669Y54601D02*
X243810D01*
X230842Y54319D02*
X230707Y54489D01*
X230659Y54701D01*
X244032Y54779D02*
X243457Y54319D01*
X230659Y82338D02*
X278480D01*
X230659Y82470D02*
X278582D01*
X230659Y82601D02*
X278630D01*
X230659Y82238D02*
Y82701D01*
X278640Y82701D02*
X278591Y82488D01*
X278455Y82317D01*
G54D18*
X232159Y84301D02*
X277140D01*
X232159Y85101D02*
X277140D01*
G54D16*
X230659Y86701D02*
Y86774D01*
X278664Y86793D02*
X278640Y86716D01*
G54D19*
X230759Y86974D02*
X278581D01*
X230759Y87237D02*
X278607D01*
X230759Y87501D02*
X278633D01*
G54D16*
X230659Y86774D02*
Y87701D01*
X278753D02*
X278664Y86793D01*
G54D19*
X230759Y86774D02*
Y87701D01*
X278653D02*
X278565Y86813D01*
X230759Y87901D02*
X278633D01*
X230759Y88164D02*
X278607D01*
X230759Y88428D02*
X278581D01*
G54D16*
X230659Y87701D02*
Y88628D01*
X278664Y88608D02*
X278753Y87701D01*
G54D19*
X230759D02*
Y88628D01*
X278565Y88588D02*
X278653Y87701D01*
G54D16*
X230659Y88628D02*
Y88701D01*
X278640Y88686D02*
X278664Y88608D01*
G54D24*
X231359Y89501D02*
X277940D01*
X231359Y89901D02*
X277940D01*
G54D16*
X230669Y90801D02*
X278640D01*
X230706Y90910D02*
X278640D01*
X230777Y91020D02*
X278640D01*
X230659Y90701D02*
X230697Y90890D01*
X230804Y91049D01*
X278640Y91120D02*
Y90701D01*
X230975Y91220D02*
X278640D01*
X231102Y91347D02*
X278640D01*
X231229Y91474D02*
X278640D01*
X231356Y91601D02*
X278640D01*
X230804Y91049D02*
X231385Y91630D01*
X278640Y91701D02*
Y91120D01*
X231150Y54210D02*
X230986Y54238D01*
X230842Y54319D01*
X243457Y54319D02*
X243313Y54238D01*
X243150Y54210D01*
X243150Y54210D02*
X242133D01*
X232166D02*
X231150D01*
X231556Y91801D02*
X278630D01*
X231664Y91909D02*
X278594D01*
X231772Y92017D02*
X278525D01*
X231385Y91630D02*
X231801Y92046D01*
X278498Y92046D02*
X278603Y91888D01*
X278640Y91701D01*
G54D15*
X231875Y92167D02*
X278424D01*
X232150Y92241D02*
X278150D01*
G54D16*
X231801Y92046D02*
X231961Y92154D01*
X232150Y92191D01*
X278150D02*
X278338Y92154D01*
X278498Y92046D01*
X232150Y92191D02*
X267056D01*
X275243D02*
X278150D01*
G54D19*
X234970Y53149D02*
X239329D01*
X233650Y53403D02*
X240649D01*
X233093Y53656D02*
X241206D01*
X232688Y53910D02*
X241612D01*
G54D16*
X234969Y53049D02*
X234200Y53140D01*
X233460Y53370D01*
X232774Y53731D01*
X232166Y54210D01*
X242133Y54210D02*
X241525Y53730D01*
X240839Y53370D01*
X240099Y53140D01*
X239329Y53049D01*
G54D19*
X234970Y53149D02*
X234210Y53240D01*
X233479Y53470D01*
X232803Y53831D01*
X232206Y54310D01*
X242093D02*
X241495Y53831D01*
X240819Y53470D01*
X240088Y53240D01*
X239327Y53149D01*
G54D16*
X239325Y53049D02*
X234969Y53049D01*
X239329Y53049D02*
X239325Y53049D01*
X267056Y92191D02*
X267299Y92265D01*
X275010Y92262D02*
X275243Y92191D01*
X267299Y92265D02*
X267302Y92266D01*
X274967Y92266D02*
X275010Y92262D01*
X267302Y92266D02*
X274328Y92329D01*
X274967Y92266D01*
X244060Y54801D02*
X230659D01*
G54D19*
X230759Y54901D02*
Y82038D01*
X244025Y54901D02*
X230759D01*
G54D22*
X230959Y55101D02*
Y81838D01*
X243955Y55101D02*
X230959D01*
G54D20*
X231359Y55501D02*
Y81438D01*
X243814Y55501D02*
X231359D01*
G54D21*
X232159Y56301D02*
Y80638D01*
X243534Y56301D02*
X232159D01*
G54D25*
X233759Y57901D02*
Y79038D01*
X242972Y57901D02*
X233759D01*
G54D16*
X230659Y82138D02*
X278232D01*
G54D19*
X277947Y82038D02*
X244025Y54901D01*
X230759Y82038D02*
X277947D01*
G54D22*
X277377Y81838D02*
X243955Y55101D01*
X230959Y81838D02*
X277377D01*
G54D20*
X276236Y81438D02*
X243814Y55501D01*
X231359Y81438D02*
X276236D01*
G54D21*
X273956Y80638D02*
X243534Y56301D01*
X232159Y80638D02*
X273956D01*
G54D25*
X269395Y79038D02*
X242972Y57901D01*
X233759Y79038D02*
X269395D01*
G54D16*
X239330Y53049D02*
X234969D01*
G54D15*
X245149Y188241D02*
X245321Y188213D01*
X245476Y188132D01*
Y188132D02*
X278476Y163132D01*
X278476D02*
X278634Y162941D01*
X278690Y162700D01*
X278690D02*
Y151701D01*
X278649Y151495D01*
X278534Y151320D01*
X276534Y149320D01*
X276533Y149320D02*
X276358Y149202D01*
X276150Y149160D01*
X276150Y149160D02*
X234150D01*
X233979Y149188D01*
X233825Y149268D01*
X229825Y152268D01*
X229666Y152459D01*
X229609Y152701D01*
Y184701D01*
X229609Y184701D02*
X229650Y184907D01*
X229766Y185081D01*
X229766Y185081D02*
X232766Y188081D01*
X232942Y188200D01*
X233150Y188241D01*
X245149D01*
G54D16*
X229659Y152701D02*
X278640D01*
X229659Y162700D02*
X278640D01*
X229659Y162701D02*
X278640D01*
X229659Y163172D02*
X278343D01*
X229659Y184701D02*
X249925D01*
X229873Y185120D02*
X249371D01*
X232886Y188117D02*
X245413D01*
X229959Y152228D02*
X278640D01*
X230663Y151701D02*
X278640D01*
X231222Y151281D02*
X278426D01*
X233006Y188172D02*
X245293D01*
X233886Y149285D02*
X276413D01*
X234012Y149228D02*
X276287D01*
X229830Y152328D02*
X278640D01*
X229720Y152465D02*
X278640D01*
X229669Y152601D02*
X278640D01*
X229855Y152308D02*
X229711Y152481D01*
X229659Y152701D01*
X278640D02*
Y152228D01*
G54D26*
X232759Y155901D02*
X275540D01*
X232759Y159500D02*
X275540D01*
G54D16*
X229659Y162700D02*
Y162701D01*
X278640D02*
Y162700D01*
X229659Y162801D02*
X278630D01*
X229659Y162936D02*
X278580D01*
X229659Y163072D02*
X278471D01*
X229659Y162701D02*
Y163172D01*
X278446Y163092D02*
X278589Y162919D01*
X278640Y162701D01*
G54D25*
X232759Y166372D02*
X268983D01*
X232759Y171415D02*
X262326D01*
X232759Y176458D02*
X255669D01*
X232759Y181501D02*
X249012D01*
G54D16*
X229659Y163172D02*
Y184701D01*
X250027Y184621D02*
X278446Y163092D01*
G54D25*
X232759Y163172D02*
Y181501D01*
X248155Y182150D02*
X268983Y166372D01*
G54D16*
X229669Y184801D02*
X249790D01*
X229706Y184910D02*
X249645D01*
X229777Y185020D02*
X249500D01*
X229659Y184701D02*
X229697Y184890D01*
X229804Y185049D01*
X249474Y185040D02*
X250027Y184621D01*
G54D22*
X230700Y185520D02*
X248344D01*
X231432Y186252D02*
X247377D01*
X232164Y186984D02*
X246411D01*
X232896Y187717D02*
X245444D01*
G54D16*
X229804Y185049D02*
X232801Y188046D01*
X245518Y188037D02*
X249474Y185040D01*
G54D22*
X230016Y184837D02*
X233014Y187834D01*
X245337Y187798D02*
X249292Y184801D01*
G54D16*
X230532Y151801D02*
X278640D01*
X230314Y151965D02*
X278640D01*
X230095Y152128D02*
X278640D01*
X230559Y151781D02*
X229855Y152308D01*
X278640Y152228D02*
Y151701D01*
X231091Y151381D02*
X278522D01*
X230945Y151491D02*
X278593D01*
X230799Y151601D02*
X278630D01*
X231118Y151361D02*
X230559Y151781D01*
X278640Y151701D02*
X278602Y151512D01*
X278495Y151352D01*
G54D22*
X233853Y149685D02*
X276403D01*
X233055Y150283D02*
X277001D01*
X232258Y150881D02*
X277600D01*
G54D16*
X233780Y149365D02*
X231118Y151361D01*
X278495Y151352D02*
X276498Y149356D01*
G54D22*
X233960Y149605D02*
X231298Y151601D01*
X278283Y151565D02*
X276285Y149567D01*
G54D16*
X232801Y188046D02*
X232853Y188092D01*
X245446Y188092D02*
X245518Y188037D01*
X232853Y188092D02*
X232993Y188166D01*
X233150Y188191D01*
X245150Y188191D02*
X245306Y188166D01*
X245446Y188092D01*
X233150Y188191D02*
X245149D01*
X233855Y149308D02*
X233780Y149365D01*
X276498Y149356D02*
X276444Y149308D01*
X234150Y149210D02*
X233994Y149235D01*
X233855Y149308D01*
X276444D02*
X276305Y149235D01*
X276150Y149210D01*
X234150D01*
X229659Y184601D02*
X250054D01*
G54D19*
X229759Y184501D02*
X250020D01*
X229759Y163372D02*
Y184501D01*
G54D22*
X229959Y184301D02*
X249953D01*
X229959Y163572D02*
Y184301D01*
G54D20*
X230359Y183901D02*
X249819D01*
X230359Y163972D02*
Y183901D01*
G54D21*
X231159Y183101D02*
X249550D01*
X231159Y164772D02*
Y183101D01*
G54D16*
X278209Y163272D02*
X229659D01*
G54D19*
X277911Y163372D02*
X229759D01*
X250020Y184501D02*
X277911Y163372D01*
G54D22*
X277316Y163572D02*
X229959D01*
X249953Y184301D02*
X277316Y163572D01*
G54D20*
X276125Y163972D02*
X230359D01*
X249819Y183901D02*
X276125Y163972D01*
G54D21*
X273745Y164772D02*
X231159D01*
X249550Y183101D02*
X273745Y164772D01*
G54D15*
X239338Y91489D02*
X239997Y91425D01*
X240841Y91168D01*
X241620Y90752D01*
X242302Y90192D01*
X242862Y89510D01*
X243279Y88731D01*
X243535Y87886D01*
X243621Y87008D01*
X243535Y86129D01*
X243278Y85285D01*
X242862Y84506D01*
X242302Y83824D01*
X241620Y83264D01*
X240841Y82847D01*
X239997Y82591D01*
X239338Y82526D01*
X234961D01*
X234302Y82591D01*
X233458Y82847D01*
X232679Y83264D01*
X231997Y83824D01*
X231437Y84506D01*
X231021Y85285D01*
X230764Y86129D01*
X230678Y87008D01*
X230764Y87886D01*
X231021Y88731D01*
X231437Y89510D01*
X231997Y90192D01*
X232679Y90752D01*
X233458Y91168D01*
X234303Y91425D01*
X234961Y91489D01*
X239338D01*
G54D16*
X230728Y87008D02*
X243572D01*
X230818Y87896D02*
X243481D01*
X230818Y86120D02*
X243481D01*
X230818Y86120D02*
X243481D01*
X230818Y87896D02*
X243481D01*
X231086Y88750D02*
X243213D01*
X231522Y89538D02*
X242777D01*
X231086Y85265D02*
X243213D01*
X231086Y85265D02*
X243213D01*
X231522Y84478D02*
X242777D01*
X231522Y84478D02*
X242777D01*
X231522Y89538D02*
X242777D01*
X232116Y90228D02*
X242183D01*
X232117Y90228D02*
X242183D01*
X232117Y83788D02*
X242183D01*
X232117Y83788D02*
X242183D01*
X232860Y90794D02*
X241439D01*
X232860Y90794D02*
X241439D01*
X232860Y83222D02*
X241439D01*
X233778Y91215D02*
X240522D01*
X232860Y83222D02*
X241439D01*
X233778Y91215D02*
X240521D01*
X233778Y82801D02*
X240522D01*
X233778Y82801D02*
X240521D01*
G54D19*
X230896Y86320D02*
X243403D01*
X230872Y86564D02*
X243427D01*
X230848Y86808D02*
X243451D01*
G54D16*
X230815Y86129D02*
X230728Y87008D01*
X243571D02*
X243485Y86139D01*
G54D19*
X230896Y86320D02*
X230829Y87008D01*
X243471D02*
X243387Y86159D01*
X230848Y87208D02*
X243451D01*
X230872Y87452D02*
X243427D01*
X230896Y87696D02*
X243403D01*
G54D16*
X230728Y87008D02*
X230815Y87886D01*
X243485Y87877D02*
X243571Y87008D01*
G54D19*
X230829D02*
X230896Y87696D01*
X243387Y87857D02*
X243471Y87008D01*
X231123Y85465D02*
X243177D01*
X231054Y85692D02*
X243245D01*
X230985Y85920D02*
X243314D01*
G54D16*
X231067Y85304D02*
X230814Y86139D01*
X243488Y86149D02*
X243229Y85294D01*
G54D19*
X231160Y85342D02*
X230912Y86159D01*
X243314Y85920D02*
X243177Y85465D01*
X230985Y88096D02*
X243314D01*
X231054Y88323D02*
X243245D01*
X231123Y88550D02*
X243177D01*
G54D16*
X230814Y87877D02*
X231067Y88712D01*
X243232D02*
X243488Y87867D01*
G54D19*
X230912Y87857D02*
X231160Y88673D01*
X243139D02*
X243314Y88096D01*
G54D16*
X231141Y88850D02*
X243158D01*
X231220Y88997D02*
X243080D01*
X231298Y89144D02*
X243001D01*
X231377Y89291D02*
X242923D01*
X231455Y89438D02*
X242844D01*
X231067Y88712D02*
X231479Y89482D01*
X242816Y89490D02*
X243232Y88712D01*
X231455Y84578D02*
X242844D01*
X231377Y84725D02*
X242923D01*
X231298Y84872D02*
X243001D01*
X231220Y85019D02*
X243080D01*
X231141Y85165D02*
X243158D01*
X231479Y84534D02*
X231063Y85312D01*
X243232Y85304D02*
X242816Y84525D01*
X232009Y83888D02*
X242291D01*
X231875Y84051D02*
X242425D01*
X231741Y84215D02*
X242559D01*
X231606Y84378D02*
X242693D01*
X232032Y83859D02*
X231472Y84542D01*
X242821Y84534D02*
X242261Y83852D01*
X231607Y89638D02*
X242693D01*
X231741Y89801D02*
X242559D01*
X231875Y89964D02*
X242425D01*
X232009Y90128D02*
X242291D01*
X231472Y89474D02*
X232039Y90164D01*
X242267Y90157D02*
X242821Y89482D01*
X232687Y83322D02*
X241612D01*
X232538Y83444D02*
X241761D01*
X232390Y83566D02*
X241910D01*
X232241Y83688D02*
X242058D01*
X232707Y83305D02*
X232025Y83865D01*
X242267Y83859D02*
X241584Y83299D01*
X232241Y90328D02*
X242058D01*
X232390Y90450D02*
X241910D01*
X232538Y90572D02*
X241761D01*
X232687Y90694D02*
X241612D01*
X232032Y90157D02*
X232707Y90710D01*
X241584Y90717D02*
X242274Y90150D01*
X233051Y90894D02*
X241249D01*
X233257Y91004D02*
X241042D01*
X233464Y91115D02*
X240836D01*
X232699Y90706D02*
X233486Y91126D01*
X240822Y91122D02*
X241592Y90710D01*
X233464Y82901D02*
X240836D01*
X233257Y83011D02*
X241042D01*
X233051Y83122D02*
X241249D01*
X233486Y82889D02*
X232699Y83310D01*
X241592Y83305D02*
X240822Y82894D01*
X234308Y82642D02*
X239992D01*
X234113Y82701D02*
X240186D01*
X234312Y82641D02*
X233477Y82894D01*
X240832Y82897D02*
X239977Y82638D01*
X234113Y91315D02*
X240186D01*
X234308Y91374D02*
X239992D01*
X233477Y91122D02*
X234312Y91375D01*
X239977Y91378D02*
X240832Y91119D01*
X234963Y82576D02*
X234303Y82641D01*
X239987Y82641D02*
X239336Y82576D01*
X234963D01*
X234303Y91374D02*
X234963Y91439D01*
X239336D02*
X239987Y91375D01*
X234963Y91439D02*
X239336D01*
X243493Y86220D02*
X230806D01*
X230806Y87796D02*
X243493D01*
X230850Y86020D02*
X243449D01*
X243251Y85365D02*
X231048D01*
X243449Y87996D02*
X230850D01*
G54D15*
X239338Y187946D02*
X239997Y187881D01*
X240841Y187625D01*
X241620Y187209D01*
X242302Y186649D01*
X242862Y185966D01*
X243279Y185188D01*
X243535Y184343D01*
X243621Y183465D01*
X243535Y182586D01*
X243278Y181741D01*
X242862Y180963D01*
X242302Y180280D01*
X241620Y179720D01*
X240841Y179304D01*
X239997Y179048D01*
X239338Y178983D01*
X234961D01*
X234302Y179048D01*
X233458Y179304D01*
X232679Y179720D01*
X231997Y180280D01*
X231437Y180963D01*
X231021Y181741D01*
X230764Y182586D01*
X230678Y183465D01*
X230764Y184343D01*
X231021Y185188D01*
X231437Y185966D01*
X231997Y186649D01*
X232679Y187209D01*
X233458Y187625D01*
X234303Y187881D01*
X234961Y187946D01*
X239338D01*
G54D16*
X230728Y183465D02*
X243572D01*
X230818Y184353D02*
X243481D01*
X230818Y182576D02*
X243481D01*
X230818Y182576D02*
X243481D01*
X230818Y184353D02*
X243481D01*
X231086Y185207D02*
X243213D01*
X231522Y185994D02*
X242777D01*
X231086Y181722D02*
X243213D01*
X231086Y181722D02*
X243213D01*
X231522Y180935D02*
X242777D01*
X231522Y180935D02*
X242777D01*
X231522Y185994D02*
X242777D01*
X232116Y186684D02*
X242183D01*
X232117Y186684D02*
X242183D01*
X232117Y180245D02*
X242183D01*
X232117Y180245D02*
X242183D01*
X232860Y187251D02*
X241439D01*
X232860Y187251D02*
X241439D01*
X232860Y179679D02*
X241439D01*
X233778Y187671D02*
X240522D01*
X232860Y179679D02*
X241439D01*
X233778Y187671D02*
X240521D01*
X233778Y179258D02*
X240522D01*
X233778Y179258D02*
X240521D01*
G54D19*
X230896Y182776D02*
X243403D01*
X230872Y183020D02*
X243427D01*
X230848Y183265D02*
X243451D01*
G54D16*
X230815Y182586D02*
X230728Y183465D01*
X243571D02*
X243485Y182596D01*
G54D19*
X230896Y182776D02*
X230829Y183465D01*
X243471D02*
X243387Y182615D01*
X230848Y183665D02*
X243451D01*
X230872Y183909D02*
X243427D01*
X230896Y184153D02*
X243403D01*
G54D16*
X230728Y183465D02*
X230815Y184343D01*
X243485Y184333D02*
X243571Y183465D01*
G54D19*
X230829D02*
X230896Y184153D01*
X243387Y184314D02*
X243471Y183465D01*
X231123Y181922D02*
X243177D01*
X231054Y182149D02*
X243245D01*
X230985Y182376D02*
X243314D01*
G54D16*
X231067Y181761D02*
X230814Y182596D01*
X243488Y182605D02*
X243229Y181751D01*
G54D19*
X231160Y181799D02*
X230912Y182615D01*
X243314Y182376D02*
X243177Y181922D01*
X230985Y184553D02*
X243314D01*
X231054Y184780D02*
X243245D01*
X231123Y185007D02*
X243177D01*
G54D16*
X230814Y184333D02*
X231067Y185169D01*
X243232D02*
X243488Y184324D01*
G54D19*
X230912Y184314D02*
X231160Y185130D01*
X243139D02*
X243314Y184553D01*
G54D16*
X231141Y185307D02*
X243158D01*
X231220Y185454D02*
X243080D01*
X231298Y185601D02*
X243001D01*
X231377Y185748D02*
X242923D01*
X231455Y185894D02*
X242844D01*
X231067Y185169D02*
X231479Y185938D01*
X242816Y185947D02*
X243232Y185169D01*
X231455Y181035D02*
X242844D01*
X231377Y181182D02*
X242923D01*
X231298Y181328D02*
X243001D01*
X231220Y181475D02*
X243080D01*
X231141Y181622D02*
X243158D01*
X231479Y180991D02*
X231063Y181769D01*
X243232Y181760D02*
X242816Y180982D01*
X232009Y180345D02*
X242291D01*
X231875Y180508D02*
X242425D01*
X231741Y180672D02*
X242559D01*
X231606Y180835D02*
X242693D01*
X232032Y180316D02*
X231472Y180998D01*
X242821Y180991D02*
X242261Y180308D01*
X231607Y186094D02*
X242693D01*
X231741Y186258D02*
X242559D01*
X231875Y186421D02*
X242425D01*
X232009Y186584D02*
X242291D01*
X231472Y185931D02*
X232039Y186621D01*
X242267Y186613D02*
X242821Y185938D01*
X232687Y179779D02*
X241612D01*
X232538Y179901D02*
X241761D01*
X232390Y180023D02*
X241910D01*
X232241Y180145D02*
X242058D01*
X232707Y179762D02*
X232025Y180322D01*
X242267Y180316D02*
X241584Y179756D01*
X232241Y186784D02*
X242058D01*
X232390Y186906D02*
X241910D01*
X232538Y187029D02*
X241761D01*
X232687Y187151D02*
X241612D01*
X232032Y186613D02*
X232707Y187167D01*
X241584Y187173D02*
X242274Y186607D01*
X233051Y187351D02*
X241249D01*
X233257Y187461D02*
X241042D01*
X233464Y187571D02*
X240836D01*
X232699Y187162D02*
X233486Y187583D01*
X240822Y187579D02*
X241592Y187167D01*
X233464Y179358D02*
X240836D01*
X233257Y179468D02*
X241042D01*
X233051Y179579D02*
X241249D01*
X233486Y179346D02*
X232699Y179767D01*
X241592Y179762D02*
X240822Y179351D01*
X234308Y179099D02*
X239992D01*
X234113Y179158D02*
X240186D01*
X234312Y179097D02*
X233477Y179351D01*
X240832Y179353D02*
X239977Y179094D01*
X234113Y187771D02*
X240186D01*
X234308Y187830D02*
X239992D01*
X233477Y187579D02*
X234312Y187832D01*
X239977Y187835D02*
X240832Y187576D01*
X234963Y179033D02*
X234303Y179098D01*
X239987Y179097D02*
X239336Y179033D01*
X234963D01*
X234303Y187831D02*
X234963Y187896D01*
X239336D02*
X239987Y187832D01*
X234963Y187896D02*
X239336D01*
X243493Y182676D02*
X230806D01*
X230806Y184253D02*
X243493D01*
X230850Y182476D02*
X243449D01*
X243251Y181822D02*
X231048D01*
X243449Y184453D02*
X230850D01*
G54D15*
X239338Y158419D02*
X239997Y158354D01*
X240841Y158097D01*
X241620Y157681D01*
X242302Y157121D01*
X242862Y156439D01*
X243279Y155660D01*
X243535Y154816D01*
X243621Y153937D01*
X243535Y153058D01*
X243278Y152214D01*
X242862Y151435D01*
X242302Y150753D01*
X241620Y150193D01*
X240841Y149777D01*
X239997Y149520D01*
X239338Y149456D01*
X234961D01*
X234302Y149520D01*
X233458Y149777D01*
X232679Y150193D01*
X231997Y150753D01*
X231437Y151435D01*
X231021Y152214D01*
X230764Y153058D01*
X230678Y153937D01*
X230764Y154816D01*
X231021Y155660D01*
X231437Y156439D01*
X231997Y157121D01*
X232679Y157681D01*
X233458Y158097D01*
X234303Y158354D01*
X234961Y158419D01*
X239338D01*
G54D16*
X230728Y153937D02*
X243572D01*
X230818Y154825D02*
X243481D01*
X230818Y153049D02*
X243481D01*
X230818Y153049D02*
X243481D01*
X230818Y154825D02*
X243481D01*
X231086Y155680D02*
X243213D01*
X231522Y156467D02*
X242777D01*
X231086Y152194D02*
X243213D01*
X231086Y152194D02*
X243213D01*
X231522Y151407D02*
X242777D01*
X231522Y151407D02*
X242777D01*
X231522Y156467D02*
X242777D01*
X232116Y157157D02*
X242183D01*
X232117Y157157D02*
X242183D01*
X232117Y150717D02*
X242183D01*
X232117Y150717D02*
X242183D01*
X232860Y157723D02*
X241439D01*
X232860Y157723D02*
X241439D01*
X232860Y150151D02*
X241439D01*
X233778Y158144D02*
X240522D01*
X232860Y150151D02*
X241439D01*
X233778Y158144D02*
X240521D01*
X233778Y149730D02*
X240522D01*
X233778Y149730D02*
X240521D01*
G54D19*
X230896Y153249D02*
X243403D01*
X230872Y153493D02*
X243427D01*
X230848Y153737D02*
X243451D01*
G54D16*
X230815Y153058D02*
X230728Y153937D01*
X243571D02*
X243485Y153068D01*
G54D19*
X230896Y153249D02*
X230829Y153937D01*
X243471D02*
X243387Y153088D01*
X230848Y154137D02*
X243451D01*
X230872Y154381D02*
X243427D01*
X230896Y154625D02*
X243403D01*
G54D16*
X230728Y153937D02*
X230815Y154816D01*
X243485Y154806D02*
X243571Y153937D01*
G54D19*
X230829D02*
X230896Y154625D01*
X243387Y154786D02*
X243471Y153937D01*
X231123Y152394D02*
X243177D01*
X231054Y152622D02*
X243245D01*
X230985Y152849D02*
X243314D01*
G54D16*
X231067Y152233D02*
X230814Y153068D01*
X243488Y153078D02*
X243229Y152224D01*
G54D19*
X231160Y152271D02*
X230912Y153088D01*
X243314Y152849D02*
X243177Y152394D01*
X230985Y155025D02*
X243314D01*
X231054Y155252D02*
X243245D01*
X231123Y155480D02*
X243177D01*
G54D16*
X230814Y154806D02*
X231067Y155641D01*
X243232D02*
X243488Y154796D01*
G54D19*
X230912Y154786D02*
X231160Y155603D01*
X243139D02*
X243314Y155025D01*
G54D16*
X231141Y155780D02*
X243158D01*
X231220Y155926D02*
X243080D01*
X231298Y156073D02*
X243001D01*
X231377Y156220D02*
X242923D01*
X231455Y156367D02*
X242844D01*
X231067Y155641D02*
X231479Y156411D01*
X242816Y156420D02*
X243232Y155641D01*
X231455Y151507D02*
X242844D01*
X231377Y151654D02*
X242923D01*
X231298Y151801D02*
X243001D01*
X231220Y151948D02*
X243080D01*
X231141Y152094D02*
X243158D01*
X231479Y151463D02*
X231063Y152242D01*
X243232Y152233D02*
X242816Y151454D01*
X232009Y150817D02*
X242291D01*
X231875Y150981D02*
X242425D01*
X231741Y151144D02*
X242559D01*
X231606Y151307D02*
X242693D01*
X232032Y150788D02*
X231472Y151471D01*
X242821Y151463D02*
X242261Y150781D01*
X231607Y156567D02*
X242693D01*
X231741Y156730D02*
X242559D01*
X231875Y156893D02*
X242425D01*
X232009Y157057D02*
X242291D01*
X231472Y156403D02*
X232039Y157093D01*
X242267Y157086D02*
X242821Y156411D01*
X232687Y150251D02*
X241612D01*
X232538Y150373D02*
X241761D01*
X232390Y150495D02*
X241910D01*
X232241Y150617D02*
X242058D01*
X232707Y150235D02*
X232025Y150795D01*
X242267Y150788D02*
X241584Y150228D01*
X232241Y157257D02*
X242058D01*
X232390Y157379D02*
X241910D01*
X232538Y157501D02*
X241761D01*
X232687Y157623D02*
X241612D01*
X232032Y157086D02*
X232707Y157639D01*
X241584Y157646D02*
X242274Y157079D01*
X233051Y157823D02*
X241249D01*
X233257Y157933D02*
X241042D01*
X233464Y158044D02*
X240836D01*
X232699Y157635D02*
X233486Y158056D01*
X240822Y158051D02*
X241592Y157640D01*
X233464Y149830D02*
X240836D01*
X233257Y149941D02*
X241042D01*
X233051Y150051D02*
X241249D01*
X233486Y149818D02*
X232699Y150239D01*
X241592Y150235D02*
X240822Y149823D01*
X234308Y149571D02*
X239992D01*
X234113Y149630D02*
X240186D01*
X234312Y149570D02*
X233477Y149823D01*
X240832Y149826D02*
X239977Y149567D01*
X234113Y158244D02*
X240186D01*
X234308Y158303D02*
X239992D01*
X233477Y158051D02*
X234312Y158304D01*
X239977Y158307D02*
X240832Y158048D01*
X234963Y149506D02*
X234303Y149571D01*
X239987Y149570D02*
X239336Y149506D01*
X234963D01*
X234303Y158303D02*
X234963Y158369D01*
X239336D02*
X239987Y158304D01*
X234963Y158369D02*
X239336D01*
X243493Y153149D02*
X230806D01*
X230806Y154725D02*
X243493D01*
X230850Y152949D02*
X243449D01*
X243251Y152294D02*
X231048D01*
X243449Y154925D02*
X230850D01*
G54D15*
X273832Y161379D02*
X274520Y161311D01*
X275401Y161044D01*
X276214Y160610D01*
X276926Y160025D01*
X277511Y159312D01*
X277946Y158500D01*
X278213Y157618D01*
X278303Y156701D01*
X278213Y155784D01*
X277946Y154902D01*
X277511Y154089D01*
X276926Y153377D01*
X276214Y152792D01*
X275401Y152358D01*
X274520Y152090D01*
X273832Y152022D01*
X267467D01*
X266780Y152090D01*
X265898Y152358D01*
X265085Y152792D01*
X264373Y153377D01*
X263788Y154089D01*
X263354Y154902D01*
X263086Y155784D01*
X262996Y156701D01*
X263086Y157618D01*
X263354Y158500D01*
X263788Y159313D01*
X264373Y160025D01*
X265085Y160610D01*
X265898Y161044D01*
X266780Y161311D01*
X267467Y161379D01*
X273832D01*
G54D16*
X263140Y157628D02*
X278159D01*
X263046Y156701D02*
X278254D01*
X263046Y156701D02*
X278254D01*
X263140Y157628D02*
X278159D01*
X263140Y155774D02*
X278159D01*
X263419Y158519D02*
X277880D01*
X263140Y155774D02*
X278159D01*
X263419Y154883D02*
X277880D01*
X263419Y158519D02*
X277880D01*
X263874Y159340D02*
X277426D01*
X263874Y154061D02*
X277426D01*
X263874Y159340D02*
X277426D01*
X263874Y154061D02*
X277426D01*
X264492Y160060D02*
X276807D01*
X264492Y153341D02*
X276807D01*
X264492Y160060D02*
X276807D01*
X265266Y160651D02*
X276033D01*
X264492Y153341D02*
X276807D01*
X265266Y160651D02*
X276033D01*
X265266Y152750D02*
X276033D01*
X266218Y161090D02*
X275081D01*
X265266Y152750D02*
X276033D01*
X266218Y152311D02*
X275081D01*
X266218Y161090D02*
X275081D01*
X266218Y152311D02*
X275081D01*
G54D19*
X263166Y156901D02*
X278133D01*
X263192Y157164D02*
X278107D01*
X263218Y157428D02*
X278081D01*
G54D16*
X263046Y156701D02*
X263136Y157618D01*
X278164Y157608D02*
X278254Y156691D01*
G54D19*
X263147Y156701D02*
X263218Y157428D01*
X278065Y157589D02*
X278133Y156901D01*
X263218Y155974D02*
X278081D01*
X263192Y156237D02*
X278107D01*
X263166Y156501D02*
X278133D01*
G54D16*
X263135Y155793D02*
X263045Y156711D01*
X278253Y156701D02*
X278163Y155784D01*
G54D19*
X263234Y155813D02*
X263166Y156501D01*
X278153Y156701D02*
X278081Y155974D01*
X263307Y157828D02*
X277993D01*
X263381Y158073D02*
X277918D01*
X263456Y158319D02*
X277844D01*
G54D16*
X263135Y157608D02*
X263403Y158490D01*
X277899Y158481D02*
X278167Y157599D01*
G54D19*
X263234Y157589D02*
X263456Y158319D01*
X277806Y158442D02*
X277993Y157828D01*
X263456Y155083D02*
X277844D01*
X263381Y155328D02*
X277918D01*
X263307Y155574D02*
X277993D01*
G54D16*
X263400Y154921D02*
X263133Y155803D01*
X278164Y155793D02*
X277899Y154921D01*
G54D19*
X263493Y154959D02*
X263307Y155574D01*
X278065Y155813D02*
X277806Y154959D01*
X263866Y154261D02*
X277433D01*
X263754Y154472D02*
X277546D01*
X263641Y154683D02*
X277658D01*
G54D16*
X263830Y154117D02*
X263400Y154921D01*
X277899D02*
X277465Y154108D01*
G54D19*
X263913Y154173D02*
X263493Y154959D01*
X277806D02*
X277433Y154261D01*
X263641Y158719D02*
X277658D01*
X263754Y158930D02*
X277546D01*
X263866Y159140D02*
X277433D01*
G54D16*
X263400Y158481D02*
X263835Y159293D01*
X277469Y159285D02*
X277904Y158472D01*
G54D19*
X263493Y158442D02*
X263866Y159140D01*
X277386Y159229D02*
X277658Y158719D01*
G54D16*
X264385Y153441D02*
X276915D01*
X264242Y153615D02*
X277057D01*
X264100Y153788D02*
X277199D01*
X263958Y153961D02*
X277341D01*
X264408Y153412D02*
X263824Y154125D01*
X277469Y154117D02*
X276885Y153405D01*
X263958Y159440D02*
X277341D01*
X264100Y159614D02*
X277199D01*
X264242Y159787D02*
X277057D01*
X264385Y159960D02*
X276915D01*
X263830Y159285D02*
X264415Y159997D01*
X276891Y159989D02*
X277476Y159277D01*
X264617Y160160D02*
X276683D01*
X264775Y160291D02*
X276524D01*
X264934Y160421D02*
X276365D01*
X265093Y160551D02*
X276206D01*
X264408Y159989D02*
X265121Y160574D01*
X276186Y160568D02*
X276899Y159983D01*
X265093Y152850D02*
X276206D01*
X264934Y152981D02*
X276365D01*
X264775Y153111D02*
X276524D01*
X264617Y153241D02*
X276683D01*
X265113Y152834D02*
X264401Y153418D01*
X276891Y153412D02*
X276179Y152828D01*
X265456Y160751D02*
X275843D01*
X265680Y160871D02*
X275619D01*
X265904Y160990D02*
X275396D01*
X265113Y160568D02*
X265926Y161002D01*
X275382Y160998D02*
X276195Y160563D01*
X265904Y152411D02*
X275396D01*
X265680Y152531D02*
X275619D01*
X265456Y152650D02*
X275843D01*
X265917Y152404D02*
X265104Y152838D01*
X276186Y152834D02*
X275373Y152399D01*
X266553Y161190D02*
X274746D01*
X266785Y161261D02*
X274514D01*
X265917Y160998D02*
X266790Y161262D01*
X274510D02*
X275392Y160995D01*
X266785Y152141D02*
X274514D01*
X266553Y152211D02*
X274746D01*
X266789Y152139D02*
X265908Y152407D01*
X275382Y152404D02*
X274500Y152137D01*
X266790Y161262D02*
X267470Y161329D01*
X273830D02*
X274510Y161262D01*
X267470Y161329D02*
X273830D01*
X267470Y152072D02*
X266780Y152140D01*
X274510Y152139D02*
X273830Y152072D01*
X267470D01*
X263128Y157528D02*
X278172D01*
X278243Y156801D02*
X263056D01*
Y156601D02*
X278243D01*
X278172Y155874D02*
X263128D01*
X263381Y158419D02*
X277918D01*
X278127Y157728D02*
X263172D01*
X263172Y155674D02*
X278127D01*
X277493Y154161D02*
X263806D01*
Y159240D02*
X277493D01*
X277825Y158619D02*
X263474D01*
G54D27*
X233150Y94701D02*
X279150D01*
X281150Y92701D01*
X283150D01*
Y107701D01*
X241150D01*
X233150Y105701D01*
Y94701D01*
G54D28*
X0Y0D02*
X314961D01*
Y196850D02*
Y0D01*
X0Y196850D02*
X314961D01*
X0D02*
Y0D01*
G54D29*
X227039Y8465D02*
Y10937D01*
G54D30*
X224673Y6154D02*
Y13248D01*
X229406Y6154D02*
Y13248D01*
G54D29*
X213260Y8465D02*
Y10937D01*
G54D30*
X210894Y6154D02*
Y13248D01*
X215626Y6154D02*
Y13248D01*
G54D31*
X184953Y67433D02*
X185346D01*
G54D32*
X180760Y71823D02*
X189539D01*
X180760Y63043D02*
X189539D01*
G54D31*
X184953Y83969D02*
X185346D01*
G54D32*
X180760Y88358D02*
X189539D01*
X180760Y79579D02*
X189539D01*
G54D33*
X149953Y87701D02*
X150346D01*
G54D32*
X146941Y90909D02*
X153358D01*
X146941Y84492D02*
X153358D01*
G54D34*
X170150Y87701D03*
X160150Y97701D03*
G54D35*
X202150Y46465D02*
Y48937D01*
G54D30*
X197618Y41988D02*
Y53413D01*
X206681Y41988D02*
Y53413D01*
G54D36*
X192150Y46500D02*
Y48902D01*
G54D37*
X269953Y22701D02*
X270346D01*
G54D32*
X266547Y26303D02*
X273752D01*
X266547Y19098D02*
X273752D01*
G54D38*
X270150Y32543D03*
G54D39*
X19685Y19685D03*
X295276D03*
X177165Y177165D03*
G54D40*
X76150Y153654D02*
Y159748D01*
G54D30*
X71461Y149020D02*
Y164382D01*
X80839Y149020D02*
Y164382D01*
G54D41*
X56150Y153687D02*
Y159715D01*
G54D42*
X110654Y184035D02*
Y185366D01*
G54D30*
X107776Y181213D02*
Y188189D01*
X113531Y181213D02*
Y188189D01*
G54D42*
X103646Y184035D02*
Y185366D01*
G54D30*
X100768Y181213D02*
Y188189D01*
X106524Y181213D02*
Y188189D01*
G54D42*
X97654Y141035D02*
Y142366D01*
G54D30*
X94776Y138213D02*
Y145189D01*
X100531Y138213D02*
Y145189D01*
G54D42*
X90646Y141035D02*
Y142366D01*
G54D30*
X87768Y138213D02*
Y145189D01*
X93524Y138213D02*
Y145189D01*
G54D42*
X108646Y141035D02*
Y142366D01*
G54D30*
X105768Y138213D02*
Y145189D01*
X111524Y138213D02*
Y145189D01*
G54D42*
X115654Y141035D02*
Y142366D01*
G54D30*
X112776Y138213D02*
Y145189D01*
X118531Y138213D02*
Y145189D01*
G54D42*
X128646Y182035D02*
Y183366D01*
G54D30*
X125768Y179213D02*
Y186189D01*
X131524Y179213D02*
Y186189D01*
G54D42*
X135654Y182035D02*
Y183366D01*
G54D30*
X132776Y179213D02*
Y186189D01*
X138531Y179213D02*
Y186189D01*
G54D42*
X127646Y171035D02*
Y172366D01*
G54D30*
X124768Y168213D02*
Y175189D01*
X130524Y168213D02*
Y175189D01*
G54D42*
X134654Y171035D02*
Y172366D01*
G54D30*
X131776Y168213D02*
Y175189D01*
X137531Y168213D02*
Y175189D01*
G54D42*
X122150Y141035D02*
Y142366D01*
G54D30*
X119272Y138213D02*
Y145189D01*
X125028Y138213D02*
Y145189D01*
G54D42*
X129157Y141035D02*
Y142366D01*
G54D30*
X126280Y138213D02*
Y145189D01*
X132035Y138213D02*
Y145189D01*
G54D43*
X106150Y173484D02*
Y175760D01*
G54D30*
X104177Y171567D02*
Y177677D01*
X108122Y171567D02*
Y177677D01*
G54D43*
X109890Y163642D02*
Y165917D01*
G54D30*
X107917Y161724D02*
Y167835D01*
X111862Y161724D02*
Y167835D01*
G54D43*
X102409Y163642D02*
Y165917D01*
G54D30*
X100437Y161724D02*
Y167835D01*
X104382Y161724D02*
Y167835D01*
G54D43*
X133150Y158484D02*
Y160760D01*
G54D30*
X131177Y156567D02*
Y162677D01*
X135122Y156567D02*
Y162677D01*
G54D43*
X136890Y148642D02*
Y150917D01*
G54D30*
X134917Y146724D02*
Y152835D01*
X138862Y146724D02*
Y152835D01*
G54D43*
X129409Y148642D02*
Y150917D01*
G54D30*
X127437Y146724D02*
Y152835D01*
X131382Y146724D02*
Y152835D01*
G54D42*
X99142Y152035D02*
Y153366D01*
G54D30*
X96264Y149213D02*
Y156189D01*
X102020Y149213D02*
Y156189D01*
G54D42*
X106150Y152035D02*
Y153366D01*
G54D30*
X103272Y149213D02*
Y156189D01*
X109028Y149213D02*
Y156189D01*
G54D44*
X206446Y95135D02*
Y99182D01*
G54D30*
X203489Y92233D02*
Y102083D01*
X209403Y92233D02*
Y102083D01*
G54D45*
X197150Y123661D02*
Y125740D01*
G54D30*
X184744Y111311D02*
Y138091D01*
X209555Y111311D02*
Y138091D01*
G54D44*
X187853Y95118D02*
Y99165D01*
G54D30*
X184897Y92217D02*
Y102067D01*
X190810Y92217D02*
Y102067D01*
G54D43*
X127933Y123701D02*
X130209D01*
G54D30*
X126016Y125673D02*
X132126D01*
X126016Y121728D02*
X132126D01*
G54D43*
X118091Y119961D02*
X120366D01*
G54D30*
X116173Y121933D02*
X122283D01*
X116173Y117988D02*
X122283D01*
G54D43*
X118091Y127441D02*
X120366D01*
G54D30*
X116173Y129413D02*
X122283D01*
X116173Y125469D02*
X122283D01*
G54D31*
X250953Y22433D02*
X251346D01*
G54D32*
X246760Y26823D02*
X255539D01*
X246760Y18043D02*
X255539D01*
G54D31*
X250953Y38969D02*
X251346D01*
G54D32*
X246760Y43358D02*
X255539D01*
X246760Y34579D02*
X255539D01*
G54D43*
X141150Y122484D02*
Y124760D01*
G54D30*
X139177Y120567D02*
Y126677D01*
X143122Y120567D02*
Y126677D01*
G54D43*
X144890Y112642D02*
Y114917D01*
G54D30*
X142917Y110724D02*
Y116835D01*
X146862Y110724D02*
Y116835D01*
G54D43*
X137409Y112642D02*
Y114917D01*
G54D30*
X135437Y110724D02*
Y116835D01*
X139382Y110724D02*
Y116835D01*
G54D46*
X98213Y46201D02*
X102559D01*
X98213Y41201D02*
X102559D01*
X98213Y36201D02*
X102559D01*
X98213Y31201D02*
X102559D01*
X77740D02*
X82087D01*
X77740Y36201D02*
X82087D01*
X77740Y41201D02*
X82087D01*
X77740Y46201D02*
X82087D01*
X90650Y106764D02*
Y111110D01*
X95650Y106764D02*
Y111110D01*
X100650Y106764D02*
Y111110D01*
X105650Y106764D02*
Y111110D01*
Y86291D02*
Y90638D01*
X100650Y86291D02*
Y90638D01*
X95650Y86291D02*
Y90638D01*
X90650Y86291D02*
Y90638D01*
X226055Y25488D02*
Y30228D01*
X214244Y25488D02*
Y30228D01*
G54D40*
X148150Y37654D02*
Y43748D01*
G54D30*
X143461Y33020D02*
Y48382D01*
X152839Y33020D02*
Y48382D01*
G54D41*
X168150Y37687D02*
Y43715D01*
G54D47*
X18150Y59331D03*
Y79016D03*
Y98701D03*
X37835Y59331D03*
Y79016D03*
Y98701D03*
G54D42*
X107484Y127205D02*
X108815D01*
G54D30*
X104661Y130083D02*
X111638D01*
X104661Y124327D02*
X111638D01*
G54D42*
X107484Y120197D02*
X108815D01*
G54D30*
X104661Y123075D02*
X111638D01*
X104661Y117319D02*
X111638D01*
G54D42*
X94484Y120701D02*
X95815D01*
G54D30*
X91661Y123579D02*
X98638D01*
X91661Y117823D02*
X98638D01*
G54D42*
X94484Y127709D02*
X95815D01*
G54D30*
X91661Y130587D02*
X98638D01*
X91661Y124831D02*
X98638D01*
G54D42*
X134646Y70035D02*
Y71366D01*
G54D30*
X131768Y67213D02*
Y74189D01*
X137524Y67213D02*
Y74189D01*
G54D42*
X141654Y70035D02*
Y71366D01*
G54D30*
X138776Y67213D02*
Y74189D01*
X144531Y67213D02*
Y74189D01*
G54D42*
X148484Y56197D02*
X149815D01*
G54D30*
X145661Y59075D02*
X152638D01*
X145661Y53319D02*
X152638D01*
G54D42*
X148484Y63205D02*
X149815D01*
G54D30*
X145661Y66083D02*
X152638D01*
X145661Y60327D02*
X152638D01*
G54D42*
X65484Y37197D02*
X66815D01*
G54D30*
X62661Y40075D02*
X69638D01*
X62661Y34319D02*
X69638D01*
G54D42*
X65484Y44205D02*
X66815D01*
G54D30*
X62661Y47083D02*
X69638D01*
X62661Y41327D02*
X69638D01*
G54D42*
X113484Y41197D02*
X114815D01*
G54D30*
X110661Y44075D02*
X117638D01*
X110661Y38319D02*
X117638D01*
G54D42*
X113484Y48205D02*
X114815D01*
G54D30*
X110661Y51083D02*
X117638D01*
X110661Y45327D02*
X117638D01*
G54D42*
X157484Y120197D02*
X158815D01*
G54D30*
X154661Y123075D02*
X161638D01*
X154661Y117319D02*
X161638D01*
G54D42*
X157484Y127205D02*
X158815D01*
G54D30*
X154661Y130083D02*
X161638D01*
X154661Y124327D02*
X161638D01*
G54D42*
X12646Y133035D02*
Y134366D01*
G54D30*
X9768Y130213D02*
Y137189D01*
X15524Y130213D02*
Y137189D01*
G54D42*
X19654Y133035D02*
Y134366D01*
G54D30*
X16776Y130213D02*
Y137189D01*
X22531Y130213D02*
Y137189D01*
G54D42*
X130646Y105035D02*
Y106366D01*
G54D30*
X127768Y102213D02*
Y109189D01*
X133524Y102213D02*
Y109189D01*
G54D42*
X137654Y105035D02*
Y106366D01*
G54D30*
X134776Y102213D02*
Y109189D01*
X140531Y102213D02*
Y109189D01*
G54D42*
X114157Y76035D02*
Y77366D01*
G54D30*
X111280Y73213D02*
Y80189D01*
X117035Y73213D02*
Y80189D01*
G54D42*
X107150Y76035D02*
Y77366D01*
G54D30*
X104272Y73213D02*
Y80189D01*
X110028Y73213D02*
Y80189D01*
G54D42*
X99150Y76035D02*
Y77366D01*
G54D30*
X96272Y73213D02*
Y80189D01*
X102028Y73213D02*
Y80189D01*
G54D42*
X92142Y76035D02*
Y77366D01*
G54D30*
X89264Y73213D02*
Y80189D01*
X95020Y73213D02*
Y80189D01*
G54D43*
X76150Y112642D02*
Y114917D01*
G54D30*
X74177Y110724D02*
Y116835D01*
X78122Y110724D02*
Y116835D01*
G54D43*
X72409Y122484D02*
Y124760D01*
G54D30*
X70437Y120567D02*
Y126677D01*
X74382Y120567D02*
Y126677D01*
G54D43*
X79890Y122484D02*
Y124760D01*
G54D30*
X77917Y120567D02*
Y126677D01*
X81862Y120567D02*
Y126677D01*
G54D43*
X136933Y90701D02*
X139209D01*
G54D30*
X135016Y92673D02*
X141126D01*
X135016Y88728D02*
X141126D01*
G54D43*
X127091Y86961D02*
X129366D01*
G54D30*
X125173Y88933D02*
X131283D01*
X125173Y84988D02*
X131283D01*
G54D43*
X127091Y94441D02*
X129366D01*
G54D30*
X125173Y96413D02*
X131283D01*
X125173Y92469D02*
X131283D01*
G54D48*
X267642Y126701D02*
X273657D01*
G54D30*
X262969Y131429D02*
X278331D01*
X262969Y121972D02*
X278331D01*
G54D48*
X268142Y57701D02*
X274157D01*
G54D30*
X263469Y62429D02*
X278831D01*
X263469Y52972D02*
X278831D01*
G54D49*
X127150Y30961D02*
Y32055D01*
G54D30*
X124587Y28453D02*
Y34563D01*
X129713Y28453D02*
Y34563D01*
G54D49*
X127150Y19346D02*
Y20441D01*
G54D30*
X124587Y16839D02*
Y22949D01*
X129713Y16839D02*
Y22949D01*
G54D49*
X117150Y19346D02*
Y20441D01*
G54D30*
X114587Y16839D02*
Y22949D01*
X119713Y16839D02*
Y22949D01*
G54D49*
X117150Y30961D02*
Y32055D01*
G54D30*
X114587Y28453D02*
Y34563D01*
X119713Y28453D02*
Y34563D01*
G54D50*
X11953Y153701D02*
X12346D01*
G54D32*
X8154Y157697D02*
X16146D01*
X8154Y149705D02*
X16146D01*
G54D51*
X12150Y143701D03*
G54D42*
X167654Y56035D02*
Y57366D01*
G54D30*
X164776Y53213D02*
Y60189D01*
X170531Y53213D02*
Y60189D01*
G54D42*
X160646Y56035D02*
Y57366D01*
G54D30*
X157768Y53213D02*
Y60189D01*
X163524Y53213D02*
Y60189D01*
G54D42*
X93646Y19035D02*
Y20366D01*
G54D30*
X90768Y16213D02*
Y23189D01*
X96524Y16213D02*
Y23189D01*
G54D42*
X100654Y19035D02*
Y20366D01*
G54D30*
X97776Y16213D02*
Y23189D01*
X103531Y16213D02*
Y23189D01*
G54D42*
X114150Y66035D02*
Y67366D01*
G54D30*
X111272Y63213D02*
Y70189D01*
X117028Y63213D02*
Y70189D01*
G54D42*
X107142Y66035D02*
Y67366D01*
G54D30*
X104264Y63213D02*
Y70189D01*
X110020Y63213D02*
Y70189D01*
G54D42*
X80484Y105205D02*
X81815D01*
G54D30*
X77661Y108083D02*
X84638D01*
X77661Y102327D02*
X84638D01*
G54D42*
X80484Y98197D02*
X81815D01*
G54D30*
X77661Y101075D02*
X84638D01*
X77661Y95319D02*
X84638D01*
G54D42*
X200484Y22197D02*
X201815D01*
G54D30*
X197661Y25075D02*
X204638D01*
X197661Y19319D02*
X204638D01*
G54D42*
X200484Y29205D02*
X201815D01*
G54D30*
X197661Y32083D02*
X204638D01*
X197661Y26327D02*
X204638D01*
G54D42*
X238484Y26205D02*
X239815D01*
G54D30*
X235661Y29083D02*
X242638D01*
X235661Y23327D02*
X242638D01*
G54D42*
X238484Y19197D02*
X239815D01*
G54D30*
X235661Y22075D02*
X242638D01*
X235661Y16319D02*
X242638D01*
G54D39*
X19685Y177165D03*
G54D52*
X58150Y80201D03*
X65150Y85701D03*
X69724Y111201D03*
X74150Y128701D03*
X74248Y49701D03*
X81150Y92701D03*
X82150Y85701D03*
X84150Y112701D03*
X87150Y19701D03*
X91150Y29701D03*
X91150Y45701D03*
X103150Y137850D03*
X105150Y96701D03*
X110150Y159701D03*
Y88701D03*
X114150Y120701D03*
X116150Y181701D03*
Y148701D03*
X117150Y161701D03*
X120150Y76701D03*
Y66701D03*
X123150Y154701D03*
Y86701D03*
X131150Y60701D03*
X138150Y78201D03*
X144150Y55701D03*
X150150Y130780D03*
Y123630D03*
X156150Y114701D03*
X185650Y143701D03*
Y137201D03*
Y130701D03*
Y124201D03*
Y117701D03*
Y110701D03*
X193150Y143701D03*
Y137201D03*
Y130701D03*
Y124201D03*
Y117701D03*
Y110701D03*
X198150Y88701D03*
Y82008D03*
Y75315D03*
Y68622D03*
X199650Y143701D03*
Y137201D03*
Y130701D03*
Y124201D03*
Y117701D03*
Y110701D03*
X204843Y88701D03*
Y82008D03*
Y75315D03*
Y68622D03*
X206650Y143701D03*
Y137201D03*
Y130701D03*
Y124201D03*
Y117701D03*
Y110701D03*
X211535Y88701D03*
Y82008D03*
Y75315D03*
Y68622D03*
X214150Y143701D03*
Y137201D03*
Y130701D03*
Y124261D03*
Y117701D03*
Y110701D03*
X218228Y88701D03*
Y82008D03*
Y75315D03*
Y68622D03*
X224921Y88701D03*
Y82008D03*
Y75315D03*
Y68622D03*
X169068Y181841D03*
Y172490D03*
X177165Y186516D03*
Y167815D03*
X185263Y181841D03*
Y172490D03*
X11587Y24360D03*
Y15010D03*
X19685Y29035D03*
Y10335D03*
X27783Y24360D03*
Y15010D03*
X287178Y24360D03*
Y15010D03*
X295276Y29035D03*
Y10335D03*
X303373Y24360D03*
Y15010D03*
X11587Y181841D03*
Y172490D03*
X19685Y186516D03*
Y167815D03*
X27783Y181841D03*
Y172490D03*
G54D53*
X150150Y87701D03*
X160150Y97701D03*
X170150Y87701D03*
G54D54*
X201650Y14701D03*
X211650Y49701D03*
X219921Y19685D03*
X220150Y49701D03*
X239150Y33701D03*
X289650Y92701D03*
Y75201D03*
Y58701D03*
G54D55*
X270150Y32543D03*
Y22701D03*
G54D56*
X12150Y153701D03*
Y143701D03*
G54D57*
X192150Y47701D03*
X202150D03*
G54D58*
X18150Y98701D03*
Y79016D03*
Y59331D03*
X37835Y98701D03*
Y79016D03*
Y59331D03*
G54D59*
X56150Y156701D03*
X76150D03*
X270650D03*
Y126701D03*
X148150Y40701D03*
X168150D03*
X271150Y87701D03*
Y57701D03*
G54D60*
X177165Y177165D03*
X19685Y19685D03*
X295276D03*
X19685Y177165D03*
G54D61*
X239118Y183465D02*
X235181D01*
X239118Y153937D02*
X235181D01*
X239118Y87008D02*
X235181D01*
X239118Y57480D02*
X235181D01*
M02*
